<?xml version="1.0" encoding="utf-8"?>
<!-- Generator: Adobe Illustrator 22.1.0, SVG Export Plug-In . SVG Version: 6.00 Build 0)  -->
<svg version="1.1" id="Layer_1" xmlns="http://www.w3.org/2000/svg" xmlns:xlink="http://www.w3.org/1999/xlink" x="0px" y="0px"
	 viewBox="0 0 408.1 105.8" style="enable-background:new 0 0 408.1 105.8;" xml:space="preserve">
<style type="text/css">
	.st0{fill:#231F20;}
</style>
<title>Asset 1</title>
<g id="Layer_2_1_">
	<g id="Layer_1-2">
		<path class="st0" d="M139.6,38.9C133.9,16.6,114.4,0,91,0S47.9,16.6,42.1,38.9h27.3c6.4-19.1,27.1-29.3,46.2-22.9
			c10.8,3.6,19.3,12.1,22.9,22.9H139.6z"/>
		<path class="st0" d="M42.1,42.8C47.9,65.1,67.7,81.7,91,81.7s42.8-16.6,48.6-38.9h-27.3c-5,14.8-18.9,24.8-34.5,24.8
			c-15.8,0-29.1-10.1-34.2-24.8H42.1z"/>
		<path class="st0" d="M74.8,41c-0.2-9,6.9-16.4,15.9-16.5c0.1,0,0.2,0,0.3,0c8.6,0,15.8,7.2,15.8,16.6c0,9-7.2,16.5-15.8,16.5
			C82,57.4,74.8,50,74.8,41z M82.8,41c0,4.5,3.7,8.2,8.2,8.3c4.3,0,7.9-4,7.9-8.3c0-4.5-3.6-8.1-8.1-8.1
			C86.4,32.9,82.7,36.5,82.8,41C82.7,41,82.7,41,82.8,41L82.8,41z"/>
		<path class="st0" d="M10.1,94.3c0.1,1.3-0.4,2.5-1.4,3.2c-0.7,0.4-1.4,0.4-3.6,0.4H4V91h1.8c1.4,0,2.2,0.4,2.9,0.4
			C9.6,92,10.1,93.1,10.1,94.3L10.1,94.3z M12.2,94.3c0.1-1.4-0.4-2.7-1.4-3.6C9.4,90.2,7.9,90,6.5,90H0v0.7L1.8,91v13.3H0v1.1h6.5
			v-1.1H4V99h1.8c2.9,0,4,0,5.1-1.1C11.9,97.2,12.2,96.1,12.2,94.3L12.2,94.3z"/>
		<path class="st0" d="M28.1,93.9c0,1.1-0.6,2.2-1.5,2.9c-0.7,0.4-1.4,0.4-3.6,0.4h-0.7V91h1.4c1-0.1,2,0,2.9,0.4
			C27.5,91.9,28.1,92.8,28.1,93.9L28.1,93.9z M32.7,105.4v-1.1H31l-1.1-2.5c-1.1-2.5-1.8-3.6-2.5-4l1.4-0.7c1.8-1.6,1.9-4.4,0.3-6.2
			c-0.1-0.1-0.2-0.2-0.3-0.3c-1.4-0.5-2.9-0.7-4.4-0.6h-6.1v0.7l1.8,0.4v13.3h-1.8v1.1h6.1v-1.1h-2.2v-6.2h1.4
			c1-0.1,1.9,0.3,2.5,1.1c0.6,0.8,1.1,1.6,1.4,2.5l1.4,3.6L32.7,105.4z"/>
		<polygon class="st0" points="50.4,105.4 50.4,102.6 49.3,102.6 48.9,104.3 42.8,104.3 42.8,97.9 47.8,97.9 48.2,99.7 48.9,99.7 
			48.9,95 48.2,95 47.8,96.8 42.8,96.8 42.8,91.1 48.9,91.1 49.3,92.8 50.4,92.8 50.4,90 38.5,90 38.5,90.7 40.7,91.1 40.7,104.3 
			38.5,104.3 38.5,105.4 50.4,105.4 		"/>
		<path class="st0" d="M66.9,94.3c0,1.2-0.5,2.4-1.4,3.2c-0.7,0.4-1.4,0.4-3.6,0.4h-1.1V91h1.8c0.8,0,1.7,0.2,2.5,0.4
			C66.3,91.8,67,93,66.9,94.3L66.9,94.3z M69.1,94.3c0-1.4-0.4-2.9-1.8-3.6c-1.3-0.6-2.6-0.8-4-0.7h-6.4v0.7l1.8,0.4v13.3h-1.8v1.1
			h6.5v-1.1h-2.5V99h1.4c2.9,0,4,0,5-1.1C68.5,97.1,69.1,95.8,69.1,94.3L69.1,94.3z"/>
		<path class="st0" d="M82.8,99.3H77l2.9-7.6L82.8,99.3L82.8,99.3z M88.9,105.4v-1.1h-2.2L81.3,90h-2.2l-5.4,14.4h-2.2v1.1H77v-1.1
			h-1.8l1.4-3.9h6.5l1.4,3.9h-1.8v1.1L88.9,105.4z"/>
		<path class="st0" d="M104.4,93.9c0,1.1-0.6,2.2-1.4,2.9c-0.7,0.4-1.4,0.4-3.6,0.4h-0.7V91h1.4c1-0.1,2,0,2.9,0.4
			C103.8,91.9,104.3,92.9,104.4,93.9L104.4,93.9z M109,105.4v-1.1h-2.2l-0.7-2.5c-1.1-2.5-1.8-3.6-2.5-4c0.4-0.2,0.8-0.4,1.1-0.7
			c1.1-0.7,1.8-1.9,1.8-3.2c0.1-1.3-0.4-2.5-1.4-3.2c-1.4-0.5-2.8-0.8-4.3-0.7h-6.1v0.7l1.8,0.4v13.3h-1.8v1.1h6.1v-1.1h-2.2v-6.1
			h1.1c1.1-0.1,2.1,0.3,2.9,1.1c0.6,0.8,1.1,1.6,1.4,2.5l1.4,3.6L109,105.4z"/>
		<path class="st0" d="M124.9,99.3h-5.8l2.9-7.6L124.9,99.3L124.9,99.3z M131,105.4v-1.1h-2.1L123.4,90h-2.2l-5.4,14.4h-2.2v1.1h5.8
			v-1.1h-2.2l1.4-3.9h6.5l1.4,3.9h-1.8v1.1L131,105.4z"/>
		<polygon class="st0" points="146.8,92.8 146.8,90 134.2,90 134.2,92.8 135.3,92.8 135.7,91.1 139.2,91.1 139.2,104.3 137.5,104.3 
			137.5,105.4 143.6,105.4 143.6,104.3 141.4,104.3 141.4,91.1 145.4,91.1 145.7,92.8 146.8,92.8 		"/>
		<path class="st0" d="M163.4,97.9c0,4.3-1.4,6.5-4.7,6.5c-2.9,0-4.3-2.2-4.3-6.8c0-4.3,1.4-6.5,4.3-6.5
			C161.9,91,163.4,93.2,163.4,97.9z M165.5,97.9c0-5.4-2.5-8.3-6.8-8.3c-4,0-6.5,2.9-6.5,7.9c0,5.4,2.5,8.3,6.5,8.3
			C163,105.8,165.5,102.9,165.5,97.9z"/>
		<path class="st0" d="M182.1,93.9c0,1.1-0.6,2.2-1.4,2.9c-0.7,0.4-1.4,0.4-3.6,0.4h-0.7V91h1.4c1-0.1,2,0,2.9,0.4
			C181.5,91.9,182.1,92.8,182.1,93.9L182.1,93.9z M186.8,105.4v-1.1H185l-1.1-2.5c-1.1-2.5-1.8-3.6-2.5-4c0.4-0.2,0.8-0.4,1.1-0.7
			c1.1-0.7,1.8-1.9,1.8-3.2c0.1-1.3-0.4-2.5-1.4-3.2c-1.4-0.5-2.8-0.8-4.3-0.7h-6.1v0.7l1.8,0.4v13.3h-1.8v1.1h6.1v-1.1h-2.1v-6.1
			h1.4c1,0,1.9,0.4,2.5,1.1c0.6,0.8,1.1,1.6,1.4,2.5l1.4,3.6L186.8,105.4z"/>
		<polygon class="st0" points="205.8,90.7 205.8,90 200.4,90 200.4,90.7 202.2,91.1 198.3,97.5 194.3,91.1 196.5,90.7 196.5,90 
			190,90 190,90.7 192.1,91.1 196.8,98.6 196.8,104.3 195,104.3 195,105.4 201.1,105.4 201.1,104.3 199,104.3 199,98.6 204,91.1 
			205.8,90.7 		"/>
		<path class="st0" d="M234.3,104.7v-2.9h-1.1l-0.4,2.2c-0.9,0.3-1.9,0.4-2.9,0.4c-2.5,0-4-2.2-4-6.8c0-4.3,1.8-6.5,4.3-6.5
			c0.9,0,1.7,0.1,2.5,0.4l0.4,1.8h1.1v-2.5c-1.3-0.7-2.8-1.1-4.3-1.1c-4,0-6.5,2.9-6.5,8.3c0,5,2.5,7.9,6.1,7.9
			C231.2,105.7,232.7,105.4,234.3,104.7L234.3,104.7z"/>
		<path class="st0" d="M251.5,97.9c0,4.3-1.4,6.5-4.3,6.5s-4.7-2.2-4.7-6.8c0-4.3,1.8-6.5,4.7-6.5S251.5,93.2,251.5,97.9z
			 M254.1,97.9c0-5.4-2.5-8.3-6.8-8.3s-6.8,2.9-6.8,7.9c0,5.4,2.5,8.3,6.8,8.3S254.1,102.9,254.1,97.9z"/>
		<polygon class="st0" points="280.7,105.4 280.7,104.3 278.5,104.3 277.8,91.1 280,90.7 280,90 274.9,90 270.6,103.3 265.9,90 
			261.2,90 261.2,90.7 263,91.1 262.3,104.3 260.2,104.3 260.2,105.4 265.6,105.4 265.6,104.3 263.8,104.3 264.5,91.4 269.2,105.4 
			271,105.4 276,91.4 276.7,104.3 274.6,104.3 274.6,105.4 280.7,105.4 		"/>
		<polygon class="st0" points="307.3,105.4 307.3,104.3 305.1,104.3 304.4,91.1 306.2,90.7 306.2,90 301.5,90 296.9,103.3 292.5,90 
			287.5,90 287.5,90.7 289.7,91.1 288.6,104.3 286.8,104.3 286.8,105.4 292.2,105.4 292.2,104.3 290,104.3 290.8,91.4 295.8,105.4 
			297.6,105.4 302.3,91.4 303,104.3 301.2,104.3 301.2,105.4 307.3,105.4 		"/>
		<polygon class="st0" points="319.5,105.4 319.5,104.3 317.7,104.3 317.7,91.1 319.5,90.7 319.5,90 313.4,90 313.4,90.7 
			315.6,91.1 315.6,104.3 313.4,104.3 313.4,105.4 319.5,105.4 		"/>
		<path class="st0" d="M336.5,101.1c0-5.8-8.3-3.6-8.3-7.6c0-1.8,1.4-2.5,3.2-2.5c1,0,1.9,0.1,2.9,0.4l0.4,1.8h1.1v-2.9
			c-1.4-0.4-2.9-0.6-4.3-0.7c-3.2,0-5.4,1.8-5.4,4.3c0,3.6,4.3,4.3,6.8,5.4c0.9,0.3,1.6,1.2,1.4,2.2c0,1.8-1.8,2.9-3.6,2.9
			c-1.1,0-2.2-0.1-3.2-0.4l-0.4-1.8H326v2.5c1.5,0.7,3.1,1,4.7,1.1C333.9,105.8,336.4,104,336.5,101.1L336.5,101.1z"/>
		<path class="st0" d="M352.6,101.1c0-5.8-8.3-3.6-8.3-7.6c0-1.8,1.8-2.5,3.2-2.5c1,0,1.9,0.1,2.9,0.4l0.4,1.8h1.1v-2.9
			c-1.4-0.4-2.8-0.7-4.3-0.7c-2.9,0-5,1.8-5,4.3c0,3.6,4,4.3,6.5,5.4c1,0.2,1.8,1.1,1.8,2.2c0,1.8-1.8,2.9-4,2.9c-1,0.1-2,0-2.9-0.3
			l-0.4-1.8h-1.1v2.5c1.4,0.7,3.1,1.1,4.7,1.1C350.5,105.8,352.6,104,352.6,101.1L352.6,101.1z"/>
		<polygon class="st0" points="365.2,105.4 365.2,104.3 363.1,104.3 363.1,91.1 365.2,90.7 365.2,90 359.1,90 359.1,90.7 
			361.3,91.1 361.3,104.3 359.1,104.3 359.1,105.4 365.2,105.4 		"/>
		<path class="st0" d="M383.2,97.9c0,4.3-1.4,6.5-4.7,6.5c-2.9,0-4.3-2.2-4.3-6.8c0-4.3,1.4-6.5,4.3-6.5
			C381.8,91,383.2,93.2,383.2,97.9z M385.4,97.9c0-5.4-2.5-8.3-6.8-8.3c-4,0-6.8,2.9-6.8,7.9c0,5.4,2.9,8.3,6.8,8.3
			C382.9,105.8,385.4,102.9,385.4,97.9z"/>
		<polygon class="st0" points="407.7,90.7 407.7,90 402.3,90 402.3,90.7 404.5,91.1 404.5,101.8 395.8,90 392.2,90 392.2,90.7 
			394,91.1 394,104.3 392.2,104.3 392.2,105.4 397.6,105.4 397.6,104.3 395.5,104.3 395.5,92.8 404.5,105.4 405.5,105.4 405.5,91.1 
			407.7,90.7 		"/>
		<path class="st0" d="M214.1,68.7v-7.6h-3.2l-1.4,5c-3.8,1.4-7.8,2.1-11.9,2.2c-10.4,0-16.2-8.6-16.2-27.3
			c0-16.9,6.5-25.2,17.3-25.2c3.7,0,7.3,0.4,10.8,1.4l1.4,5.4h3.2v-7.9c-5-2.1-10.4-3.2-15.8-3.2c-15.5,0-24.1,10.4-24.1,30.6
			c0,19.8,8.6,30.6,22.3,30.6C201.1,72.7,207.3,71.2,214.1,68.7L214.1,68.7z"/>
		<polygon class="st0" points="262.7,22.7 262.7,12.6 218.4,12.6 218.4,22.7 221.7,22.7 222.7,16.6 237.1,16.6 237.1,67.7 
			230.7,68.7 230.7,71.6 250.1,71.6 250.1,68.7 244,67.7 244,16.6 258.4,16.6 259.1,22.7 262.7,22.7 		"/>
		<path class="st0" d="M303,54.7c0,5.4-2.2,9.7-5.4,11.5c-2.9,1.4-5.4,1.8-12.6,1.8h-5V42.5h8.6c5,0,7.5,0.7,9.7,1.8
			C301.2,46.1,303,49.7,303,54.7L303,54.7z M301.6,26.6c0,9.4-4,12.2-16.5,12.2h-5V16.2h6.8c7.2,0,8.6,0,11.2,1.8
			C300.2,19.8,301.6,22.7,301.6,26.6L301.6,26.6z M310.2,55.4c0-9.3-4.3-14-13.7-15.1c8.3-1.4,11.9-5.4,11.9-13.3
			c0-5.8-2.9-10.4-7.5-12.6c-3.2-1.4-6.8-1.8-16.9-1.8H267v2.9l6.1,1.1v51.1l-6.1,1.1v2.9h19.4c8.3,0,11.9-0.4,15.5-2.2
			C307.1,66.8,310.4,61.3,310.2,55.4L310.2,55.4z"/>
		<polygon class="st0" points="357,22.7 357,12.6 312.3,12.6 312.3,22.7 315.9,22.7 317,16.6 331.4,16.6 331.4,67.7 324.9,68.7 
			324.9,71.6 344.4,71.6 344.4,68.7 337.9,67.7 337.9,16.6 352.3,16.6 353.4,22.7 357,22.7 		"/>
		<path class="st0" d="M400.5,42.1c0,18-5.8,26.6-16.9,26.6c-11.5,0-16.9-8.6-16.9-26.6s5.8-26.6,16.9-26.6
			C395.1,15.5,400.5,24.1,400.5,42.1z M408.1,42.1c0-19.8-8.6-30.6-24.5-30.6S359.5,22,359.5,41.7c0,20.1,8.6,31,24.1,31
			C399.4,72.7,408.1,61.9,408.1,42.1L408.1,42.1z"/>
	</g>
</g>
</svg>
