<?xml version="1.0" encoding="utf-8"?>
<!-- Generator: Adobe Illustrator 22.1.0, SVG Export Plug-In . SVG Version: 6.00 Build 0)  -->
<svg version="1.1" id="Layer_1" xmlns="http://www.w3.org/2000/svg" xmlns:xlink="http://www.w3.org/1999/xlink" x="0px" y="0px"
	 viewBox="0 0 880.1 230" style="enable-background:new 0 0 880.1 230;" xml:space="preserve">
<style type="text/css">
	.st0{stroke:#000000;stroke-miterlimit:10;}
	.st1{fill:none;stroke:#247FBE;stroke-width:2;stroke-miterlimit:10;}
	.st2{fill:#247FBE;}
	.st3{fill:none;}
</style>
<title>DGACM</title>
<g>
	<path class="st0" d="M600,68.4V47.5h-3.6v-3.2h3.6v-2.6c-0.1-1.2,0.1-2.4,0.4-3.6c0.4-1.1,1.1-2,2.1-2.6c1.3-0.7,2.7-1.1,4.2-1
		c1.3,0,2.6,0.2,3.9,0.5l-0.6,3.6c-0.8-0.1-1.6-0.2-2.4-0.2c-0.9-0.1-1.9,0.2-2.6,0.8c-0.6,0.9-0.9,1.9-0.8,3v2.2h4.7v3.2h-4.7v20.9
		L600,68.4L600,68.4z"/>
	<path class="st0" d="M611.4,56.4c0-4.5,1.2-7.8,3.7-9.9c2.1-1.8,4.8-2.7,7.6-2.7c3-0.1,6,1.1,8.1,3.2c2.1,2.2,3.2,5.2,3.2,9
		c0.1,2.5-0.4,5-1.4,7.3c-0.9,1.8-2.3,3.2-4.1,4.1c-1.8,1-3.8,1.5-5.8,1.5c-3.1,0.1-6-1.1-8.2-3.2C612.4,63.5,611.4,60.4,611.4,56.4
		z M615.6,56.4c0,3.1,0.7,5.4,2,6.9c2.4,2.8,6.7,3.1,9.5,0.7c0.2-0.2,0.5-0.4,0.7-0.7c1.3-1.5,2-3.9,2-7.1c0-3-0.7-5.2-2-6.8
		c-2.5-2.8-6.7-3.1-9.5-0.6c-0.2,0.2-0.4,0.4-0.6,0.6C616.3,51,615.6,53.3,615.6,56.4z"/>
	<path class="st0" d="M639.7,68.4V44.3h3.7V48c0.6-1.3,1.5-2.5,2.6-3.4c0.8-0.5,1.7-0.8,2.6-0.8c1.5,0,3,0.5,4.2,1.3l-1.4,3.8
		c-0.9-0.6-1.9-0.9-3-0.9c-0.9,0-1.7,0.3-2.4,0.8c-0.7,0.6-1.2,1.3-1.5,2.2c-0.5,1.5-0.7,3.2-0.7,4.8v12.6
		C643.8,68.4,639.7,68.4,639.7,68.4z"/>
</g>
<g>
	<path class="st0" d="M757.5,124.4c-1.3,1.1-2.8,2.1-4.4,2.7c-1.4,0.5-3,0.8-4.5,0.8c-2.2,0.1-4.4-0.6-6.1-1.9
		c-1.4-1.3-2.2-3.1-2.1-5c0-2.2,1.1-4.3,2.9-5.6c0.9-0.6,1.9-1.1,2.9-1.3c1.2-0.3,2.4-0.5,3.6-0.6c2.5-0.2,4.9-0.7,7.3-1.4
		c0-0.6,0-0.9,0-1.1c0.1-1.3-0.3-2.6-1.2-3.5c-1.3-1-3-1.5-4.7-1.4c-1.5-0.1-3,0.2-4.3,1c-1.1,0.9-1.8,2.2-2,3.6l-4-0.5
		c0.3-1.5,0.9-2.9,1.8-4.1c1-1.1,2.2-1.9,3.6-2.4c1.8-0.6,3.6-0.9,5.5-0.9c1.7-0.1,3.4,0.2,5,0.7c1.1,0.4,2.1,1,2.8,1.8
		c0.6,0.8,1.1,1.8,1.3,2.8c0.2,1.2,0.2,2.5,0.2,3.8v5.5c-0.1,2.4,0,4.8,0.3,7.2c0.2,1,0.5,2,1,2.9h-4.3
		C757.8,126.5,757.6,125.5,757.5,124.4z M757.2,115.3c-2.2,0.8-4.4,1.3-6.7,1.5c-1.2,0.1-2.4,0.4-3.6,0.8c-1.8,0.8-2.7,2.9-1.9,4.7
		c0.2,0.5,0.5,0.9,1,1.3c1,0.8,2.3,1.2,3.6,1.1c1.5,0,2.9-0.3,4.2-1c1.2-0.6,2.1-1.6,2.7-2.8c0.5-1.3,0.7-2.7,0.7-4.1V115.3z"/>
	<path class="st0" d="M768.6,127.4v-24.1h3.7v3.4c1.7-2.6,4.6-4.1,7.7-4c1.4,0,2.7,0.3,4,0.8c1.1,0.4,2,1.1,2.7,2
		c0.6,0.9,1.1,1.9,1.3,3c0.2,1.3,0.3,2.7,0.2,4v14.9h-4.1v-14.7c0.1-1.3-0.1-2.5-0.5-3.7c-0.3-0.8-0.9-1.5-1.7-2
		c-0.9-0.5-1.8-0.8-2.8-0.7c-1.7,0-3.3,0.6-4.5,1.7c-1.3,1.1-1.9,3.2-1.9,6.3v13.2h-4.1L768.6,127.4L768.6,127.4z"/>
	<path class="st0" d="M812.2,127.4v-3c-1.4,2.3-4,3.7-6.8,3.6c-1.9,0-3.7-0.5-5.3-1.6s-2.9-2.6-3.7-4.4c-0.9-2.1-1.4-4.3-1.3-6.5
		c0-2.2,0.4-4.5,1.2-6.5c0.7-1.8,2-3.4,3.6-4.5c1.6-1,3.5-1.6,5.4-1.6c1.4,0,2.7,0.3,3.9,0.9c1.1,0.6,2,1.4,2.8,2.4v-12h4.1v33.3
		L812.2,127.4L812.2,127.4z M799.2,115.4c0,3.1,0.7,5.4,2,6.9c1.1,1.4,2.8,2.3,4.6,2.3s3.5-0.8,4.5-2.2c1.3-1.5,1.9-3.7,1.9-6.7
		c0-3.3-0.6-5.7-1.9-7.3c-1.1-1.5-2.9-2.3-4.7-2.3s-3.5,0.8-4.5,2.2C799.8,109.8,799.2,112.2,799.2,115.4L799.2,115.4z"/>
</g>
<g>
	<path class="st0" d="M598,185.4v-33.3h6.6l7.9,23.6c0.7,2.2,1.3,3.8,1.6,4.9c0.4-1.2,1-3,1.8-5.3l8-23.2h5.9v33.3h-4.3v-27.9
		l-9.7,27.9h-4l-9.6-28.3v28.3H598z"/>
	<path class="st0" d="M653,182.4c-1.3,1.1-2.8,2.1-4.4,2.7c-1.4,0.5-3,0.8-4.5,0.8c-2.2,0.1-4.4-0.5-6.1-1.9c-1.4-1.3-2.2-3.1-2.1-5
		c0-1.1,0.3-2.2,0.8-3.2c0.5-0.9,1.2-1.7,2.1-2.3c0.9-0.6,1.9-1.1,2.9-1.3c1.2-0.3,2.4-0.5,3.6-0.6c2.5-0.2,4.9-0.7,7.3-1.4
		c0-0.6,0-0.9,0-1.1c0.1-1.3-0.3-2.6-1.2-3.5c-1.3-1-3-1.5-4.7-1.4c-1.5-0.1-3,0.2-4.2,1c-1.1,0.9-1.8,2.2-2,3.6l-4-0.5
		c0.3-1.5,0.9-2.9,1.8-4.1c0.9-1.1,2.2-2,3.6-2.4c1.8-0.6,3.6-0.9,5.5-0.8c1.7-0.1,3.4,0.2,5,0.7c1.1,0.4,2.1,1,2.8,1.8
		c0.6,0.8,1.1,1.8,1.3,2.8c0.2,1.2,0.2,2.5,0.2,3.8v5.5c-0.1,2.4,0,4.8,0.3,7.2c0.2,1,0.5,2,1,2.9h-4.3
		C653.4,184.4,653.1,183.4,653,182.4z M652.7,173.3c-2.2,0.8-4.4,1.3-6.7,1.5c-1.2,0.1-2.4,0.4-3.6,0.8c-0.7,0.3-1.2,0.7-1.6,1.3
		c-0.4,0.6-0.6,1.3-0.6,1.9c0,1,0.4,2.1,1.2,2.7c1,0.8,2.3,1.2,3.6,1.1c1.5,0,2.9-0.3,4.2-1c1.2-0.6,2.1-1.6,2.7-2.8
		c0.5-1.3,0.7-2.7,0.7-4.1L652.7,173.3L652.7,173.3z"/>
	<path class="st0" d="M664.2,185.4v-24.1h3.7v3.4c1.7-2.6,4.6-4.1,7.7-4c1.4,0,2.7,0.3,4,0.8c1.1,0.4,2,1.1,2.7,2
		c0.6,0.9,1.1,1.9,1.3,3c0.2,1.3,0.3,2.7,0.2,4v14.9h-4.1v-14.7c0.1-1.3-0.1-2.5-0.5-3.7c-0.3-0.8-0.9-1.5-1.7-2
		c-0.9-0.5-1.8-0.8-2.8-0.7c-1.7,0-3.3,0.6-4.5,1.7c-1.3,1.1-1.9,3.2-1.9,6.3v13.2L664.2,185.4L664.2,185.4z"/>
	<path class="st0" d="M707.8,182.4c-1.3,1.1-2.8,2.1-4.4,2.7c-1.4,0.5-3,0.8-4.5,0.8c-2.2,0.1-4.4-0.5-6.1-1.9
		c-1.4-1.3-2.2-3.1-2.1-5c0-1.1,0.3-2.2,0.8-3.2c0.5-0.9,1.2-1.7,2.1-2.3c0.9-0.6,1.9-1.1,2.9-1.3c1.2-0.3,2.4-0.5,3.6-0.6
		c2.5-0.2,4.9-0.7,7.3-1.4c0-0.6,0-0.9,0-1.1c0.1-1.3-0.3-2.6-1.2-3.5c-1.3-1-3-1.5-4.7-1.4c-1.5-0.1-3,0.2-4.2,1
		c-1.1,0.9-1.8,2.2-2,3.6l-4-0.5c0.3-1.5,0.9-2.9,1.8-4.1c0.9-1.1,2.2-2,3.6-2.4c1.8-0.6,3.6-0.9,5.5-0.8c1.7-0.1,3.4,0.2,5,0.7
		c1.1,0.4,2.1,1,2.8,1.8c0.6,0.8,1.1,1.8,1.3,2.8c0.2,1.2,0.2,2.5,0.2,3.8v5.5c-0.1,2.4,0,4.8,0.3,7.2c0.2,1,0.5,2,1,2.9h-4.3
		C708.1,184.4,707.8,183.4,707.8,182.4z M707.4,173.3c-2.2,0.8-4.4,1.3-6.7,1.5c-1.2,0.1-2.4,0.4-3.6,0.8c-0.7,0.3-1.2,0.7-1.6,1.3
		c-0.4,0.6-0.6,1.3-0.6,1.9c0,1,0.4,2.1,1.2,2.7c1,0.8,2.3,1.2,3.6,1.1c1.5,0,2.9-0.3,4.2-1c1.2-0.6,2.1-1.6,2.7-2.8
		c0.5-1.3,0.7-2.7,0.7-4.1L707.4,173.3L707.4,173.3z"/>
	<path class="st0" d="M719.1,187.4l4,0.6c0.1,1,0.6,2,1.4,2.7c1.2,0.8,2.7,1.2,4.2,1.1c1.5,0.1,3.1-0.3,4.4-1.1
		c1-0.8,1.8-1.9,2.1-3.2c0.3-1.7,0.4-3.5,0.3-5.2c-1.6,2-4.1,3.2-6.7,3.2c-3,0.2-5.9-1.2-7.7-3.6c-1.8-2.5-2.8-5.5-2.7-8.6
		c0-2.2,0.4-4.4,1.2-6.4c0.7-1.8,2-3.4,3.6-4.5c1.7-1.1,3.6-1.6,5.6-1.6c2.7,0,5.3,1.3,7,3.5v-2.9h3.8v20.8c0,3.8-0.4,6.4-1.1,8
		c-0.8,1.6-2.1,2.9-3.6,3.7c-1.9,1-4,1.4-6.1,1.4c-2.5,0.1-4.9-0.6-7-1.9C719.9,191.9,718.9,189.7,719.1,187.4z M722.5,172.9
		c0,3.2,0.6,5.5,1.9,6.9c2.2,2.6,6.1,2.9,8.8,0.7c0.2-0.2,0.5-0.4,0.7-0.7c1.3-1.4,1.9-3.7,1.9-6.8c0-2.9-0.7-5.2-2-6.7
		c-1.1-1.4-2.9-2.3-4.7-2.2c-1.8,0-3.5,0.8-4.6,2.2C723.1,167.8,722.5,170,722.5,172.9z"/>
	<path class="st0" d="M763.2,177.6l4.2,0.5c-0.5,2.3-1.8,4.3-3.7,5.7c-4.8,3.1-11.1,2.6-15.3-1.2c-2.1-2.2-3.1-5.2-3.1-9.1
		c0-4,1-7.2,3.1-9.4s5.1-3.5,8.1-3.4c3-0.1,5.9,1.1,7.9,3.3s3.1,5.3,3.1,9.3c0,0.2,0,0.6,0,1.1h-18c0,2.2,0.8,4.4,2.2,6.1
		c1.3,1.4,3.1,2.1,5,2.1c1.4,0,2.7-0.4,3.8-1.2C761.9,180.4,762.8,179.1,763.2,177.6z M749.8,171h13.5c0-1.6-0.6-3.2-1.5-4.6
		c-1.2-1.5-3.1-2.4-5.1-2.4c-1.8,0-3.5,0.6-4.7,1.9C750.6,167.3,749.9,169.1,749.8,171z"/>
	<path class="st0" d="M774.6,185.4v-24.1h3.7v3.4c0.8-1.2,1.8-2.2,3-2.8c1.3-0.7,2.8-1.1,4.3-1.1c1.5-0.1,3.1,0.3,4.4,1.1
		c1.1,0.7,2,1.8,2.4,3.1c1.6-2.6,4.4-4.2,7.5-4.2c2-0.1,4,0.6,5.5,2c1.3,1.3,1.9,3.4,1.9,6.1v16.5h-4.1v-15.2
		c0.1-1.2-0.1-2.4-0.4-3.5c-0.3-0.7-0.8-1.3-1.4-1.7c-0.7-0.5-1.6-0.7-2.5-0.7c-1.6,0-3.1,0.6-4.2,1.7c-1.1,1.1-1.7,2.9-1.7,5.4v14
		h-4.1v-15.7c0.1-1.4-0.3-2.9-1-4.1c-0.8-1-2-1.5-3.3-1.4c-1.1,0-2.2,0.3-3.2,0.9c-1,0.6-1.7,1.6-2.1,2.7c-0.5,1.6-0.7,3.3-0.7,5
		v12.6H774.6z"/>
	<path class="st0" d="M831.8,177.6l4.2,0.5c-0.5,2.3-1.8,4.3-3.7,5.7c-4.8,3.1-11.1,2.6-15.3-1.2c-2.1-2.2-3.1-5.2-3.1-9.1
		c0-4,1-7.2,3.1-9.4s5.1-3.5,8.1-3.4c3-0.1,5.9,1.1,7.9,3.3s3.1,5.3,3.1,9.3c0,0.2,0,0.6,0,1.1h-18c0,2.2,0.8,4.4,2.2,6.1
		c1.3,1.4,3.1,2.1,5,2.1c1.4,0,2.7-0.4,3.8-1.2C830.5,180.4,831.4,179.1,831.8,177.6z M818.4,171h13.5c0-1.6-0.6-3.2-1.5-4.6
		c-1.2-1.5-3.1-2.4-5.1-2.4c-1.8,0-3.5,0.6-4.7,1.9C819.2,167.3,818.5,169.1,818.4,171z"/>
	<path class="st0" d="M842.2,185.4v-24.1h3.7v3.4c1.7-2.6,4.6-4.1,7.7-4c1.4,0,2.7,0.3,4,0.8c1.1,0.4,2,1.1,2.7,2
		c0.6,0.9,1.1,1.9,1.3,3c0.2,1.3,0.3,2.7,0.2,4v14.9h-4.1v-14.7c0.1-1.3-0.1-2.5-0.5-3.7c-0.3-0.8-0.9-1.5-1.7-2
		c-0.9-0.5-1.8-0.8-2.8-0.7c-1.7,0-3.3,0.6-4.5,1.7c-1.3,1.1-1.9,3.2-1.9,6.3v13.2L842.2,185.4L842.2,185.4z"/>
	<path class="st0" d="M879,181.8l0.6,3.6c-1,0.2-2,0.3-3.1,0.4c-1.2,0.1-2.4-0.2-3.5-0.7c-0.8-0.4-1.4-1.1-1.7-1.8
		c-0.4-1.6-0.6-3.2-0.5-4.8v-13.9h-3v-3.2h3v-6l4.1-2.5v8.4h4.1v3.2h-4.1v14.1c0,0.8,0,1.5,0.2,2.2c0.1,0.3,0.4,0.6,0.7,0.8
		c0.4,0.2,0.9,0.3,1.4,0.3C877.8,181.9,878.4,181.8,879,181.8z"/>
</g>
<g>
	<path class="st0" d="M327,68.4V35.1h11.5c2-0.1,4,0.1,5.9,0.5c1.8,0.4,3.5,1.2,4.9,2.4c1.8,1.5,3.1,3.5,3.9,5.7
		c0.9,2.5,1.4,5.2,1.3,7.9c0,2.3-0.3,4.5-0.9,6.7c-0.5,1.7-1.2,3.4-2.3,4.9c-0.8,1.2-1.8,2.2-3,3s-2.6,1.4-4,1.7
		c-1.8,0.4-3.6,0.6-5.4,0.6L327,68.4z M331.4,64.5h7.1c1.7,0.1,3.5-0.1,5.2-0.6c1.1-0.3,2.2-0.9,3-1.7c1.1-1.2,2-2.6,2.5-4.2
		c0.6-2.1,0.9-4.2,0.9-6.4c0-3.5-0.6-6.1-1.7-8c-0.9-1.7-2.4-3-4.2-3.8c-1.8-0.5-3.8-0.8-5.7-0.7h-7L331.4,64.5z"/>
	<path class="st0" d="M378.6,60.6l4.2,0.5c-0.5,2.3-1.8,4.3-3.7,5.7c-4.8,3.1-11.1,2.6-15.3-1.2c-2.1-2.2-3.1-5.2-3.1-9.1
		c0-4.1,1-7.2,3.1-9.4s5.1-3.5,8.1-3.4c3-0.1,5.9,1.1,7.9,3.3s3.1,5.3,3.1,9.3c0,0.2,0,0.6,0,1.1h-18c0,2.2,0.8,4.4,2.2,6.1
		c1.3,1.4,3.1,2.1,5,2.1c1.4,0,2.7-0.4,3.8-1.2C377.2,63.4,378.1,62.1,378.6,60.6z M365.2,54h13.5c0-1.6-0.6-3.2-1.5-4.6
		c-1.2-1.5-3.1-2.4-5.1-2.4c-1.8,0-3.5,0.6-4.7,1.9C366,50.3,365.2,52.1,365.2,54z"/>
	<path class="st0" d="M388.9,77.6V44.3h3.7v3.1c0.8-1.1,1.8-2.1,3-2.8c1.2-0.6,2.6-1,4-0.9c1.9,0,3.8,0.5,5.4,1.6s2.9,2.7,3.6,4.5
		c0.8,2,1.2,4.2,1.2,6.3c0,2.3-0.4,4.6-1.3,6.7c-1.6,3.7-5.2,6.1-9.2,6.1c-1.3,0-2.5-0.3-3.7-0.9c-1-0.5-1.9-1.3-2.7-2.2v11.7
		L388.9,77.6z M392.6,56.5c0,3.1,0.6,5.4,1.9,6.9c1.1,1.4,2.8,2.2,4.6,2.2c1.8,0,3.5-0.9,4.7-2.3c1.3-1.5,1.9-3.9,1.9-7.1
		c0-3.1-0.6-5.4-1.9-6.9c-1.1-1.4-2.7-2.3-4.5-2.3s-3.5,0.9-4.6,2.4C393.3,51,392.6,53.4,392.6,56.5z"/>
	<path class="st0" d="M433.5,65.4c-1.3,1.1-2.8,2.1-4.4,2.7c-1.4,0.5-3,0.8-4.5,0.8c-2.2,0.1-4.4-0.5-6.1-1.9
		c-1.4-1.3-2.2-3.1-2.1-5c0-1.1,0.3-2.2,0.8-3.2c0.5-0.9,1.2-1.7,2.1-2.4c0.9-0.6,1.9-1.1,2.9-1.3c1.2-0.3,2.4-0.5,3.6-0.6
		c2.5-0.2,4.9-0.7,7.3-1.4c0-0.6,0-0.9,0-1.1c0.1-1.3-0.3-2.6-1.2-3.5c-1.3-1-3-1.5-4.7-1.4c-1.5-0.1-3,0.2-4.2,1
		c-1.1,0.9-1.8,2.2-2,3.6l-4-0.5c0.3-1.5,0.9-2.9,1.8-4.1c0.9-1.1,2.2-2,3.6-2.4c1.8-0.6,3.6-0.9,5.5-0.9c1.7-0.1,3.4,0.2,5,0.7
		c1.1,0.4,2.1,1,2.8,1.8c0.6,0.8,1.1,1.8,1.3,2.8c0.2,1.2,0.2,2.5,0.2,3.8v5.5c-0.1,2.4,0,4.8,0.3,7.2c0.2,1,0.5,2,1,2.9h-4.3
		C433.8,67.5,433.6,66.5,433.5,65.4z M433.2,56.3c-2.2,0.8-4.4,1.3-6.7,1.5c-1.2,0.1-2.4,0.4-3.6,0.8c-0.7,0.3-1.2,0.7-1.6,1.3
		s-0.6,1.3-0.6,1.9c0,1,0.4,2.1,1.2,2.7c1,0.8,2.3,1.2,3.6,1.1c1.5,0,2.9-0.3,4.2-1c1.2-0.6,2.1-1.6,2.7-2.8
		c0.5-1.3,0.7-2.7,0.7-4.1L433.2,56.3L433.2,56.3z"/>
	<path class="st0" d="M443.6,68.4V44.3h3.7V48c0.6-1.3,1.5-2.5,2.6-3.4c0.8-0.5,1.7-0.8,2.6-0.8c1.5,0,3,0.5,4.2,1.3l-1.4,3.8
		c-0.9-0.6-1.9-0.9-3-0.9c-0.9,0-1.7,0.3-2.4,0.8c-0.7,0.6-1.3,1.4-1.5,2.2c-0.5,1.5-0.7,3.2-0.7,4.8v12.6
		C447.7,68.4,443.6,68.4,443.6,68.4z"/>
	<path class="st0" d="M470,64.8l0.6,3.6c-1,0.2-2.1,0.3-3.1,0.4c-1.2,0.1-2.4-0.2-3.5-0.7c-0.8-0.4-1.4-1.1-1.7-1.9
		c-0.4-1.6-0.6-3.2-0.5-4.8V47.5h-3v-3.2h3v-6l4.1-2.5v8.4h4.1v3.2h-4.1v14.1c0,0.8,0,1.5,0.2,2.2c0.1,0.3,0.4,0.6,0.7,0.8
		c0.4,0.2,0.9,0.3,1.4,0.3C468.9,64.9,469.5,64.8,470,64.8z"/>
	<path class="st0" d="M476,68.4V44.3h3.7v3.4c1.6-2.5,4.4-4,7.3-3.9c1.5-0.1,3.1,0.3,4.4,1.1c1.1,0.7,2,1.8,2.4,3.1
		c1.6-2.6,4.4-4.2,7.5-4.2c2-0.1,4,0.6,5.5,2c1.3,1.3,1.9,3.4,1.9,6.1v16.5h-4.1V53.2c0.1-1.2-0.1-2.4-0.4-3.5
		c-0.3-0.7-0.8-1.3-1.4-1.7c-0.7-0.5-1.6-0.7-2.5-0.7c-1.6,0-3.1,0.6-4.2,1.7c-1.1,1.1-1.7,2.9-1.7,5.4v14h-4.1V52.7
		c0.1-1.4-0.3-2.9-1-4.1c-0.8-1-2-1.5-3.3-1.4c-1.1,0-2.2,0.3-3.2,0.9c-1,0.6-1.7,1.6-2.1,2.6c-0.5,1.6-0.7,3.3-0.7,5v12.5h-4
		L476,68.4L476,68.4z"/>
	<path class="st0" d="M532.3,60.6l4.2,0.5c-0.5,2.3-1.8,4.3-3.7,5.7c-4.8,3.1-11.1,2.6-15.3-1.2c-2.1-2.2-3.1-5.2-3.1-9.1
		c0-4.1,1-7.2,3.1-9.4s5.1-3.5,8.1-3.4c3-0.1,5.9,1.1,7.9,3.3s3.1,5.3,3.1,9.3c0,0.2,0,0.6,0,1.1h-18c0,2.2,0.8,4.4,2.2,6.1
		c1.3,1.4,3.1,2.1,5,2.1c1.4,0,2.7-0.4,3.8-1.2C530.9,63.4,531.8,62.1,532.3,60.6z M518.9,54h13.5c0-1.6-0.6-3.2-1.5-4.6
		c-1.2-1.5-3.1-2.4-5.1-2.4c-1.8,0-3.5,0.6-4.7,1.9C519.7,50.3,518.9,52.1,518.9,54z"/>
	<path class="st0" d="M542.6,68.4V44.3h3.7v3.4c1.7-2.6,4.6-4.1,7.7-4c1.4,0,2.7,0.3,4,0.8c1.1,0.4,2,1.1,2.7,2
		c0.6,0.9,1.1,1.9,1.3,3c0.2,1.3,0.3,2.7,0.2,4v14.9h-4.1V53.7c0.1-1.3-0.1-2.5-0.5-3.7c-0.3-0.8-0.9-1.5-1.7-2
		c-0.9-0.5-1.8-0.8-2.8-0.7c-1.7,0-3.3,0.6-4.5,1.6c-1.3,1.1-1.9,3.2-1.9,6.3v13.2C546.7,68.4,542.6,68.4,542.6,68.4z"/>
	<path class="st0" d="M579.4,64.8l0.6,3.6c-1,0.2-2.1,0.3-3.1,0.4c-1.2,0.1-2.4-0.2-3.4-0.7c-0.8-0.4-1.4-1.1-1.7-1.9
		c-0.4-1.6-0.6-3.2-0.5-4.8V47.5h-3v-3.2h3v-6l4.1-2.5v8.4h4.1v3.2h-4.1v14.1c0,0.8,0,1.5,0.2,2.2c0.1,0.3,0.4,0.6,0.7,0.8
		c0.4,0.2,0.9,0.3,1.4,0.3C578.2,64.9,578.8,64.8,579.4,64.8z"/>
</g>
<g>
	<path class="st0" d="M343.5,114.4v-3.9h14.1v12.4c-2,1.6-4.3,3-6.7,3.9c-2.3,0.9-4.7,1.3-7.1,1.3c-3.1,0-6.2-0.7-8.9-2.1
		c-2.6-1.3-4.7-3.5-6-6.1c-1.4-2.7-2.1-5.8-2-8.9c0-3.1,0.7-6.2,2-9.1c1.2-2.7,3.3-4.9,5.9-6.3c2.7-1.4,5.7-2.1,8.8-2
		c2.2,0,4.4,0.4,6.5,1.2c1.8,0.6,3.4,1.8,4.6,3.2c1.2,1.6,2.1,3.5,2.5,5.5l-4,1.1c-0.4-1.4-1-2.8-1.9-4c-0.8-1-1.9-1.8-3.2-2.3
		c-1.5-0.6-3-0.9-4.6-0.9c-1.8,0-3.6,0.3-5.2,0.9c-1.4,0.5-2.6,1.4-3.6,2.4c-0.9,1-1.6,2.1-2.1,3.3c-0.9,2.1-1.3,4.4-1.3,6.7
		c-0.1,2.6,0.4,5.1,1.5,7.4c1,1.9,2.5,3.5,4.5,4.5c1.9,1,4.1,1.5,6.2,1.5c1.9,0,3.8-0.4,5.6-1.1c1.5-0.5,2.9-1.3,4.1-2.4v-6.2H343.5
		z"/>
	<path class="st0" d="M381.1,119.6l4.2,0.5c-0.5,2.3-1.8,4.3-3.7,5.7c-4.8,3.1-11.1,2.6-15.3-1.2c-2.1-2.2-3.1-5.2-3.1-9.1
		c0-4.1,1-7.2,3.1-9.4c2.1-2.2,5.1-3.5,8.1-3.4c3-0.1,5.9,1.1,7.9,3.3c2,2.2,3.1,5.3,3.1,9.3c0,0.2,0,0.6,0,1.1h-17.9
		c0,2.2,0.8,4.4,2.2,6.1c1.3,1.4,3.1,2.1,5,2.1c1.4,0,2.7-0.4,3.8-1.2C379.8,122.4,380.6,121.1,381.1,119.6z M367.7,113h13.5
		c0-1.6-0.6-3.2-1.5-4.6c-1.2-1.5-3.1-2.4-5.1-2.4c-1.8,0-3.5,0.7-4.7,1.9C368.5,109.3,367.7,111.1,367.7,113z"/>
	<path class="st0" d="M393.5,127.4v-24.1h3.7v3.4c1.7-2.6,4.6-4.1,7.7-4c1.4,0,2.7,0.3,4,0.8c1.1,0.4,2,1.1,2.7,2
		c0.6,0.9,1.1,1.9,1.3,3c0.2,1.3,0.3,2.7,0.2,4v14.9H409v-14.7c0-1.3-0.1-2.5-0.5-3.7c-0.3-0.8-0.9-1.5-1.7-2
		c-0.9-0.5-1.8-0.8-2.9-0.7c-1.7,0-3.3,0.6-4.5,1.7c-1.3,1.1-1.9,3.2-1.9,6.3v13.2h-4V127.4z"/>
	<path class="st0" d="M436.8,119.6l4.2,0.5c-0.5,2.3-1.8,4.3-3.7,5.7c-4.8,3.1-11.1,2.6-15.3-1.2c-2.1-2.2-3.1-5.2-3.1-9.1
		c0-4.1,1-7.2,3.1-9.4c2.1-2.2,5.1-3.5,8.1-3.4c3-0.1,5.9,1.1,7.9,3.3c2,2.2,3.1,5.3,3.1,9.3c0,0.2,0,0.6,0,1.1h-18
		c0,2.2,0.8,4.4,2.2,6.1c1.3,1.4,3.1,2.1,5,2.1c1.4,0,2.7-0.4,3.8-1.2C435.5,122.4,436.3,121.1,436.8,119.6z M423.4,113h13.5
		c0-1.6-0.6-3.2-1.5-4.6c-1.2-1.5-3.1-2.4-5.1-2.4c-1.8,0-3.5,0.7-4.7,1.9C424.2,109.3,423.4,111.1,423.4,113z"/>
	<path class="st0" d="M447.1,127.4v-24.1h3.7v3.7c0.6-1.3,1.5-2.5,2.6-3.4c0.8-0.5,1.7-0.8,2.6-0.8c1.5,0,3,0.5,4.2,1.3l-1.4,3.8
		c-0.9-0.6-1.9-0.9-3-0.9c-0.9,0-1.7,0.3-2.4,0.8c-0.7,0.6-1.3,1.4-1.5,2.2c-0.5,1.5-0.7,3.2-0.7,4.8v12.6H447.1z"/>
	<path class="st0" d="M479.4,124.4c-1.3,1.1-2.8,2.1-4.4,2.7c-1.4,0.5-3,0.8-4.5,0.8c-2.2,0.1-4.4-0.6-6.1-1.9
		c-1.4-1.3-2.2-3.1-2.1-5c0-1.1,0.3-2.2,0.8-3.2c0.5-0.9,1.2-1.8,2.1-2.4s1.9-1.1,2.9-1.3c1.2-0.3,2.4-0.5,3.6-0.6
		c2.5-0.2,4.9-0.7,7.3-1.4c0-0.6,0-0.9,0-1.1c0.1-1.3-0.3-2.6-1.2-3.5c-1.3-1-3-1.5-4.7-1.4c-1.5-0.1-3,0.2-4.3,1
		c-1.1,0.9-1.8,2.2-2,3.6l-4-0.5c0.3-1.5,0.9-2.9,1.8-4.1c0.9-1.1,2.2-2,3.6-2.4c1.8-0.6,3.6-0.9,5.5-0.9c1.7-0.1,3.4,0.2,5,0.7
		c1.1,0.4,2.1,1,2.8,1.8c0.6,0.8,1.1,1.8,1.3,2.8c0.2,1.2,0.2,2.5,0.2,3.8v5.5c-0.1,2.4,0,4.8,0.3,7.2c0.2,1,0.5,2,1,2.9h-4.2
		C479.8,126.4,479.5,125.4,479.4,124.4z M479,115.3c-2.2,0.8-4.4,1.3-6.7,1.5c-1.2,0.1-2.4,0.4-3.6,0.8c-1.3,0.5-2.2,1.8-2.2,3.3
		c0,1,0.4,2,1.2,2.7c1,0.8,2.3,1.2,3.6,1.1c1.5,0,2.9-0.3,4.2-1c1.2-0.6,2.1-1.6,2.7-2.8c0.5-1.3,0.7-2.7,0.7-4.1L479,115.3
		L479,115.3z"/>
	<path class="st0" d="M490.4,127.4V94.1h4.1v33.3C494.5,127.4,490.4,127.4,490.4,127.4z"/>
</g>
<g>
	<path class="st0" d="M510.9,127.4l12.8-33.3h4.8l13.6,33.3h-5l-3.9-10.1h-13.9l-3.7,10.1C515.6,127.4,510.9,127.4,510.9,127.4z
		 M520.5,113.7h11.3l-3.5-9.2c-1.1-2.8-1.8-5.1-2.4-6.9c-0.4,2.2-1,4.3-1.8,6.4L520.5,113.7z"/>
	<path class="st0" d="M544.4,120.2l4-0.6c0.1,1.4,0.8,2.8,1.9,3.7c1.2,0.9,2.8,1.4,4.3,1.3c1.5,0.1,3-0.3,4.2-1.1
		c0.8-0.6,1.4-1.6,1.4-2.7c0-0.9-0.4-1.7-1.2-2.2c-1.3-0.6-2.7-1.1-4.2-1.4c-2.1-0.5-4.2-1.2-6.2-2c-2.2-1-3.6-3.1-3.5-5.5
		c0-1,0.2-2.1,0.7-3s1.2-1.7,2-2.3c0.8-0.5,1.7-1,2.6-1.2c1.1-0.3,2.3-0.5,3.5-0.5c1.7,0,3.4,0.2,5,0.8c1.2,0.4,2.3,1.2,3.2,2.2
		c0.8,1.1,1.2,2.4,1.4,3.7l-4,0.5c-0.1-1.1-0.7-2.2-1.6-2.9c-1.1-0.7-2.4-1.1-3.7-1c-1.4-0.1-2.8,0.2-4,0.9
		c-0.7,0.5-1.2,1.3-1.2,2.2c0,0.5,0.2,1,0.5,1.4c0.4,0.5,1,0.9,1.6,1.1c0.4,0.1,1.6,0.5,3.6,1s4,1.1,6,1.9c1.1,0.4,2,1.2,2.7,2.1
		c0.7,1,1,2.3,1,3.5c0,1.4-0.4,2.7-1.2,3.9c-0.8,1.3-2,2.3-3.4,2.9c-1.6,0.7-3.3,1-5.1,1c-3.1,0-5.5-0.6-7.2-2
		C545.8,124.6,544.7,122.5,544.4,120.2z"/>
	<path class="st0" d="M569.7,120.2l4-0.6c0.1,1.4,0.8,2.8,1.9,3.7c1.2,0.9,2.8,1.4,4.3,1.3c1.5,0.1,3-0.3,4.2-1.1
		c0.8-0.6,1.3-1.6,1.4-2.7c0-0.9-0.4-1.7-1.2-2.2c-1.3-0.6-2.7-1.1-4.2-1.4c-2.1-0.5-4.2-1.2-6.2-2c-1.1-0.5-2-1.3-2.6-2.3
		s-0.9-2.1-0.9-3.2c0-1,0.2-2.1,0.7-3s1.2-1.7,2-2.3c0.8-0.5,1.7-1,2.6-1.2c1.1-0.3,2.3-0.5,3.5-0.5c1.7,0,3.4,0.2,5,0.8
		c1.2,0.4,2.3,1.2,3.2,2.2c0.8,1.1,1.2,2.4,1.4,3.7l-4,0.5c-0.1-1.1-0.7-2.2-1.6-2.9c-1.1-0.7-2.4-1.1-3.7-1c-1.4-0.1-2.8,0.2-4,0.9
		c-0.7,0.5-1.2,1.3-1.2,2.2c0,0.5,0.2,1,0.5,1.4c0.4,0.5,1,0.9,1.6,1.1c0.4,0.1,1.6,0.5,3.6,1s4,1.1,6,1.9c1.1,0.4,2,1.2,2.7,2.1
		c0.7,1,1,2.3,1,3.5c0,1.4-0.4,2.7-1.2,3.9c-0.8,1.2-2,2.2-3.4,2.8c-1.6,0.7-3.3,1-5.1,1c-3.1,0-5.5-0.6-7.2-2
		C571.1,124.5,569.9,122.4,569.7,120.2z"/>
	<path class="st0" d="M612,119.6l4.2,0.5c-0.5,2.3-1.8,4.3-3.7,5.7c-4.8,3.1-11.1,2.6-15.3-1.2c-2.1-2.2-3.1-5.2-3.1-9.1
		c0-4.1,1-7.2,3.1-9.4c2.1-2.2,5.1-3.5,8.1-3.4c3-0.1,5.9,1.1,7.9,3.3c2,2.2,3.1,5.3,3.1,9.3c0,0.2,0,0.6,0,1.1h-18
		c0,2.2,0.8,4.4,2.2,6.1c1.3,1.4,3.1,2.1,5,2.1c1.4,0,2.7-0.4,3.8-1.2C610.7,122.4,611.6,121.1,612,119.6z M598.6,113h13.5
		c0-1.6-0.6-3.2-1.5-4.6c-1.2-1.5-3.1-2.4-5.1-2.4c-1.8,0-3.5,0.6-4.7,1.9C599.4,109.3,598.7,111.1,598.6,113z"/>
	<path class="st0" d="M623.4,127.4v-24.1h3.7v3.4c1.6-2.5,4.4-4,7.3-3.9c1.5-0.1,3.1,0.3,4.4,1.1c1.1,0.7,2,1.8,2.4,3.1
		c1.6-2.6,4.4-4.2,7.5-4.2c2-0.1,4,0.6,5.5,2c1.3,1.3,1.9,3.4,1.9,6.1v16.5H652v-15.2c0.1-1.2-0.1-2.4-0.4-3.5
		c-0.3-0.7-0.8-1.3-1.4-1.7c-0.7-0.5-1.6-0.7-2.5-0.7c-1.6,0-3.1,0.6-4.2,1.7c-1.1,1.1-1.7,2.9-1.7,5.4v14h-4.1v-15.7
		c0.1-1.4-0.3-2.9-1-4.1c-0.8-1-2-1.5-3.3-1.4c-1.1,0-2.2,0.3-3.2,0.9s-1.7,1.6-2.1,2.6c-0.5,1.6-0.7,3.3-0.7,5v12.5h-4L623.4,127.4
		L623.4,127.4z"/>
	<path class="st0" d="M667.9,127.4h-3.8V94.1h4.1V106c1.6-2.1,4-3.3,6.6-3.2c1.5,0,2.9,0.3,4.2,0.9s2.4,1.4,3.3,2.5
		c0.9,1.2,1.6,2.5,2,3.9c0.5,1.6,0.7,3.2,0.7,4.9c0,4.1-1,7.3-3.1,9.6c-1.8,2.2-4.5,3.4-7.4,3.4c-2.7,0.1-5.3-1.3-6.7-3.6
		L667.9,127.4z M667.9,115.2c0,2.9,0.4,5,1.2,6.3c1.5,2.9,5,4,7.9,2.5c0.8-0.4,1.5-1,2-1.7c1.3-1.5,2-3.9,2-6.9s-0.6-5.5-1.9-7
		c-1.1-1.4-2.8-2.2-4.5-2.2c-1.8,0-3.5,0.9-4.6,2.3C668.5,110,667.9,112.2,667.9,115.2L667.9,115.2z"/>
	<path class="st0" d="M690.9,127.4V94.1h4.1v33.3C695,127.4,690.9,127.4,690.9,127.4z"/>
	<path class="st0" d="M702.1,136.7l-0.5-3.8c0.8,0.2,1.5,0.3,2.3,0.4c0.8,0,1.5-0.1,2.2-0.5c0.5-0.3,1-0.7,1.3-1.3
		c0.5-1,0.9-2,1.2-3c0.1-0.2,0.2-0.6,0.4-1l-9.2-24.2h4.4l5,14c0.7,1.8,1.2,3.6,1.8,5.6c0.5-1.9,1-3.7,1.7-5.5l5.2-14h4.1l-9.2,24.5
		c-0.7,1.9-1.4,3.7-2.3,5.5c-0.6,1.2-1.4,2.2-2.5,3c-1,0.6-2.2,1-3.4,0.9C703.9,137.3,703,137.1,702.1,136.7z"/>
</g>
<g>
	<path class="st0" d="M351.2,173.7l4.4,1.1c-0.7,3.2-2.5,6.2-5,8.3c-2.5,1.9-5.6,2.9-8.8,2.8c-3.1,0.1-6.1-0.6-8.8-2.2
		c-2.3-1.5-4.1-3.8-5.1-6.3c-1.2-2.8-1.8-5.9-1.8-8.9c-0.1-3.1,0.6-6.3,2-9.1c1.2-2.5,3.2-4.5,5.6-5.9c2.5-1.3,5.3-2,8.1-2
		c3-0.1,6,0.8,8.4,2.5c2.3,1.8,4,4.3,4.8,7.2l-4.3,1c-0.5-2.1-1.7-3.9-3.4-5.3c-1.6-1.2-3.6-1.7-5.5-1.7c-2.3-0.1-4.5,0.6-6.4,1.8
		c-1.7,1.2-3,2.9-3.6,4.9c-0.7,2.1-1.1,4.2-1,6.4c-0.1,2.5,0.4,5,1.2,7.4c0.7,2,2.1,3.6,3.9,4.7c1.7,1,3.7,1.6,5.6,1.6
		c2.3,0.1,4.5-0.7,6.3-2.1C349.5,178.4,350.8,176.2,351.2,173.7z"/>
	<path class="st0" d="M361,173.3c0-4.5,1.2-7.8,3.7-9.9c2.1-1.8,4.8-2.7,7.6-2.7c3-0.1,6,1.1,8.1,3.2c2.1,2.2,3.2,5.2,3.2,9
		c0.1,2.5-0.4,5-1.4,7.3c-0.9,1.8-2.3,3.2-4.1,4.1c-1.8,1-3.8,1.5-5.8,1.5c-3.1,0.1-6-1.1-8.2-3.2C362,180.5,361,177.4,361,173.3z
		 M365.2,173.3c0,3.1,0.7,5.4,2,6.9c2.4,2.8,6.7,3.1,9.5,0.7c0.2-0.2,0.5-0.4,0.7-0.7c1.3-1.5,2-3.9,2-7.1c0-3-0.7-5.2-2-6.8
		c-2.5-2.8-6.7-3.1-9.5-0.6c-0.2,0.2-0.4,0.4-0.6,0.6C365.8,168,365.2,170.3,365.2,173.3z"/>
	<path class="st0" d="M390.3,185.4v-24.1h3.7v3.4c1.7-2.6,4.6-4.1,7.7-4c1.4,0,2.7,0.3,4,0.8c1.1,0.4,2,1.1,2.7,2
		c0.6,0.9,1.1,1.9,1.3,3c0.2,1.3,0.3,2.7,0.2,4v14.9h-4.1v-14.7c0.1-1.3-0.1-2.5-0.5-3.7c-0.3-0.8-0.9-1.5-1.7-2
		c-0.9-0.5-1.8-0.8-2.9-0.7c-1.7,0-3.3,0.6-4.5,1.7c-1.3,1.1-1.9,3.2-1.9,6.3v13.2L390.3,185.4L390.3,185.4z"/>
	<path class="st0" d="M418.2,185.4v-20.9h-3.6v-3.2h3.6v-2.6c-0.1-1.2,0.1-2.4,0.4-3.6c0.4-1.1,1.1-2,2.1-2.6c1.3-0.7,2.7-1.1,4.2-1
		c1.3,0,2.6,0.2,3.8,0.4l-0.6,3.6c-0.8-0.1-1.6-0.2-2.4-0.2c-0.9-0.1-1.9,0.2-2.6,0.8c-0.6,0.9-0.9,1.9-0.8,3v2.2h4.7v3.2h-4.7v20.9
		L418.2,185.4L418.2,185.4z"/>
	<path class="st0" d="M447.6,177.6l4.2,0.5c-0.5,2.3-1.8,4.3-3.7,5.7c-4.8,3.1-11.1,2.6-15.3-1.2c-2.1-2.2-3.1-5.2-3.1-9.1
		c0-4,1-7.2,3.1-9.4s5.1-3.5,8.1-3.4c3-0.1,5.9,1.1,7.9,3.3s3.1,5.3,3.1,9.3c0,0.2,0,0.6,0,1.1h-18c0,2.2,0.8,4.4,2.2,6.1
		c1.3,1.4,3.1,2.1,5,2.1c1.4,0,2.7-0.4,3.8-1.2C446.3,180.4,447.2,179.1,447.6,177.6z M434.2,171h13.5c0-1.6-0.6-3.2-1.5-4.6
		c-1.2-1.5-3.1-2.4-5.1-2.4c-1.8,0-3.5,0.6-4.7,1.9C435,167.3,434.2,169.1,434.2,171z"/>
	<path class="st0" d="M457.9,185.4v-24.1h3.7v3.7c0.6-1.3,1.5-2.5,2.6-3.4c0.8-0.5,1.7-0.8,2.6-0.8c1.5,0,2.9,0.5,4.2,1.3l-1.4,3.8
		c-0.9-0.6-1.9-0.9-3-0.9c-0.9,0-1.7,0.3-2.4,0.8c-0.7,0.6-1.3,1.3-1.5,2.2c-0.5,1.5-0.7,3.2-0.7,4.8v12.6L457.9,185.4L457.9,185.4z
		"/>
	<path class="st0" d="M491,177.6l4.2,0.5c-0.5,2.3-1.8,4.3-3.7,5.7c-4.8,3.1-11.1,2.6-15.3-1.2c-2.1-2.2-3.1-5.2-3.1-9.1
		c0-4,1-7.2,3.1-9.4s5.1-3.5,8.1-3.4c3-0.1,5.9,1.1,7.9,3.3s3.1,5.3,3.1,9.3c0,0.2,0,0.6,0,1.1h-18c0,2.2,0.8,4.4,2.2,6.1
		c1.3,1.4,3.1,2.1,5,2.1c1.4,0,2.7-0.4,3.8-1.2C489.6,180.4,490.5,179.1,491,177.6z M477.5,171H491c0-1.6-0.6-3.2-1.5-4.6
		c-1.2-1.5-3.1-2.4-5.1-2.4c-1.8,0-3.5,0.6-4.7,1.9C478.3,167.3,477.6,169.1,477.5,171z"/>
	<path class="st0" d="M502.3,185.4v-24.1h3.7v3.4c1.7-2.6,4.6-4.1,7.7-4c1.4,0,2.7,0.3,4,0.8c1.1,0.4,2,1.1,2.7,2
		c0.6,0.9,1.1,1.9,1.3,3c0.2,1.3,0.3,2.7,0.2,4v14.9h-4.1v-14.7c0.1-1.3-0.1-2.5-0.5-3.7c-0.3-0.8-0.9-1.5-1.7-2
		c-0.9-0.5-1.8-0.8-2.8-0.7c-1.7,0-3.3,0.6-4.5,1.7c-1.3,1.1-1.9,3.2-1.9,6.3v13.1H502.3z"/>
	<path class="st0" d="M545.9,176.6l4,0.5c-0.3,2.5-1.5,4.8-3.4,6.5c-1.8,1.6-4.2,2.4-6.6,2.4c-3,0.1-5.9-1-8-3.2c-2-2.2-3-5.2-3-9.3
		c-0.1-2.3,0.4-4.7,1.3-6.8c0.8-1.9,2.2-3.4,3.9-4.4c1.8-1,3.7-1.5,5.8-1.5c2.3-0.1,4.6,0.6,6.4,2c1.7,1.4,2.9,3.4,3.2,5.6l-4,0.6
		c-0.3-1.4-1-2.7-2-3.7c-1-0.8-2.2-1.3-3.5-1.2c-1.9-0.1-3.8,0.8-5,2.2c-1.3,1.5-1.9,3.8-1.9,7s0.6,5.6,1.9,7.1
		c1.2,1.4,3,2.3,4.9,2.2c1.5,0,2.9-0.5,4-1.5C545,179.9,545.8,178.3,545.9,176.6z"/>
	<path class="st0" d="M571.9,177.6l4.2,0.5c-0.5,2.3-1.8,4.3-3.7,5.7c-4.8,3.1-11.1,2.6-15.3-1.2c-2.1-2.2-3.1-5.2-3.1-9.1
		c0-4,1-7.2,3.1-9.4s5.1-3.5,8.1-3.4c3-0.1,5.9,1.1,7.9,3.3s3.1,5.3,3.1,9.3c0,0.2,0,0.6,0,1.1h-18c0,2.2,0.8,4.4,2.2,6.1
		c1.3,1.4,3.1,2.1,5,2.1c1.4,0,2.7-0.4,3.8-1.2C570.6,180.4,571.5,179.1,571.9,177.6z M558.5,171H572c0-1.6-0.6-3.2-1.5-4.6
		c-1.2-1.5-3.1-2.4-5.1-2.4c-1.8,0-3.5,0.6-4.7,1.9C559.3,167.3,558.5,169.1,558.5,171z"/>
</g>
<g>
	<g>
		<g>
			<circle class="st1" cx="136.1" cy="97.1" r="19"/>
			<circle class="st1" cx="136.1" cy="97.1" r="36.7"/>
			<circle class="st1" cx="136.1" cy="97.1" r="55.7"/>
			<circle class="st1" cx="136.1" cy="97.1" r="73.3"/>
			<circle class="st1" cx="136.1" cy="97.1" r="92.6"/>
		</g>
		<g>
			<line class="st1" x1="136.1" y1="78.7" x2="136.1" y2="4.2"/>
			<line class="st1" x1="136.1" y1="189.8" x2="136.1" y2="115.3"/>
			<line class="st1" x1="154.9" y1="97.1" x2="229.3" y2="97.1"/>
			<line class="st1" x1="42.9" y1="97.1" x2="117.3" y2="97.1"/>
			<line class="st1" x1="149" y1="84.2" x2="201.6" y2="31.6"/>
			<line class="st1" x1="123.2" y1="84.2" x2="70.6" y2="31.6"/>
			<line class="st1" x1="123.2" y1="110" x2="70.6" y2="162.7"/>
			<line class="st1" x1="149" y1="110" x2="201.6" y2="162.7"/>
		</g>
	</g>
	<path id="Laurel" class="st2" d="M66.3,12.5c-9.4,3.7-19.5,7.4-25.6,17.1c-3.6,5.6-4.1,12.3-6.9,18.1C39,42.9,45,39.2,49.5,33.4
		C54.8,26.4,59.4,18.6,66.3,12.5L66.3,12.5z M205.9,12.5c6.9,6.1,11.5,13.9,16.8,20.9c4.4,5.8,10.5,9.4,15.7,14.3
		c-2.8-5.8-3.3-12.5-6.9-18.1C225.4,20,215.3,16.2,205.9,12.5L205.9,12.5z M40.9,25.3c-4.8,1.2-8.8,4.3-12.4,8.3
		C21,42,21.6,54.3,22.6,65.2c0.3,3.4,0.1,6.3-0.2,9.7c2.3-4.7,6-9.1,10.4-12.4c9.8-7.4,20.5-16.9,20.6-29.5
		c-3.2,9-13.1,12.8-19.6,18.9c-3.5,3.3-6.1,7.2-7.7,11.3L25.9,63c0.8-3.6,2.3-6.9,3.4-10.4C32.1,43.2,31.6,31.7,40.9,25.3L40.9,25.3
		z M231.3,25.3c9.3,6.4,8.8,17.8,11.6,27.4c1,3.5,2.6,6.8,3.4,10.4l-0.2,0.2c-1.5-4.1-4.2-8-7.7-11.3c-6.5-6.2-16.4-9.9-19.6-18.9
		c0.1,12.5,10.8,22.1,20.6,29.5c4.4,3.3,8.1,7.8,10.4,12.4c-0.4-3.5-0.6-6.4-0.2-9.7c1-11,1.7-23.2-5.9-31.6
		C240.1,29.7,236.1,26.6,231.3,25.3L231.3,25.3z M21.1,42.4c-0.2,0-0.4,0.1-0.6,0.2C14,50.9,9.7,60,9.7,71.1
		c0,13.7,7.9,23.3,8.9,36.2c2-13.4,13.3-23,19.2-34.8c2.3-4.6,3.7-9.8,4.3-14.9c-0.8,2.2-2.2,4.2-4,5.9C30.5,70.7,21.6,77.8,19.8,88
		c-0.2,1.5-0.4,3-0.8,4.4c-0.3,0.1-0.3-0.2-0.5-0.3l0.9-12.6C20.4,67,13.9,53.3,21.1,42.4L21.1,42.4z M251.1,42.4
		c7.1,10.9,0.6,24.6,1.6,36.9l0.9,12.6c-0.1,0.1-0.1,0.5-0.5,0.3c-0.4-1.4-0.5-2.9-0.8-4.4c-1.7-10.2-10.7-17.3-18.3-24.5
		c-1.8-1.7-3.1-3.7-4-5.9c0.6,5.1,2,10.3,4.3,14.9c5.8,11.8,17.1,21.4,19.2,34.8c1-12.9,8.9-22.5,8.9-36.2
		c0-11.1-4.3-20.2-10.8-28.4C251.5,42.6,251.4,42.4,251.1,42.4L251.1,42.4z M7.2,76.6c-1.5,3.2-2.1,6.8-2.9,10.2
		c-1.7,9,0,18.5,2.4,26.7c3.1,10.3,13.2,17.7,18.3,27.2l0.7,0.6c-0.7-5.1-1.1-10.7,0.3-15.6c2.2-7.8,5-15.5,6.4-23.6
		c1.1-6.3,2.4-13.4,1.7-19.5c-0.8,3.3-1.7,6.6-3.5,9.4c-6.9,10.7-13.9,23.1-9.1,36.6c-0.1,0.1-0.3,0.3-0.4,0.2
		c-1.9-4.5-2.4-9.5-3.6-14.3C14.1,101.9,4.4,91.3,7.2,76.6L7.2,76.6z M265,76.6c2.9,14.7-6.9,25.3-10.2,38
		c-1.3,4.8-1.7,9.9-3.6,14.3c-0.2,0.1-0.3-0.1-0.4-0.2c4.8-13.5-2.2-26-9.1-36.6c-1.8-2.8-2.7-6.1-3.5-9.4
		c-0.7,6.1,0.6,13.2,1.7,19.5c1.5,8.1,4.2,15.7,6.4,23.6c1.5,4.9,1.1,10.4,0.3,15.6l0.7-0.6c5.1-9.5,15.2-16.8,18.3-27.2
		c2.4-8.2,4.1-17.8,2.4-26.7C267.1,83.4,266.5,79.8,265,76.6L265,76.6z M32.6,113.2c1.3,8.4-2,15.7-2.8,23.7
		c-0.6,6.5,0.5,12.9,3,18.4c0.8,1.6,2.1,3.1,2.5,4.7c-2.4-2.2-4.2-5-5.9-7.8C21.5,139.4,5,131.1,3.8,115.5c-0.6,6.9,0,14.3,2.3,20.4
		c3.2,8.5,9.4,15.1,16.5,20.7c7.3,5.8,16.1,10.3,22.8,15.4c-1.3-3.3-3.5-6.4-4.3-9.9C37.2,146.2,39.4,127.9,32.6,113.2L32.6,113.2z
		 M239.7,113.2c-6.8,14.7-4.6,33.1-8.5,48.9c-0.9,3.5-3,6.6-4.3,9.9c6.7-5.1,15.5-9.6,22.8-15.4c7.1-5.6,13.3-12.2,16.5-20.7
		c2.3-6.1,2.9-13.5,2.3-20.4c-1.1,15.6-17.7,23.9-25.6,36.7c-1.7,2.7-3.4,5.5-5.9,7.8c0.4-1.7,1.7-3.1,2.5-4.7
		c2.5-5.5,3.7-11.8,3-18.4C241.7,128.9,238.4,121.5,239.7,113.2L239.7,113.2z M41.1,139.8c5.7,11.5,3.3,26.3,10.7,37.1
		c2.3,3.4,5.6,6.6,8.6,9.3l-0.1,0.1c-2.7-1.3-5.2-3.2-7.7-5.2c-13-10.8-32.6-12.2-40.4-29.9c2.1,13,12.4,24.4,23.5,31.7
		c10.6,6.9,24.1,6.1,35.8,10C60.7,184.2,59,171,54.2,159.5C51.2,152.5,46.3,146,41.1,139.8L41.1,139.8z M231.1,139.8
		c-5.2,6.2-10.1,12.7-13.1,19.8c-4.8,11.5-6.5,24.6-17.3,33.4c11.7-3.9,25.3-3.1,35.8-10c11.1-7.3,21.4-18.8,23.5-31.7
		c-7.8,17.7-27.4,19-40.4,29.9c-2.5,2.1-4.9,4-7.7,5.2l-0.1-0.1c3-2.7,6.3-6,8.6-9.3C227.9,166,225.4,151.3,231.1,139.8L231.1,139.8
		z M59.9,167.8c7.1,9.5,9.1,23.4,22.1,28.3c2.3,0.9,4.9,1,6.9,2.3c-2.5,0.4-4.7-0.4-7-0.9c-16.7-3.6-37.1,1-49.6-13.2
		c4.7,9.3,14.5,16.6,23.9,19.7c14.5,4.8,29.7-0.6,43.4-3.9c2-0.5,4.4-0.3,6.2-1c-7.6-1.6-14.9-3.9-20.8-9.2
		C76.4,182,68.9,173.8,59.9,167.8L59.9,167.8z M212.4,167.8c-9.1,6-16.5,14.3-25,22c-5.9,5.4-13.2,7.7-20.8,9.2
		c1.8,0.7,4.2,0.5,6.2,1c13.7,3.4,28.8,8.7,43.4,3.9c9.4-3.1,19.2-10.4,23.9-19.7c-12.5,14.2-32.9,9.7-49.6,13.2
		c-2.3,0.5-4.5,1.3-7,0.9c2-1.3,4.6-1.4,6.9-2.3C203.3,191.2,205.3,177.3,212.4,167.8L212.4,167.8z M122.4,198.6
		c-12.8,0-24.3,6.2-35.5,10.9c-10.2,4.2-23.7,3.4-32.7-2.8c4.5,5.6,10.4,9,16.6,11.4c11.4,4.6,24.8,1.1,34.5-5.2
		c7-4.5,13-10.8,21.4-10.8c1.5,0,2.9,0.2,4.4,0.5c-11.7,4.7-22.4,13-30.7,20.9c1.5,1.7,3.5,3.4,5.4,4.9c9.3-9.6,19.8-20,30.3-24.3
		c10.5,4.3,21,14.7,30.3,24.3c1.9-1.5,3.8-3.1,5.4-4.9c-8.3-7.9-19-16.2-30.7-20.9c1.5-0.3,3-0.5,4.4-0.5c8.3,0,14.4,6.4,21.4,10.8
		c9.7,6.2,23.1,9.7,34.5,5.2c6.2-2.3,12.1-5.8,16.6-11.4c-9,6.2-22.5,7-32.7,2.8c-11.2-4.7-22.7-10.9-35.5-10.9
		c-4.7,0-9.3,0.8-13.7,2.1C131.6,199.4,127,198.6,122.4,198.6L122.4,198.6z"/>
	<g>
		<path class="st2" d="M153.9,30.2l-0.7-0.5c0,0-1-0.1-1-0.4v-0.1l0,0c-0.1-0.1-0.6,0.7-1,0.9c0.5,0.2,1.1,0.6,1.1,0.6
			c0.7,0,1.3,0.6,1.3,0.9s1,0.2,1,0.2l0.1-0.7L153.9,30.2z"/>
		<path class="st2" d="M186.9,68.7L186.9,68.7L186.9,68.7L186.9,68.7C186.9,68.8,186.9,68.7,186.9,68.7z"/>
		<path class="st2" d="M150.9,30.2c0.1,0.1,0.2,0.1,0.2,0C150.8,30,150.5,29.9,150.9,30.2z"/>
		<polygon class="st2" points="150.2,33.3 150.2,33.3 150.2,34.2 151.2,34.3 150.9,33.5 		"/>
		<polygon class="st2" points="149.1,30.1 149,30.1 148,29.9 148,30.5 148.8,30.6 149.4,31.5 149.9,31.2 149.2,30.2 		"/>
		<path class="st2" d="M160.9,42.5c-0.5,0-1.3-0.6-1.1-1s-1.6-0.7-1.6-0.7s-1.6-1.5-1-1.4c0.6,0.2,0.3-0.7,0.3-0.7s-1.1,0.2-1.4,0.1
			c-0.3-0.1-0.2-1-0.2-1s-0.6-0.2-1-0.1l0,0c-0.1,0-0.2,0.1-0.2,0.1c0,0.3,0.4,0.3,0.6,0.9c0.2,0.6,0.1,1.5,1,1.7s1,0.4,1.1,0.7
			c0.1,0.4,1.1,0.5,1.1,0.5l0.7,0.4l2.3,1.9v-0.7C161.5,43.2,161.3,42.5,160.9,42.5z"/>
		<path class="st2" d="M179.5,29.4l1.4,0.5c0,0,1.8,2.1,1.7,1.1c-0.2-2.9-1.5-3-2-3.5c-0.1-0.2-0.3-0.2-0.6-0.2l0,0
			c-0.7,0-1.9,0.5-1.8,1.1C178.3,28.8,178.7,29.3,179.5,29.4z"/>
		<path class="st2" d="M186.9,68.7L186.9,68.7L186.9,68.7z"/>
		<path class="st2" d="M184.8,62c-0.2,0.5,0.2,0.9,0.6,0.9c0.4,0,0.7,0.2,1,0.4c0.4,0.2,0.7,0.5,1,0.9l1-0.3c0,0,0.1-1-0.3-0.7
			c-0.4,0.3-0.7-0.7-1-0.6c-0.4,0.1-0.6-0.4-1-0.9s-0.3-0.6-0.7-0.9c-0.2-0.2-0.4-0.2-0.6-0.2l0,0c-0.1,0-0.2,0.1-0.2,0.3
			C184.5,61.3,184.9,61.5,184.8,62z"/>
		<polygon class="st2" points="150.9,28.6 150.4,28.4 150.4,28.4 150,29.3 150.5,29.5 		"/>
		<path class="st2" d="M187.5,64.8L187.5,64.8l-1.1,0.1c0.3,0.4,0.9,0.7,0.9,1.1s-0.2,0.7,0.4,0.7c0.6,0.1,1-0.1,1.1,0.4
			c0.2,0.5,0.2,1.3,0.1,1.6c-0.1,0.4,0.1,1,0.6,1s0.6,0.1,0.6,0.4s0.6-1.1,0.6-1.1c-0.5-0.4-0.9-1.3-0.9-1.3s-0.5-1.4-0.5-1.5
			s-0.7-0.4-1-0.5C188,65.7,187.5,64.8,187.5,64.8z"/>
		<polygon class="st2" points="180.8,57.8 180.7,56.9 180.7,56.9 180.2,57 180.2,57.9 		"/>
		<polygon class="st2" points="192.8,87.8 193.3,88.1 193.6,87.5 193.1,87.2 		"/>
		<path class="st2" d="M190.6,72.1c-0.3,0.2-0.5,0.6-0.7,0.9s0.6,0.7,0.6,1s0.2,1.7,0.2,1.7s0.7,0.3,0.7,0.7c0.1,0.4,0,1.1,0.3,1.3
			c0.3,0.1,0.9,0.5,0.7,0.9s-0.2,1.1-0.2,1.1l0.4,0.9l0.7,0.5c0,0,0.3-2.3-0.2-2.4s-0.3-1.4-0.3-1.4s0.5-1.8-0.3-1.8s-0.2-1-0.7-1.3
			s-0.2-1.6-0.4-2s-0.2-0.9-0.7-1.1c-0.1-0.1-0.1-0.1-0.1-0.1l0,0C190.4,70.9,190.8,72,190.6,72.1z"/>
		<polygon class="st2" points="194,84.7 193.5,84.7 193.5,84.7 193.4,85.4 194,85.5 		"/>
		<path class="st2" d="M176.6,67.2c0,0-0.2,1.8-0.7,2.2h-1.3c0,0,0.3,0.5,0.6,0.8s1,0.9,0.3,1.3s0.1,0.3,0.1,0.3s-0.1,2-1,1.7
			s-1.1,1.1-1.1,1.4c0,0.4,3.4,0.5,2.8,0c-0.3-0.3,0.4-1,0.4-1s2.3,0.2,2.7,0.2c0.5,0,0.9-0.1,0.6-0.6c-0.3-0.5-1.1-0.4-1.1-0.4
			s-1.1,0.3-2.2-0.3c-1-0.6,0.2-0.7,0.4-0.7s1-0.7,0.7-1.1c-0.4-0.5,0-1.4,0-1s1,0.6,1.3,0.3c0.2-0.3,0-1.1-0.5-1.4s0.9-0.5,0.5-1
			s-0.6-1.1-0.6-1.1l0,0C178.3,66.8,177.8,67.6,176.6,67.2z"/>
		<path class="st2" d="M192.1,136.5L192,137c0.1,0,0.1,0.1,0.2,0.1l0.1,0.5c-0.1,0.1-0.1,0.1-0.1,0.2l0.4,0.4c0.3-0.3,0.4-0.7,0.3-1
			C192.7,136.7,192.2,136.5,192.1,136.5z"/>
		<path class="st2" d="M192,137L192,137L192,137z"/>
		<polygon class="st2" points="192.8,135.3 193.7,135.4 193.8,134.6 192.9,134.5 		"/>
		<path class="st2" d="M192.9,134.5L192.9,134.5L192.9,134.5z"/>
		<path class="st2" d="M187,106.7c0.4,0.1,0.7,0.3,0.4-0.9c-0.1-0.3-0.4-0.5-0.8-0.5l0,0c-0.8-0.1-1.8,0.5-1.5,0.9
			C185.7,107,186.7,106.7,187,106.7z"/>
		<rect x="175.4" y="124.8" class="st2" width="0.7" height="1.8"/>
		<path class="st2" d="M126.1,33.7c0,0,1.4,0.1,1.5,0.4c0.1,0.3,1,0.4,1.1,0.1s0.5-0.9-0.4-0.9c-0.9,0-0.7-0.5-1-0.8
			c-0.1-0.2-0.7-0.2-1.2-0.2c-0.5,0.1-1,0.1-1,0.3C125.4,33.1,126.1,33.7,126.1,33.7z"/>
		<polygon class="st2" points="95.2,15.3 94.2,13.4 94.2,13.4 		"/>
		<polygon class="st2" points="102.9,38.5 102.5,38.9 103,39.4 103.4,39 		"/>
		<path class="st2" d="M104.1,32.3l-1-1.9l0,0l0,0L104.1,32.3L104.1,32.3z"/>
		<polygon class="st2" points="166.8,72.8 166.9,73.4 167.8,73.3 167.8,72.7 		"/>
		<polygon class="st2" points="187.1,94 188.1,94.2 188.2,93.6 187.2,93.4 		"/>
		<rect x="180.2" y="69.7" class="st2" width="0.6" height="0.7"/>
		<polygon class="st2" points="182,70.3 181.5,70.1 181.5,70.1 181.2,70.6 181.7,70.9 		"/>
		<polygon class="st2" points="178.6,65.8 178.5,65.2 177.5,65.3 177.6,65.9 		"/>
		<polygon class="st2" points="152.2,11 152.3,10.9 153.4,10.2 153,9.8 153,9.8 152.2,10.3 151.6,9.9 151.3,10.5 152,10.9 		"/>
		<rect x="179.1" y="65.9" class="st2" width="0.6" height="0.5"/>
		<path class="st2" d="M167.8,72.7L167.8,72.7L167.8,72.7z"/>
		<polygon class="st2" points="169.6,74.2 169.3,74.9 169.8,75.1 170.1,74.5 		"/>
		<path class="st2" d="M171.2,75.7c-0.3,0-0.8,0.1-1,0.1c-0.5,0.1-0.4,0.5,0,1l1.1-0.2c0,0,0.9-0.4,0.7-0.7
			C171.9,75.7,171.6,75.7,171.2,75.7z"/>
		<polygon class="st2" points="184.8,94.2 184.5,94.4 183.8,94.8 183.2,94.4 182.9,94.9 183.7,95.4 183.8,95.5 184,95.4 184.5,95.1 
			184.6,95.3 185.2,95 184.9,94.6 		"/>
		<path class="st2" d="M162.5,74.3L162.5,74.3L162.5,74.3z"/>
		<path class="st2" d="M130.7,110.4L130.7,110.4l-0.9,0.1l0.1,1.4l0.6,0.5l1,0.3c0,0,1.4-0.4,1.5-1.5l-2.2-0.1L130.7,110.4z"/>
		<path class="st2" d="M138.8,103.7c0.4,0.1,0.1-1.4,0.1-1.4l0,0l-1.7,1.3c0.9,0.1,1,1,1,1.4C138.4,105.8,138.4,103.6,138.8,103.7z"
			/>
		<polygon class="st2" points="143.8,129.9 144.5,128.8 143.9,128.6 143.9,128.6 143.2,129.1 143.5,129.4 		"/>
		<polygon class="st2" points="155.3,125.7 155,125.2 154.2,125.7 154.5,126.2 		"/>
		<path class="st2" d="M144.1,103.7c0.5,0.3,1.3-0.3,0.7-0.7c-1.4-1-1.3-2.2-1.7-3.1c-0.1-0.2-0.2-0.3-0.4-0.4l0,0
			c-0.2,0-0.3,0.1-0.5,0.5v1.3C142.4,101.3,143.7,103.4,144.1,103.7z"/>
		<path class="st2" d="M151.9,118.7L151.9,118.7L151.9,118.7z"/>
		<polygon class="st2" points="128.9,92.9 127.9,92.9 127.9,92.9 127.7,93.3 127.2,93.3 127.1,94.1 127.7,94.1 127.8,94.7 127.4,95 
			127.2,95.5 126.5,95.7 124.8,97.4 124.7,98.1 124.2,98.8 123.7,100.2 121.7,100.3 121.3,102 121.6,103.5 123.3,104.2 123.5,103.2 
			124,102.9 124.1,102 124.5,101.3 125.1,100.6 125.2,99.9 126.2,99.3 127.3,99.1 127.8,98.5 128,97.4 128.1,96.5 128.5,95.9 
			129.6,95.4 129.6,93.6 129.1,93.6 		"/>
		<path class="st2" d="M135.9,79.1L135.9,79.1L135.9,79.1z"/>
		<path class="st2" d="M96.8,106.7L96.8,106.7c-0.2,0-0.4,0.2-0.4,0.4l0,0c0,0.2,0.2,0.4,0.4,0.4s0.4-0.2,0.4-0.4
			C97.2,106.9,97.1,106.7,96.8,106.7z"/>
		<path class="st2" d="M101.1,103.1L101.1,103.1L101.1,103.1z"/>
		<path class="st2" d="M133.7,118.1c0,0-0.3,0.6-0.9,0c-0.1-0.1-0.1-0.1-0.2-0.1l0,0c-0.5,0-0.9,1.5-1.1,1.8c0,0,0.2,0.8,0.6,0.7
			c0.4-0.1,0.7-0.3,1.1-0.3c0.3-0.1,0.5-0.6,0.6-1.3C133.9,118.3,133.7,118.1,133.7,118.1z"/>
		<path class="st2" d="M145.1,153.4L145.1,153.4L145.1,153.4z"/>
		<path class="st2" d="M178.6,143.2c-0.4-0.3,0.5,0.5,0.7,0.9s0.7,0.4,1,0c0.1-0.3,0.1-0.7,0.2-1.1l-0.6-0.6
			C179.6,143.1,178.9,143.5,178.6,143.2z"/>
		<path class="st2" d="M187.4,144.5l-0.5-0.5l-0.1-2.4c0.4-1.3-1.8-3.1-2-2.7c-0.2,0.4-1.4,0.1-1.4,0.5s-0.7,2.3-0.4,3
			c0,0.1,0,0.1,0.1,0.1l-0.9,2.3c-0.2,0.5-0.5,1-0.4,1.3l0,0l0.9,0.4l0.1,1.6c0.6,0.6,2,0.6,3.2,0.5l1.5-1.6
			C187.5,145.9,187.4,144.5,187.4,144.5z"/>
		<path class="st2" d="M134.4,117.3L134.4,117.3c0,0.1-0.3,0.9,0.1,1c0.4,0.1,0.3,0.2,0.5,0.5l-0.2,0.5c-0.3-0.5-0.6,0.3-0.3,0.6
			c0.2,0.2-0.5,0.1-0.5,0.3c0,0.3-0.2,0.5,0,0.6c0.2,0.2-0.1,0.2-0.3,0.5c-0.3,0.2,1.2,0.3,1.2,0.3s-0.3-0.6,0.1-0.6
			c0.1,0,0.1,0,0.2,0l0.3-3.7L134.4,117.3z"/>
		<path class="st2" d="M158.5,71.2c0-0.4-1-0.9-0.9-0.3s-0.7,0.9-0.9,0.7c-0.2-0.2-0.7,0.6-0.7,0.6c0,0.3-0.2,0.7,0.4,0.8
			c0.6,0.1,1.6-0.4,1.7,0.2c0.1,0.2,0.1,0.3,0.1,0.5l1.6-1.6C159.5,71.7,158.5,71.5,158.5,71.2z"/>
		<path class="st2" d="M165.8,73.8c-0.1-0.3-1.1-1.8-1.7-1.9l1.8,2.1C165.9,73.9,165.8,73.8,165.8,73.8z"/>
		<path class="st2" d="M162.6,74.1L162.6,74.1L162.6,74.1L162.6,74.1L162.6,74.1c0,0,0.6,0.1,1,0.2l-1.6-1.9l-1.7,1.8
			c0.2,0,0.3,0,0.5,0C161.5,74.2,162.6,74.1,162.6,74.1z"/>
		<path class="st2" d="M164.9,76.3L164.9,76.3L164.9,76.3z"/>
		<path class="st2" d="M126.3,135.4l-0.9,0.3l-0.6,0.9l-1.1,0.4l-0.2,2l-0.6,0.4v0.9l-0.7,0.2v0.5l-1,0.1l0.6,1.4l0.7,0.4
			c1.3,0.2,0.7,1.8,0.7,1.8l0.7,0.1l0.4,1.1l0.7,1.5c0.3,1.1,1.1,0.9,1.5,0.8c0.4-0.1,0.7,1.1,0.7,1.1l3.8,0.1c0,0-0.2,0.4,0.5,0.6
			c0.3,0.1,1.8,0.2,3.1,0.2l2.3-0.6c0.3-0.2,1-0.3,1.6-0.3c0.6,0.1,1.2,0.2,1.6,0.5c1,0.7,2.4,0.3,2.4,0.3l1,1.3l1.1,2.1l0,0l0,0
			l0.2,0.5l1.6,0.5l1.1,0.3l0.4,1.6l0.9,0.1l0.3,1.1c1,0.7-0.3,2.4-0.3,2.4v2.1l0.7,0.4l-0.1,0.8l1.3,1.3l1.4,0.1l2.3,2.5l2.4,1.7
			l1.6,0.5l0.5,1.5l0.7-0.1l0.6-0.5l2.3-0.1l1.1-1.1l1.3-0.2l8.9-7.6l0.6-3.1v-0.9c1.7-1.3,1.8-3.5,0.2-3.6
			c-1.2-0.2-0.7-1.4,0.5-1.6l0.7-0.3v-0.9l2.2-2v-1.5l-4.7-3.9c-1-0.3-1-1.5-0.7-2.7l2.6-5.6c-0.2-1.9-0.6-4-0.6-4l-0.7-0.4l0.2-2.3
			h-1l-1.7,2.2l-0.2,0.6l-1.2,2c-1.7,0.8-5.2,0.5-5.4,0.3c-0.3-0.3-2.3-1.1-2.3-1.1s-1.5-1.3-1.8-0.9c-0.3,0.4-1.6-0.5-1.6-0.2
			s-1.3-0.7-1.3-0.7l-1.9-0.7l1.4-0.3l-0.2-0.9c0.1-0.1,0.1-0.1,0.2-0.1l0,0l2.2,1.1c0.3,0.4,1.5,0.3,1.5,0.3l0.4,0.5
			c0,0,0.7-0.1,1.3,0.5c0.5,0.6,3,0.1,3,0.1l0.7,0.6l1,0.4l1.8,0.1l1.4-1.9l0.5-0.5l-0.1-1.1l0.7-0.6v-1l0.6-0.2l0.1-2.1l0.5-0.1
			v-4.6l-1.4-1.4c-0.1,0.5-1.6,0.5-1.6,0.5s-0.4,0.7-0.7,0.7s0.4,0.9,0.2,1.4c-0.2,0.6-1,0.6-1,0.6l-1.4,0.4l-0.4,0.5h-1.5l-0.1-0.9
			c0.2-0.2,0.3-0.4,0.5-0.6l1.2-0.3l1-0.5l0.5-1c0.1-1,1.3-0.9,1.3-0.9s2.2-1.8,2.3-2.7c0.1-0.9,0.9-3.2,2.2-3.2h2.4
			c1-0.4,0.7-1.6,0.7-1.6l1.3-0.2l0.2,0.7c0,0,1.7,0.2,1.9-0.1c0.2-0.3,0.6-1,1-0.7c0.5,0.3,2-0.7,2-0.7c0.1-0.7,2.4-0.4,2.4-0.4
			l0.3-0.9c0,0-1.6-2.2-1.9-2.2s-1.8-1.4-2-0.9c-1.5-0.4-1.4-2.5-1.4-2.5l-0.6-1.4c0-0.8-1.4-2.4-1.7-2.2c-0.6-0.5-0.7-0.9-0.7-1.3
			l0,0l1.8-2.3c0.1-0.1,0.2-0.3,0.2-0.3l0.5-1.4l1.6-0.5l0.2-1.3l-0.7-0.1c0,0,1-1.7,1.4-1.7c0.5,0,3.6,0,3.9-0.2
			c0.3-0.2,0.9-1.7,0.9-2s0.7-0.4,1-0.5s1-0.9,1.1-1.3c0.2-0.4-0.5-2.8-0.9-2.4s-1.3,0.6-1.3,0.6l-0.3,1.1l-0.5,0.4c0,0,0.1,0.3,0,1
			s-1,1.1-1,1.1l-0.4,0.5c0,0-2.3,0.1-2.6,0c-0.9-0.4-0.3-1.5,0.3-1.4s-0.1-1.6-0.1-1.6l0.7-0.1c0,0,0.1-1.7,0.4-1.7
			s-0.1-0.6-0.5-0.9s-0.9-1.3-1.3-1.1s-1.9,0-1.9,0l-0.3,0.6l-1,0.2c0,0,0.1,0.7-0.1,1c-0.6,0.7-2.7,2.1-1.8-0.3l0.3-0.6v-0.9
			l-1.7-0.1c0,0-0.9-0.3-0.9-0.7s-0.1-0.9-0.1-0.9l-2-2.2l-2.4-0.3l-0.2-0.5l-1.4-0.2c-0.2-0.1-0.4-0.2-0.6-0.2l-2.2,0.7
			c-0.1,0.2-0.2,0.6-0.1,0.9c0.3,1.4,0.7,2-0.2,2c-1,0-1.1-0.7-1.1-0.7s-0.7-0.3-0.7,0.1s-0.3,1.1,0,1.5s-0.4,1-0.7,0.7
			s-1-1.1-0.9-1.4c0.2-0.3-1.3-2.1,0.2-2.4s-0.1-1.1,0.5-1.4l0.7-0.4h0.7l0.5-0.4l0,0l-1.2-0.2l-0.7-0.1l-1.4-0.1
			c-1.4,1-1.7,2.1-1.7,2.1c-0.6,1.3-2-0.1-2-1l-3.3,0.1c-0.5,0-1-0.1-1-0.1c-0.3,0.9-1.6-0.1-1.3-0.7c0.4-0.6,0.4-1,0.4-1l-0.5-0.1
			l-0.6,1.1c-1.3,0-1.7,0.7-1.4,1.3c0.3,0.5-0.4-0.1-0.6,0.6c-0.2,0.7,0.1,0.7,0.7,1c0.6,0.3-0.3,0.3,0.1,0.7c0.2,0.3,0.8,0.2,1,0.3
			l-0.7,0.7c-0.6,0.2-1.4,0.1-1.4,0.1c0,0.2-0.1,0.3-0.3,0.4c-1.5-1.3-3.2-2.3-5-3c0.3-0.2,0.8-0.2,1-0.9c0.4-1.1,0.6-2.8,0.6-2.8
			s-1.5-0.1-1.6,0.4s-1,0.7-1,0.7s-0.7,0.3-0.5,0.7s-0.6,0.6-0.6,0.6s0.1,0.3,0.1,0.5l-6,1.4l0,0l0.2,2.3l-1-0.3h-0.6l-0.3-0.6
			l-0.6-0.1v2.1l0.6,0.5l0.5,0.5l1,0.1l0.2,1.1l2.4,0.1l0.3,0.5l1.4,0.1l2.7,2.8l-0.2,0.9l-0.5,0.3c0.2,0.7-1.3,0.3-1.3,0.3v0.6
			l0.7,0.1l0.7,0.4l1-1.6c1-0.7,1.5,0.3,1.6,0.9s-0.5,0.5-0.5,0.5V92l0.6,0.2c1,1.1-0.4,1.8-0.4,1.8l-0.3,1
			c-0.3,0.9-1.3,0.7-1.3,0.7l-0.4,0.6l-1.1,0.3l2.2,0.3c0.2-0.8,0.8-1,1.1-0.6s0.3,1.1,0.3,1.1l0.6,0.1l-0.1,1.1l0.6,0.2v3.1
			l0.7,0.7c1.1-0.5,1.1,0.3,0.6,0.7c-0.6,0.4-0.2,2.1-0.2,2.1l-0.5,0.5v0.8l-0.6,0.4v1.1c-1-0.5-2.1-0.3-2.4,0
			c-0.9-0.6-2.7-0.4-2.7,0.1c0.6,0.7-0.7,1-0.7,1l-0.7,0.7c0.5,1-0.5,1.1-0.5,1.1v1.8l-1.1,1.1l0.1,1.7l3,1.8
			c0.1,0.1,0.2,0.2,0.2,0.2h0.9l0.1-0.5l-0.5-2.2v-2.1l1-1.1c0.1,0,0.1-0.1,0.2-0.1l0,0c0.8,0,0.6,1.9,0.6,2.6l0.1,2.4l0,0
			c0,0.2,0.1,0.5,0.1,0.5l0.5,0.2l-0.9,0.7l-0.7,0.9l-1-0.3l-1.1-0.1l-0.4-0.7l-0.7-0.1l-0.1,1.4l-0.5,0.6l-1.1,1.1
			c1.2,0,0.4,0.6-0.2,0.9l-2.3,0.7c-0.1-0.1-0.2-0.1-0.4-0.1v0.7l-0.7,0.1l0.7,0.7l0.5,0.1v1.6v0.1c0,1.3-3.1,0.4-3.4,0.1l-0.1,1.7
			l-0.6,0.1l0.1,1.1l-0.1,1.6l1-0.2v0.7l2.6,0.1l0.5-0.5l2.3-2.4l1-1l2.2-0.5c0.2-1,1.1,0.2,1.1,0.2c1-0.1,1.1,0.6,1.1,0.6l1.3,0.2
			c1,0.3,0.4,0.4,0.5,0.8c0.1,0.6,0.6,0.4,0.6,0.4l0.2-1.3l0.6,0.1l-0.6-0.7l-1-0.5l-1.1-0.5c-0.7-1.1,0.2-0.9,1-0.7h1.3
			c0,0,1.4,1.9,1.4,2.4s0.7,0.6,0.7,0.6l0.9-0.1l0.3,0.7h0.9l0.3,0.6h1.7l0.1-0.9l-1.6-0.3l-0.1-1l-1.1-0.3
			c-0.4-1.6,0.3-2.1,0.7-1.4l0.6,0.1l-0.2-1.4l0.7-0.2l-0.2-2l-0.6-0.2v-1l2.4,0.1c-0.2-1.3,0.1-1.8,0.1-1.8l0,0l0,0l0,0h0.7
			l0.1,0.5l2.9,0.3h0.1c1.1,0.7,0.6,1.5,0.2,1.7c-0.4,0.2-1,0.2-1,0.2l-0.2,0.4l-2.4,0.2l-0.2,1c-1.3-0.2-1.7,1.1-1.4,1.8
			s0,1.3,0,1.3l1,0.5l1.3-0.4c0.2-1,1-1.1,1.8-1.7c0.7-0.6,2,1.1,1.6,1.8c-0.1,0.1-0.1,0.2-0.1,0.2c-1.4,1-3,1.9-4.5,2.7l0,0
			c-2.5,1.2-5.1,2.2-7.9,2.7c-0.1-0.1-0.1-0.1-0.1-0.1l-1-0.3l-0.1-1.4c-0.2-1-2-1-1.9-0.3s-3.4,0.3-3.4,0.3l-2.3,1.6l-1.7,0.2
			l-0.7,0.4l-0.3-0.6h-0.7l-0.5,0.6l-3.7,1.6c-0.2,0.2-0.3,0.4-0.3,0.5C127.2,134.9,126.3,135.4,126.3,135.4z M156.2,115.6
			c0-0.6,0.2-1.4,0.1-1.6c-0.1-0.2,0.6-0.6,1-0.6l0,0c0.2,0,0.4,0.1,0.3,0.5c-0.3,0.9,0,1.3,0,1.3c1.3-1.1,2.3,0.1,2.2,0.4
			s0.7,0.6,1.1,0.3c0.5-0.3,1,0.9,0.9,1.4c-0.2,0.6-1.9,0.5-2-0.1s-0.4-0.4-0.6-0.1c-0.2,0.2-0.8,0.4-1.3,0.3l-0.4-0.4
			c0.1-0.1,0.1-0.2,0-0.3c-0.1-0.1-0.3-0.1-0.5-0.1L156.2,115.6z"/>
		<path class="st2" d="M205.2,63c0,0-1.3-1-1.3-1.4c0.1-0.5-1.3-1.4-1.3-1.8c0.1-0.4-1.3-1.1-1.1-1.5c0.1-0.4-0.7-1.4-0.7-1.4
			l-1.4-1.4l-0.2-0.9l-1.1-0.1l-2.3-2.8l0.1-0.8l-0.7-0.1v-1.1l-0.7-0.4l-1-0.1l-2.1-2.3l-0.2-1.1h-1l0.2-1.6l-0.7-2.5
			c-0.3,0.1-0.7,0.1-1,0c-0.7-0.3,0.3-1,0.3-1V40l-0.6-0.6c0,0-1.6,0.2-1.7-0.1c-0.1-0.3-0.4-1.5-0.4-1.5l-0.1-1.6l-0.7-0.3
			l-0.1-0.6l-1,0.1v-1.1l-0.6-0.2l-0.6-0.3l-0.1-1.1l-2.1-0.1l-0.7-1l-0.7-1.1l-2.4-0.2l-0.6-0.6l-1-0.2l-0.7-0.3l-0.3,0.5l-1.8,0.1
			l-0.1,0.6c-0.6,0.3-2.1,0.3-3.3,0.3l-1.9,1.5c-0.1,0.3-0.2,0.6-0.5,0.6c-0.5,0-0.3,1.3-0.3,1.3s1.3,0,1.6,0.1
			c0.4,0.1,0.4,1.1,0.4,1.1c1.4-0.1,2,1.8,1.8,2.3s0.6,0.5,0.6,0.5s0,1.5-0.2,1.9s1.3,0.7,1.6,1.3c0.4,0.6-0.2,2.5-0.5,2.6
			s0.7,0.4,0.7,0.9c-0.1,0.5,0.3,0,0.4,0.8c0.1,0.7,0.3,2.4,0.3,2.4l1.3,0.1c0.2-1.3,2.6-1.3,3-1.1c1.6,0.6,2.8,3.1,2.8,3.6
			s-1,0.7-1,0.7l0.1,0.6l0.7,2.4c1.3,0.8,2.3,2.6,2.2,2.9c-0.2,0.4,1.1,0.3,1.1,0.3c0.2-1.7,1.8-1.1,1.9-0.6
			c0.1,0.6,0.4,1.8,0.4,1.8l0.5,0.9l0.7,0.7l1-0.1l0.3,0.6l1.3,0.2c0,0,1,1.1,1.1,1.4c0.1,0.3,1.5,0.2,1.9,0.3s1,0.4,1,0.9
			c0.1,0.5,0.7,1.3,0.7,1.3s1.1,0.3,1.3,0.7c0.1,0.4,0.6,1.3,0.6,1.3l1,0.8l0.1,0.9l1,0.1l0.3,1.1l1.7-0.1l1-0.7
			c0.3-0.2,0.6-0.3,0.8-0.5l1.5-2.1c0.2-0.5,0.5-1,1.1-0.9C205.8,65.4,205.2,63,205.2,63z"/>
		<path class="st2" d="M192.3,87.1c-0.3-0.3,0.3-1.6,0.3-1.6s0.4-0.8,0-1.5c-0.4-0.8,0.1-1.6,0.4-2l-0.7-0.4l-0.7-0.1l-0.6,0.1
			c-0.2-0.6-0.3-1.2-0.6-1.8l0,0l0.5,0.1v-0.6l-0.7-0.2c-0.1-0.4-0.3-0.8-0.4-1.2l-0.1-2l-0.7-0.5l0.2-0.7l-0.7-0.3l0.4-1.3
			l-0.7-1.4h-1c-0.5-0.9-0.9-1.8-1.4-2.7c0.1-0.1,0.2-0.1,0.4-0.2c0.5-0.1,0.7-0.2,0.7-0.2l0,0l0,0l-0.1-1l-0.9-0.6l-0.3-1.1
			c0,0-1,0.2-1,0.7c0,0.1-0.1,0.2-0.2,0.3c-0.7-1.1-1.4-2.1-2.1-3.1c0-0.1,0.1-0.1,0.1-0.2c0.4-0.7,0.2-1.1-0.5-1.3s-0.7-0.2-0.9-1
			c-0.2-0.7-1-1-1-1l-0.3-1.1l-0.7,0.5c-0.4-0.5-0.7-0.9-1.1-1.3l0.3-1.1c-0.4-0.1-0.6-0.3-0.7-0.5l-1.1-2c-0.3-0.2-0.7-0.3-0.9-0.2
			c-0.5,0.3-0.3-2-0.3-2s0.9-0.6,1.3-0.3c0.4,0.3-3.2-4.8-4-4.3c-0.7,0.5-2.4-0.5-2.4-1.4c0.1-0.9-3.4-3.8-3.4-3.8s-1.1-0.7-1.3-0.2
			c-0.2,0.6-0.6,1,0,1.3s0.5-0.5,1.1,0.2c0.7,0.7,1.9,1.5,1.4,2.1s-1,0.7-1,0.7l0.7,0.8h1l0.2,1.6c0,0,1.1,0.6,1.4,1.3
			c0.2,0.5,0.2,0.7,0.2,1l-0.9,2.2c0.1,0.7,0.9,1,0.9,1l0.5,0.1c0.3,0.2,0.6,0.5,0.9,0.7v0.8c0.7-0.2,1.7,0.6,1.9,1.3l1.6,1.6l0,0
			c0.4,0.4,0.3,0.5,0.9,0.9c0.2,0.1,0.3,0.2,0.5,0.2c0.3,0.3,0.6,0.7,0.9,1l-0.2,0.3c0,1.1,0.5,0.8,1,0.7c0.2,0.2,0.3,0.4,0.5,0.6
			c0.1,0.6,0.1,1.5,1.1,1.4c0,0,0,0,0.1,0c1.2,1.6,2.3,3.4,3.4,5.1l0.1,0.1l0,0c0.2,0.3,0.3,0.6,0.5,0.9c-0.2,0.2-0.3,0.4-0.3,0.4
			l-1.5,0.2v1.5l-0.7,0.3l0.1,1l1-0.1c0,0,0,1.1,0.3,0.7c0.3-0.5,2.7,0.1,2.4,1.3c-0.1,0.5,2.4,1.7,2.1,3.2c0.2,0.1,0.3,0.1,0.5,0.2
			c0.5,1.3,0.9,2.7,1.2,4l-0.2,0.3c0,0,0.2,0.1,0.3,0.3c0.3,1.2,0.6,2.4,0.7,3.6c-0.1,1-0.3,2-0.9,2.3c-1.1,0.7,0.1,0.3,0.1,0.3
			l-0.2,2.1c0.3,1,0.7,0.5,1,0c0.2-0.2,0.3-0.4,0.5-0.6l1.8-3.6C192.4,87.6,192.5,87.2,192.3,87.1z"/>
		<path class="st2" d="M164.1,47c-0.2-0.7,0.7-1,1.3-0.2l1-0.1l0.2-0.9l-1.3-1.1h-1c0,0-0.1,0.7-0.7,0.5c-0.6-0.3-0.3-0.2-0.9-0.3
			c-0.5-0.1-0.4,1-0.3,1.5l1.9,1C164.1,47.3,164.1,47.2,164.1,47z"/>
		<path class="st2" d="M138,31.3c0.1-0.4,0.2-0.5,0.7-0.6c0.6-0.1-0.1-1.3-0.7-1.1c-0.4,0.1-0.8-0.1-1-0.3v2.6
			C137.7,31.8,137.9,31.5,138,31.3z"/>
		<path class="st2" d="M124.4,110.5c0.5-0.7,1.3-0.9,1.3-0.9l0.3-0.7l2.6,0.1c0.2-1.1,1.4-0.7,1.4-0.2s1,0.1,1,0.1l0.7-1.1h1
			l0.1-1.1l0.5-0.3v-1.7c1.5-0.5,1.3-1.9,1.3-1.9l0.4-0.5l-0.2-0.7c-0.7-0.3-0.4-1,0.1-0.8s-0.7-0.9-0.7-0.9c-0.6,0.5-1-0.6-1-0.6
			h-1.5v-1.4l-0.2-1.3l-1.4-0.7l-1,1l-0.2,1.4v0.9l-1,0.2l-0.2,2.6l-0.7,0.3l0.1,1l-1,0.3l-1,0.3l-0.2,1.3l-0.7,0.5l-0.4,1.1
			l-0.5,2.7l1.1,1.1C124.3,110.6,124.3,110.6,124.4,110.5z"/>
		<path class="st2" d="M133,83.9c-1.1,0,0-0.9,0-0.9l0.2-1.4h-1l-0.2-2l-2.8-1.5l-0.1-1.1l0.5-0.3l-0.7-0.3l-0.6,0.7L128,78l-1,0.2
			v0.5h-0.6v0.6c-1.4,0.7-2.7,1.6-3.9,2.7h-3.2l-0.9-0.1c-0.4,0.9-1.3-0.1-1.3-0.1c-0.2-0.6-1.5,0-1.5,0c0,1.1-1.8-0.5-1.8-0.5
			l-3.3-2.4c-1.9-1.7-4.7,0.5-4.8,1c0.1,0.7-0.6,0.7-1.2,0.6l-2.2-0.5c-0.4,0-0.8,0.1-0.9,0.4c-0.3,0.7-1.5,0.6-1.5,0.6l-0.2,0.4
			l-1,0.2l-0.2,0.6l-1.1,0.2l2.8-0.1c0.7-0.1-0.3,1.6-0.7,1.5l-1.3,0.1l-0.5,0.5h-1.3l-0.6,0.8L94.1,85c0,0-1,0.9-1,1.1
			c0.1,0.3-0.2,1.1-0.5,1.1s-0.9,0.9-0.7,1.1c0.2,0.3-0.6,1.3-0.6,1.3l-0.2,1l-0.6,0.2v2.6l-1.1,0.7v1.1L89,95.8l-1,2.3l0.1,0.5
			l-1.4,1.5l0.2,1.5L86,102l-0.2,0.7l-0.4,2l1,0.1c0.5-0.2,0.4,1.3,0,1.4c-0.4,0.2-1.4,0.6-0.9,1c0.6,0.4-1.5,0.3-1.5-0.3
			s-1.1-1.1-1.4-0.9c-0.2,0.1-0.4-0.2-0.6-0.5l-2.4-0.8c-1.1,0.1-2,0.5-2,0.5l-0.5,1.5c-1,0.2-1.7,1.9-1.7,1.9
			c-0.9,0.3-1.5,1.4-1.3,1.6c0.3,0.3-0.5,0.4-0.5,0.4v2.1l-0.5,0.7l0.1,2.3c0.6,0,0.5,1.1,0.5,1.1c-1,0.1-0.7,1.4-0.7,1.4l-2,0.7
			l-0.4,0.6l-2.4-0.1l-0.7,0.7l0,0l-2.6-0.7h-2.8l-0.2-0.5l-1-0.2l-0.1-1.1l-1.4,0.1l-0.3,0.6l-1.5,0.1c0.1,1-1.5,2.4-1.7,2
			s-1.3-1.4-0.7-1.6c0.5-0.2,1.7-0.4,1.7-0.4v-0.7l-3.5-0.1l-0.4,0.6l-1.4,0.1v1.5L51,120c-0.5,0.3,0.1,1.4,0.1,1.4
			c0.7,0.7-0.1,1.7-0.1,1.7c-0.6,0.6,0.5,1.6,0.5,1.6c0.7,0.2-0.5,0.7-0.5,0.7c0.2,1,0.7,1.3,0.7,1.3c-0.6,1,0.4,1.4,0.4,1.4
			l0.1,1.6l0.7,0.4v1.1l0.4,0.7h1.5l-0.1-2.4c-1.3-1.5,1.1-1.9,1.3-1.4c0.1,0.6,1.1,0.9,1.1,0.9c0.2,1.4,1.8,2.3,2.3,0.9
			c0.5-1.4,0.9-0.6,1.1,0.1c0.3,0.7,2.1,2.3,2.1,2.3H64l0.2,1.4c1.6-0.1,2.1,0.1,2.7,2.3c0.7,2.2,2.4,2.8,2.4,2.8l1.3-0.1
			c0-1.1,1.3,0.2,1.3,0.8s2.6,2.8,2.6,2.8l2.6,0.6l0.5,0.4l4.1,1.4H82c0.2-0.5,0.5-0.7,0.9-0.7c0.9,0,1.9,1,2.1,1.4
			c0.1,0.2,0.3,0.5,0.6,0.7l2.4,0.8c0.1,0.2,0.2,0.5,0.2,0.8c0.2,1.4,0.9,1.1,0.9,1.1l5.4-0.1l1.9-1.6l4.8-0.1
			c2.4-0.1,1-3.5,0.5-3.5c-0.3-0.2-0.3-0.7-0.3-1.2l-4.8-7.3c-0.8-0.8-1.5-1.6-2.2-2.5c0.2-0.6,0.5-1.2,0.5-1.2c1.3-0.8-0.3-2-0.3-2
			c0.2-1.1-0.7-2.5-0.7-2.5c-1.7-1.1-1.3-3.4-1.3-3.4v-1.5c-1.4-1.4,0.6-1.5,0.6-1.5c0.7-1.1-0.5-2-0.5-2l-0.1-1.3l-1.5-0.2
			l-0.2-4.5l-3.4-4.9c-0.7-0.2-0.2-1.4-0.2-1.4c0.9-0.5-0.2-1.6-0.2-1.6l-0.1-2.1l2-0.2l0.5-0.7h1L90.4,99c0.2-0.5,0.5-0.7,0.7-0.7
			l0,0h0.5c0.2,0.1,0.5,0.2,0.5,0.2l1.3,0.1l0.1-0.2l0.8-2.3V96l-1-0.1c-1.1-0.7-0.6-3.2-0.6-3.2c0.8-1.2,1.6-1.5,2.3-1.6
			c0.9-0.1,1.5,0.5,1.5,0.5l1.3-0.1c0.3,0.2,0.6,0.5,0.7,0.7c-0.1,0.9-0.2,1.8-0.2,2.7c-0.1,0.2-0.2,0.4-0.2,0.4
			c-0.1,0.2-0.2,0.5-0.2,0.7l0.1,2.3l0.4,2.4l-1.3,1.1c-1,0.6-1,1.9,0.1,2.2c0.7,0.1,0.5,1.9-0.7,0.7c-1.5,0,0.5,1.3,0.3,1.2
			c1.5,0.7,1.2-0.9,1.2-0.9l0.9-0.7l2.1-1.2l0,0l0,0c0.8,0.3,1.7,1.6,1.7,1.8c0,0.3,3.8,0.1,3.8,0.1c1,0.7,1.4,2.4,1.4,2.4
			c1-1.4,3.2-0.1,1.6,0.7c1.5,1,1.5,1.8,1.5,1.8c1.3-0.4,1.3,0.6,1.3,0.9s0.4-1.4,0.4-1.4c-1.4-1.1,1.9-1.4,1,0.5l-0.6,0.9l1,0.7
			l0.1,2.2c2.1-0.2,1.5-2.8,1.5-2.8l1-0.2c0-0.9,0.7-0.4,0.7-0.4c-0.5-2.3,0.5-3.2,1-3.6l1.6-1.8c0.2-0.7,0.2-1.3,0.2-1.3
			c-0.9-0.4-0.4-1.7,0.6-0.6s-0.6-2.3-0.6-2.3l-0.7-0.7l-1-0.1l-2.2,0.3l-0.6,0.2l-0.2-0.4l-0.4,1.2h-1.7l-0.1-1.1l1-0.3l0.4-0.6
			l0.2-0.8l0,0h1.1l2.3-2.3c0.3-0.3,0.6-0.1,0.6-0.1l0.6,0.5l0.9,0.7l0.1,0.6l-0.6,0.3l-0.1,0.8l0.3,1.1h0.7
			c0.3-1.5,2.3-1.5,2.8-0.6l0.6-1.4c-1.3-0.7,0-1.7,0.3-1.3c0.4,0.5,1.3-1.3,1.3-1.3s0.7,0.9,0-0.3c-0.7-1.1,0.5-1.7,0.5-1.7
			c-0.2-1.1,1.3-1,1.3-1l0.1-1.5l-1.3-0.1c-0.3,1.4-1.4,0.2-0.9-0.1c0.6-0.3,1.1-0.9,1.1-0.9v-1l0.6-0.2l0.1-1h1.4L130,87l0.3-0.5
			l1.3-0.1l1.9-1.7L133,83.9z"/>
		<path class="st2" d="M175.6,138.2L175.6,138.2L175.6,138.2z"/>
		<polygon class="st2" points="99,104.4 101.1,103.1 101.1,103.1 		"/>
		<polygon class="st2" points="81.1,166.6 81.1,166.6 81.9,167.8 82,168.7 83,169 83.3,169.5 84,169.1 83.5,167.9 82.3,166.9 		"/>
		<polygon class="st2" points="129.5,163.2 130,162.8 130.2,162.5 129.9,162.3 129,161.8 128.7,162.3 129.3,162.6 129.1,162.8 		"/>
		<polygon class="st2" points="122.2,154.9 121.7,155.5 121.4,155.7 121.7,155.9 122.3,156.4 122.7,155.9 122.3,155.6 122.6,155.4 
					"/>
		<polygon class="st2" points="55.6,134.9 55.6,136.2 56.2,136.2 56.1,134.8 55.3,134.5 55.3,134 54.9,134 54.9,134.9 		"/>
		<polygon class="st2" points="61.4,142 62.4,143 62.8,142.3 62.2,140.9 61.5,140.4 61,139.1 59.6,138.4 59.6,138.4 60.3,140.1 
			60.6,141 		"/>
		<path class="st2" d="M145.1,153.4L145.1,153.4L145.1,153.4z"/>
		<path class="st2" d="M217.1,126.6l-0.6-0.1l0,0c-0.1,0.5,0.1,1,0.5,1.1l0.1-0.6l0,0C217.2,127,217.1,126.8,217.1,126.6z"/>
		<path class="st2" d="M220.1,124.2c0.1,0.1,0.2,0.1,0.4,0.1l-0.1-0.6c0.1,0,0.1,0.1,0.1,0.1v-0.1c0-0.2-0.1-0.4-0.2-0.6l0,0
			l-0.5,0.3c0.1,0.1,0.1,0.3,0.1,0.4C219.9,123.9,219.9,124.1,220.1,124.2z"/>
		<path class="st2" d="M220.1,125.3c0,0-0.2-0.6-0.3-1.1l0,0l-0.6,0.1c0.2,0.6,0.3,1.1,0.3,1.2L220.1,125.3z"/>
		<path class="st2" d="M214.3,114.8c-0.1-0.1-0.2-0.1-0.3-0.1c-0.4,0-0.9,0.2-1.1,0.4l0.3,0.5c0.3-0.2,0.9-0.3,0.9-0.3s0,0,0-0.1
			l0.6-0.1C214.6,114.9,214.5,114.8,214.3,114.8z"/>
		<path class="st2" d="M216.2,127.6L216.2,127.6c-0.2,0-0.4,0.2-0.6,0.3c-0.6,0.3-0.3,1.8,0,1.4c0.3-0.3,0.8,0,0.9-1.1
			C216.5,127.7,216.4,127.6,216.2,127.6z"/>
		<polygon class="st2" points="141.5,76.1 141.4,75.4 141.4,75.4 140.9,75.5 140.9,76.2 		"/>
		<polygon class="st2" points="146.8,74.5 146.7,74 146.4,74.1 146.6,74.6 		"/>
		
			<rect x="148.4" y="73.3" transform="matrix(0.9989 -4.637954e-02 4.637954e-02 0.9989 -3.2526 7.0105)" class="st2" width="2.1" height="0.6"/>
		<polygon class="st2" points="147.5,73.9 147.4,73 147.4,73 146.8,73.1 147,74 		"/>
		<polygon class="st2" points="138.2,73.5 137.6,73.5 137.6,73.5 137.5,74.1 138.1,74.1 		"/>
		<rect x="140.1" y="74.5" class="st2" width="0.7" height="0.6"/>
		<polygon class="st2" points="139.5,73.9 138.8,73.8 138.8,73.8 138.7,74.3 139.3,74.5 		"/>
		<path class="st2" d="M154.5,14c-0.5,0.2-1.4,0.1-1.4,0.1h-1.7c-0.1-0.3-0.5-0.5-0.9-0.4l0,0c-0.4,0.1-0.8,0.2-0.9,0.4
			c-0.1,0.4-0.7,0.5-0.7,0.5l-2.2,0.2c-0.2,0.6-1.3,1-1.4,0.6l0,0c-0.2-0.9-1.4,1.1-0.2,1.4c1.3,0.4,2.4,0,2.4,0l0.3-0.6l4.7,0.1
			c0.4-0.4,0.6-1,0.6-1s1.1-0.4,1.6-0.2C155.4,15.3,155,13.8,154.5,14z"/>
		<path class="st2" d="M145.7,20.1l-1.3-1.3v-1.1l-0.4-0.4l-0.4-1.4l-1.3-0.4L141,16l-1.3,0.9l-1.4,0.2l-0.7,0.9l3,0.3l0.6,1
			l2.2,0.2l1.4,1.4C146.1,21.3,146.4,20.7,145.7,20.1L145.7,20.1z"/>
		<polygon class="st2" points="157.4,12 156.6,12.7 156.2,12.2 155.8,12.6 156.4,13.2 156.6,13.5 156.8,13.3 157.8,12.5 		"/>
		<path class="st2" d="M152.7,74.5c0,0.3,0.7,0.6,1,0.6s1.4-0.7,1.4-0.7s0.5-1.4,0.1-1.3s-1.1,0.7-1.3,0.1c-0.1-0.3-0.3-0.3-0.6-0.3
			s-0.6,0.1-0.6,0.1l-1.5,0.2l-0.1,0.7l1,0.1C152.2,73.8,152.7,74.2,152.7,74.5z"/>
		<path class="st2" d="M153.4,72.7L153.4,72.7L153.4,72.7z"/>
		<polygon class="st2" points="131.8,74.1 131.2,73.9 131,74.5 131.7,74.6 		"/>
		<path class="st2" d="M96.9,105.8C96.8,105.8,96.8,105.7,96.9,105.8L96.9,105.8z"/>
		<path class="st2" d="M96.7,59.3L96.7,59.3L96.7,59.3z"/>
		<path class="st2" d="M84.2,46.8L84.2,46.8L84.2,46.8z"/>
		<path class="st2" d="M142.4,15.7L142.4,15.7L142.4,15.7z"/>
		<rect x="132.7" y="73.4" class="st2" width="0.7" height="0.6"/>
		<path class="st2" d="M119.4,57.9c0.6,0-0.5-0.7-0.5-0.7s-1.1,0.1-1-0.4l0.1,1.1L119.4,57.9z"/>
		<path class="st2" d="M117.9,56.8L117.9,56.8L117.9,56.8z"/>
		<polygon class="st2" points="131.3,74.9 130.5,74.6 130.4,75.2 131.1,75.4 		"/>
		<g>
			<path class="st2" d="M94.3,107.8c0.1,1.1,0.9-0.7,0.9-0.7v-6.5l-1.7-0.2l0,0l0.1,0.7H94c0.7,1.4,0.1,4.6,0.1,4.6
				s-1.1,0.1-1.3-0.5c-0.2-0.6-0.7,1.3-0.3,1.5C92.8,107,94.2,106.7,94.3,107.8z"/>
			<g>
				<polygon class="st2" points="95.5,111.3 95.7,110.5 95,110.2 95.1,108.8 95.7,108.7 95.7,108 95.7,108 94.3,109 93.4,108.4 
					93.4,110.7 94.9,112.7 				"/>
				<g>
					<path class="st2" d="M96.8,117.7L96.8,117.7c-0.2,0-0.4,0.2-0.4,0.4l0,0c0,0.2,0.2,0.4,0.4,0.4s0.4-0.2,0.4-0.4
						C97.2,117.8,97,117.7,96.8,117.7z"/>
					<path class="st2" d="M96.5,116.1c0-0.2-0.2-0.4-0.4-0.4c-0.2,0-0.4,0.2-0.4,0.4c0,0.2,0.2,0.4,0.4,0.4
						C96.4,116.5,96.5,116.3,96.5,116.1z"/>
					<polygon class="st2" points="95.9,113.8 95.2,114 95.1,114.7 95.9,114.8 					"/>
					<polygon class="st2" points="94.2,119.5 95,119.4 95,118.7 94.2,118.8 					"/>
				</g>
			</g>
		</g>
		<polygon class="st2" points="120.6,56.8 120,56.4 119.7,56.8 120.2,57.3 		"/>
		<polygon class="st2" points="130.3,76 130.2,75.4 129.7,75.5 129.8,76.1 		"/>
		<line class="st3" x1="160.3" y1="74.5" x2="162" y2="72.7"/>
	</g>
</g>
</svg>
