<?xml version="1.0" encoding="utf-8"?>
<!-- Generator: Adobe Illustrator 22.1.0, SVG Export Plug-In . SVG Version: 6.00 Build 0)  -->
<svg version="1.1" id="Logo" xmlns="http://www.w3.org/2000/svg" xmlns:xlink="http://www.w3.org/1999/xlink" x="0px" y="0px"
	 viewBox="0 0 696.7 154" style="enable-background:new 0 0 696.7 154;" xml:space="preserve">
<style type="text/css">
	.st0{fill:#1779BD;stroke:#1779BD;stroke-miterlimit:10;}
	.st1{fill:#0F58A4;stroke:#0F58A4;stroke-miterlimit:10;}
	.st2{enable-background:new    ;}
	.st3{fill:#0F58A4;}
</style>
<title>UN Peacekeeiping</title>
<g>
	<g id="Logo-2">
		<g id="Helmet">
			<path class="st0" d="M189.3,86.2c-0.8-0.5-5.6-2.3-6.8-3.1c-1.4-0.9-3.4-2-3.6-3.5s-0.5-6-0.9-7.5c-0.5-1.5-1.5-2.9-2.7-4v0.1
				c-3-53.6-142.3-74.1-147.9,26c-2.4,30.5,1.8,37,27.1,40.5c3.8,0.8,16.6,0,22.6-0.9c16.8,0,19-2.2,30.3-4.4
				c15.8-1.3,24.9-9.7,29.9-18c7.2-11.5,19.9-11.5,42.5-15.9C192.1,93.6,198.2,90.7,189.3,86.2z M89.1,73.2
				c0,5.6-5.1,10.2-11.4,10.2s-11.4-4.5-11.4-10.2V48.8h6.2v22.3c0,2.8,2.3,6.1,5.2,6.1s5.2-3.3,5.2-6.1V48.8h6.2L89.1,73.2z
				 M124.6,82.7l-7.2-0.1l-13.9-20.9l-0.2,21l-7,0.1l0.4-34l7-0.1l13.9,20.9l0.2-21l6.9-0.2L124.6,82.7z"/>
			<g id="Laurel">
				<path class="st1" d="M151.3,130.2c-9.5,0-16.1-3.9-28,1.8c-5.1,2.4-7.3,7.8-12.2,13.6c-7.1,8.5-15.6,10.6-35.7,4
					c9.7,2.2,20.9-3.2,32.2-13.4C119.6,125.5,139.1,124.5,151.3,130.2"/>
				<path class="st1" d="M47.7,0.5C40,8,38.6,10.7,35.9,15.5s-4.6,18.9-6.8,24.2C24,52,22.3,52.5,19.6,55.5
					c-0.3-2.9-0.2-6.6-0.9-10.1C16.2,31.6,16.4,14.2,47.7,0.5"/>
				<path class="st1" d="M21.5,76.1c-0.4-27.3,13.1-30.4,18.1-49.7c2.6,26-16,42.3-14.9,62.9c-1.4-2.6-3-6.8-5.9-9.2
					C3,66.8-2.3,47.9,11.6,23.3c-2.7,9.4-1.4,18,4.5,28.1C19.5,57.4,20.1,71.3,21.5,76.1"/>
				<path class="st1" d="M32.8,107.3c-1.7-1.5-3.3-3.3-4.5-5.3C18.9,85.3,4.1,81.8,1.2,66.9c-2.8,12.6,3.6,24.6,13.6,34.8
					c7.8,7.9,20.4,12.8,28,15.8c-4.5-5.3-6.3-17.3-5-25.1c3.2-18.5,1.4-33-0.9-33C35.6,68.8,33,78,29.2,86.7
					C26.6,92.9,30,99,32.8,107.3"/>
				<path class="st1" d="M56.8,128.5c-11.8-8.8-14-20.2-14.9-41.8c5.7,6.2,9.8,13.8,11.8,22c2.9,10.9,7.4,20.6,17.6,24.6
					c-15.4-0.9-26.8,0.5-37.1-3.5c-14.6-5.7-24-17.6-24-27.7c4.1,7.5,8.6,11.5,21.1,15.5C38.7,120,49.1,124.9,56.8,128.5"/>
				<path class="st1" d="M30.1,130.2C37.3,141,53.6,146,69,146.5c13.6,0.4,31.7-10.5,42.1-15c-12.7,0.9-18.3,0.8-25.8-4.4
					c-9.5-6.6-20.4-13.6-25.8-15.8c3.2,6.9,8.6,15.2,14,18.9c5.9,4,11.9,3.2,18.5,6.2c-12.7,0-24,0.4-31.2,1.3
					C52.5,138.7,38.7,137.7,30.1,130.2z"/>
			</g>
		</g>
	</g>
	<g class="st2">
		<path class="st3" d="M233.2,69.6h17.1c9.1,0,15.1,4.9,15.1,13.5c0,8.5-6.4,13.5-15.7,13.5h-10.9v16.7h-5.6V69.6z M249.5,92.7
			c6.7,0,10.3-3.3,10.3-9.5c0-6.2-3.5-9.5-10.3-9.5h-10.7v19H249.5z"/>
		<path class="st3" d="M302.3,99.3h-28.9c0.4,5.7,4.4,11.2,12.3,11.2c6.4,0,10-2.2,12.2-5.4l4,2.3c-3.1,4.2-8.3,7.1-16.1,7.1
			c-10.3,0-17.5-6.7-17.5-16s7.2-16,17.3-16C295.8,82.3,303.4,89.8,302.3,99.3z M297.2,95.7c-1-6.3-5-9.4-11.6-9.4
			c-6.9,0-10.9,4.4-11.9,9.4H297.2z"/>
		<path class="st3" d="M342.4,83.4v30h-5.1v-4.4c-2.8,3.4-7.1,5.4-12.2,5.4c-10.2,0-17.5-6.7-17.5-16.1c0-9.4,7.2-16,17.3-16
			c5.2,0,9.5,2.1,12.4,5.5v-4.5H342.4z M337.3,98.4c0-7-5.1-12-12.4-12c-7.1,0-12.2,4.9-12.2,12c0,7.1,5.1,12.1,12.2,12.1
			C332.2,110.4,337.3,105.4,337.3,98.4z"/>
		<path class="st3" d="M349.6,98.4c0-9.4,7.2-16,17.4-16c6.1,0,10,2.5,13.3,6l-3.7,2.5c-2.2-2.7-5.3-4.5-9.5-4.5
			c-7.2,0-12.3,5-12.3,12s5.1,12,12.3,12c5.2,0,7.9-1.7,10.1-4.2l4,2.4c-3.1,3.4-8.2,5.8-13.9,5.8
			C356.8,114.4,349.6,107.7,349.6,98.4z"/>
		<path class="st3" d="M419.4,99.3h-28.9c0.4,5.7,4.4,11.2,12.3,11.2c6.4,0,10-2.2,12.2-5.4l4,2.3c-3.1,4.2-8.3,7.1-16.1,7.1
			c-10.3,0-17.5-6.7-17.5-16s7.2-16,17.3-16C412.9,82.3,420.5,89.8,419.4,99.3z M414.4,95.7c-1-6.3-5-9.4-11.6-9.4
			c-6.9,0-10.9,4.4-11.9,9.4H414.4z"/>
		<path class="st3" d="M436.3,97.9l-4.3,3.5v11.9H427V66.8h5.1v29.1l15.4-12.6h6.6L439.8,95l14.5,18.3h-5.7L436.3,97.9z"/>
		<path class="st3" d="M491.4,99.3h-28.9c0.4,5.7,4.4,11.2,12.3,11.2c6.4,0,10-2.2,12.2-5.4l4,2.3c-3.1,4.2-8.3,7.1-16.1,7.1
			c-10.3,0-17.5-6.7-17.5-16s7.2-16,17.3-16C485,82.3,492.5,89.8,491.4,99.3z M486.4,95.7c-1-6.3-5-9.4-11.6-9.4
			c-6.9,0-10.9,4.4-11.9,9.4H486.4z"/>
		<path class="st3" d="M530.7,99.3h-28.9c0.4,5.7,4.4,11.2,12.3,11.2c6.4,0,10-2.2,12.2-5.4l4,2.3c-3.1,4.2-8.3,7.1-16.1,7.1
			c-10.3,0-17.5-6.7-17.5-16s7.2-16,17.3-16C524.3,82.3,531.9,89.8,530.7,99.3z M525.7,95.7c-1-6.3-5-9.4-11.6-9.4
			c-6.9,0-10.9,4.4-11.9,9.4H525.7z"/>
		<path class="st3" d="M573.2,98.4c0,9.4-7.2,16-17.3,16c-5.2,0-9.5-2.1-12.4-5.5v17.3h-5.1V83.4h5.1v4.4c2.8-3.4,7.1-5.4,12.2-5.4
			C565.9,82.3,573.2,89,573.2,98.4z M568.1,98.4c0-7.1-5.1-12.1-12.2-12.1c-7.3,0-12.4,5-12.4,12s5.1,12,12.4,12
			C563,110.4,568.1,105.5,568.1,98.4z"/>
		<path class="st3" d="M581.6,74c0-1.9,1.7-3.4,4-3.4c2.2,0,4,1.5,4,3.5c0,1.9-1.9,3.5-4,3.5C583.3,77.5,581.6,76,581.6,74z
			 M583.1,83.4h5.1v30h-5.1V83.4z"/>
		<path class="st3" d="M630.7,93.3v20.1h-5.1V95.2c0-6.8-4.1-8.9-9.3-8.9c-7.4,0-10.8,5-10.8,12v15h-5.1v-30h5.1v5
			c2.4-3.8,6.4-6,11.6-6C624.4,82.3,630.7,86.2,630.7,93.3z"/>
		<path class="st3" d="M673.3,83.4v28.8c0,8.2-6.4,14-15.4,14h-14.5v-4h14.5c6.1,0,10.3-4.2,10.3-10v-3.3c-2.8,3.4-7.1,5.4-12.2,5.4
			c-10.2,0-17.5-6.7-17.5-16.1c0-9.4,7.2-16,17.3-16c5.2,0,9.5,2.1,12.4,5.5v-4.5H673.3z M668.2,98.4c0-7-5.1-12-12.4-12
			c-7.1,0-12.2,4.9-12.2,12c0,7.1,5.1,12.1,12.2,12.1C663.1,110.4,668.2,105.4,668.2,98.4z"/>
	</g>
	<g class="st2">
		<path class="st3" d="M205.7,43.9V19.6h4.3v24.3c0,7.5,3.3,11.4,10.2,11.4c6,0,10-3.9,10-11.4V19.6h4.3v24.3
			c0,9.9-5.4,15.2-14.3,15.2C210.5,59.1,205.7,53.8,205.7,43.9z"/>
		<path class="st3" d="M266,40.5v17.7h-3.9v-16c0-6-3.2-7.9-7.1-7.9c-5.7,0-8.3,4.4-8.3,10.6v13.2h-3.9V31.7h3.9v4.4
			c1.8-3.3,4.9-5.3,8.9-5.3C261.2,30.8,266,34.3,266,40.5z"/>
		<path class="st3" d="M274.6,23.4c0-1.6,1.3-3,3.1-3c1.7,0,3.1,1.3,3.1,3.1c0,1.6-1.4,3.1-3.1,3.1C276,26.6,274.6,25.2,274.6,23.4z
			 M275.8,31.7h3.9v26.5h-3.9V31.7z"/>
		<path class="st3" d="M290.5,35.2h-4.6v-3.5h4.6v-8.8h3.9v8.8h6.2v3.5h-6.2v23h-3.9V35.2z"/>
		<path class="st3" d="M329.4,45.8h-22.2c0.3,5,3.4,9.9,9.4,9.9c4.9,0,7.7-2,9.4-4.8l3.1,2c-2.4,3.7-6.4,6.3-12.4,6.3
			c-7.9,0-13.5-5.9-13.5-14.2s5.5-14.2,13.3-14.2C324.4,30.8,330.2,37.4,329.4,45.8z M325.5,42.6c-0.7-5.5-3.9-8.3-8.9-8.3
			c-5.3,0-8.4,3.8-9.2,8.3H325.5z"/>
		<path class="st3" d="M360.2,17.1v41.1h-3.9v-3.9c-2.2,3-5.5,4.8-9.4,4.8c-7.8,0-13.4-5.9-13.4-14.2c0-8.3,5.5-14.1,13.3-14.1
			c4,0,7.3,1.8,9.5,4.9V17.1H360.2z M356.3,45c0-6.2-3.9-10.6-9.5-10.6c-5.5,0-9.4,4.4-9.4,10.6c0,6.3,3.9,10.7,9.4,10.7
			C352.4,55.6,356.3,51.2,356.3,45z"/>
	</g>
	<g class="st2">
		<path class="st3" d="M392.3,19.6h4.2L415,50.8V19.6h4V57h-4.2L396.3,26V57h-4V19.6z"/>
		<path class="st3" d="M449.7,31.4V57h-3.6v-3.8c-2,2.9-5,4.7-8.7,4.7c-7.2,0-12.4-5.7-12.4-13.8c0-8,5.1-13.7,12.3-13.7
			c3.7,0,6.7,1.8,8.8,4.7v-3.8H449.7z M446.1,44.2c0-6-3.6-10.3-8.8-10.3c-5,0-8.7,4.2-8.7,10.3c0,6.1,3.6,10.4,8.7,10.4
			C442.5,54.5,446.1,50.2,446.1,44.2z"/>
		<path class="st3" d="M457.7,34.8h-4.3v-3.4h4.3v-8.5h3.6v8.5h5.7v3.4h-5.7V57h-3.6V34.8z"/>
		<path class="st3" d="M471.9,23.4c0-1.6,1.2-2.9,2.9-2.9c1.5,0,2.9,1.3,2.9,3c0,1.6-1.3,3-2.9,3C473.1,26.4,471.9,25.1,471.9,23.4z
			 M472.9,31.4h3.6V57h-3.6V31.4z"/>
		<path class="st3" d="M483.7,44.2c0-8,5.1-13.7,12.3-13.7c7.2,0,12.4,5.7,12.4,13.7c0,8-5.1,13.7-12.3,13.7
			C488.9,57.9,483.7,52.2,483.7,44.2z M504.7,44.2c0-6-3.6-10.3-8.8-10.3c-5,0-8.7,4.2-8.7,10.3c0,6.1,3.6,10.4,8.7,10.4
			C501.1,54.5,504.7,50.2,504.7,44.2z"/>
		<path class="st3" d="M534.9,39.9V57h-3.6V41.5c0-5.8-2.9-7.6-6.6-7.6c-5.3,0-7.7,4.3-7.7,10.3V57h-3.6V31.4h3.6v4.3
			c1.7-3.2,4.5-5.2,8.2-5.2C530.4,30.5,534.9,33.8,534.9,39.9z"/>
		<path class="st3" d="M540.2,51.8l3.2-1.6c1.2,2.6,3.6,4.3,7.7,4.3c3.3,0,6.4-1.2,6.4-4.3c0-2.9-1.6-4.3-6.6-4.8
			c-7.1-0.6-9.5-3.5-9.5-7.5c0-4.8,3.6-7.5,9.4-7.5c5,0,8.3,2,10,6l-3.2,1.6c-1.2-2.9-3.4-4.3-7.1-4.3s-5.7,1.4-5.7,4
			c0,2.2,1.5,3.9,7,4.4c6.5,0.6,9.4,3.5,9.4,7.5c0,5.3-5,8.1-10.4,8.1C545.9,57.9,542.1,55.7,540.2,51.8z"/>
	</g>
</g>
</svg>
