<?xml version="1.0" encoding="utf-8"?>
<!-- Generator: Adobe Illustrator 22.1.0, SVG Export Plug-In . SVG Version: 6.00 Build 0)  -->
<svg version="1.1" id="Layer_1" xmlns="http://www.w3.org/2000/svg" xmlns:xlink="http://www.w3.org/1999/xlink" x="0px" y="0px"
	 viewBox="0 0 362 473.3" style="enable-background:new 0 0 362 473.3;" xml:space="preserve">
<style type="text/css">
	.st0{fill:#009edb;}
	.st1{fill:#FFFFFF;}
</style>
<title>ECLAC</title>
<path class="st0" d="M90.9,89.9C91,40.3,131.2,0.3,180.7,0.4c49.5,0.1,89.6,40.3,89.4,89.9c-0.1,49.4-40.2,89.4-89.6,89.4
	C130.9,179.7,90.8,139.4,90.9,89.9z M127.3,40.3l-10.1-9.8c-14.7,15.8-23,36.4-23.4,58h14C108.2,70.5,115.1,53.4,127.3,40.3z
	 M139.4,52l-10-9.7c-11.6,12.6-18.3,29-18.6,46.1h13.9C125,74.9,130.2,62,139.4,52L139.4,52z M233.7,139.5l10.1,9.8
	c14.7-15.8,23-36.4,23.4-58h-14C252.9,109.2,245.9,126.3,233.7,139.5z M179,17V2.9c-22.5,0.4-43.9,9.5-59.8,25.5l10.1,9.8
	C142.5,25,160.4,17.4,179,17L179,17z M179,33.9V19.9c-17.9,0.4-34.9,7.6-47.6,20.3l10,9.7C151.5,40,164.9,34.2,179,33.9L179,33.9z
	 M179,53.7V36.7c-13.3,0.4-26,5.8-35.5,15.2l12.1,11.8C161.9,57.6,170.3,54,179,53.7L179,53.7z M179,176.8v-14.1
	c-18.7-0.4-36.5-7.9-49.7-21.1l-10.1,9.8C135.1,167.3,156.5,176.4,179,176.8L179,176.8z M182,36.7v16.9c8.8,0.4,17.1,3.9,23.4,10
	l12.1-11.8C208,42.5,195.3,37.1,182,36.7L182,36.7z M120.9,131.5c-1.4-0.6-2.9-1.4-3.9-1.9c-1.5-0.9-0.5-1.8-1.6-2.7
	s-1.6-0.8-2.8-1.6s1-0.8-1.4-1.7c-0.8-0.3-0.9,0.9-2.4,0.6s-1.4-3-2.4-3c-2.7,0-3.1-3.5-3.2-5.8c-0.3-4.1,2.9-3.4,2.9-3.4l2.2,0.9
	l1.1-1.8c0.5,0,1.1,0.1,1.6,0.2c-2-6.5-3-13.2-3.2-19.9h-14c0.3,21.6,8.6,42.2,23.4,58l10.1-9.8C125,137,122.8,134.3,120.9,131.5
	L120.9,131.5z M131.4,135.5c-0.2-0.1-0.4-0.1-0.6-0.2c-0.8-0.2-1.5,0.5-2.5,0.9c0.4,0.4,0.7,0.8,1.1,1.2L131.4,135.5z M150.7,137.2
	l-0.1,0.1c-0.9,1.4-1.3,1.1-4.3,1.4s-3.6,1.8-5.7,2.1s-1.8,0-3.6-1.7c-0.9-0.8-1.8-1.6-2.9-2.2l-2.8,2.7
	c12.6,12.6,29.7,19.9,47.6,20.3v-13.9C169,145.6,159.2,142.6,150.7,137.2L150.7,137.2z M115.9,111.8c2.1-0.3,2.8,0.1,4.8-0.2
	s0.8-4.9,0.8-6.7s1.9-3.5,3.2-5.4c0.2-0.3,0.4-0.6,0.7-0.9c-0.4-2.4-0.6-4.9-0.7-7.3h-13.9c0.1,7,1.3,13.9,3.5,20.6
	C114.9,111.9,115.4,111.9,115.9,111.8z M209.2,64.1c0.7,1,3.1,4.9,4.9,6.3c2.1,1.4,4.2,2.6,6.4,3.8c1.5,1-2,1.1-0.7,2.3s4.1-2,4.8-2
	c1.2,0,2.2,0.9,2.3,2.1c0,0.1,0,0.2,0,0.3c0,2-1.1,3.7-0.2,3.8s3.9-3.9,4.1-7c-0.5-1.7-1.2-3.3-1.8-4.9c-2-2.1-4.8-2.6-4.9-3.8
	c-0.1-2,1.1-2,1.8-2.2c-1.8-3.1-4-6-6.4-8.7L209.2,64.1z M167.4,75.1c1,0,2,0,3-0.1c3.1-0.4,2.6-5.5,4.8-4.9c1.2,0.3,2.5,0.3,3.7,0
	V56.6c-8,0.4-15.5,3.6-21.3,9.2L167.4,75.1z M152.3,72.5c1.2-0.4,2.4-0.6,3.6-0.7c4.9-0.5,4.9,3.7,4.9,3.7c0.8-0.2,1.5-0.3,2.3-0.4
	l-7.4-7.2C154.4,69.3,153.3,70.8,152.3,72.5L152.3,72.5z M137.5,88.4c0.6-1.2,0.9-2.4,1-3.7c0.2-2.9,0.8-7,5.4-7.3
	c4.1-0.3-0.4-1.8,1.8-2.5c0.6-0.2,1.5-0.5,2.4-0.9c1.4-3,3.3-5.7,5.5-8.2L141.5,54c-8.6,9.4-13.5,21.6-13.8,34.4H137.5z M135.1,96.4
	c0.2,0.9,1.9,1.2,1,3.9v0.1c0,0-1.8,0.9-1.8-0.2V100c-0.3-1.4-0.5-2.9-0.5-4.4c0.3-1.6,0.9-3.1,2-4.4h-8.1c0.1,2.1,0.2,4.3,0.5,6.4
	l0.3,0.1c1.4,0.3,3.2,2.6,4.4,2.6c0.4,0,0.9-0.1,1.2-0.4v0.2c0,1.1,1.8,0.2,1.8,0.2v-0.1c1,0.6,1.8,1.6,2.1,2.7
	c0.7,2.6,1.6,5.2,2.6,7.6c0.7,1.5,1.1,3.2,1.1,4.9c0,1.8,1.5,2,1.6,3.4s0.6,3.9,0.6,3.9l-1.3,1.5l10.8-10.5c-4.4-5-7.4-11-8.5-17.6
	c-0.4-0.1-0.9-0.2-1.4,0c-1.8,0.6,0.6,4.2-1.3,3.8c-1.3-0.3-2.3-0.9-2-1.9s1.5,0.2,1.5-2.4c0-1.3-2.2-2.4-0.2-2.4
	c0.5,0,1.5,1.1,2.3,1.1c0.2,0,0.5,0,0.7-0.1c-0.1-1-0.2-2-0.2-2.9l-0.3-0.2h-2.4c-0.1,0.5-0.5,0.8-1.4,0.8c-3.2,0.1-2.2,1.9-2.4,2.8
	S134.9,95.5,135.1,96.4L135.1,96.4z M144.7,86c-1.5-0.6-4.2-0.5-4.2,0.9c0,0.5,0.2,1.1,0.4,1.5h3.6C144.5,87.6,144.6,86.8,144.7,86
	L144.7,86z M162,105.8c-3.6,0,0-5.2-1-5.4c-2.4-0.6-1.1,2.7-2.1,2.7c-1-0.1-1.9-0.8-2.2-1.8c0-0.6,0.5-2.2-0.8-2.2
	c-1.4-0.2-2.7-0.5-3.9-1.1c-1.2-0.3-2.4-0.6-3.7-0.8c1.2,5.4,3.8,10.4,7.4,14.6L162,105.8z M167.1,99.7c-0.3-0.2-0.6-0.4-1-0.4
	c-1.3,0-2.4,4.1-3.4,5.8l4.9-4.8L167.1,99.7z M161.8,91.3c-0.2,0.6-0.5,1.2-0.9,1.6c-0.7,0.8,1.5,1,3.1,0.7l0.2,0
	c-0.2-0.7-0.3-1.5-0.3-2.2H161.8z M179,72.8c-0.8-0.3-1.6-0.3-1.4,0.6c0.4-0.1,0.9-0.1,1.4-0.2V72.8z M183.6,103.7
	c0.6-0.6,1.1-1.4,1.3-2.3c0.3-3.5,3.9-0.9,5.2-2.2s2.4-4.7,1.2-5.6s3.1-0.2,2.8-1.6s-3.6,0.3-3.9-0.9s-2.6-1.4-1.1-8.1
	c0.3-1.5-2.9-0.3-3.5-4.5c-0.1-0.8-3.3-0.3-4.2-1.1c-0.6-0.4-1-0.9-1.3-1.6c-0.5,0-1.1,0.1-1.6,0.1c0.3,1.4,0.3,2.6-0.5,3.2
	c-1.3,0.8-2.5,0.7-3.5,1.3s0.3,1.4-0.8,2.2s-3.3,1.3-3.1,2.4s1.9,1.6,1.4,2.2s-1.8-0.9-2.3,0.2s0,4.1-1.3,4.1s0-2.1-1.7-2.7
	c0,0.4,0,0.7,0,1.1c0,0.9,0.1,1.8,0.3,2.7c0.2,0,0.4,0,0.6,0c1.5,0.2-0.3,0.8,1.5,0.8s1.2-3.2,2.4-3s0.6,4.9-0.8,6s-1.3-0.9-1.8,0.2
	c-0.1,0.2-0.1,0.4-0.2,0.6c0.5,0.8,1,1.5,1.6,2.2c1.7,0,1.4-2.6,2.5-2.9s-0.2-3.5,2.6-3.8s4.2-1,5.1,0.8s-2,7.3-3.2,7.5
	c-3,0.4-4.6-0.3-4.6,0.3c0,0.1,0,0.1,0,0.2C175.7,103.7,179.8,104.6,183.6,103.7L183.6,103.7z M182,112.1c0.9-0.6,1.6-1.4,2.1-2.4
	c1.6-3.5-2.3,0-1.9-2.9v-0.2H182L182,112.1z M179,122c-0.5,0.1-1,0.1-1.5-0.2c-1.1-0.8-1.3-4.6,1.5-5.1v-10.2
	c-3.5-0.3-6.8-1.7-9.4-4L157.7,114c5.8,5.5,13.3,8.8,21.3,9.1L179,122z M182,121.7c0.8-0.5,1.8-0.7,2.7-0.7c3.5-0.2,3.1,0.7,4.2,1.2
	c4-1,7.7-2.8,11-5.2c-0.7-1-1.8,1.2-3.3,0.9s-1.8-2.1,0-3.5s3.2-2.1,2.4-3s-3.3,0.2-4.1,1.6s-0.5,6-1.8,6.2
	c-1.6,0.1-3.2-0.1-4.8-0.6c-5.2-1.6-4.9,1.7-5.9,2.2l-0.5,0.2L182,121.7z M179,140.6c-1.5,0.1-2.9-0.1-4.3-0.6
	c-3.3-0.9-6.5-6.1-6.5-7.2s1.3-1.6,1.6-2.4s0.5-1.9,0.8-2.9c0.5-0.9,1.2-1.7,2-2.3c-6.4-1.4-12.3-4.6-17-9.2l-10.8,10.4
	c1.9,0.8,0.5,1.6,2,3.3s3.1,1.6,4.3,2.8c0.5,0.5,0.7,1.2,0.6,1.8c8.1,5.3,17.6,8.3,27.3,8.6L179,140.6z M189.6,142.3
	c-0.3-0.8-0.6-1.6-1.1-2.3c-0.9-1.1-3.6-0.1-6.5,0.3v2.8C184.5,142.9,187.1,142.7,189.6,142.3L189.6,142.3z M206.2,160
	c-1-0.1-2-0.4-2.9-0.9c-1.1-0.6-2.2-1.4-3.2-2c-2.3-1.6-4.3-3.5-6-5.7c-1.5-2,1.5-4.3-2.4-6.6c-3.2,0.7-6.5,1-9.9,1.1v13.9
	c6.1-0.1,12.2-1.1,18.1-2.8c1,0.7,2.1,1.4,3.2,2c-6.9,2.3-14.1,3.5-21.4,3.6v14.1c22.5-0.4,43.9-9.5,59.8-25.5l-10.1-9.8
	c-4.6,4.6-9.8,8.6-15.5,11.8C212.7,156.4,207.6,159.9,206.2,160L206.2,160z M211.6,122.2c-5.3,0.6-8.4-3.4-9.3-2.8s-1,1.1-1,1.6
	s8.3,2.5,10.5,2.7c0.4,0,0.8-0.1,1.1-0.3L211.6,122.2z M222.5,91.3c0.1,0.4,0.2,0.8,0.3,1.1c0.2,1.4,5.2,6.1,5.2,7.8
	s-2.8,1.5-4.8,1.7c-3.9,0.5-3.9,1.7-5.1,1.6s-0.5-1.6-0.8-1.3c-1.2,1.8-2.3,3.6-3.3,5.5c-0.9,1.4-3,2.5-4.5,3.5
	c-0.5,0.7-1.1,1.4-1.6,2.1c0.5,1,3.3-0.8,4.4-1.1s1.1-2.6,2.5-2.7s1.5,0.6,2.3,2.6s-0.8,0.8-1.3,5.9c0.1,1.1-0.3,2.2-1,3.1l0.2,0.2
	c0.6-0.8,1.5-1.4,2.5-1.6c2.6-0.3,1.5,1.3,1.8,3.2c0.2,0.7,0.6,1.4,1.2,1.9c8.1-9.3,12.7-21.1,13-33.4H222.5z M233,83.5
	c-0.4,0.4-1,0.4-1.5,0.2c-1.2-0.6,0.3-2.7,0.8-4.4c-0.2-0.8-0.3-1.6-0.6-2.5c-0.4,1.2-2.1,5.3-3.6,5.6s-1.6,0-3.1,1.4
	s-1.2,2.9-2.2,4.6h10.4C233.3,86.8,233.2,85.1,233,83.5L233,83.5z M202.9,65.4c-0.1,0-0.2,0-0.3,0c-1.3,0-2,1.3-2.8,0
	c-0.4-0.6,0.4-1.1,1.4-1.5c-5.5-4.4-12.2-7-19.2-7.3v12.8c0.7-0.1,1.5,0.1,2.1,0.5c4.3,3,4-3.7,6-2.2c2.7,2-4.3,4.1-2.8,5.6
	s1.6-1.3,3.1-1s1,1.9,3.3,1.9s1.3-4.6,5.7-5.2c0.3,0,0.6-0.1,0.8-0.1l1.3-1.2c-0.1-0.6-0.4-1.3,1.6-1.6l0.2-0.2L202.9,65.4z
	 M244.5,61.9c-0.7,0.4-1.6,0.6-2.5,0.5c-2.3-0.3-2.6-5-5.2-6c-9.3-3.5-6.9-5-7.8-6.1s-2.9-0.6-3.9-1.6l-2,1.9
	c0.3,0.3,0.7,0.7,1.1,0.9c3.2,1.9,1.3,4,2.6,5s0.9-0.6,2,0.5s-0.3,2.3,1,3.8s2.3,2.5,2.6,3.9c0.2,1.6,0.3,3.2,0.2,4.8
	c0.5,1.3,1,2.7,1.4,4.1c0.5-0.8,1.1-2,2-2s0,3.7-0.8,6.7c0.7,3.3,1.1,6.7,1.2,10.1h13.9C250.1,79.3,248.1,70.3,244.5,61.9
	L244.5,61.9z M235.1,38.9c1.1,1.1,2.8,2.4,3.3,3.1c1.4,1.9,2.7,3.9,3.7,5.9c1.1,2.2,6.9,9.9,4.7,12.1c4,8.9,6.2,18.6,6.3,28.4h14
	c-0.3-21.6-8.6-42.2-23.4-58L235.1,38.9z M212.4,24.4c1-0.5,3.1,0.5,4.2-1.5c0.9-1.5,4.6,1.1,5.2,0.3s-2.7-4.3,2.5-2
	c3.6,1.6,0,2.5,0.2,3.8s1.1-0.6,4.9,4c1.9,2.3-0.9,1.4,1.1,3.6s2.4,1.2,3.8,1.6c0.5,0.2,0.7,0.4,0.7,0.7l6.8-6.6
	c-15.9-16-37.3-25.1-59.8-25.5v14.1C192.5,17.3,202.9,19.8,212.4,24.4L212.4,24.4z M182.3,23.4c0.6-0.3,2.3,0.5,2.3,1.3
	s-1.4,1.2-2.3,1c-0.1,0-0.2-0.1-0.3-0.2v8.4c12.2,0.3,24,4.6,33.5,12.3c-0.8-1.1-1.8-2.1-2.9-2.9c-1.1-0.5-2-1.8-0.8-2.6
	s-0.5-2.5,0.2-3.7c2,0,1.3,2.8,2.7,4.3s1.8-0.4,2.9,0.9s0.2,4.7,2.3,5.6c0.4,0.2,0.8,0.4,1.1,0.6l3-2.9c-0.5-2-1.2-4.5-2.6-5.2
	c-2.1-1.1-1.8,2.1-3.1,1.2c-2.4-1.6-2-6.7-2-6.7s-3.6-0.6-2.2-5.6c0.3-0.9-2.2-0.9-2.7-2.3c-9.1-4.5-19.2-7-29.4-7.2v3.9
	C182,23.6,182.1,23.5,182.3,23.4L182.3,23.4z M228.7,138.7c-1.1,0.4-2.2,0.3-2.5-0.8c-0.1-0.4-0.2-1.1-0.3-1.9l-6.4-6.2
	c-0.4,0.4-0.9,0.9-1.3,1.3c-0.1,0.3-0.1,0.5-0.1,0.8c0.3,1.9,4.3,4,4.4,5.2s-2.1,4.3-2.1,5.6c0.1,1.5,0.1,3-0.1,4.5
	c3.3-2.3,6.3-4.9,9.1-7.7L228.7,138.7z M227.9,127.9c3.1-0.3,3.4,6.9,3.1,8.6c0,0.1,0,0.1,0,0.2l0.7,0.6
	c11.6-12.6,18.2-29,18.6-46.1h-13.9c-0.3,13.5-5.5,26.5-14.7,36.4l4.1,4C225.9,129.8,226.4,128.1,227.9,127.9L227.9,127.9z
	 M102.4,118.3c1.1-0.3,0.9,2.2,2,3.6s1.5,3.7,1.1,4.1c-0.7,0.8-1-1.5-1.9-3.9S102.3,118.9,102.4,118.3L102.4,118.3z M228.9,96.4
	c2.8-0.3,2.3,1.6,0.5,1.6S226.1,96.8,228.9,96.4L228.9,96.4z M219.2,115.7c1.1-0.8,2.2,0.2,1,0.8S218.1,116.5,219.2,115.7
	L219.2,115.7z M141.5,101.7c1.1-0.8,3.2,2,1.6,2.8S140.3,102.5,141.5,101.7L141.5,101.7z M176.6,102.6c0-0.4,0.5-0.7,1-0.7
	s0.9,0.1,0.9,0.5c0,0.5-0.4,0.9-0.9,1C177,103.3,176.6,103,176.6,102.6L176.6,102.6z M182.6,95.8c0-0.4,0.6-0.5,1-0.5
	c0.3,0,0.6,0.3,0.6,0.6s-0.3,0.6-0.6,0.6C183.2,96.6,182.6,96.2,182.6,95.8L182.6,95.8z M176.4,89.6c1.6,1.4,1.1,2.4-0.9,2
	S175.6,88.9,176.4,89.6L176.4,89.6z M189.4,94.5c0.4,0,0.3,1.4-0.1,1.4S189,94.5,189.4,94.5L189.4,94.5z M198.9,65.4
	c1.1,0.5,0.7,2.9-1,2.6S197.7,64.9,198.9,65.4L198.9,65.4z M196.3,68.4c0.8,0.6-0.7,3.4-1.7,2.9S195.4,67.8,196.3,68.4L196.3,68.4z
	 M233.9,64.4c1.1-0.3,2.6,5.5,1.5,5.9C233.7,71,232.7,64.8,233.9,64.4L233.9,64.4z M229.1,53.8c0.3,0,1.3,1.6,1,1.6
	C228.6,55.4,228.1,53.8,229.1,53.8z M203.7,37.7c0,0,2.9,1.1,4.6,0.7c0.8-0.1,1.5-0.5,2.1-1.1c0,0,0.5,2.2-1.2,2.6
	S203.7,37.6,203.7,37.7L203.7,37.7z M197.9,23.6c1,0,1.7,1.8,0.1,1.8c-0.5,0-0.9-0.3-1-0.8C197,24,197.4,23.6,197.9,23.6L197.9,23.6
	z M205,35.6c0.3,0,1.4,1.6,1,1.6C204.5,37.1,204,35.5,205,35.6L205,35.6z M197.3,8.8c0.4,0.5-0.3,1.4-2.3,1.6s-3.4,1.5-4.5,0.4
	s2.5-1,3.5-2S195.7,7.4,197.3,8.8z M188.2,9.7c0.8,0,1.8,4.2,1.4,4.8s-1.4,0.1-3.1-0.1s-0.9-1.6-2.3-1.6s-2.3,1-2.1-0.1
	S187.3,9.6,188.2,9.7L188.2,9.7z"/>
<path class="st0" d="M112.4,8.2c-0.9,0.1-22.2,4.1-26,29.7C97.5,30.4,106.4,20.2,112.4,8.2z"/>
<path class="st0" d="M89.5,15.7c-5.1,12.5-5.6,24.7-8.1,35c3.4-5.1,6-10.7,10.3-13.4c5.3-3.4,10-7.6,13.9-12.5
	c0.7,1.1,0.2,13.4-13.2,22.6c-6.3,4.5-11.7,10.1-15.9,16.6c0-17.3-2.7-13.7-1.8-23.3C76.5,21.5,89.5,15.7,89.5,15.7z"/>
<path class="st0" d="M72.7,33.4c0,0-1.5,15.3-0.9,20.6c0.8,8.3,1,16.7,0.7,25.1c0,0,4.5-12.1,8.1-16.8s13.2-12.5,13.2-12.5
	c-1.6,8.2-5.1,16-10.3,22.6C72.5,86,71.4,97.7,71.4,97.7S64,81.3,63.3,63C62.5,43,72.7,33.4,72.7,33.4z"/>
<path class="st0" d="M57,65.2c-0.9,4.5-3.4,16.4,0.5,28.7s9.6,14.4,18.6,31.2c-0.5-6.3-0.6-8.9,2.3-15.2C86.8,91,85,75.1,85,75.1
	s-8.3,12.9-9.6,17.5c-2,6.4-2.8,13.1-2.5,19.7c0,0-4.9-17.3-6.7-23.3S59.7,76.4,57,65.2z"/>
<path class="st0" d="M57.4,104.2c0,0,2.2,20.5,10.8,31.4c7.6,9.6,14.1,11.4,21.5,20c0.2,0-1.3-8.3-1.1-13.4s1.6-14.6,0.9-21.7
	c-1.3-13.7-4.9-22-4.9-22s-3.1,17-3.1,24.2s2.5,20,2.5,20S76,128.5,71.8,124S57.4,104.2,57.4,104.2z"/>
<path class="st0" d="M65.5,137.8c0,0,5.2,23.6,16.1,31.4c13.2,9.4,29.6,13,29.6,13c-3.4-11-4-22.9-6.1-27.6
	c-3.9-9.1-12.3-24-12.3-24s-2.2,15.9,2,26.7c2.9,7.4,6.7,14.6,6.7,14.6S87.2,160,83,156.6C76.3,151.2,70.4,144.9,65.5,137.8z"/>
<path class="st0" d="M108.3,155.3c0,0,2.5,15.4,5.2,20.4c6.5,12.3,14.1,16.1,14.1,16.1s-14.1-6-19.9-7.4
	c-17.5-4.2-27.2-10.5-27.2-10.5c1.4,3.4,11.6,16.4,26,23.3c10.8,5.2,24.7-2.5,33.4-2.5c-2.7-2.5-4.7-2.3-13-17.1
	C118.3,162.4,108.3,155.3,108.3,155.3z"/>
<path class="st0" d="M248.7,8.2c0.9,0.1,22.2,4.1,26,29.7C263.5,30.4,254.6,20.2,248.7,8.2z"/>
<path class="st0" d="M271.5,15.7c5.1,12.5,5.6,24.7,8.1,35c-3.4-5.1-6-10.7-10.3-13.4c-5.3-3.4-10-7.6-13.9-12.5
	c-0.7,1.1-0.2,13.4,13.2,22.6c6.3,4.5,11.7,10.1,15.9,16.6c0-17.3,2.7-13.7,1.8-23.3C284.5,21.5,271.5,15.7,271.5,15.7z"/>
<path class="st0" d="M288.3,33.4c0,0,1.5,15.3,0.9,20.6c-0.8,8.3-1,16.7-0.7,25.1c0,0-4.5-12.1-8.1-16.8s-13.2-12.5-13.2-12.5
	c1.6,8.2,5.2,16,10.3,22.6c11,13.6,12.1,25.3,12.1,25.3s7.4-16.4,8.1-34.7C298.5,43,288.3,33.4,288.3,33.4z"/>
<path class="st0" d="M304,65.2c0.9,4.5,3.3,16.4-0.5,28.7s-9.6,14.4-18.6,31.2c0.5-6.3,0.6-8.9-2.2-15.2C274.2,91,276,75.1,276,75.1
	s8.3,12.9,9.6,17.5c2,6.4,2.8,13.1,2.5,19.7c0,0,4.9-17.3,6.7-23.3S301.3,76.4,304,65.2z"/>
<path class="st0" d="M303.6,104.2c0,0-2.2,20.5-10.8,31.4c-7.6,9.6-14.1,11.4-21.5,20c-0.2,0,1.3-8.3,1.1-13.4s-1.6-14.6-0.9-21.7
	c1.3-13.7,4.9-22,4.9-22s3.1,17,3.1,24.2s-2.5,20-2.5,20s7.9-14.1,12.1-18.6S303.6,104.2,303.6,104.2z"/>
<path class="st0" d="M295.5,137.8c0,0-5.2,23.6-16.1,31.4c-13.2,9.4-29.6,13-29.6,13c3.3-11,4-22.9,6-27.6c3.9-9.1,12.3-24,12.3-24
	s2.3,15.9-2,26.7c-2.9,7.4-6.7,14.6-6.7,14.6s14.3-11.9,18.6-15.2C284.7,151.2,290.6,144.9,295.5,137.8z"/>
<path class="st0" d="M252.7,155.3c0,0-2.5,15.4-5.2,20.4c-6.5,12.3-14.1,16.1-14.1,16.1s14-6,19.9-7.4c17.5-4.2,27.2-10.5,27.2-10.5
	c-1.4,3.4-11.6,16.4-26,23.3c-10.8,5.2-24.7-2.5-33.4-2.5c2.7-2.5,4.7-2.3,13-17.1C242.7,162.4,252.7,155.3,252.7,155.3z"/>
<path class="st0" d="M180.3,200.8c0,0-11.6-4.3-23.1-4.5s-30.5,5.8-37,6.7c-7.8,1.1-20.2-1.6-20.2-1.6s6.8,10.3,30.5,10.5
	c18.8,0.2,32.7-10.3,44.8-10.1c-19.9,7.9-26.8,19.7-26.8,19.7l5.6,1.4c0,0,15.7-18.4,26.4-19.3C191.3,204.6,207,223,207,223l5.6-1.4
	c0,0-7-11.9-26.9-19.7c12.1-0.2,26,10.3,44.8,10.1c23.8-0.2,30.5-10.5,30.5-10.5s-12.3,2.7-20.2,1.6c-6.5-0.9-25.5-7-37-6.7
	S180.3,200.8,180.3,200.8z"/>
<path class="st0" d="M32.9,243H40v0.4c-0.6,0.1-1,0.3-1,0.8v9c-0.1,1.1,0.3,2.1,1.1,2.8c0.9,0.7,2.1,1,3.2,0.9
	c1.1,0.1,2.3-0.2,3.2-0.9c0.8-0.8,1.2-1.8,1.1-2.9v-8.9c0-0.5-0.3-0.8-1-0.8V243h7.1v0.4c-0.6,0.1-1,0.3-1,0.8v9
	c0,5.4-3.1,8.1-9.4,8.1c-6.4,0-9.7-2.7-9.7-8.1v-9c0-0.5-0.3-0.8-1-0.8L32.9,243z"/>
<path class="st0" d="M79.7,261.2h-6.4v-0.5c0.7,0,1-0.2,1-0.4s-0.5-0.9-1.4-1.8l-7-7.4v8.9c0,0.5,0.3,0.8,0.9,0.8v0.5H61v-0.5
	c0.6,0,0.9-0.3,0.9-0.8v-12.7c0-0.5-0.3-0.8-0.9-0.8V246h8.3v0.5c-0.5,0.1-0.7,0.2-0.7,0.6c0.5,0.9,1.2,1.7,2,2.4l4.1,4.4l0,0v-6.6
	c0-0.5-0.3-0.8-0.9-0.8V246h6v0.5c-0.6,0-0.9,0.3-0.9,0.8v12.7c0,0.5,0.3,0.8,0.9,0.8L79.7,261.2z"/>
<path class="st0" d="M92,261.2h-6.5v-0.5c0.6,0,0.9-0.3,0.9-0.8v-12.7c0-0.5-0.3-0.8-0.9-0.8V246H92v0.5c-0.6,0-0.9,0.3-0.9,0.8
	v12.7c0,0.5,0.3,0.8,0.9,0.8L92,261.2z"/>
<path class="st0" d="M114.3,250.4h-0.5c0-0.5-0.3-0.8-0.8-0.8h-4.7v10.4c0,0.5,0.3,0.8,0.9,0.8v0.5h-6.5v-0.5c0.6,0,0.9-0.3,0.9-0.8
	v-10.4h-4.7c-0.4,0-0.8,0.2-0.8,0.6c0,0.1,0,0.1,0,0.2h-0.5v-5.2h0.5c-0.1,0.4,0.2,0.8,0.6,0.8c0.1,0,0.1,0,0.2,0H113
	c0.4,0,0.8-0.2,0.8-0.6c0-0.1,0-0.1,0-0.2h0.5V250.4z"/>
<path class="st0" d="M137.4,262h-0.5c-0.1-0.3-0.2-0.5-0.4-0.7c-0.3-0.1-0.6-0.2-0.8-0.2h-15v-0.5c0.6,0,0.9-0.3,0.9-0.8v-12.7
	c0-0.5-0.3-0.8-0.9-0.8V246H136c0.6,0,0.9-0.3,0.9-0.8h0.5v4.8H137c0-0.5-0.3-0.8-1-0.8h-9.7v2.5h6.1c0.3,0,0.5,0,0.8-0.1
	c0.1-0.1,0.2-0.3,0.2-0.7h0.5v4.7h-0.5c0-0.4-0.1-0.6-0.2-0.7c-0.2-0.1-0.5-0.2-0.7-0.2h-6.1v3.4h9.5c0.5,0.1,1-0.3,1.2-0.8h0.5
	L137.4,262z"/>
<path class="st0" d="M161.5,253.7c0.1,2-0.5,4-1.8,5.5c-1.4,1.4-3.4,2.1-5.5,2h-10.5v-0.5c0.3,0,0.5-0.1,0.8-0.2
	c0.2-0.3,0.2-0.6,0.2-0.9v-12.1c0-0.3,0-0.6-0.2-0.8c-0.2-0.2-0.5-0.3-0.8-0.3V246h10.5c2-0.1,4,0.6,5.4,2.1
	C160.9,249.6,161.6,251.6,161.5,253.7z M157,253.7c0.1-1.3-0.3-2.5-1.2-3.5c-1.1-0.8-2.5-1.2-3.9-1.1h-2.7v9h2.6c2,0,3.3-0.4,4-1.1
	C156.7,256.1,157.1,254.9,157,253.7z"/>
<path class="st0" d="M201.5,261.2h-6.6v-0.4c0.5,0,0.8-0.1,0.8-0.4c-0.4-0.6-0.8-1.1-1.3-1.5c-1.3-1.3-4.2-4.5-8.9-9.5l0,0V260
	c0,0.5,0.3,0.8,1,0.8v0.4H180v-0.4c0.6,0,1-0.3,1-0.8v-15.8c0-0.5-0.3-0.8-1-0.8V243h8.4v0.4c-0.7,0-1,0.2-1,0.5
	c0.4,0.6,0.8,1.2,1.4,1.7l7.2,7.7l0,0v-9c0-0.4-0.2-0.8-0.7-0.8c0,0,0,0-0.1,0V243h6.4v0.4c-0.7,0.1-1,0.3-1,0.8V260
	c0,0.2,0,0.4,0.2,0.6c0.2,0.1,0.5,0.2,0.8,0.2L201.5,261.2z"/>
<path class="st0" d="M227.6,261.2h-5.8v-0.5c0.3,0,0.5-0.1,0.5-0.3c-0.1-0.4-0.2-0.7-0.4-1l-0.6-1.3h-8.1l-0.8,1.7
	c-0.1,0.2-0.2,0.4-0.2,0.6c0,0.2,0.2,0.3,0.5,0.3v0.5h-5.2v-0.5c0.4,0,0.7-0.3,0.8-0.6c0.2-0.4,0.5-1,0.8-1.8l4.6-10.2
	c0.2-0.5,0.4-0.9,0.6-1.4c0-0.2-0.2-0.3-0.5-0.3V246h7.3v0.5c-0.3,0-0.5,0.1-0.5,0.3c0.1,0.4,0.3,0.8,0.5,1.2l4.5,9.4
	c0.3,0.6,0.6,1.3,1,2.2s0.7,1.2,1.1,1.2L227.6,261.2z M220.1,255.6L220.1,255.6l-2.9-5.9l0,0l-2.9,5.9H220.1L220.1,255.6z"/>
<path class="st0" d="M249,250.4h-0.5c0-0.5-0.3-0.8-0.8-0.8H243v10.4c0,0.5,0.3,0.8,0.9,0.8v0.5h-6.5v-0.5c0.6,0,0.9-0.3,0.9-0.8
	v-10.4h-4.7c-0.5,0-0.8,0.3-0.8,0.8h-0.5v-5.2h0.5c0,0.5,0.3,0.8,0.8,0.8h14.1c0.4,0,0.8-0.2,0.8-0.6c0-0.1,0-0.1,0-0.2h0.5
	L249,250.4z"/>
<path class="st0" d="M261.3,261.2h-6.5v-0.5c0.6,0,0.9-0.3,0.9-0.8v-12.7c0-0.5-0.3-0.8-0.9-0.8V246h6.5v0.5c-0.6,0-0.9,0.3-0.9,0.8
	v12.7c0,0.5,0.3,0.8,0.9,0.8V261.2z"/>
<path class="st0" d="M267,253.7c-0.1-2.3,0.9-4.4,2.7-5.9c1.9-1.4,4.3-2.1,6.6-2.1c2.4-0.1,4.7,0.7,6.6,2.1
	c3.2,2.6,3.6,7.3,0.9,10.5c-0.3,0.3-0.6,0.7-0.9,0.9c-1.9,1.4-4.2,2.2-6.6,2.1c-2.5,0.1-4.9-0.7-6.8-2.2
	C267.8,257.8,266.9,255.8,267,253.7z M271.5,253.6c-0.1,1.2,0.5,2.3,1.4,3.1c2,1.5,4.8,1.5,6.8,0c0.9-0.8,1.4-1.9,1.4-3.2
	c0-1.2-0.5-2.3-1.4-3c-0.9-0.8-2.1-1.2-3.3-1.1c-1.2,0-2.5,0.4-3.4,1.1C272,251.3,271.5,252.4,271.5,253.6L271.5,253.6z"/>
<path class="st0" d="M309.6,261.2h-6.4v-0.5c0.7,0,1-0.2,1-0.4s-0.5-0.9-1.4-1.8l-7-7.4v8.9c0,0.5,0.3,0.8,0.9,0.8v0.5h-5.9v-0.5
	c0.6,0,0.9-0.3,0.9-0.8v-12.7c0-0.5-0.3-0.8-0.9-0.8V246h8.3v0.5c-0.5,0.1-0.7,0.2-0.7,0.6c0.5,0.9,1.2,1.7,2,2.4l4.2,4.4l0,0v-6.6
	c0-0.5-0.3-0.8-0.9-0.8v-0.5h6v0.5c-0.6,0-0.9,0.3-0.9,0.8v12.7c0,0.5,0.3,0.8,0.9,0.8L309.6,261.2z"/>
<path class="st0" d="M331.4,256.4c0,1.5-0.8,2.9-2.1,3.7c-1.6,1-3.5,1.4-5.3,1.3c-1.7,0-3.4-0.2-5.1-0.6c-1.7-0.4-2.6-0.6-2.7-0.6
	c-0.3,0.1-0.6,0.3-0.8,0.5l-0.3-0.1l1.5-4.7l0.4,0.2v0.4c0,0.4,0.8,0.8,2.3,1.2c1.5,0.4,3.1,0.6,4.7,0.6c2,0,3-0.5,3-1.5
	c0-0.4-0.3-0.7-0.6-0.9c-0.8-0.3-1.6-0.5-2.4-0.6l-2.4-0.3c-1.6-0.1-3.2-0.6-4.7-1.4c-0.9-0.6-1.4-1.6-1.4-2.7c0-1.5,0.8-3,2.1-3.8
	c1.7-1.1,3.7-1.6,5.7-1.5c1.4,0,2.9,0.2,4.3,0.5c1.7,0.3,2.6,0.4,2.7,0.5c0.2,0,0.4-0.1,0.7-0.5l0.4,0.2l-2,4.4l-0.5-0.2
	c0-0.1,0.1-0.2,0.1-0.3c0-0.3-0.6-0.6-1.7-0.9c-1-0.3-2.1-0.5-3.2-0.5c-2.7,0-4,0.5-4,1.5c0,0.3,0.2,0.6,0.7,0.8
	c0.8,0.3,1.5,0.4,2.3,0.5l2.1,0.2c1.7,0.1,3.4,0.6,4.9,1.5C330.9,254.1,331.5,255.2,331.4,256.4z"/>
<rect y="325.3" class="st0" width="362" height="148"/>
<path class="st1" d="M57.6,361.9v7.9H42.3v26.1h11.5v7.9H42.3v26.1h15.3v7.8H42.3c-1.4,0-2.8-0.4-3.9-1.1c-2.4-1.4-3.8-4-3.7-6.8
	v-60.1c0-1.4,0.3-2.8,1-4c0.7-1.2,1.6-2.2,2.8-2.8c1.2-0.7,2.5-1,3.9-1L57.6,361.9z"/>
<path class="st1" d="M102,426.6v-53.5c0-2.1,0.5-4.1,1.5-5.9c1-1.8,2.5-3.2,4.2-4.3c3.5-2.1,8-2.1,11.5,0c1.7,1,3.2,2.5,4.2,4.3
	c1,1.8,1.6,3.9,1.5,5.9v8.6h-7.7v-11.9h-7.7v60.1h7.7V418h7.7v8.6c0.1,3.1-1.2,6.1-3.4,8.3c-3.6,3.7-9.4,4.5-13.9,1.9
	c-1.8-1-3.2-2.5-4.2-4.3C102.5,430.7,102,428.7,102,426.6z"/>
<polygon class="st1" points="171.4,437.7 171.4,361.9 179.1,361.9 179.1,429.9 186.8,429.9 186.8,414.1 194.4,414.1 194.4,437.7 "/>
<path class="st1" d="M239.9,438v-64.6c0-2.1,0.5-4.1,1.5-5.9c1-1.8,2.5-3.2,4.2-4.3c3.5-2.1,8-2.1,11.5,0c1.7,1,3.2,2.5,4.2,4.3
	c1,1.8,1.6,3.9,1.5,5.9V438h-7.7v-34h-7.7v34H239.9z M247.5,370.1v26.1h7.7v-26.1H247.5z"/>
<path class="st1" d="M310.7,426.6v-53.5c0-2.1,0.5-4.1,1.5-5.9c1-1.8,2.5-3.2,4.2-4.3c3.5-2.1,8-2.1,11.5,0c1.7,1,3.2,2.5,4.2,4.3
	c1,1.8,1.6,3.9,1.5,5.9v8.6H326v-11.9h-7.7v60.1h7.7V418h7.7v8.6c0.1,3.1-1.2,6.1-3.4,8.3c-3.6,3.7-9.4,4.5-13.9,1.9
	c-1.8-1-3.2-2.5-4.2-4.3C311.2,430.7,310.7,428.7,310.7,426.6z"/>
</svg>
