<?xml version="1.0" encoding="utf-8"?>
<!-- Generator: Adobe Illustrator 22.1.0, SVG Export Plug-In . SVG Version: 6.00 Build 0)  -->
<svg version="1.1" id="Layer_1" xmlns="http://www.w3.org/2000/svg" xmlns:xlink="http://www.w3.org/1999/xlink" x="0px" y="0px"
	 viewBox="0 0 874.8 232.2" style="enable-background:new 0 0 874.8 232.2;" xml:space="preserve">
<style type="text/css">
	.st0{fill:#818285;}
	.st1{fill:#273791;}
	.st2{fill:none;stroke:#E27C1D;stroke-width:2;stroke-miterlimit:10;}
	.st3{fill:none;stroke:#535454;stroke-width:3;stroke-miterlimit:10;}
	.st4{fill:none;stroke:#535454;stroke-width:2;stroke-miterlimit:10;}
	.st5{fill:#535454;}
</style>
<title>ESCAP</title>
<path class="st0" d="M232.2,7.1c0-1.7-0.3-2.5-1.4-2.5h-2.3c-0.3,0-0.3-0.1-0.3-0.4V3c0-0.3,0-0.4,0.4-0.4s2.9,0.1,8,0.1
	c4.3,0,6.6-0.1,7.1-0.1c0.4,0,0.4,0.1,0.4,0.4v1.2c0,0.2,0,0.3-0.4,0.3h-1.6c-1.6,0-2.5,0.9-2.6,1.9c0,0.5-0.1,3.8-0.1,6.3V16
	c0,2.6,0.2,8.8,0.2,10.3c-0.1,2,0.5,4.1,1.6,5.8c1.5,1.8,3.7,2.8,6.1,2.7c2.1-0.1,4.1-0.8,5.7-2.1c1.9-1.8,3.1-4.4,3.1-7.9v-7.5
	c0-3.5-0.2-7-0.7-10.5c-0.2-1.3-1-2.1-1.8-2.1h-1.5c-0.3,0-0.3-0.1-0.3-0.4V2.9c0-0.2,0-0.3,0.3-0.3c0.5,0,2.7,0.1,6,0.1
	c2.6,0,4.2-0.1,4.6-0.1s0.5,0.2,0.5,0.4v1.1c0,0.3,0,0.5-0.3,0.5h-1.5c-1-0.1-2,0.7-2.1,1.7c0,0.1,0,0.1,0,0.2
	c-0.1,0.7-0.1,7.4-0.1,8.1s-0.1,9.2-0.2,11.1c-0.3,4-1.6,7-4.1,9.3c-2.4,2-5.5,3-8.6,3c-2.5,0-5-0.4-7.4-1.2
	c-2.7-1.3-4.7-3.6-5.6-6.4c-0.8-2.1-1-5.3-1-11.7L232.2,7.1z"/>
<path class="st0" d="M312,23.1c0-4.3,0-6.7-0.1-9.1c0-1.9-0.3-6.7-0.4-7.4c-0.3-1.1-1.4-1.9-2.6-1.9h-1.6c-0.2,0-0.3-0.1-0.3-0.4V3
	c0-0.2,0-0.3,0.4-0.3s2.1,0.1,5.7,0.1c2.9,0,4.1-0.1,4.6-0.1s0.5,0.1,0.5,0.4v1.2c0,0.2,0,0.4-0.2,0.4h-1.4c-0.8,0-1.3,0.8-1.5,2.6
	c-0.3,3.3-1.1,14.2-1.1,20.6v8.3c0,0.7,0,1.6-0.7,1.6c-0.7,0-1.4-0.3-1.9-0.8c-0.8-0.8-3.2-3.4-6.1-6.8l-8.3-9.9
	c-0.8-1-7.5-9.3-8.6-10.9h-0.4v9.9c0,4,0.4,10,0.5,11.9c0.1,2.8,1,4.3,3,4.3h1.2c0.3,0,0.4,0.1,0.4,0.4V37c0,0.3,0,0.4-0.4,0.4
	s-3.4-0.1-5.7-0.1c-1.5,0-4.9,0.1-5.3,0.1c-0.2,0-0.2-0.1-0.2-0.4v-1.3c0-0.1,0.1-0.3,0.2-0.3c0,0,0.1,0,0.1,0h1.7
	c1.1,0,1.8-1.6,2.1-4.8c0-0.9,0.4-8.7,0.4-15.9v-4.4c0-2.9-1.7-5.6-4.2-5.6l-1.2,0c-0.2,0-0.3-0.2-0.3-0.3V2.9c0-0.2,0-0.3,0.3-0.3
	s0.6,0,1.6,0s2.5,0.1,5,0.1c1.6,0,3.1-0.1,3.7-0.1c0.5,0,1.1,0.2,1.4,0.6l11.3,13.8l8.3,10.4h0.2L312,23.1z"/>
<path class="st0" d="M341.4,16.8c0-1.2-0.1-9.9-0.2-10.5c-0.1-1.2-0.6-1.6-1.6-1.6h-2.3c-0.2,0-0.4-0.1-0.4-0.3V2.9
	c0-0.2,0.1-0.3,0.3-0.3c0.6,0,3.1,0.1,7.8,0.1c5,0,6.5-0.1,7.2-0.1c0.2,0,0.3,0.1,0.3,0.4v1.2c0,0.2-0.1,0.3-0.4,0.3h-1.4
	c-1.2,0-1.9,0.4-1.9,1.3c0,0.5-0.1,11.2-0.1,11.8v3.7c0,0.5,0.1,11.7,0.1,12.1c0,1.5,0.7,1.8,1.6,1.8h2c0.2,0,0.4,0.1,0.4,0.3V37
	c0,0.2-0.1,0.3-0.4,0.3c-0.6,0-2.5-0.1-7.1-0.1c-5.1,0-7.2,0.1-7.7,0.1c-0.2,0-0.4-0.1-0.4-0.3c0,0,0-0.1,0-0.1v-1.3
	c0-0.2,0.1-0.3,0.4-0.3h1.4c1,0,2-0.1,2.2-1.3c0.1-0.7,0.2-11.2,0.2-13.8L341.4,16.8z"/>
<path class="st0" d="M383.1,5h-1.7c-2.2-0.1-4.4,0.2-6.5,0.8c-1.1,0.8-3.2,3.7-4.4,5.5c-0.1,0.2-0.3,0.4-0.5,0.3l-1.1-0.4
	c-0.2-0.1-0.3-0.3-0.2-0.4c0.5-2,2.1-8.5,2.3-9.4c0.1-0.6,0.4-0.8,0.7-0.8s0.5,0.2,0.9,0.7s1.5,1.1,3.2,1.2c2.6,0.1,4.6,0.3,9.7,0.3
	h2.8c5.3,0,7.4-0.2,9.4-0.3c1.3-0.1,2.5-0.5,3.5-1.2c0.5-0.5,0.8-0.7,1.1-0.7s0.5,0.2,0.6,0.8l1.5,9.7c0.1,0.2,0,0.4-0.2,0.4l-1,0.4
	c-0.2,0-0.3-0.1-0.5-0.4c-1.2-2-2.6-3.8-4.2-5.4C397.4,5.2,393.1,5,392,5h-1.6v13.4c0,0.7,0,14.3,0,15c0.1,1.2,0.5,2,1.6,2h2.2
	c0.4,0,0.5,0.1,0.5,0.5v1.1c0,0.2,0,0.4-0.5,0.4s-2-0.1-7.4-0.1c-5.1,0-7.2,0.1-7.9,0.1c-0.4,0-0.4-0.2-0.4-0.6v-0.9
	c0-0.3,0-0.5,0.3-0.5h2.5c0.8,0.1,1.6-0.6,1.6-1.4c0,0,0,0,0,0c0.1-1,0.1-15.9,0.1-16.9L383.1,5z"/>
<path class="st0" d="M433.2,18.6c1.7,0,3.3-0.1,5-0.3c0.9-0.2,1.7-0.8,2.2-1.5c0.6-0.9,1-1.9,1.1-3c0-0.3,0.1-0.4,0.4-0.4l1.3,0.1
	c0.2,0,0.4,0.1,0.4,0.4c-0.1,0.8-0.1,3.4-0.1,5c0,2.2,0.2,4.5,0.3,5.5c0,0.3-0.1,0.3-0.4,0.4l-1.2,0.2c-0.2,0-0.3,0-0.4-0.4
	c-0.3-0.9-0.6-1.7-1-2.5c-0.6-0.9-1.6-1.5-2.7-1.7c-1.7-0.2-3.3-0.3-5-0.3v2.9c0,2.6,0.2,7.3,0.2,8.2c0,2.5,0.5,3.4,1.2,3.7
	c1.3,0.4,2.7,0.6,4.1,0.4c0.8,0,2.9,0,3.9-0.1c1.4-0.2,2.6-0.7,3.7-1.6c1.8-1.6,3.4-3.4,5-5.2c0.2-0.2,0.3-0.2,0.5-0.1l0.8,0.5
	c0.2,0.1,0.2,0.2,0.2,0.4c0,0,0,0,0,0l-2.2,7.3c-0.1,0.5-0.6,0.8-1.1,0.7c-0.2,0-1.3,0-4.4-0.1s-8.3,0-16.7,0c-1.8,0-3.1,0-4.1,0
	s-1.6,0.1-2.1,0.1s-0.4-0.1-0.4-0.5v-1c0-0.3,0.1-0.4,0.5-0.4h1.5c2.2,0,2.4-0.3,2.4-2V17c0-4-0.1-10-0.1-10.5
	c-0.2-1.5-0.7-1.9-2-1.9h-1.9c-0.2,0-0.2-0.1-0.2-0.5V3c0-0.2,0.1-0.3,0.3-0.3c0,0,0.1,0,0.1,0c1.1,0,2.8,0.1,7.2,0.1h17
	c0.8,0,1.7-0.1,1.9-0.1s0.3,0.1,0.4,0.2c0.2,0.7,1.8,7.3,2,7.8c0.1,0.2,0.1,0.3-0.1,0.5l-0.8,0.4c-0.2,0.1-0.5,0-0.6-0.2
	c-1.8-2-3.7-3.8-5.7-5.4c-1.1-0.7-2.4-1.2-3.7-1.3l-6.4-0.2L433.2,18.6z"/>
<path class="st0" d="M475.4,14.9c0-1.3-0.1-8.2-0.2-8.9c-0.2-1.2-0.8-1.4-1.6-1.4h-2.4c-0.2,0-0.4,0-0.4-0.3V2.9
	c0-0.2,0.2-0.2,0.3-0.2c0.6,0,2.8,0.1,7.6,0.1c1.3,0,6.1-0.1,7.2-0.1c6.6,0,11.8,0.6,16.5,4.4c3.6,3.1,5.6,7.6,5.4,12.3
	c0.2,4.7-1.5,9.4-4.8,12.8c-4.7,5.1-13,5.1-16.1,5.1c-0.8,0-6.5-0.1-9.2-0.1c-4.2,0-6.2,0.1-6.8,0.1c-0.2,0-0.3-0.1-0.3-0.4v-1.3
	c0-0.2,0.2-0.3,0.4-0.3h2.5c0.9,0,1.5-0.4,1.5-1.2c0.2-1,0.3-12,0.3-15.6L475.4,14.9z M482.7,19.6c0,0.6,0,8.9,0.1,11.9
	c0,1,0.3,1.9,0.8,2.7c0.6,0.9,2.2,1.2,3.9,1.2c3.6-0.1,6.9-1.9,9.1-4.8c2.3-3.2,3.5-7.1,3.5-11.1c0-3.9-1.4-7.6-3.9-10.6
	c-2.5-2.7-6-4.2-9.7-4.4c-0.9-0.1-1.9,0-2.7,0.4c-0.7,0.3-0.9,1.1-1,2.1c0,2,0,8.4,0,9.2L482.7,19.6z"/>
<path class="st0" d="M570.9,23.1c0-4.3,0-6.7-0.1-9.1c0-1.9-0.3-6.7-0.4-7.4c-0.3-1.1-1.4-1.9-2.6-1.9h-1.6c-0.2,0-0.3-0.1-0.3-0.4
	V3c0-0.2,0-0.3,0.4-0.3s2.1,0.1,5.7,0.1c2.9,0,4.1-0.1,4.6-0.1s0.5,0.1,0.5,0.4v1.2c0,0.2,0,0.4-0.2,0.4h-1.4
	c-0.8,0-1.3,0.8-1.5,2.6c-0.3,3.3-1.1,14.2-1.1,20.6v8.3c0,0.7,0,1.6-0.7,1.6c-0.7,0-1.4-0.3-1.9-0.8c-0.8-0.8-3.2-3.4-6.1-6.8
	l-8.3-9.9c-0.8-1-7.5-9.3-8.6-10.9h-0.4v9.9c0,4,0.4,10,0.5,11.9c0.1,2.8,1,4.3,3,4.3h1.2c0.3,0,0.4,0.1,0.4,0.4V37
	c0,0.3,0,0.4-0.4,0.4s-3.4-0.1-5.7-0.1c-1.5,0-4.9,0.1-5.3,0.1c-0.2,0-0.2-0.1-0.2-0.4v-1.3c0-0.1,0.1-0.3,0.2-0.3c0,0,0.1,0,0.1,0
	h1.7c1.1,0,1.8-1.6,2.1-4.8c0-0.9,0.4-8.7,0.4-15.9v-4.4c0-2.9-1.8-5.6-4.2-5.6l-1.2,0c-0.2,0-0.3-0.2-0.3-0.3V2.9
	c0-0.2,0-0.3,0.3-0.3s0.6,0,1.5,0s2.5,0.1,5,0.1c1.7,0,3.1-0.1,3.7-0.1c0.5,0,1.1,0.2,1.4,0.6l11.3,13.8l8.3,10.4h0.2L570.9,23.1z"
	/>
<path class="st0" d="M602.9,23.9c-0.4,1-2.8,7.7-2.8,9.2c0,1.1,0.4,2.2,1.9,2.2h1.7c0.5,0,0.5,0.2,0.5,0.4v1.1c0,0.4,0,0.5-0.4,0.5
	c-0.6,0-2.6-0.1-6.6-0.1c-3.5,0-4.6,0.1-5.3,0.1c-0.3,0-0.3-0.3-0.3-0.6v-0.9c0-0.3,0-0.4,0.3-0.4h1.3c1.4-0.1,2.6-0.9,3.3-2.1
	c0.7-1,4.1-9.5,5.7-13.8c0.4-1,4.3-11.4,4.8-12.7c0.2-0.5,0.2-1.1,0-1.6c-0.2-0.2-0.3-0.4-0.3-0.6c0-0.1,0.1-0.3,0.5-0.4
	c1.6-0.3,4.7-1.6,5.4-2.4c0.2-0.2,0.4-0.4,0.6-0.4s0.4,0.3,0.5,0.8c0.9,3.1,4.7,13.9,5.6,17c1.1,3.8,4.3,12.8,5,14.1
	c0.5,1.2,1.6,2,2.8,2.2h1.7c0.3,0,0.3,0.2,0.3,0.4v0.9c0,0.3,0,0.6-0.4,0.6c-0.9,0-2-0.1-8.2-0.1c-4,0-5.7,0.1-6.7,0.1
	c-0.5,0-0.5-0.3-0.5-0.6v-0.9c0-0.2,0-0.4,0.3-0.4h1.4c1.3,0,1.8-0.5,1.5-1.8c-0.4-1.8-2.3-8-2.9-9.7H602.9z M613.1,21.9l-3.6-12.9
	c-0.2-0.7-0.3-1.1-0.5-1.1s-0.4,0.2-0.6,0.6c-0.2,0.6-4.4,12.1-4.8,13.3H613.1z"/>
<path class="st0" d="M656,5h-1.7c-2.2-0.1-4.4,0.2-6.5,0.8c-1.1,0.8-3.2,3.7-4.4,5.5c-0.2,0.2-0.3,0.4-0.5,0.3l-1.1-0.4
	c-0.2-0.1-0.3-0.3-0.2-0.4c0,0,0,0,0,0c0.5-2,2.1-8.5,2.3-9.4c0.2-0.6,0.4-0.8,0.7-0.8s0.5,0.2,0.9,0.7s1.5,1.1,3.2,1.2
	c2.6,0.1,4.6,0.3,9.7,0.3h2.8c5.3,0,7.4-0.2,9.4-0.3c1.3-0.1,2.5-0.5,3.5-1.2c0.5-0.5,0.8-0.7,1.1-0.7s0.5,0.2,0.6,0.8l1.5,9.7
	c0.1,0.2,0,0.4-0.2,0.4l-1,0.4c-0.2,0-0.3-0.1-0.5-0.4c-1.2-2-2.6-3.8-4.2-5.4C670.4,5.2,666,5,664.9,5h-1.6v13.4c0,0.7,0,14.3,0,15
	c0.1,1.2,0.5,2,1.7,2h2.3c0.4,0,0.5,0.1,0.5,0.5v1.1c0,0.2,0,0.4-0.5,0.4s-2-0.1-7.4-0.1c-5.2,0-7.2,0.1-7.9,0.1
	c-0.4,0-0.4-0.2-0.4-0.6v-0.9c0-0.3,0-0.5,0.3-0.5h2.4c0.9,0.1,1.6-0.6,1.6-1.4c0,0,0,0,0,0C656,32.9,656,18,656,17L656,5z"/>
<path class="st0" d="M700.4,16.8c0-1.2-0.2-9.9-0.2-10.5c-0.1-1.2-0.6-1.6-1.6-1.6h-2.3c-0.2,0-0.4-0.1-0.4-0.3V2.9
	c0-0.2,0.2-0.3,0.3-0.3c0.6,0,3.1,0.1,7.8,0.1c5,0,6.5-0.1,7.2-0.1c0.2,0,0.3,0.1,0.3,0.4v1.2c0,0.2-0.2,0.3-0.4,0.3h-1.4
	c-1.2,0-1.9,0.4-1.9,1.3c0,0.5-0.2,11.2-0.2,11.8v3.7c0,0.5,0.2,11.7,0.2,12.1c0,1.5,0.7,1.8,1.7,1.8h2c0.2,0,0.4,0.1,0.4,0.3V37
	c0,0.2-0.2,0.3-0.4,0.3c-0.6,0-2.5-0.1-7.1-0.1c-5.1,0-7.2,0.1-7.7,0.1c-0.2,0-0.4-0.1-0.4-0.3c0,0,0-0.1,0-0.1v-1.3
	c0-0.2,0.2-0.3,0.4-0.3h1.4c1,0,2-0.1,2.2-1.3c0.1-0.7,0.2-11.2,0.2-13.8L700.4,16.8z"/>
<path class="st0" d="M739.2,34.8c-3.5-2.1-7.1-7.3-7.1-14.4c0-4.4,1.6-8.7,4.5-12.1c4.3-5.2,9.8-6.2,14.1-6.2
	c4.3-0.2,8.5,1.1,11.8,3.8c4.4,3.5,6.8,8.9,6.6,14.5c0,3.8-1.3,7.6-3.6,10.6c-3.2,3.9-7.3,6.9-15,6.9
	C746.6,37.9,742.7,36.8,739.2,34.8z M761.6,20.8c0-10.6-7-16.5-11.1-16.5c-1,0-3.4-0.2-6.4,2.6s-4.3,7.8-4.3,11.8
	c0,12.4,7.1,16.9,11.2,16.9C760,35.6,761.6,24.8,761.6,20.8z"/>
<path class="st0" d="M820.2,23.1c0-4.3,0-6.7-0.2-9.1c0-1.9-0.3-6.7-0.4-7.4c-0.3-1.1-1.4-1.9-2.6-1.9h-1.5c-0.2,0-0.3-0.1-0.3-0.4
	V3c0-0.2,0-0.3,0.4-0.3s2.1,0.1,5.7,0.1c2.9,0,4.1-0.1,4.6-0.1s0.5,0.1,0.5,0.4v1.2c0,0.2,0,0.4-0.2,0.4h-1.4
	c-0.8,0-1.3,0.8-1.5,2.6c-0.3,3.3-1.1,14.2-1.1,20.6v8.3c0,0.7,0,1.6-0.7,1.6c-0.7,0-1.4-0.3-1.9-0.8c-0.8-0.8-3.2-3.4-6.1-6.8
	l-8.3-9.9c-0.8-1-7.5-9.3-8.7-10.9h-0.3v9.9c0,4,0.4,10,0.5,11.9c0.1,2.8,1,4.3,3,4.3h1.2c0.3,0,0.4,0.1,0.4,0.4V37
	c0,0.3,0,0.4-0.4,0.4s-3.4-0.1-5.7-0.1c-1.5,0-4.8,0.1-5.3,0.1c-0.2,0-0.2-0.1-0.2-0.4v-1.3c0-0.1,0.1-0.3,0.2-0.3c0,0,0.1,0,0.1,0
	h1.7c1.1,0,1.8-1.6,2.1-4.8c0-0.9,0.4-8.7,0.4-15.9v-4.4c0-2.9-1.8-5.6-4.2-5.6l-1.2,0c-0.2,0-0.3-0.2-0.3-0.3V2.9
	c0-0.2,0-0.3,0.3-0.3s0.6,0,1.6,0s2.5,0.1,5,0.1c1.7,0,3.1-0.1,3.7-0.1c0.5,0,1.1,0.2,1.4,0.6l11.3,13.8l8.3,10.4h0.2L820.2,23.1z"
	/>
<path class="st0" d="M848.2,26.5c0.2,0,0.3,0,0.3,0.4c0.2,2,0.9,3.8,1.9,5.5c1.3,2.1,3.6,3.3,6.1,3.3c2.3,0,6.1-1.6,6.1-5.4
	c0-4-0.8-5.2-7.1-7.6c-2.5-1-4.9-2.5-7-4.2c-1.7-1.5-2.4-4.1-2.4-6.9c0-3,0.7-5,3.6-7.1c2-1.6,4.5-2.4,7-2.3c2.2-0.1,4.4,0.3,6.5,1
	c0.4,0.2,0.9,0.1,1.1-0.2l0.6-0.6c0.2-0.2,0.5-0.3,0.7-0.3c0.3,0,0.4,0.5,0.5,0.8L867,11c0,0.2-0.1,0.2-0.2,0.3l-1.1,0.3
	c-0.2,0.1-0.5,0-0.6-0.3c-0.7-1.9-1.7-3.6-3-5c-1.2-1.4-3-2.1-4.9-2c-2.6-0.1-4.8,1.8-5.1,4.4c0,1.8,0,3.3,1.3,4.5s4,2.5,6.4,3.2
	c2.3,0.7,4.5,2,6.2,3.7c1.9,1.7,2.7,3.8,2.7,7.2c0.2,5.7-4.3,10.5-10,10.7c-0.2,0-0.4,0-0.7,0c-4.4,0-6.7-0.7-8.7-2.1
	c-0.3-0.3-0.7-0.5-1.1-0.5c-0.3,0-0.5,0.3-0.8,0.8s-0.5,0.6-0.9,0.6c-0.5,0-0.7-0.2-0.7-0.8l0.8-9.2c0-0.3,0.2-0.3,0.4-0.3
	L848.2,26.5z"/>
<path class="st1" d="M271.5,110.4c8.9,0,17.5-0.6,19.8-1.2c3.3-0.8,6-2.5,8.9-6c2.1-2.9,4.5-8.4,4.5-12c0-1.4,0.6-1.8,1.5-1.8
	l5.2,0.6c1,0.2,1.8,0.4,1.5,1.6c-0.6,3.3-0.6,13.4-0.6,20.2c0,8.7,0.8,18.1,1.2,22.2c0.2,1.2-0.6,1.4-1.5,1.5l-4.7,1
	c-0.8,0.2-1.2-0.2-1.6-1.5c-1-3.4-2.3-6.7-3.9-9.9c-2.1-3.7-6.8-6.2-10.7-6.8c-6.6-0.9-13.2-1.3-19.8-1.2v11.7c0,10.5,1,29.3,1,32.8
	c0,10.1,2.1,13.6,4.7,14.8c2.9,1.2,6.6,1.8,16.3,1.8c3.3,0,11.5-0.2,15.5-0.6c5.4-0.7,10.5-3,14.8-6.4c5-4.1,15.9-16.1,19.8-20.8
	c0.8-0.8,1.4-1,1.9-0.6l3.3,1.9c0.6,0.2,1,0.9,0.8,1.5c0,0,0,0,0,0l-8.7,29.3c-0.6,1.9-2.3,3.1-4.3,2.9c-1,0-5.2-0.2-17.7-0.4
	c-12.6,0-33.2-0.2-66.8-0.2c-7.2,0-12.6,0.2-16.5,0.2c-4.1,0.2-6.6,0.4-8.4,0.4c-1.4,0-1.8-0.6-1.8-2.1v-4.1c0-1.2,0.6-1.8,1.9-1.8
	h5.8c8.9,0,9.7-1.4,9.7-8.2v-65.1c0-16.1-0.4-40-0.6-42c-0.8-6.2-2.7-7.6-8-7.6h-7.6c-0.8,0-1-0.6-1-1.9v-4.7
	c-0.1-0.7,0.4-1.3,1-1.4c0.1,0,0.2,0,0.3,0c4.3,0,11.1,0.6,28.8,0.6l68.2-0.2c3.1,0,6.8-0.4,7.8-0.4s1.4,0.4,1.5,1
	c0.8,2.7,7.2,29.3,8,31.3c0.4,1,0.4,1.4-0.6,1.9l-3.1,1.6c-0.9,0.4-1.9,0.1-2.3-0.8c-1-1.6-18.5-19-22.9-21.8
	c-4.1-2.5-9.5-5.1-14.8-5.2l-25.6-0.8L271.5,110.4z"/>
<path class="st1" d="M373.7,141.9c0.8,0,1.4,0.2,1.4,1.6c0.4,6,3.1,14.4,7.8,22c5.3,8.3,14.6,13.3,24.5,13.2
	c9.3,0,24.3-6.2,24.3-21.6c0-16.1-3.1-20.8-28.4-30.3c-10.2-4.1-19.7-9.8-28.2-16.9c-6.8-6-9.7-16.3-9.7-27.6
	c0-11.9,2.9-19.8,14.6-28.6c8.7-6.6,16.1-9.3,28-9.3c14.2,0,21.8,2.3,25.8,3.9c1.5,0.8,3.4,0.4,4.5-1l2.5-2.5
	c0.8-0.8,1.8-1.2,2.9-1.2c1.4,0,1.8,2.1,2,3.3l3.1,33.2c0,0.8-0.4,1-1,1.2l-4.3,1.4c-1,0.4-1.9,0-2.5-1.4c-2.6-7.5-6.7-14.4-12-20.2
	c-4.9-5.4-10.7-8.2-19.4-8.2c-14.6,0-20.6,12.6-20.6,17.7c0,7.2,0.2,13,5,17.9c5,5.2,16.1,9.9,25.6,12.6c9.3,2.7,16.9,7.6,24.9,14.8
	c7.6,6.8,10.7,15.3,10.7,29c0,23.7-16.9,42.9-42.6,42.9c-17.5,0-26.6-2.9-34.8-8.4c-2.3-1.5-3.5-2.1-4.5-2.1c-1.2,0-1.9,1.4-3.1,3.3
	c-1.2,2.1-2.1,2.3-3.5,2.3c-2.1,0-2.9-1-2.7-3.1l3.1-36.9c0.2-1.4,0.8-1.4,1.5-1.4L373.7,141.9z"/>
<path class="st1" d="M497.9,169.9c-14.4-12.8-21.2-35.2-21.2-51.9c0-20,6.4-38.1,20-52.6c11.1-11.9,27.2-21,51.3-21
	c17.7,0,32.2,4.5,39.1,8.2c2.7,1.4,3.7,1.2,4.1-0.2l1.5-4.9c0.4-1.2,0.8-1.2,3.7-1.2s3.3,0.4,3.3,3.1c0,3.7,3.5,36.7,4.5,42.6
	c0.2,1.4,0,2.3-1,2.5l-4.3,1.2c-1,0.4-1.8-0.4-2.3-2.1c-2.1-7.8-7.4-17.7-15.5-26c-8.3-8.2-18.7-14.6-33.4-14.6
	c-28.4,0-40.4,25.8-40.2,54.6c0,12.2,3.5,36.1,17.3,50.7c12.6,13,23.7,14.6,30.3,14.6c22.2,0,38.7-10.1,45.9-20.8
	c1-1.6,1.9-2.3,2.9-1.6l3.3,2.9c0.6,0.4,0.8,1.2,0,2.3c-11.3,16.3-30.1,32.1-57.5,32.1C523.7,187.8,510.1,180.8,497.9,169.9z"/>
<path class="st1" d="M650.8,131.6c-1.6,4.1-11.1,30.7-11.1,36.9c0,4.3,1.8,8.9,7.6,8.9h6.8c1.9,0,2.1,0.8,2.1,1.5v4.2
	c0,1.5-0.2,2.1-1.8,2.1c-2.5,0-10.5-0.6-26.4-0.6c-14.2,0-18.5,0.6-21.2,0.6c-1.2,0-1.4-1.2-1.4-2.5v-3.6c0-1.2,0.2-1.8,1.4-1.8h5
	c4.7,0,9.3-2.7,13.2-8.5c2.7-4.1,16.5-37.9,22.9-55c1.5-3.9,17.3-45.7,19-50.9c0.6-1.9,1.5-4.5,0.2-6.6c-0.7-0.7-1.1-1.6-1.4-2.5
	c0-0.6,0.4-1.4,1.9-1.8c6.2-1.4,18.8-6.4,21.8-9.7c1-1,1.5-1.8,2.5-1.8c1.2,0,1.6,1.2,2.1,3.3c3.7,12.2,18.8,55.8,22.5,68.2
	c4.5,15.2,17.1,51.3,19.8,56.5c3.3,6.4,8.3,8.7,11.3,8.7h6.6c1.2,0,1.4,0.8,1.4,1.8v3.7c0,1.2-0.2,2.5-1.8,2.5
	c-3.7,0-7.8-0.6-32.7-0.6c-16.1,0-22.9,0.6-26.8,0.6c-1.9,0-2.1-1.2-2.1-2.5v-3.7c0-1,0.2-1.8,1.2-1.8h5.4c5.2,0,7-1.9,5.8-7
	c-1.8-7-9.3-31.9-11.7-38.9L650.8,131.6z M691.6,123.8L677,72.3c-0.8-2.9-1.2-4.3-2.1-4.3c-1.2,0-1.8,0.8-2.3,2.5
	c-1,2.5-17.7,48.4-19.2,53.2H691.6z"/>
<path class="st1" d="M807.8,133.4c0,9.1,0.2,35.6,0.4,37.9c0.4,4.3,2.3,6.2,5.4,6.2h9.9c1.4,0,1.5,0.6,1.5,1.4v5
	c0,1-0.2,1.6-1.8,1.6c-2.7,0-8.7-0.6-31.5-0.6c-17.1,0-24.7,0.6-26.8,0.6c-1.4,0-1.5-0.6-1.5-1.4v-5.2c0-1,0.2-1.4,1.2-1.4h5
	c6.6,0,8-1,8.5-5.8c0.2-1.9,0.8-32.2,0.8-54.8V94.5c0-12.8-0.2-33.2-0.4-35.6c-0.4-3.9-2.3-4.3-6.2-4.3h-9.2c-1,0-1.2-0.4-1.2-1.6
	v-5c0-1,0.2-1.4,1.2-1.4c2.1,0,9.1,0.6,29.5,0.6c3.5,0,15-0.6,21.4-0.6c23.9,0,35.4,2,46.6,10.7c8.2,6.2,14,17.3,14,30.1
	c0,23.3-18.7,39.2-51.3,39.2c-6,0-10.5-0.2-15.7-0.6L807.8,133.4z M807.8,118.6c3.9,0.8,7.9,1.2,11.8,1.2c6,0,15.7-6.2,20-13
	c3.9-6,4.7-13.4,4.7-20.6c0-26.8-19.4-32.5-27.4-32.5c-3.1,0-6.1,0.3-9.1,1L807.8,118.6z"/>
<path class="st0" d="M8.4,218c1.2,0,2.4,0,3.6-0.2c0.7-0.2,1.2-0.6,1.6-1.1c0.5-0.7,0.7-1.4,0.8-2.2c0-0.2,0.1-0.3,0.3-0.3l1,0.1
	c0.2,0,0.3,0.1,0.3,0.3c-0.1,1.2-0.1,2.5-0.1,3.7c0,1.6,0.1,3.3,0.2,4.1c0,0.2-0.1,0.2-0.3,0.3l-0.9,0.2c-0.1,0-0.2,0-0.3-0.3
	c-0.2-0.6-0.4-1.2-0.7-1.8c-0.5-0.7-1.2-1.1-2-1.2c-1.2-0.2-2.4-0.2-3.6-0.2v2.1c0,1.9,0.2,5.4,0.2,6c0,1.8,0.4,2.5,0.9,2.7
	c1,0.3,2,0.4,3,0.3c0.6,0,2.1,0,2.8-0.1c1-0.1,1.9-0.5,2.7-1.2c1.3-1.2,2.5-2.5,3.6-3.8c0.1-0.1,0.2-0.2,0.4-0.1l0.6,0.3
	c0.1,0,0.2,0.2,0.2,0.3c0,0,0,0,0,0l-1.6,5.4c-0.1,0.3-0.4,0.6-0.8,0.5l-3.2-0.1c-2.3,0-6.1,0-12.3,0c-1.3,0-2.3,0-3,0
	s-1.2,0.1-1.5,0.1S0,231.7,0,231.4v-0.8c0-0.2,0.1-0.3,0.3-0.3h1.1c1.6,0,1.8-0.2,1.8-1.5v-12c0-3-0.1-7.3-0.1-7.7
	c-0.1-1.1-0.5-1.4-1.5-1.4H0.2c-0.1,0-0.2-0.1-0.2-0.3v-0.9c0-0.1,0.1-0.2,0.2-0.2c0,0,0,0,0,0c0.8,0,2,0.1,5.3,0.1h12.5
	c0.6,0,1.2-0.1,1.4-0.1c0.1,0,0.2,0.1,0.3,0.2c0.1,0.5,1.3,5.4,1.5,5.7c0.1,0.2,0.1,0.2-0.1,0.3l-0.6,0.3c-0.2,0.1-0.3,0-0.4-0.1
	c-1.3-1.4-2.7-2.8-4.2-4c-0.8-0.6-1.7-0.9-2.7-1l-4.7-0.1L8.4,218z"/>
<path class="st0" d="M38.5,219.7c0,0.9-0.7,1.7-1.6,1.7c-0.1,0-0.2,0-0.2,0c-1.2,0-2.2-0.7-2.6-1.9c-0.4-1.3-1.1-1.7-2.1-1.7
	s-2.3,1.4-2.3,3.6s-0.1,3.8,1.1,6.1c0.7,1.4,2.2,2.2,3.8,2.1c1.3,0.1,2.6-0.3,3.6-1.1c0.2-0.1,0.3-0.2,0.4,0l0.5,0.5
	c0.1,0.1,0.1,0.3,0,0.5c-0.7,1.2-3.5,2.9-6.7,2.9c-2.7,0-4.4-0.8-5.6-2.2c-1.2-1.3-1.9-3.1-1.8-4.9c-0.1-2.5,0.9-5,2.6-6.8
	c1.4-1.4,3.3-2.1,5.3-2.1C37.5,216.2,38.5,218.5,38.5,219.7z"/>
<path class="st0" d="M42.6,229.6c-1.3-1.6-2-3.6-1.9-5.6c0.1-2.3,1.2-4.5,3.1-5.9c1.5-1.2,3.4-1.9,5.3-1.8c2.1-0.1,4.2,0.7,5.7,2.2
	c1.6,1.4,2.5,3.5,2.5,5.7c0,2.1-0.8,4.1-2.3,5.6c-1.6,1.7-3.9,2.6-6.2,2.5C46.5,232.4,44.2,231.4,42.6,229.6z M51.9,223.9
	c0-4.1-1.4-6.2-3-6.2c-0.8-0.1-1.5,0.3-1.9,1c-0.7,1.1-1.2,2.6-1.2,5.5c-0.1,1.7,0.2,3.4,0.9,5c0.3,1,1.3,1.6,2.3,1.5
	C51,230.7,51.9,227.8,51.9,223.9z"/>
<path class="st0" d="M66.2,218.2h0.3c0.5-0.5,1.1-1,1.7-1.3c0.8-0.5,1.8-0.7,2.7-0.7c1.3-0.1,2.6,0.2,3.7,1c1.5,1.4,1.6,2.3,1.6,4.1
	v3.8c0,1.2-0.1,2.9-0.1,4.1c0,1.1,0.5,1.2,0.9,1.2h1c0.3,0,0.4,0.1,0.4,0.3v0.6c0,0.2-0.1,0.4-0.3,0.4s-1.4-0.1-4.2-0.1
	c-2.4,0-3.5,0.1-3.7,0.1s-0.3-0.1-0.3-0.4v-0.6c0-0.2,0.1-0.3,0.5-0.3h0.4c0.2,0,0.6-0.2,0.6-0.8c0.2-1.2,0.2-2.5,0.2-3.7v-3.8
	c0-1.3-0.1-2.3-0.9-3c-0.5-0.5-1.1-0.7-1.8-0.7c-0.7,0-1.3,0.3-1.8,0.7c-0.4,0.3-0.7,1.3-0.7,2.7l-0.1,7.3c0,0.6,0.2,1.2,0.6,1.2
	h0.5c0.3,0,0.4,0.1,0.4,0.4v0.7c0,0.2-0.1,0.3-0.2,0.3s-1.2-0.1-3.6-0.1c-2.5,0-3.7,0.1-3.9,0.1s-0.2-0.1-0.2-0.3v-0.7
	c0-0.2,0.1-0.3,0.3-0.3h0.5c0.4,0,1-0.1,1-0.7v-7.9c0-0.9-0.6-1.7-1.4-2.1l-0.3-0.1c-0.2-0.1-0.3-0.2-0.2-0.4v-0.3
	c0-0.2,0.1-0.3,0.3-0.4l4.6-2.1c0.3-0.1,0.5-0.2,0.8-0.2c0.2,0,0.4,0.2,0.5,0.4L66.2,218.2z"/>
<path class="st0" d="M82.2,229.6c-1.3-1.6-2-3.6-1.9-5.6c0.1-2.3,1.2-4.5,3.1-5.9c1.5-1.2,3.4-1.9,5.3-1.8c2.1-0.1,4.2,0.7,5.7,2.2
	c1.6,1.4,2.5,3.5,2.5,5.7c0,2.1-0.8,4.1-2.3,5.6c-1.6,1.7-3.9,2.6-6.2,2.5C86.1,232.4,83.7,231.4,82.2,229.6z M91.5,223.9
	c0-4.1-1.4-6.2-3-6.2c-0.8-0.1-1.5,0.3-1.9,1c-0.7,1.1-1.2,2.6-1.2,5.5c-0.1,1.7,0.2,3.4,0.9,5c0.3,1,1.3,1.6,2.4,1.5
	C90.6,230.7,91.4,227.8,91.5,223.9L91.5,223.9z"/>
<path class="st0" d="M103.9,216.5c0.3-0.1,0.5-0.2,0.8-0.2c0.3,0,0.5,0.2,0.5,0.5l0.3,2h0.2c1.2-1.6,3.1-2.5,5.1-2.5
	c1.8-0.1,3.5,0.9,4.3,2.5h0.2c1.2-1.5,2.9-2.3,4.8-2.4c1.3-0.2,2.6,0.3,3.4,1.3c1,1,1.5,1.4,1.5,4.9v2.6c0,1.2-0.1,3.2-0.1,3.9
	c0,1,0.5,1.4,1,1.4h0.7c0.3,0,0.4,0.1,0.4,0.3v0.7c0,0.2-0.1,0.3-0.2,0.3s-1.2-0.1-3.9-0.1c-2.1,0-3.4,0.1-3.7,0.1s-0.3-0.1-0.3-0.4
	v-0.6c0-0.2,0.1-0.3,0.2-0.3h0.3c0.4,0,0.7-0.3,0.7-0.7c0.1-0.8,0.2-2.1,0.2-3.4v-3.4c0-2.2-0.1-3-0.6-3.5c-0.4-0.6-1-0.9-1.7-0.9
	c-0.8,0.1-1.6,0.5-2.1,1.1c-0.4,0.7-0.6,1.5-0.5,2.2v7.1c0,1,0.2,1.4,0.6,1.4h0.6c0.3,0,0.4,0.1,0.4,0.3v0.6c0,0.3-0.1,0.4-0.2,0.4
	s-1.2-0.1-3.4-0.1c-2.6,0-3.8,0.1-4.1,0.1s-0.2-0.1-0.2-0.3v-0.6c0-0.3,0-0.4,0.4-0.4h0.5c0.5,0,0.9-0.5,0.9-2.5v-5.3
	c0-2.5-0.4-3.3-0.8-3.7c-0.5-0.3-1.1-0.5-1.7-0.4c-0.8,0-1.5,0.4-2,1.1c-0.5,0.9-0.7,1.9-0.6,2.9v5.8c0,1.8,0.4,2.2,0.7,2.2h0.3
	c0.3,0,0.4,0.1,0.4,0.3v0.6c0,0.2,0,0.4-0.3,0.4s-1.3-0.1-3.8-0.1c-2.4,0-3.5,0.1-3.8,0.1s-0.3-0.1-0.3-0.3v-0.7
	c0-0.3,0-0.3,0.4-0.3h1c0.4,0,0.6-0.4,0.7-0.9s0-1.5,0-2.4v-4.5c0-1.6-0.2-2.1-1.1-2.7l-0.7-0.4c-0.2-0.1-0.2-0.2-0.2-0.3v-0.4
	c0-0.1,0.1-0.3,0.2-0.3L103.9,216.5z"/>
<path class="st0" d="M137.6,231.8c-0.3,0-1.9-0.1-5-0.1c-2.1,0-3.5,0.1-3.9,0.1c-0.2,0-0.3-0.1-0.3-0.3v-0.7c0-0.2,0.1-0.3,0.4-0.3
	h1.3c0.4,0,0.6-0.1,0.7-0.7c0.1-1.1,0.1-2.2,0.1-3.2l-0.1-5c0-1-0.2-1.7-1.7-2.2c-0.4-0.1-0.4-0.3-0.4-0.5v-0.4
	c0-0.1,0.1-0.2,0.4-0.3l5.3-1.7c0.3-0.1,0.7-0.2,1-0.2c0.3,0,0.4,0.2,0.4,0.4c-0.1,0.6-0.1,2.8-0.1,6v3.8c0,1.4,0,2.7,0,3.1
	c0.1,0.7,0.2,0.9,0.6,0.9h1.3c0.3,0,0.4,0.1,0.4,0.3v0.7C137.9,231.7,137.8,231.8,137.6,231.8z M132.7,213.5c-1.4,0-2.6-1.1-2.6-2.5
	c0,0,0-0.1,0-0.1c0.2-1.4,1.4-2.4,2.8-2.3c1.3-0.1,2.5,0.8,2.6,2.2c0,0,0,0,0,0.1c0,1.5-1.2,2.7-2.7,2.7
	C132.8,213.5,132.7,213.5,132.7,213.5L132.7,213.5z"/>
<path class="st0" d="M153.3,219.7c0,0.9-0.7,1.7-1.6,1.7c-0.1,0-0.2,0-0.2,0c-1.2,0-2.2-0.7-2.6-1.9c-0.4-1.3-1.1-1.7-2.1-1.7
	s-2.4,1.4-2.4,3.6s-0.1,3.8,1.1,6.1c0.7,1.4,2.2,2.2,3.8,2.1c1.3,0.1,2.6-0.3,3.6-1.1c0.2-0.1,0.3-0.2,0.4,0l0.5,0.5
	c0.1,0.1,0.1,0.3,0,0.5c-0.7,1.2-3.4,2.9-6.7,2.9c-2.7,0-4.5-0.8-5.6-2.2c-1.2-1.3-1.9-3.1-1.8-4.9c-0.1-2.5,0.9-5,2.7-6.8
	c1.4-1.4,3.3-2.1,5.3-2.1C152.3,216.2,153.3,218.5,153.3,219.7z"/>
<path class="st0" d="M171.1,220.3c0.1-0.7-0.1-1.4-0.5-2c-0.4-0.3-1-0.5-1.5-0.4c-0.7,0-1.3,0.2-1.9,0.6c-0.5,0.4-0.1,1-0.1,2.1
	c0,1.1-0.9,2-2.1,2c-0.1,0-0.2,0-0.2,0c-0.8,0.1-1.4-0.5-1.5-1.2c0,0,0,0,0-0.1c0-0.9,0.3-1.8,1-2.5c1.9-1.7,4.3-2.6,6.8-2.6
	c2.3,0,2.9,0.4,3.6,1c0.8,0.8,1.1,1.9,1,3l0.1,7.1c0,1.9,0.1,2.4,0.8,2.4c0.4,0,0.8-0.3,1-0.6c0.1-0.2,0.2-0.2,0.4-0.2l0.5,0.3
	c0.1,0.1,0.2,0.2,0.1,0.5c-0.6,1.5-2,2.4-3.6,2.4c-1.5,0.1-2.9-0.8-3.4-2.2h-0.2c-0.9,0.8-1.9,1.5-3.1,1.8c-0.8,0.3-1.7,0.4-2.6,0.3
	c-1.2,0-2.4-1.4-2.4-3.3c0-1.6,0.7-3.2,3.1-4.3c1.6-0.7,3.1-1.5,4.6-2.3L171.1,220.3z M171.1,223.6c-1.7,1-3.2,1.5-3.2,4
	c0,1.6,0.8,2.3,1.5,2.4c0.8-0.1,1.4-0.6,1.7-1.3L171.1,223.6z"/>
<path class="st0" d="M186.1,218.2h0.3c0.5-0.5,1.1-1,1.7-1.3c2.1-1,4.5-0.9,6.4,0.3c1.5,1.4,1.6,2.3,1.6,4.1v3.8
	c0,1.2-0.1,2.9-0.1,4.1c0,1.1,0.5,1.2,0.9,1.2h1c0.3,0,0.4,0.1,0.4,0.3v0.6c0,0.2-0.1,0.4-0.3,0.4s-1.4-0.1-4.2-0.1
	c-2.4,0-3.5,0.1-3.7,0.1s-0.3-0.1-0.3-0.4v-0.6c0-0.2,0.1-0.3,0.5-0.3h0.4c0.2,0,0.6-0.2,0.6-0.8c0.2-1.2,0.2-2.5,0.2-3.7v-3.8
	c0-1.3-0.1-2.3-0.9-3c-0.5-0.5-1.1-0.7-1.8-0.7c-0.7,0-1.3,0.3-1.8,0.7c-0.4,0.3-0.7,1.3-0.7,2.7l-0.1,7.3c0,0.6,0.2,1.2,0.6,1.2
	h0.5c0.3,0,0.4,0.1,0.4,0.4v0.7c0,0.2-0.1,0.3-0.2,0.3s-1.2-0.1-3.6-0.1c-2.5,0-3.7,0.1-3.9,0.1s-0.2-0.1-0.2-0.3v-0.7
	c0-0.2,0.1-0.3,0.4-0.3h0.5c0.4,0,1-0.1,1-0.7v-7.9c0-0.9-0.6-1.7-1.4-2.1l-0.3-0.1c-0.2-0.1-0.3-0.2-0.2-0.4v-0.3
	c0-0.2,0.1-0.3,0.3-0.4l4.6-2.1c0.3-0.1,0.5-0.2,0.8-0.2c0.2,0,0.4,0.2,0.5,0.4L186.1,218.2z"/>
<path class="st0" d="M210.7,209.5c0-1-0.4-1.6-2.3-2c-0.2,0-0.2-0.1-0.2-0.2v-0.7c0-0.1,0.1-0.2,0.3-0.3c2.1-0.2,4.8-0.4,6-0.6
	c0.3-0.1,0.6-0.2,0.9-0.2c0.2,0,0.4,0.2,0.3,0.6c-0.1,1.8-0.2,7-0.2,12v7.9c-0.1,1.1,0,2.2,0.4,3.3c0.3,0.5,0.8,0.5,1.6,0.4
	c0.4,0,0.5,0.1,0.6,0.2l0.1,0.5c0,0.2,0,0.3-0.2,0.4c0,0,0,0,0,0l-5.4,1.3c-0.2,0.1-0.4,0-0.5-0.3l-0.6-1.8c-1.2,1.3-3,2.1-4.8,2.2
	c-1.6,0.2-3.2-0.5-4.2-1.7c-1.5-1.2-2.3-3.1-2.2-5.1c-0.2-2.6,0.7-5.1,2.5-6.9c1.3-1.5,3.3-2.4,5.3-2.3c1,0,2,0.2,2.9,0.5
	L210.7,209.5z M210.8,220.9c0-0.6-0.1-1.2-0.3-1.7c-0.6-1-1.6-1.6-2.7-1.6c-0.7,0-1.4,0.4-1.9,1c-0.8,1.2-1.2,2.6-1.1,4.1
	c0,4.2,1.8,7.1,4,7.1c0.7,0,1.3-0.2,1.7-0.7c0.3-0.5,0.4-1.1,0.4-1.7L210.8,220.9z"/>
<path class="st0" d="M228.8,223.8c0.1,0,0.2,0,0.2,0.3c0.2,1.4,0.7,2.8,1.4,4c1,1.5,2.7,2.4,4.5,2.4c1.7,0,4.5-1.1,4.5-4
	s-0.6-3.8-5.2-5.6c-1.9-0.8-3.6-1.8-5.2-3.1c-1.3-1.4-1.9-3.2-1.8-5.1c-0.1-2.1,0.9-4.1,2.7-5.2c1.4-1.2,3.3-1.8,5.1-1.7
	c1.6-0.1,3.2,0.2,4.7,0.7c0.3,0.2,0.6,0.1,0.8-0.2l0.5-0.5c0.1-0.1,0.3-0.2,0.5-0.2c0.2,0,0.3,0.4,0.4,0.6l0.6,6.1
	c0,0.1-0.1,0.2-0.2,0.2l-0.8,0.2c-0.2,0.1-0.4,0-0.5-0.2c-0.5-1.4-1.2-2.6-2.2-3.7c-0.9-1-2.2-1.6-3.6-1.5c-1.9,0-3.5,1.4-3.8,3.2
	c0,1.3,0,2.4,0.9,3.3c1.4,1.1,3,1.9,4.7,2.3c1.7,0.5,3.3,1.5,4.6,2.7c1.4,1.2,2,2.8,2,5.3c0.2,4.2-3.1,7.7-7.3,7.9
	c-0.2,0-0.3,0-0.5,0c-3.2,0-4.9-0.5-6.4-1.5c-0.2-0.2-0.5-0.3-0.8-0.4c-0.2,0-0.4,0.2-0.6,0.6s-0.4,0.4-0.6,0.4s-0.5-0.2-0.5-0.6
	l0.6-6.8c0-0.2,0.1-0.2,0.3-0.2L228.8,223.8z"/>
<path class="st0" d="M249.4,229.6c-2.9-3.4-2.4-8.5,1-11.4c0.1,0,0.1-0.1,0.2-0.1c1.5-1.2,3.4-1.9,5.3-1.8c2.1-0.1,4.2,0.7,5.7,2.2
	c1.6,1.4,2.5,3.5,2.5,5.7c0,2.1-0.8,4.1-2.3,5.6c-1.6,1.7-3.9,2.6-6.2,2.5C253.2,232.4,250.9,231.4,249.4,229.6z M258.6,223.9
	c0-4.1-1.4-6.2-3-6.2c-0.8-0.1-1.5,0.3-1.9,1c-0.7,1.1-1.2,2.6-1.2,5.5c-0.1,1.7,0.2,3.4,0.9,5c0.3,1,1.3,1.6,2.4,1.5
	C257.8,230.7,258.7,227.8,258.6,223.9L258.6,223.9z"/>
<path class="st0" d="M280.2,219.7c0,0.9-0.7,1.7-1.6,1.7c-0.1,0-0.2,0-0.2,0c-1.2,0-2.2-0.7-2.6-1.9c-0.4-1.3-1.1-1.7-2.1-1.7
	s-2.4,1.4-2.4,3.6s-0.1,3.8,1.1,6.1c0.7,1.4,2.2,2.2,3.8,2.1c1.3,0.1,2.6-0.3,3.6-1.1c0.2-0.1,0.3-0.2,0.4,0l0.5,0.5
	c0.1,0.1,0.1,0.3,0,0.5c-0.7,1.2-3.5,2.9-6.7,2.9c-2.7,0-4.5-0.8-5.6-2.2c-1.2-1.3-1.9-3.1-1.8-4.9c-0.1-2.5,0.8-5,2.6-6.8
	c1.4-1.4,3.3-2.1,5.3-2.1C279.2,216.2,280.2,218.5,280.2,219.7z"/>
<path class="st0" d="M291,231.8c-0.3,0-1.9-0.1-5-0.1c-2.1,0-3.5,0.1-3.9,0.1c-0.2,0-0.3-0.1-0.3-0.3v-0.7c0-0.2,0.1-0.3,0.4-0.3
	h1.3c0.4,0,0.6-0.1,0.7-0.7c0.1-1.1,0.1-2.2,0.1-3.2l-0.1-5c0-1-0.2-1.7-1.7-2.2c-0.4-0.1-0.4-0.3-0.4-0.5v-0.4
	c0-0.1,0.1-0.2,0.4-0.3l5.3-1.7c0.3-0.1,0.7-0.2,1-0.2c0.3,0,0.4,0.2,0.4,0.4c-0.1,0.6-0.1,2.8-0.1,6v3.8c0,1.4,0,2.7,0,3.1
	c0.1,0.7,0.2,0.9,0.6,0.9h1.3c0.3,0,0.4,0.1,0.4,0.3v0.7C291.3,231.7,291.2,231.8,291,231.8z M286.1,213.5c-1.4,0-2.6-1.1-2.6-2.5
	c0,0,0-0.1,0-0.1c0.2-1.4,1.4-2.4,2.8-2.3c1.3-0.1,2.5,0.8,2.6,2.2c0,0,0,0,0,0.1c0,1.5-1.2,2.7-2.7,2.7
	C286.2,213.5,286.1,213.5,286.1,213.5z"/>
<path class="st0" d="M301.1,220.3c0.1-0.7-0.1-1.4-0.5-2c-0.4-0.3-1-0.5-1.5-0.4c-0.7,0-1.3,0.2-1.9,0.6c-0.5,0.4-0.1,1-0.1,2.1
	c0,1.1-0.9,2-2,2c-0.1,0-0.2,0-0.3,0c-0.8,0.1-1.5-0.5-1.5-1.2c0,0,0,0,0,0c0-0.9,0.3-1.8,1-2.5c1.9-1.7,4.3-2.6,6.8-2.6
	c2.3,0,2.9,0.4,3.6,1c0.8,0.8,1.1,1.9,1,3l0.1,7.1c0,1.9,0.1,2.4,0.8,2.4c0.4,0,0.8-0.3,1-0.6c0.1-0.2,0.2-0.2,0.4-0.2l0.5,0.3
	c0.1,0.1,0.2,0.2,0.1,0.5c-0.6,1.5-2,2.4-3.6,2.4c-1.5,0.1-2.9-0.8-3.4-2.2h-0.2c-0.9,0.8-1.9,1.5-3.1,1.8c-0.8,0.3-1.7,0.4-2.6,0.3
	c-1.2,0-2.4-1.4-2.4-3.3c0-1.6,0.8-3.2,3.1-4.3c1.6-0.7,3.1-1.5,4.6-2.3L301.1,220.3z M301.1,223.6c-1.7,1-3.2,1.5-3.2,4
	c0,1.6,0.7,2.3,1.5,2.4c0.8-0.1,1.4-0.6,1.7-1.3V223.6z"/>
<path class="st0" d="M316.1,224.5c0,1.4,0,3.7,0.1,4.8c0,0.6,0.1,1.1,0.9,1.1h1.2c0.3,0,0.4,0.1,0.4,0.3v0.7c0,0.2-0.1,0.3-0.2,0.3
	s-1.8-0.1-4.6-0.1c-3,0-4.4,0.1-4.7,0.1s-0.2-0.1-0.2-0.4v-0.6c0-0.2,0.1-0.3,0.5-0.3h1.1c0.4,0,1-0.2,1-1.5v-11.3
	c0-2.5,0-5.4-0.1-6.3c-0.1-1.2-0.8-1.7-2-2.1l-0.6-0.2c-0.2-0.1-0.3-0.2-0.3-0.4V208c0-0.1,0.1-0.2,0.3-0.3c2.2-0.5,4.3-1.2,6.4-2.1
	c0.2-0.1,0.5-0.2,0.8-0.2c0.2,0,0.4,0.2,0.3,0.6c0,2-0.1,9.4-0.1,11.8L316.1,224.5z"/>
<path class="st0" d="M331.5,228.9c-2.6-2.3-3.9-6.5-3.9-9.5c-0.1-3.6,1.2-7,3.7-9.7c2.4-2.6,5.9-4,9.4-3.8c2.5,0,4.9,0.5,7.2,1.5
	c0.5,0.2,0.7,0.2,0.8,0l0.3-0.9c0.1-0.2,0.1-0.2,0.7-0.2s0.6,0.1,0.6,0.6c0,0.7,0.6,6.7,0.8,7.8c0,0.2,0,0.4-0.2,0.5l-0.8,0.2
	c-0.2,0.1-0.3-0.1-0.4-0.4c-0.5-1.8-1.5-3.4-2.9-4.8c-1.6-1.7-3.8-2.7-6.1-2.7c-5.2,0-7.4,4.7-7.4,10c0,2.2,0.6,6.6,3.2,9.3
	c2.3,2.4,4.4,2.7,5.6,2.7c4.1,0,7.1-1.9,8.4-3.8c0.2-0.3,0.4-0.4,0.5-0.3l0.6,0.5c0.1,0.1,0.1,0.2,0,0.4c-2.3,3.6-6.3,5.8-10.5,5.9
	C336.2,232.2,333.8,230.9,331.5,228.9z"/>
<path class="st0" d="M355.9,229.6c-1.3-1.6-2-3.6-1.9-5.6c0.1-2.3,1.2-4.5,3.1-5.9c1.5-1.2,3.4-1.9,5.3-1.8c2.1-0.1,4.2,0.7,5.7,2.2
	c1.6,1.4,2.5,3.5,2.5,5.7c0,2.1-0.9,4.1-2.3,5.6c-1.6,1.7-3.9,2.6-6.2,2.5C359.8,232.4,357.4,231.4,355.9,229.6z M365.2,223.9
	c0-4.1-1.4-6.2-3-6.2c-0.8-0.1-1.5,0.3-1.9,1c-0.7,1.1-1.2,2.6-1.2,5.5c-0.1,1.7,0.2,3.4,0.9,5c0.3,1,1.3,1.6,2.4,1.5
	C364.3,230.7,365.2,227.8,365.2,223.9L365.2,223.9z"/>
<path class="st0" d="M377.6,216.5c0.3-0.1,0.5-0.2,0.8-0.2c0.3,0,0.5,0.2,0.5,0.5l0.3,2h0.2c1.2-1.6,3.1-2.5,5.1-2.5
	c1.8-0.1,3.5,0.9,4.3,2.5h0.2c1.2-1.5,2.9-2.3,4.8-2.4c1.3-0.2,2.7,0.4,3.5,1.4c1,1,1.5,1.4,1.5,4.9v2.6c0,1.2-0.1,3.2-0.1,3.9
	c0,1,0.5,1.4,1,1.4h0.7c0.3,0,0.4,0.1,0.4,0.3v0.7c0,0.2-0.1,0.3-0.2,0.3s-1.2-0.1-3.9-0.1c-2.1,0-3.4,0.1-3.7,0.1s-0.3-0.1-0.3-0.4
	v-0.6c0-0.2,0.1-0.3,0.2-0.3h0.3c0.4,0,0.7-0.3,0.7-0.7c0.1-0.8,0.2-2.1,0.2-3.4v-3.4c0-2.2-0.1-3-0.6-3.5c-0.4-0.6-1.1-0.9-1.7-0.9
	c-0.8,0.1-1.6,0.5-2.1,1.1c-0.4,0.7-0.6,1.5-0.5,2.2v7.1c0,1,0.2,1.4,0.6,1.4h0.6c0.3,0,0.4,0.1,0.4,0.3v0.6c0,0.3-0.1,0.4-0.2,0.4
	s-1.2-0.1-3.4-0.1c-2.6,0-3.8,0.1-4.1,0.1s-0.2-0.1-0.2-0.3v-0.6c0-0.3,0-0.4,0.4-0.4h0.5c0.5,0,0.9-0.5,0.9-2.5v-5.3
	c0-2.5-0.4-3.3-0.8-3.7c-0.5-0.4-1.1-0.5-1.7-0.4c-0.8,0-1.5,0.5-2,1.1c-0.5,0.9-0.7,1.9-0.6,2.9v5.7c0,1.8,0.4,2.2,0.8,2.2h0.3
	c0.3,0,0.4,0.1,0.4,0.3v0.6c0,0.2,0,0.4-0.3,0.4s-1.3-0.1-3.8-0.1s-3.5,0.1-3.8,0.1s-0.3-0.1-0.3-0.3v-0.7c0-0.3,0-0.3,0.4-0.3h1
	c0.4,0,0.6-0.4,0.7-0.9s0-1.5,0-2.4v-4.5c0-1.6-0.2-2.1-1.1-2.7l-0.7-0.4c-0.2-0.1-0.2-0.2-0.2-0.3v-0.4c0-0.1,0.1-0.3,0.2-0.3
	L377.6,216.5z"/>
<path class="st0" d="M407.3,216.5c0.3-0.1,0.5-0.2,0.8-0.2c0.2,0,0.4,0.1,0.5,0.5l0.3,2h0.2c1.2-1.6,3-2.5,5-2.5
	c1.8-0.1,3.5,0.9,4.3,2.5h0.2c1.2-1.5,2.9-2.3,4.8-2.4c1.3-0.2,2.6,0.3,3.5,1.3c1,1,1.5,1.4,1.5,4.9v2.6c0,1.2-0.1,3.2-0.1,3.9
	c0,1,0.5,1.4,1,1.4h0.7c0.3,0,0.4,0.1,0.4,0.3v0.7c0,0.2-0.1,0.3-0.2,0.3s-1.2-0.1-3.9-0.1c-2.1,0-3.4,0.1-3.7,0.1s-0.3-0.1-0.3-0.4
	v-0.6c0-0.2,0.1-0.3,0.2-0.3h0.3c0.4,0,0.7-0.3,0.7-0.7c0.1-0.8,0.2-2.1,0.2-3.4v-3.4c0-2.2-0.1-3-0.6-3.5c-0.4-0.6-1-0.9-1.7-0.9
	c-0.8,0.1-1.6,0.5-2.1,1.1c-0.4,0.7-0.6,1.5-0.5,2.2v7.1c0,1,0.2,1.4,0.6,1.4h0.6c0.3,0,0.4,0.1,0.4,0.3v0.6c0,0.3-0.1,0.4-0.2,0.4
	s-1.2-0.1-3.4-0.1c-2.6,0-3.9,0.1-4.1,0.1s-0.2-0.1-0.2-0.3v-0.6c0-0.3,0-0.4,0.4-0.4h0.5c0.5,0,0.9-0.5,0.9-2.5v-5.3
	c0-2.5-0.4-3.3-0.8-3.7c-0.5-0.3-1.1-0.5-1.7-0.4c-0.8,0-1.5,0.5-2,1.1c-0.5,0.9-0.7,1.9-0.6,2.9v5.8c0,1.8,0.4,2.2,0.8,2.2h0.3
	c0.3,0,0.4,0.1,0.4,0.3v0.6c0,0.2,0,0.4-0.3,0.4s-1.3-0.1-3.8-0.1s-3.5,0.1-3.8,0.1s-0.3-0.1-0.3-0.3v-0.7c0-0.3,0-0.3,0.4-0.3h1
	c0.4,0,0.6-0.4,0.7-0.9s0-1.5,0-2.4v-4.5c0-1.6-0.2-2.1-1.1-2.7l-0.7-0.4c-0.2-0.1-0.2-0.2-0.2-0.3v-0.4c0-0.1,0.1-0.3,0.2-0.3
	L407.3,216.5z"/>
<path class="st0" d="M441,231.8c-0.3,0-1.9-0.1-5-0.1c-2.1,0-3.5,0.1-3.9,0.1c-0.2,0-0.3-0.1-0.3-0.3v-0.7c0-0.2,0.1-0.3,0.4-0.3
	h1.3c0.4,0,0.6-0.1,0.7-0.7c0.1-1.1,0.1-2.2,0.1-3.2l-0.1-5c0-1-0.2-1.7-1.7-2.2c-0.4-0.1-0.4-0.3-0.4-0.5v-0.4
	c0-0.1,0.1-0.2,0.4-0.3l5.3-1.7c0.3-0.1,0.7-0.2,1-0.2c0.3,0,0.4,0.2,0.4,0.4c-0.1,0.6-0.1,2.8-0.1,6v3.8c0,1.4,0,2.7,0,3.1
	c0.1,0.7,0.2,0.9,0.6,0.9h1.3c0.3,0,0.4,0.1,0.4,0.3v0.7C441.3,231.7,441.2,231.8,441,231.8z M436.1,213.5c-1.4,0-2.6-1.1-2.6-2.5
	c0,0,0-0.1,0-0.1c0.2-1.4,1.4-2.4,2.8-2.3c1.3-0.1,2.5,0.8,2.6,2.2c0,0,0,0.1,0,0.1c0,1.5-1.2,2.7-2.7,2.7
	C436.2,213.5,436.1,213.5,436.1,213.5z"/>
<path class="st0" d="M454.2,220.3c0.1,0.1,0,0.3-0.1,0.3c0,0,0,0,0,0l-0.6,0.3c-0.1,0.1-0.2,0-0.4-0.1l-2-2.1c-0.6-0.6-1.4-1-2.2-1
	c-1.1-0.1-2,0.8-2.1,1.9c0,0,0,0,0,0c0.1,1.2,0.5,1.6,3.1,2.3c1.8,0.5,2.6,0.7,3.7,1.9c0.8,0.8,1.2,1.9,1.1,3c0,3.2-2.5,5.5-6.4,5.5
	c-1.5,0-2.9-0.3-4.2-1c-0.1-0.1-0.2-0.3-0.2-0.5l-0.5-3.4c0-0.2,0.1-0.2,0.2-0.3l0.6-0.2c0.1,0,0.2,0,0.2,0.1l1.4,2.1
	c0.6,1.1,1.8,1.8,3.1,1.8c1.1,0.1,2-0.8,2.1-1.9c0-0.1,0-0.2,0-0.3c0-1.4-1-1.9-3.4-2.6c-2.5-0.8-4.4-2-4.4-4.5
	c-0.1-1.6,0.6-3.1,1.9-4.1c1.1-0.9,2.5-1.4,3.9-1.3c1.3,0,2.6,0.2,3.7,0.8c0.5,0.2,0.6,0.4,0.7,0.7L454.2,220.3z"/>
<path class="st0" d="M468.4,220.3c0.1,0.1,0,0.3-0.1,0.3c0,0,0,0,0,0l-0.6,0.3c-0.1,0.1-0.2,0-0.4-0.1l-2-2.1c-0.6-0.6-1.4-1-2.2-1
	c-1.1-0.1-2,0.8-2.1,1.9c0,0,0,0,0,0c0.1,1.2,0.5,1.6,3.1,2.3c1.8,0.5,2.6,0.7,3.7,1.9c0.8,0.8,1.2,1.9,1.1,3c0,3.2-2.5,5.5-6.4,5.5
	c-1.5,0-2.9-0.3-4.2-1c-0.1-0.1-0.2-0.3-0.2-0.5l-0.5-3.4c0-0.2,0.1-0.2,0.2-0.3l0.6-0.2c0.1,0,0.2,0,0.2,0.1l1.4,2.1
	c0.6,1.1,1.8,1.8,3.1,1.8c1.1,0.1,2-0.8,2.1-1.9c0-0.1,0-0.2,0-0.3c0-1.4-1-1.9-3.3-2.6c-2.5-0.8-4.3-2-4.3-4.5
	c-0.1-1.6,0.6-3.1,1.8-4.1c1.1-0.9,2.5-1.4,3.9-1.3c1.3,0,2.6,0.2,3.7,0.8c0.5,0.2,0.6,0.4,0.6,0.7L468.4,220.3z"/>
<path class="st0" d="M480,231.8c-0.3,0-1.9-0.1-5-0.1c-2.1,0-3.5,0.1-3.8,0.1c-0.2,0-0.3-0.1-0.3-0.3v-0.7c0-0.2,0.1-0.3,0.3-0.3
	h1.3c0.4,0,0.6-0.1,0.7-0.7c0.1-1.1,0.1-2.2,0.1-3.2l-0.1-5c0-1-0.2-1.7-1.7-2.2c-0.4-0.1-0.4-0.3-0.4-0.5v-0.4
	c0-0.1,0.1-0.2,0.4-0.3l5.3-1.7c0.3-0.1,0.7-0.2,1-0.2c0.2,0,0.3,0.1,0.4,0.3c0,0.1,0,0.1,0,0.1c-0.1,0.6-0.1,2.8-0.1,6v3.8
	c0,1.4,0,2.7,0,3.1c0.1,0.7,0.2,0.9,0.7,0.9h1.3c0.3,0,0.3,0.1,0.3,0.3v0.7C480.4,231.7,480.3,231.8,480,231.8z M475.1,213.5
	c-1.4,0-2.6-1.1-2.6-2.5c0,0,0-0.1,0-0.1c0.2-1.4,1.4-2.4,2.8-2.3c1.3-0.1,2.5,0.8,2.6,2.2c0,0,0,0.1,0,0.1c0,1.5-1.2,2.7-2.7,2.7
	C475.2,213.5,475.2,213.5,475.1,213.5z"/>
<path class="st0" d="M484.1,229.6c-1.3-1.6-2-3.6-1.9-5.6c0.1-2.3,1.2-4.5,3.1-5.9c1.5-1.2,3.4-1.9,5.3-1.8c2.1-0.1,4.2,0.7,5.7,2.2
	c1.6,1.4,2.5,3.5,2.5,5.7c0,2.1-0.8,4.1-2.3,5.6c-1.6,1.7-3.9,2.6-6.2,2.5C487.9,232.4,485.6,231.4,484.1,229.6z M493.3,223.9
	c0-4.1-1.4-6.2-3-6.2c-0.8-0.1-1.5,0.3-1.9,1c-0.7,1.1-1.2,2.6-1.2,5.5c-0.1,1.7,0.2,3.4,0.9,5c0.3,1,1.3,1.6,2.3,1.5
	C492.4,230.7,493.3,227.8,493.3,223.9z"/>
<path class="st0" d="M507.6,218.2h0.3c0.5-0.5,1.1-1,1.7-1.3c0.8-0.5,1.8-0.7,2.7-0.7c1.3-0.1,2.6,0.2,3.7,1
	c1.5,1.4,1.6,2.3,1.6,4.1v3.8c0,1.2-0.1,2.9-0.1,4.1c0,1.1,0.5,1.2,0.8,1.2h1c0.3,0,0.4,0.1,0.4,0.3v0.6c0,0.2-0.1,0.4-0.3,0.4
	s-1.3-0.1-4.2-0.1c-2.3,0-3.5,0.1-3.7,0.1s-0.3-0.1-0.3-0.4v-0.6c0-0.2,0.1-0.3,0.5-0.3h0.4c0.2,0,0.6-0.2,0.6-0.8
	c0.2-1.2,0.2-2.5,0.2-3.7v-3.8c0-1.3-0.1-2.3-0.8-3c-0.5-0.5-1.1-0.7-1.7-0.7c-0.7,0-1.3,0.3-1.8,0.7c-0.4,0.3-0.7,1.3-0.7,2.7
	l-0.1,7.3c0,0.6,0.2,1.2,0.6,1.2h0.5c0.3,0,0.4,0.1,0.4,0.4v0.7c0,0.2-0.1,0.3-0.2,0.3s-1.2-0.1-3.6-0.1c-2.5,0-3.7,0.1-3.9,0.1
	s-0.2-0.1-0.2-0.3v-0.7c0-0.2,0.1-0.3,0.3-0.3h0.5c0.4,0,1-0.1,1-0.7v-7.9c0-0.9-0.6-1.7-1.4-2.1l-0.3-0.1c-0.2-0.1-0.3-0.2-0.2-0.4
	v-0.3c0-0.2,0.1-0.3,0.3-0.4l4.6-2.1c0.3-0.1,0.5-0.2,0.8-0.2c0.2,0,0.4,0.2,0.5,0.4L507.6,218.2z"/>
<path class="st0" d="M535,218.6v3.1c0,1.7-0.1,6.2,0,7.6c0,0.8,0.5,1.1,1,1.1h1.2c0.3,0,0.4,0.1,0.4,0.3v0.7c0,0.2-0.1,0.3-0.2,0.3
	s-1.5-0.1-5-0.1c-2.3,0-4.1,0.1-4.4,0.1s-0.3-0.1-0.3-0.3v-0.8c0-0.2,0.1-0.2,0.3-0.2h1.2c0.7,0,1-0.4,1-1.2l-0.1-10.7h-2.3
	c-0.2,0-0.2-0.1-0.2-0.4l0.2-1.2c0-0.2,0.1-0.2,0.4-0.2h1.9v-1.1c0-3.7,1.2-6,3-7.8c1.6-1.6,3.7-2.5,6-2.5c2.1,0,3.7,0.8,3.7,2.5
	c-0.1,1-1,1.8-2,1.8c-1,0.1-1.9-0.5-2.4-1.3c-0.4-0.7-0.9-1.1-1.3-1.1c-0.8,0-1.5,0.4-1.8,1.1c-0.6,1-0.4,3.5-0.4,6.8v1.5h4.1
	c0.2,0,0.3,0.2,0.2,0.4l-0.2,1.3c0,0.1-0.2,0.2-0.5,0.2L535,218.6z"/>
<path class="st0" d="M542.2,229.6c-2.9-3.4-2.4-8.5,1-11.4c0.1,0,0.1-0.1,0.2-0.1c1.5-1.2,3.4-1.9,5.3-1.8c2.1-0.1,4.2,0.7,5.7,2.2
	c1.6,1.4,2.5,3.5,2.5,5.7c0,2.1-0.8,4.1-2.3,5.6c-1.6,1.7-3.9,2.6-6.2,2.5C546.1,232.4,543.7,231.4,542.2,229.6z M551.5,223.9
	c0-4.1-1.4-6.2-3-6.2c-0.8-0.1-1.5,0.3-1.9,1c-0.7,1.1-1.2,2.6-1.2,5.5c-0.1,1.7,0.2,3.4,0.9,5c0.3,1,1.3,1.6,2.3,1.5
	C550.6,230.7,551.5,227.8,551.5,223.9L551.5,223.9z"/>
<path class="st0" d="M565.8,229c0,1.1,0.4,1.5,1.1,1.5h1.5c0.2,0,0.2,0.1,0.2,0.3v0.7c0,0.2,0,0.3-0.2,0.3s-1.8-0.1-5.1-0.1
	c-2.7,0-4.2,0.1-4.5,0.1s-0.2-0.1-0.2-0.3v-0.7c0-0.2,0.1-0.3,0.4-0.3h1c0.5,0,0.8-0.2,0.9-0.9c0.1-1,0.1-2.2,0.1-4v-3
	c0-1.5-0.4-2.2-1.4-2.8l-0.6-0.3c-0.2-0.1-0.3-0.2-0.3-0.3v-0.3c0-0.1,0.1-0.2,0.3-0.3l5-2.2c0.2-0.1,0.4-0.1,0.6-0.2
	c0.2,0,0.4,0.2,0.4,0.4l0.3,2.8h0.2c1.1-2.3,2.7-3.4,4.2-3.4c1.1,0,1.9,0.9,1.9,1.9c0,0,0,0.1,0,0.1c-0.2,1.1-1.1,2-2.3,2
	c-0.4,0-0.9-0.1-1.3-0.3c-0.3-0.2-0.6-0.3-0.9-0.2c-0.4,0-0.8,0.3-0.9,0.6c-0.4,0.6-0.6,1.4-0.6,2.1L565.8,229z"/>
<path class="st0" d="M586.1,221.9c-0.3,0.8-2,5.6-2,6.8c0,0.8,0.3,1.6,1.4,1.6h1.2c0.4,0,0.4,0.2,0.4,0.3v0.8c0,0.3,0,0.4-0.3,0.4
	c-0.5,0-1.9-0.1-4.8-0.1c-2.6,0-3.4,0.1-3.9,0.1c-0.2,0-0.2-0.2-0.2-0.5v-0.7c0-0.2,0-0.3,0.2-0.3h0.9c1-0.1,1.9-0.7,2.4-1.6
	c0.5-0.7,3-6.9,4.2-10.1c0.3-0.7,3.2-8.4,3.5-9.3c0.2-0.4,0.2-0.8,0-1.2c-0.1-0.1-0.2-0.3-0.2-0.5c0-0.1,0.1-0.2,0.3-0.3
	c1.4-0.3,2.8-0.9,4-1.8c0.2-0.2,0.3-0.3,0.5-0.3s0.3,0.2,0.4,0.6c0.7,2.2,3.5,10.2,4.1,12.5c0.8,2.8,3.1,9.4,3.6,10.4
	c0.4,0.9,1.1,1.5,2.1,1.6h1.2c0.2,0,0.2,0.2,0.2,0.3v0.7c0,0.2,0,0.5-0.3,0.5c-0.7,0-1.4-0.1-6-0.1c-3,0-4.2,0.1-4.9,0.1
	c-0.4,0-0.4-0.2-0.4-0.5v-0.7c0-0.2,0-0.3,0.2-0.3h1c1,0,1.3-0.3,1.1-1.3c-0.3-1.3-1.7-5.8-2.1-7.1L586.1,221.9z M593.6,220.5
	L591,211c-0.2-0.5-0.2-0.8-0.4-0.8s-0.3,0.2-0.4,0.5s-3.2,8.9-3.5,9.8H593.6z"/>
<path class="st0" d="M617.6,220.3c0,0.2,0,0.2-0.2,0.3l-0.6,0.3c-0.1,0.1-0.2,0-0.3-0.1l-2-2.1c-0.6-0.6-1.4-1-2.2-1
	c-1.1-0.1-2,0.8-2.1,1.9c0,0,0,0,0,0c0.1,1.2,0.5,1.6,3.1,2.3c1.7,0.5,2.6,0.7,3.7,1.9c0.8,0.8,1.2,1.9,1.1,3c0,3.2-2.5,5.5-6.4,5.5
	c-1.5,0-2.9-0.3-4.2-1c-0.1-0.1-0.2-0.3-0.2-0.5l-0.5-3.4c0-0.2,0.1-0.2,0.2-0.3l0.6-0.2c0.1,0,0.2,0,0.2,0.1l1.4,2.1
	c0.6,1.1,1.8,1.8,3.1,1.8c1.1,0.1,2-0.8,2.1-1.9c0-0.1,0-0.2,0-0.3c0-1.4-1-1.9-3.3-2.6c-2.5-0.8-4.3-2-4.3-4.5
	c-0.1-1.6,0.6-3.1,1.9-4.1c1.1-0.9,2.5-1.4,3.9-1.3c1.3,0,2.6,0.2,3.7,0.8c0.5,0.2,0.6,0.4,0.6,0.7L617.6,220.3z"/>
<path class="st0" d="M629.2,231.8c-0.3,0-1.9-0.1-5-0.1c-2.1,0-3.5,0.1-3.8,0.1c-0.2,0-0.3-0.1-0.3-0.3v-0.7c0-0.2,0.1-0.3,0.4-0.3
	h1.3c0.4,0,0.6-0.1,0.7-0.7c0.1-1.1,0.1-2.2,0.1-3.2l-0.1-5c0-1-0.2-1.7-1.7-2.2c-0.4-0.1-0.4-0.3-0.4-0.5v-0.4
	c0-0.1,0.1-0.2,0.4-0.3l5.3-1.7c0.3-0.1,0.7-0.2,1-0.2c0.3,0,0.4,0.2,0.3,0.4c-0.1,0.6-0.1,2.8-0.1,6v3.8c0,1.4,0,2.7,0,3.1
	c0.1,0.7,0.2,0.9,0.6,0.9h1.3c0.3,0,0.4,0.1,0.4,0.3v0.7C629.5,231.7,629.4,231.8,629.2,231.8z M624.3,213.5c-1.4,0-2.6-1.1-2.6-2.5
	c0,0,0-0.1,0-0.1c0.2-1.4,1.4-2.4,2.8-2.3c1.3-0.1,2.5,0.8,2.6,2.2c0,0,0,0,0,0.1C627.2,212.3,625.9,213.5,624.3,213.5
	C624.4,213.5,624.3,213.5,624.3,213.5L624.3,213.5z"/>
<path class="st0" d="M639.3,220.3c0.1-0.7-0.1-1.4-0.5-2c-0.4-0.3-1-0.5-1.5-0.4c-0.7,0-1.3,0.2-1.9,0.6c-0.5,0.4-0.1,1-0.1,2.1
	c0,1.1-0.9,2-2.1,2c-0.1,0-0.2,0-0.2,0c-0.8,0.1-1.4-0.5-1.5-1.2c0,0,0,0,0-0.1c0-0.9,0.3-1.8,1-2.5c1.9-1.7,4.3-2.6,6.8-2.6
	c2.3,0,2.9,0.4,3.6,1c0.8,0.8,1.1,1.9,1,3l0.1,7.1c0,1.9,0.1,2.4,0.8,2.4c0.4,0,0.8-0.3,1-0.6c0.2-0.2,0.2-0.2,0.4-0.2l0.5,0.3
	c0.1,0.1,0.2,0.2,0.1,0.5c-0.6,1.5-2,2.4-3.6,2.4c-1.5,0.1-2.9-0.8-3.4-2.2h-0.2c-0.9,0.8-1.9,1.5-3.1,1.8c-0.8,0.3-1.7,0.4-2.6,0.3
	c-1.2,0-2.4-1.4-2.4-3.3c0-1.6,0.8-3.2,3.1-4.3c1.6-0.7,3.1-1.5,4.6-2.3L639.3,220.3z M639.3,223.6c-1.8,1-3.2,1.5-3.2,4
	c0,1.6,0.8,2.3,1.5,2.4c0.8-0.1,1.4-0.6,1.7-1.3L639.3,223.6z"/>
<path class="st0" d="M662.4,220.3c0.1-0.7-0.1-1.4-0.5-2c-0.4-0.3-1-0.5-1.5-0.4c-0.7,0-1.3,0.2-1.9,0.6c-0.5,0.4-0.1,1-0.1,2.1
	c0,1.1-0.9,2-2.1,2c-0.1,0-0.2,0-0.2,0c-0.8,0.1-1.4-0.5-1.5-1.2c0,0,0,0,0-0.1c0-0.9,0.3-1.8,1-2.5c1.9-1.7,4.3-2.6,6.8-2.6
	c2.3,0,2.9,0.4,3.6,1c0.8,0.8,1.1,1.9,1,3l0.1,7.1c0,1.9,0.1,2.4,0.8,2.4c0.4,0,0.8-0.3,1-0.6c0.1-0.2,0.2-0.2,0.3-0.2l0.5,0.3
	c0.1,0.1,0.2,0.2,0.1,0.5c-0.6,1.5-2,2.4-3.6,2.4c-1.5,0.1-2.9-0.8-3.4-2.2h-0.2c-0.9,0.8-1.9,1.5-3.1,1.8c-0.8,0.3-1.7,0.4-2.6,0.3
	c-1.2,0-2.4-1.4-2.4-3.3c0-1.6,0.8-3.2,3.1-4.3c1.6-0.7,3.1-1.5,4.6-2.3L662.4,220.3z M662.4,223.6c-1.8,1-3.2,1.5-3.2,4
	c0,1.6,0.8,2.3,1.5,2.4c0.8-0.1,1.4-0.6,1.7-1.3L662.4,223.6z"/>
<path class="st0" d="M677.4,218.2h0.3c0.5-0.5,1.1-1,1.7-1.3c2-1,4.5-0.9,6.4,0.3c1.5,1.4,1.6,2.3,1.6,4.1v3.8
	c0,1.2-0.1,2.9-0.1,4.1c0,1.1,0.5,1.2,0.8,1.2h1c0.3,0,0.4,0.1,0.4,0.3v0.6c0,0.2-0.1,0.4-0.3,0.4s-1.3-0.1-4.2-0.1
	c-2.4,0-3.5,0.1-3.8,0.1s-0.3-0.1-0.3-0.4v-0.6c0-0.2,0.1-0.3,0.5-0.3h0.4c0.2,0,0.6-0.2,0.7-0.8c0.2-1.2,0.2-2.5,0.2-3.7v-3.8
	c0-1.3-0.1-2.3-0.9-3c-0.5-0.5-1.1-0.7-1.7-0.7c-0.7,0-1.3,0.3-1.8,0.7c-0.4,0.3-0.7,1.3-0.7,2.7l-0.1,7.3c0,0.6,0.2,1.2,0.6,1.2
	h0.5c0.3,0,0.4,0.1,0.4,0.4v0.7c0,0.2-0.1,0.3-0.2,0.3s-1.2-0.1-3.6-0.1c-2.5,0-3.7,0.1-3.9,0.1s-0.2-0.1-0.2-0.3v-0.7
	c0-0.2,0.1-0.3,0.4-0.3h0.5c0.4,0,1-0.1,1-0.7v-7.9c0-0.9-0.6-1.7-1.4-2.1l-0.3-0.1c-0.2-0.1-0.3-0.2-0.2-0.4v-0.3
	c0-0.2,0.2-0.3,0.3-0.4l4.6-2.1c0.3-0.1,0.5-0.2,0.8-0.2c0.2,0,0.4,0.2,0.5,0.4L677.4,218.2z"/>
<path class="st0" d="M702,209.5c0-1-0.4-1.6-2.3-2c-0.2,0-0.2-0.1-0.2-0.2v-0.7c0-0.1,0.1-0.2,0.3-0.3c2.1-0.2,4.8-0.4,6-0.6
	c0.3-0.1,0.6-0.2,0.9-0.2c0.2,0,0.4,0.2,0.3,0.6c-0.1,1.8-0.2,7-0.2,12v7.9c-0.1,1.1,0,2.2,0.4,3.3c0.3,0.5,0.7,0.5,1.6,0.4
	c0.4,0,0.5,0.1,0.6,0.2l0.1,0.5c0,0.2,0,0.3-0.2,0.4c0,0,0,0,0,0l-5.3,1.3c-0.2,0.1-0.4,0-0.5-0.3l-0.6-1.8c-1.2,1.3-3,2.1-4.8,2.2
	c-1.6,0.2-3.2-0.5-4.2-1.7c-1.5-1.2-2.3-3.1-2.2-5.1c-0.2-2.6,0.7-5.1,2.5-6.9c1.3-1.5,3.3-2.4,5.3-2.3c1,0,2,0.2,2.9,0.5L702,209.5
	z M702.1,220.9c0-0.6-0.1-1.2-0.3-1.7c-0.6-1-1.6-1.6-2.7-1.6c-0.7,0-1.4,0.4-1.8,1c-0.8,1.2-1.2,2.6-1.1,4.1c0,4.2,1.8,7.1,4,7.1
	c0.7,0,1.3-0.2,1.7-0.7c0.3-0.5,0.4-1.1,0.4-1.7L702.1,220.9z"/>
<path class="st0" d="M724.8,226.5c0,2.9,1.1,3.6,2,3.6c0.6,0,1.3-0.1,1.9-0.4c0.1-0.1,0.2-0.1,0.3,0.1l0.2,0.5
	c0.1,0.2,0,0.4-0.1,0.5c-1.5,1-3.2,1.5-5,1.4c-2.4,0-4-1.7-4-3.3c0-1.2,0.1-4,0.1-5.3v-4.7h-2c-0.3,0-0.6-0.1-0.6-0.5
	s0.2-0.6,0.8-0.9c2-1.3,3.9-2.9,5.5-4.7c0.2-0.2,0.4-0.3,0.7-0.4c0.3,0,0.5,0.2,0.5,0.5l-0.1,3.8h4.5c0.2,0,0.3,0.2,0.2,0.3
	l-0.3,1.5c0,0.2-0.1,0.3-0.3,0.3h-4.1c-0.1,1.5-0.1,3.2-0.1,4.8V226.5z"/>
<path class="st0" d="M737.3,229c0,1.1,0.2,1.5,0.5,1.5h0.7c0.2,0,0.3,0.1,0.3,0.3v0.7c0,0.2,0,0.4-0.2,0.4s-1.9-0.1-4-0.1
	c-2.5,0-3.8,0.1-4.2,0.1c-0.1,0-0.2-0.1-0.2-0.3v-0.7c0-0.2,0.1-0.3,0.5-0.3h0.5c0.6,0,1.1-0.1,1.2-0.6c0.2-0.8,0.2-1.6,0.2-2.3
	l-0.1-14.8c0-1.8-0.5-2.8-1.7-3.3l-0.6-0.2c-0.2-0.1-0.3-0.2-0.3-0.3v-0.5c0-0.1,0.1-0.3,0.6-0.4c1.9-0.6,3.7-1.3,5.4-2.2
	c0.3-0.2,0.7-0.3,1.1-0.3c0.3,0,0.4,0.3,0.3,0.9s-0.1,7.8-0.1,10v2.1h0.2c1.1-1.4,2.8-2.3,4.6-2.2c1.3,0,2.7,0.5,3.6,1.4
	c1.7,1.4,1.5,3.2,1.5,5.5v2.2c0,1.8-0.1,4-0.1,4.6c0,0.5,0.7,0.5,1.1,0.5h0.7c0.3,0,0.4,0.1,0.4,0.2v0.8c0,0.2-0.1,0.3-0.3,0.3
	s-1.4-0.1-3.9-0.1s-3.7,0.1-4.1,0.1s-0.3-0.1-0.3-0.4v-0.7c0-0.2,0-0.3,0.2-0.3h0.5c0.4,0,0.8-0.3,0.8-0.7c0-0.5,0.1-2.4,0.1-3.5
	v-2.2c0-1.7,0.1-4.2-0.8-5.2c-0.4-0.5-1-0.7-1.7-0.7c-0.8,0.1-1.6,0.6-2.1,1.2c-0.4,0.5-0.6,1.1-0.6,1.7L737.3,229z"/>
<path class="st0" d="M755.9,222.8v1c0,3.7,2.1,5.5,4.7,5.5c1.6,0,3-0.7,3.9-2c0-0.1,0.1-0.2,0.3-0.2c0,0,0.1,0,0.1,0l0.6,0.3
	c0.1,0.1,0.2,0.2-0.1,0.9c-1.3,2.3-3.7,3.7-6.3,3.8c-2.3,0-4.2-0.4-5.3-1.7c-1.7-1.6-2.6-3.8-2.5-6.1c-0.1-1.9,0.5-3.7,1.6-5.2
	c1.4-2,3.8-3.1,6.2-2.9c5.8,0,6.1,5.5,6.1,6.1s-0.3,0.5-1.1,0.5L755.9,222.8z M759.4,221.4c0.8,0,1.1-0.2,1.1-0.7
	c0-1.6-0.6-3.1-1.7-3.1c-1.7,0-2.6,1.3-2.8,3.8H759.4z"/>
<path class="st0" d="M782.7,222.3c0,1.7,0,6.5,0.1,7c0.1,0.8,0.4,1.1,1,1.1h1.8c0.2,0,0.3,0.1,0.3,0.2v0.9c0,0.2,0,0.3-0.3,0.3
	c-0.5,0-1.6-0.1-5.8-0.1c-3.1,0-4.5,0.1-4.9,0.1s-0.3-0.1-0.3-0.2v-1c0-0.2,0-0.2,0.2-0.2h0.9c1.2,0,1.5-0.2,1.6-1.1
	c0-0.3,0.1-5.9,0.1-10v-4.1c0-2.3,0-6.1-0.1-6.5c-0.1-0.7-0.4-0.8-1.1-0.8h-1.7c-0.2,0-0.2-0.1-0.2-0.3v-0.9c0-0.2,0-0.2,0.2-0.2
	c0.4,0,1.7,0.1,5.4,0.1c0.6,0,2.8-0.1,3.9-0.1c4.4,0,6.5,0.4,8.5,2c1.7,1.3,2.6,3.4,2.6,5.5c0,4.3-3.4,7.2-9.4,7.2
	c-1.1,0-1.9,0-2.9-0.1L782.7,222.3z M782.7,219.6c0.7,0.1,1.4,0.2,2.2,0.2c1.5-0.2,2.8-1.1,3.7-2.4c0.6-1.1,0.9-2.5,0.9-3.8
	c0-4.9-3.6-6-5-6c-0.6,0-1.1,0-1.7,0.2L782.7,219.6z"/>
<path class="st0" d="M804.2,220.3c0.1-0.7-0.1-1.4-0.5-2c-0.4-0.3-1-0.5-1.5-0.4c-0.7,0-1.3,0.2-1.9,0.6c-0.5,0.4-0.1,1-0.1,2.1
	c0,1.1-0.9,2-2.1,2c-0.1,0-0.2,0-0.2,0c-0.8,0.1-1.4-0.5-1.5-1.2c0,0,0,0,0-0.1c0-0.9,0.3-1.8,1-2.5c1.9-1.7,4.3-2.6,6.8-2.6
	c2.3,0,2.9,0.4,3.6,1c0.8,0.8,1.1,1.9,1,3l0.1,7.1c0,1.9,0.1,2.4,0.8,2.4c0.4,0,0.8-0.3,1-0.6c0.2-0.2,0.2-0.2,0.4-0.2l0.5,0.3
	c0.1,0.1,0.2,0.2,0.1,0.5c-0.6,1.5-2,2.4-3.6,2.4c-1.5,0.1-2.9-0.8-3.4-2.2h-0.2c-0.9,0.8-1.9,1.5-3.1,1.8c-0.8,0.3-1.7,0.4-2.6,0.3
	c-1.2,0-2.3-1.4-2.3-3.3c0-1.6,0.8-3.2,3.1-4.3c1.6-0.7,3.1-1.5,4.6-2.3L804.2,220.3z M804.2,223.6c-1.8,1-3.2,1.5-3.2,4
	c0,1.6,0.8,2.3,1.5,2.4c0.8-0.1,1.4-0.6,1.7-1.3V223.6z"/>
<path class="st0" d="M826.2,219.7c0,0.9-0.7,1.7-1.6,1.7c-0.1,0-0.2,0-0.2,0c-1.2,0-2.2-0.7-2.6-1.9c-0.4-1.3-1.1-1.7-2.1-1.7
	s-2.3,1.4-2.3,3.6s-0.1,3.8,1.1,6.1c0.7,1.4,2.2,2.2,3.8,2.1c1.3,0.1,2.6-0.3,3.6-1.1c0.2-0.1,0.3-0.2,0.4,0l0.5,0.5
	c0.1,0.1,0.1,0.3,0,0.5c-0.7,1.2-3.5,2.9-6.7,2.9c-2.7,0-4.5-0.8-5.6-2.2c-1.2-1.3-1.9-3.1-1.8-4.9c-0.1-2.5,0.9-5,2.7-6.8
	c1.4-1.4,3.3-2.1,5.3-2.1C825.2,216.2,826.2,218.5,826.2,219.7z"/>
<path class="st0" d="M837.1,231.8c-0.3,0-1.9-0.1-5-0.1c-2.1,0-3.5,0.1-3.8,0.1c-0.2,0-0.3-0.1-0.3-0.3v-0.7c0-0.2,0.1-0.3,0.4-0.3
	h1.3c0.4,0,0.6-0.1,0.7-0.7c0.1-1.1,0.1-2.2,0.1-3.2l-0.1-5c0-1-0.2-1.7-1.7-2.2c-0.4-0.1-0.4-0.3-0.4-0.5v-0.4
	c0-0.1,0.1-0.2,0.4-0.3l5.3-1.7c0.3-0.1,0.7-0.2,1-0.2c0.3,0,0.4,0.2,0.4,0.4c-0.1,0.6-0.1,2.8-0.1,6v3.8c0,1.4,0,2.7,0,3.1
	c0.1,0.7,0.2,0.9,0.6,0.9h1.3c0.3,0,0.3,0.1,0.3,0.3v0.7C837.4,231.7,837.3,231.8,837.1,231.8z M832.2,213.5c-1.4,0-2.6-1.1-2.6-2.5
	c0,0,0-0.1,0-0.1c0.2-1.4,1.4-2.4,2.8-2.3c1.3-0.1,2.5,0.8,2.6,2.2c0,0,0,0.1,0,0.1c0,1.5-1.2,2.7-2.7,2.7
	C832.3,213.5,832.3,213.5,832.2,213.5z"/>
<path class="st0" d="M846,221.7c0,4.1-0.1,6.2,0,7.6c0,0.8,0.5,1.1,0.9,1.1h0.3c0.3,0,0.4,0.1,0.4,0.3v0.7c0,0.2-0.1,0.3-0.2,0.3
	s-1.5-0.1-4-0.1c-2.2,0-4,0.1-4.3,0.1s-0.3-0.1-0.3-0.3v-0.8c0-0.2,0.1-0.2,0.4-0.2h1.3c0.5,0,0.8-0.4,0.8-1.2l-0.1-10.7H839
	c-0.2,0-0.2-0.1-0.2-0.4l0.1-1.2c0-0.2,0.1-0.2,0.4-0.2h1.8v-1.1c0-4.2,1.5-6.6,3.3-8c1.8-1.5,4-2.2,6.3-2.2c3,0,4.7,1.1,4.7,2.7
	c-0.1,1.2-1.2,2.2-2.5,2.1c-1.4,0-2-0.7-2.8-1.8c-0.3-0.7-1-1.2-1.7-1.3c-0.7,0-1.4,0.2-1.8,0.7c-1.1,1.4-0.7,4-0.7,8.1v0.6h4.8
	c1,0,2.1-0.1,3-0.1s1.6-0.2,2-0.2c0.2,0,0.3,0.1,0.4,0.3c0,0.1,0,0.1,0,0.2c-0.1,0.6-0.1,2.8-0.1,5.8v3.8c0,1.4,0,2.7,0,3.1
	c0.1,0.7,0.2,0.9,0.7,0.9h1.1c0.3,0,0.4,0.1,0.4,0.3v0.7c0,0.2-0.1,0.3-0.3,0.3s-1.9-0.1-3.8-0.1s-3.2,0.1-3.6,0.1
	c-0.2,0-0.3-0.1-0.3-0.3v-0.7c0-0.2,0.1-0.3,0.4-0.3h0.1c0.4,0,0.6-0.1,0.7-0.7c0.1-1.1,0.1-2.2,0.1-3.2l0.1-6.6
	c0-0.9-0.6-1.3-2.3-1.3h-3.1L846,221.7z"/>
<path class="st0" d="M873.8,219.7c0,0.9-0.7,1.7-1.6,1.7c-0.1,0-0.2,0-0.2,0c-1.2,0-2.2-0.7-2.6-1.9c-0.4-1.3-1.1-1.7-2.1-1.7
	s-2.3,1.4-2.3,3.6s-0.1,3.8,1.1,6.1c0.7,1.4,2.2,2.2,3.8,2.1c1.3,0.1,2.6-0.3,3.6-1.1c0.2-0.1,0.3-0.2,0.4,0l0.5,0.5
	c0.1,0.1,0.1,0.3,0,0.5c-0.7,1.2-3.5,2.9-6.7,2.9c-2.7,0-4.5-0.8-5.6-2.2c-1.2-1.3-1.9-3.1-1.8-4.9c-0.1-2.5,0.9-5,2.7-6.8
	c1.4-1.4,3.3-2.1,5.3-2.1C872.8,216.2,873.8,218.5,873.8,219.7z"/>
<line class="st2" x1="874.2" y1="198.3" x2="0.2" y2="198.3"/>
<circle class="st3" cx="109.2" cy="76.7" r="15.5"/>
<circle class="st3" cx="109.2" cy="76.7" r="29.8"/>
<circle class="st3" cx="109.2" cy="76.7" r="45.2"/>
<circle class="st3" cx="109.2" cy="76.7" r="59.5"/>
<circle class="st3" cx="109.2" cy="76.7" r="75.2"/>
<line class="st4" x1="109.2" y1="61.7" x2="109.2" y2="1.3"/>
<line class="st4" x1="109.2" y1="152" x2="109.2" y2="91.5"/>
<line class="st4" x1="124.5" y1="76.7" x2="184.9" y2="76.7"/>
<line class="st4" x1="33.5" y1="76.7" x2="94" y2="76.7"/>
<line class="st4" x1="119.7" y1="66.3" x2="162.5" y2="23.5"/>
<line class="st4" x1="98.8" y1="66.3" x2="56" y2="23.5"/>
<line class="st4" x1="98.8" y1="87.2" x2="56" y2="129.9"/>
<line class="st4" x1="119.7" y1="87.2" x2="162.5" y2="129.9"/>
<path id="Laurel" class="st5" d="M52.5,8c-7.6,3-15.8,6-20.8,13.8c-2.9,4.6-3.3,10-5.6,14.7c4.2-4,9.1-6.9,12.7-11.6
	C43.2,19.3,46.9,13,52.5,8L52.5,8z M166,8c5.6,4.9,9.3,11.2,13.6,16.9c3.6,4.7,8.5,7.7,12.7,11.6c-2.3-4.7-2.7-10.2-5.6-14.7
	C181.8,14.1,173.6,11,166,8L166,8z M32,18.4c-3.9,1-7.2,3.5-10.1,6.8c-6.1,6.8-5.6,16.7-4.8,25.6c0.2,2.6,0.1,5.3-0.2,7.9
	c2-4,4.9-7.4,8.4-10.1c7.9-6,16.6-13.7,16.7-23.9C39.5,32,31.5,35.1,26.2,40.1c-2.7,2.6-4.9,5.7-6.2,9.2l-0.2-0.2
	c0.7-2.9,1.9-5.6,2.8-8.4C24.8,32.9,24.4,23.7,32,18.4L32,18.4z M186.6,18.4c7.6,5.2,7.1,14.5,9.5,22.2c0.9,2.8,2.1,5.5,2.8,8.4
	l-0.2,0.2c-1.4-3.5-3.5-6.6-6.2-9.2c-5.3-5-13.3-8-15.9-15.4c0.1,10.2,8.8,17.9,16.7,23.9c3.5,2.7,6.4,6.1,8.4,10.1
	c-0.3-2.6-0.4-5.3-0.2-7.9c0.8-8.9,1.3-18.9-4.8-25.6C193.7,21.9,190.4,19.4,186.6,18.4L186.6,18.4z M15.8,32.3
	c-0.2,0-0.3,0.1-0.5,0.2c-5.3,6.7-8.8,14.1-8.8,23.1c0,11.1,6.4,18.9,7.2,29.4C15.4,74,24.6,66.2,29.4,56.7c1.8-3.8,3-7.9,3.5-12.1
	c-0.7,1.8-1.8,3.4-3.2,4.8C23.5,55.3,16.2,61,14.8,69.3c-0.1,1.2-0.4,2.4-0.6,3.5c-0.3,0.1-0.3-0.2-0.4-0.3l0.8-10.3
	C15.3,52.3,10,41.1,15.8,32.3z M202.7,32.3c5.8,8.8,0.5,20,1.3,30l0.8,10.3c-0.1,0.1-0.1,0.4-0.4,0.3c-0.3-1.2-0.5-2.3-0.6-3.5
	c-1.4-8.3-8.7-14-14.8-19.9c-1.4-1.3-2.5-3-3.2-4.8c0.5,4.2,1.7,8.3,3.5,12.1C193.9,66.3,203,74,204.7,85
	c0.8-10.5,7.2-18.2,7.2-29.4c0-9-3.5-16.4-8.8-23.1C203,32.4,202.9,32.3,202.7,32.3L202.7,32.3z M4.6,60.1c-1.1,2.7-1.9,5.5-2.4,8.3
	c-1.4,7.3,0,15,2,21.7c2.5,8.4,10.7,14.4,14.8,22l0.6,0.5c-0.6-4.2-0.9-8.7,0.3-12.6c1.8-6.4,4-12.5,5.2-19.1
	c0.9-5.1,2-10.9,1.4-15.9c-0.5,2.7-1.5,5.2-2.9,7.6c-5.6,8.7-11.4,18.8-7.4,29.8c-0.1,0.1-0.2,0.3-0.4,0.2
	c-1.6-3.6-1.9-7.8-2.9-11.6C10.2,80.6,2.2,72,4.6,60.1z M213.9,60.1c2.3,11.9-5.6,20.5-8.3,30.8c-1,3.9-1.4,8-2.9,11.6
	c-0.1,0.1-0.3-0.1-0.4-0.2c3.9-11-1.8-21.1-7.4-29.8c-1.4-2.4-2.3-4.9-2.9-7.6c-0.6,5,0.4,10.7,1.4,15.9c1.2,6.6,3.4,12.8,5.2,19.1
	c1.2,4,0.9,8.5,0.3,12.6l0.6-0.5c4.1-7.7,12.4-13.7,14.8-22c2-6.7,3.4-14.4,2-21.7C215.8,65.5,215,62.8,213.9,60.1L213.9,60.1z
	 M25.2,89.7c1,6.8-1.7,12.8-2.3,19.2c-0.5,5.1,0.3,10.2,2.5,14.9c0.6,1.3,1.7,2.5,2,3.9c-1.9-1.9-3.5-4-4.8-6.3
	c-6.4-10.4-19.8-17.1-20.7-29.8c-0.6,5.6,0.1,11.3,1.9,16.6c2.6,6.9,7.6,12.3,13.4,16.8c6,4.7,13.1,8.4,18.5,12.5
	c-1.1-2.7-2.8-5.2-3.5-8.1C28.9,116.6,30.7,101.7,25.2,89.7L25.2,89.7z M193.3,89.7c-5.5,11.9-3.7,26.8-6.9,39.7
	c-0.7,2.9-2.4,5.3-3.5,8.1c5.4-4.1,12.6-7.8,18.5-12.5c5.8-4.5,10.8-9.9,13.4-16.8c1.8-5.3,2.5-11,1.9-16.6
	c-0.9,12.6-14.4,19.4-20.8,29.8c-1.3,2.3-2.9,4.4-4.8,6.3c0.3-1.3,1.4-2.5,2-3.9c2.1-4.7,3-9.8,2.5-14.9
	C195,102.5,192.3,96.5,193.3,89.7L193.3,89.7z M32.1,111.4c4.7,9.3,2.7,21.3,8.7,30.1c2,2.8,4.4,5.3,7,7.6l-0.1,0.1
	c-2.2-1.1-4.3-2.6-6.2-4.2C30.9,136.1,15,135,8.7,120.7c1.7,10.5,10.1,19.8,19.1,25.8c8.6,5.6,19.6,5,29.1,8.1
	c-8.8-7.1-10.1-17.8-14.1-27.1C40.3,121.7,36.4,116.5,32.1,111.4L32.1,111.4z M186.4,111.4c-4.2,5.1-8.2,10.3-10.6,16.1
	c-3.9,9.3-5.3,20-14.1,27.1c9.5-3.1,20.5-2.5,29.1-8.1c9-5.9,17.4-15.2,19.1-25.8c-6.3,14.3-22.2,15.5-32.8,24.3
	c-1.9,1.7-4,3.1-6.2,4.2l-0.1-0.1c2.6-2.3,5-4.8,7-7.6C183.7,132.7,181.7,120.7,186.4,111.4L186.4,111.4z M47.3,134.1
	c5.8,7.7,7.4,19,17.9,23c1.9,0.7,4,0.8,5.6,1.8c-2,0.3-3.8-0.3-5.7-0.7c-13.6-2.9-30.1,0.8-40.3-10.7c3.8,7.6,11.8,13.5,19.4,16
	c11.8,3.9,24.1-0.5,35.2-3.2c1.6-0.4,3.5-0.3,5-0.8c-6.2-1.3-12.1-3.1-16.9-7.5C60.7,145.7,54.6,139,47.3,134.1L47.3,134.1z
	 M171.2,134.1c-7.4,4.9-13.4,11.6-20.3,17.9c-4.8,4.4-10.8,6.2-16.9,7.5c1.5,0.5,3.4,0.4,5,0.8c11.1,2.8,23.4,7.1,35.2,3.2
	c7.6-2.5,15.6-8.5,19.4-16c-10.1,11.6-26.7,7.8-40.3,10.7c-1.9,0.4-3.7,1-5.7,0.7c1.6-1,3.8-1.1,5.6-1.8
	C163.8,153.1,165.4,141.9,171.2,134.1L171.2,134.1z M98.1,159.2c-10.4,0-19.7,5-28.8,8.8c-8.3,3.4-19.2,2.8-26.5-2.3
	c3.6,4.2,8.2,7.4,13.5,9.2c9.3,3.7,20.1,0.9,28-4.2c5.7-3.6,10.6-8.8,17.4-8.8c1.2,0,2.4,0.1,3.6,0.3c-9.5,3.8-18.2,10.5-24.9,17
	c1.3,1.5,2.8,2.8,4.4,4c7.5-7.8,16.1-16.2,24.6-19.7c8.5,3.5,17.1,11.9,24.6,19.7c1.6-1.2,3-2.5,4.4-4c-6.8-6.5-15.4-13.2-24.9-17
	c1.2-0.3,2.4-0.4,3.6-0.4c6.8,0,11.7,5.2,17.4,8.8c7.9,5,18.8,7.9,28,4.2c5-1.9,9.8-4.7,13.5-9.2c-7.3,5-18.3,5.7-26.5,2.3
	c-9.1-3.8-18.4-8.8-28.8-8.8c-3.8,0-7.5,0.6-11.2,1.8C105.6,159.8,101.9,159.2,98.1,159.2L98.1,159.2z"/>
<path class="st5" d="M123.7,22.4l-0.6-0.4c0,0-0.8-0.1-0.8-0.3l0,0l0,0c-0.1,0-0.5,0.5-0.8,0.7l0.9,0.5c0.5,0,0.9,0.3,1,0.7
	c0,0.2,0.8,0.1,0.8,0.1l0.1-0.6L123.7,22.4z"/>
<path class="st5" d="M150.5,53.7L150.5,53.7L150.5,53.7C150.5,53.7,150.5,53.7,150.5,53.7z"/>
<path class="st5" d="M121.3,22.4c0.1,0,0.1,0,0.2,0C121.1,22.3,120.9,22.1,121.3,22.4z"/>
<polygon class="st5" points="120.7,24.9 120.7,24.9 120.7,25.6 121.5,25.7 121.3,25 "/>
<polygon class="st5" points="119.8,22.3 119.7,22.3 118.9,22.2 118.9,22.6 119.5,22.7 120.1,23.5 120.4,23.2 119.9,22.4 "/>
<path class="st5" d="M129.4,32.4c-0.4,0-1.1-0.5-0.9-0.8s-1.3-0.6-1.3-0.6s-1.3-1.2-0.8-1.1s0.2-0.5,0.2-0.5
	c-0.4,0.1-0.8,0.1-1.1,0.1c-0.2-0.1-0.1-0.8-0.1-0.8c-0.3-0.1-0.5-0.1-0.8-0.1l0,0c-0.1,0-0.1,0-0.1,0.1c0,0.2,0.3,0.2,0.5,0.7
	s0.1,1.2,0.8,1.4s0.8,0.3,0.9,0.6s0.9,0.4,0.9,0.4L128,32l1.8,1.6V33C129.9,33,129.7,32.4,129.4,32.4z"/>
<path class="st5" d="M144.5,21.8l1.1,0.4c0,0,1.4,1.7,1.4,0.9c-0.1-2.4-1.2-2.4-1.6-2.9c-0.1-0.1-0.3-0.2-0.5-0.2l0,0
	c-0.6,0-1.5,0.4-1.4,0.9C143.6,21.3,144,21.7,144.5,21.8z"/>
<polygon class="st5" points="150.5,53.7 150.5,53.7 150.5,53.7 "/>
<path class="st5" d="M148.8,48.2c-0.1,0.3,0,0.5,0.3,0.7c0.1,0,0.1,0,0.2,0c0.3,0,0.6,0.1,0.8,0.3c0.3,0.2,0.6,0.4,0.8,0.7l0.8-0.2
	c0,0,0.1-0.8-0.2-0.6s-0.6-0.5-0.8-0.5s-0.5-0.3-0.8-0.7s-0.2-0.5-0.6-0.7c-0.1-0.1-0.3-0.2-0.5-0.2l0,0c-0.1,0-0.2,0.1-0.2,0.2
	c0,0,0,0,0,0C148.5,47.7,148.9,47.8,148.8,48.2z"/>
<polygon class="st5" points="121.3,21.1 120.8,20.9 120.8,20.9 120.6,21.6 121,21.8 "/>
<path class="st5" d="M151,50.5L151,50.5l-0.9,0.1c0.2,0.3,0.7,0.6,0.7,0.9s-0.1,0.6,0.3,0.6s0.8-0.1,0.9,0.3
	c0.1,0.4,0.2,0.9,0.1,1.3c-0.1,0.3,0.1,0.8,0.5,0.8s0.5,0.1,0.5,0.3s0.5-0.9,0.5-0.9c-0.3-0.3-0.5-0.6-0.7-1c0,0-0.4-1.1-0.4-1.2
	s-0.6-0.3-0.8-0.4C151.4,51.1,151.1,50.8,151,50.5z"/>
<polygon class="st5" points="145.5,44.8 145.5,44.1 145.5,44.1 145,44.2 145.1,44.9 "/>
<polygon class="st5" points="155.3,69.2 155.7,69.4 156,68.9 155.5,68.7 "/>
<path class="st5" d="M153.5,56.4c-0.2,0.1-0.4,0.5-0.6,0.7s0.5,0.6,0.5,0.8s0.1,1.4,0.1,1.4s0.6,0.2,0.6,0.6s0,0.9,0.2,1
	s0.7,0.4,0.6,0.7c-0.1,0.3-0.1,0.6-0.1,0.9l0.3,0.7l0.6,0.4c0,0,0.2-1.9-0.1-1.9s-0.2-1.1-0.2-1.1s0.4-1.5-0.2-1.5s-0.1-0.8-0.6-1
	s-0.1-1.3-0.3-1.6s-0.1-0.7-0.6-0.9c0,0-0.1,0-0.1,0l0,0C153.4,55.5,153.7,56.3,153.5,56.4z"/>
<polygon class="st5" points="156.3,66.7 155.8,66.6 155.8,66.6 155.8,67.2 156.2,67.3 "/>
<path class="st5" d="M142.1,52.5c0,0-0.1,1.5-0.6,1.8h-1.1c0.1,0.2,0.3,0.4,0.5,0.6c0.2,0.2,0.8,0.7,0.2,1s0.1,0.2,0.1,0.2
	s-0.1,1.6-0.8,1.4s-0.9,0.9-0.9,1.1s2.7,0.4,2.3,0c-0.2-0.2,0.3-0.8,0.3-0.8s1.8,0.1,2.2,0.1s0.7-0.1,0.5-0.5s-0.9-0.3-0.9-0.3
	c-0.6,0.1-1.2,0-1.8-0.2c-0.8-0.5,0.1-0.6,0.3-0.6s0.8-0.5,0.6-0.9s0-1.1,0-0.8s0.8,0.5,1,0.2c0.1-0.4,0-0.9-0.4-1.1
	c-0.4-0.2,0.7-0.4,0.4-0.8c-0.2-0.3-0.4-0.6-0.5-0.9l0,0C143.2,52.5,142.7,52.6,142.1,52.5z"/>
<path class="st5" d="M154.8,108.7l-0.1,0.5c0.1,0,0.1,0,0.1,0.1l0.1,0.4c0,0-0.1,0.1-0.1,0.1l0.3,0.3c0.2-0.2,0.3-0.5,0.3-0.8
	C155.2,109,155,108.8,154.8,108.7z"/>
<path class="st5" d="M154.6,109.1"/>
<polygon class="st5" points="155.3,107.8 156.1,107.8 156.1,107.2 155.4,107.1 "/>
<path class="st5" d="M155.3,107.1"/>
<path class="st5" d="M150.6,84.5c0.3,0.1,0.6,0.2,0.3-0.7c-0.1-0.3-0.4-0.4-0.6-0.4l0,0c-0.6,0-1.4,0.4-1.2,0.7
	C149.5,84.8,150.3,84.5,150.6,84.5z"/>
<rect x="141.1" y="99.2" class="st5" width="0.6" height="1.5"/>
<path class="st5" d="M101.1,25.3c0,0,1.1,0.1,1.2,0.3s0.8,0.3,0.9,0.1s0.4-0.7-0.3-0.7s-0.6-0.4-0.8-0.6s-0.6-0.2-1-0.1
	s-0.8,0.1-0.8,0.2C100.5,24.8,101.1,25.3,101.1,25.3z"/>
<polygon class="st5" points="76.1,10.3 75.2,8.8 75.2,8.8 "/>
<polygon class="st5" points="82.2,29.1 81.9,29.4 82.4,29.9 82.7,29.6 "/>
<path class="st5" d="M83.2,24.1l-0.8-1.6l0,0L83.2,24.1z"/>
<polygon class="st5" points="134.2,57 134.2,57.4 134.9,57.3 134.9,56.9 "/>
<polygon class="st5" points="150.6,74.2 151.5,74.3 151.6,73.9 150.7,73.7 "/>
<rect x="145.1" y="54.5" class="st5" width="0.5" height="0.5"/>
<polygon class="st5" points="146.5,55 146.1,54.8 146.1,54.8 145.9,55.2 146.3,55.5 "/>
<polygon class="st5" points="143.7,51.3 143.7,50.8 142.9,50.9 142.9,51.3 "/>
<polygon class="st5" points="122.3,6.8 122.4,6.7 123.3,6.2 123,5.8 123,5.8 122.3,6.2 121.8,5.9 121.6,6.3 122.2,6.7 "/>
<rect x="144.1" y="51.4" class="st5" width="0.5" height="0.4"/>
<path class="st5" d="M134.9,56.9"/>
<polygon class="st5" points="136.4,58.1 136.2,58.7 136.6,58.9 136.9,58.3 "/>
<path class="st5" d="M137.8,59.3c-0.3,0-0.6,0-0.8,0.1c-0.4,0.1-0.3,0.4,0,0.8l0.9-0.1c0,0,0.7-0.3,0.6-0.6S138,59.3,137.8,59.3z"/>
<polygon class="st5" points="148.8,74.4 148.6,74.5 148,74.8 147.5,74.5 147.3,74.9 147.9,75.3 148,75.4 148.1,75.3 148.6,75.1 
	148.6,75.2 149.1,75 148.9,74.7 "/>
<path class="st5" d="M130.7,58.3"/>
<path class="st5" d="M104.9,87.5L104.9,87.5l-0.7,0.1l0.1,1.1l0.5,0.4l0.8,0.2c0,0,1.1-0.3,1.2-1.2l-1.8-0.1L104.9,87.5z"/>
<path class="st5" d="M111.4,82c0.3,0.1,0.1-1.1,0.1-1.1l0,0l-1.4,1c0.7,0.1,0.8,0.8,0.8,1.1C111.1,83.7,111.1,82,111.4,82z"/>
<polygon class="st5" points="115.5,103.3 116,102.4 115.6,102.3 115.6,102.3 115,102.7 115.2,102.9 "/>
<polygon class="st5" points="124.8,99.9 124.6,99.5 124,99.9 124.2,100.3 "/>
<path class="st5" d="M115.8,82c0.4,0.2,1-0.3,0.6-0.6c-1.1-0.8-1.1-1.8-1.4-2.5c-0.1-0.1-0.2-0.3-0.3-0.3l0,0
	c-0.1,0-0.3,0.1-0.4,0.4v1C114.7,80.8,115.2,81.4,115.8,82z"/>
<path class="st5" d="M122.1,94.3"/>
<polygon class="st5" points="103.4,73.3 102.6,73.3 102.6,73.3 102.4,73.6 102.1,73.6 101.9,74.2 102.4,74.2 102.5,74.8 102.2,75 
	102.1,75.4 101.4,75.6 100.1,76.9 100,77.5 99.6,78.1 99.1,79.2 97.5,79.3 97.2,80.7 97.4,81.9 98.8,82.5 99,81.7 99.4,81.4 
	99.5,80.7 99.8,80.1 100.3,79.6 100.4,78.9 101.2,78.5 102.1,78.3 102.5,77.8 102.6,76.9 102.7,76.2 103.1,75.8 104,75.3 104,73.9 
	103.5,73.9 "/>
<path class="st5" d="M109.1,62.1"/>
<path class="st5" d="M77.3,84.5L77.3,84.5c-0.2,0-0.3,0.1-0.3,0.3c0,0,0,0,0,0l0,0c0,0.2,0.1,0.3,0.3,0.3c0.2,0,0.3-0.1,0.3-0.3
	c0,0,0,0,0,0C77.7,84.6,77.5,84.5,77.3,84.5z"/>
<path class="st5" d="M80.8,81.6"/>
<path class="st5" d="M107.2,93.7c0,0-0.3,0.5-0.7,0c0-0.1-0.1-0.1-0.2-0.1l0,0c-0.4,0-0.7,1.2-0.9,1.5c0,0,0.2,0.6,0.5,0.6
	s0.6-0.2,0.9-0.3s0.4-0.5,0.5-1C107.4,94.2,107.4,93.9,107.2,93.7z"/>
<path class="st5" d="M116.5,122.4"/>
<path class="st5" d="M143.7,114.1c-0.3-0.2,0.4,0.4,0.6,0.7c0.1,0.2,0.4,0.3,0.6,0.2c0.1,0,0.1-0.1,0.2-0.2c0.1-0.3,0.1-0.6,0.1-0.9
	l-0.5-0.5C144.6,114,144,114.4,143.7,114.1z"/>
<path class="st5" d="M150.9,115.3l-0.4-0.4l-0.1-1.9c0.3-1-1.5-2.5-1.6-2.2s-1.1,0.1-1.1,0.4s-0.6,1.9-0.3,2.4c0,0,0,0,0,0.1
	l-0.7,1.9c-0.2,0.4-0.4,0.8-0.3,1.1l0,0l0.7,0.3l0.2,1.3c0.8,0.5,1.7,0.6,2.6,0.4l1.2-1.3C151,116.3,150.9,115.3,150.9,115.3z"/>
<path class="st5" d="M107.9,93.1L107.9,93.1c0,0-0.3,0.7,0,0.8s0.2,0.2,0.4,0.4l-0.2,0.4c-0.3-0.4-0.5,0.3-0.3,0.5s-0.4,0-0.4,0.3
	s-0.2,0.4,0,0.5s0,0.2-0.3,0.4s1,0.2,1,0.2s-0.2-0.5,0-0.5h0.1l0.2-3L107.9,93.1z"/>
<path class="st5" d="M127.8,55.5c0-0.3-0.8-0.7-0.7-0.2s-0.6,0.7-0.7,0.6s-0.6,0.5-0.6,0.5c0,0.2-0.1,0.5,0.3,0.6s1.3-0.3,1.4,0.1
	c0.1,0.1,0.1,0.3,0.1,0.4l1.3-1.3C128.6,55.9,127.8,55.7,127.8,55.5z"/>
<path class="st5" d="M132.9,57.6c0-0.3-0.9-1.5-1.4-1.5l1.4,1.7C132.9,57.7,132.9,57.6,132.9,57.6z"/>
<path class="st5" d="M130.7,57.8L130.7,57.8l0.8,0.2l-1.3-1.5l-1.4,1.5h0.4C129.7,57.9,130.2,57.9,130.7,57.8z"/>
<path class="st5" d="M132.6,59.8"/>
<path class="st5" d="M101.2,107.8l-0.7,0.2l-0.5,0.7l-0.9,0.3l-0.1,1.6l-0.5,0.3v0.7l-0.6,0.1v0.4l-0.8,0.1l0.5,1.2l0.6,0.3
	c1.1,0.1,0.6,1.5,0.6,1.5l0.6,0.1l0.3,0.9l0.6,1.2c0.2,0.9,0.9,0.7,1.2,0.6s0.6,0.9,0.6,0.9l3.1,0.1c0,0-0.1,0.3,0.4,0.5
	c0.8,0.1,1.7,0.2,2.5,0.2l1.8-0.5c0.4-0.2,0.9-0.3,1.3-0.3c0.5,0,0.9,0.1,1.3,0.4c0.6,0.4,1.3,0.4,2,0.2l0.8,1l0.9,1.7l0,0l0.1,0.4
	l1.3,0.4l0.9,0.2l0.3,1.3l0.7,0.1l0.2,0.9c0.8,0.6-0.2,1.9-0.2,1.9v1.7l0.6,0.3l-0.1,0.7l1,1l1.1,0.1l1.9,2l2,1.4l1.3,0.4l0.4,1.2
	l0.6-0.1l0.5-0.4l1.8-0.1l0.9-0.9l1-0.1l7.2-6.1l0.5-2.5v-0.7c1.4-1,1.5-2.8,0.1-3c-1-0.1-0.6-1.1,0.4-1.3l0.6-0.2v-0.6l1.8-1.6
	v-1.2l-3.8-3.1c-0.8-0.3-0.8-1.2-0.6-2.2l2.1-4.6c-0.1-1.1-0.3-2.2-0.5-3.3l-0.6-0.3l0.1-1.9h-0.8l-1.4,1.8l-0.1,0.5l-1,1.6
	c-1.4,0.5-2.9,0.5-4.4,0.2c-0.6-0.4-1.2-0.7-1.8-0.9c0,0-1.2-1-1.5-0.7s-1.3-0.4-1.3-0.1s-1-0.6-1-0.6l-1.5-0.5l1.1-0.2l-0.2-0.7
	c0,0,0.1,0,0.1-0.1l0,0l1.8,0.9c0.2,0.3,1.2,0.2,1.2,0.2l0.3,0.4c0.4,0,0.7,0.1,1,0.4c0.4,0.5,2.4,0.1,2.4,0.1l0.6,0.5l0.8,0.3h1.4
	l1.1-1.5l0.4-0.4l-0.1-0.9l0.6-0.5v-0.8l0.5-0.1l0.1-1.7L139,99v-3.7l-1.1-1.1c-0.1,0.4-1.3,0.4-1.3,0.4s-0.3,0.5-0.6,0.5
	s0.3,0.7,0.1,1.2s-0.8,0.5-0.8,0.5l-1.2,0.3l-0.3,0.4h-1.2l-0.1-0.7c0.1-0.1,0.2-0.3,0.4-0.5l1-0.3l0.8-0.4l0.4-0.8
	c0.1-0.8,1-0.7,1-0.7s1.8-1.5,1.9-2.2s0.7-2.6,1.8-2.6h2c0.8-0.3,0.6-1.3,0.6-1.3l1-0.1l0.1,0.5c0,0,1.4,0.1,1.5-0.1
	s0.5-0.8,0.8-0.6s1.6-0.5,1.6-0.5c0.1-0.5,2-0.3,2-0.3l0.2-0.7c0,0-1.3-1.8-1.5-1.8s-1.5-1.1-1.6-0.7c-1.2-0.3-1.2-2-1.2-2l-0.5-1.1
	c0-0.6-1.1-1.9-1.4-1.8c-0.4-0.2-0.6-0.6-0.6-1.1l0,0l1.5-1.8c0.1-0.1,0.1-0.2,0.1-0.2l0.4-1.1l1.3-0.4l0.1-1h-0.6
	c0,0,0.8-1.4,1.1-1.4c1,0,2.1,0,3.1-0.1c0.3-0.5,0.6-1,0.7-1.6c0-0.2,0.6-0.3,0.8-0.4c0.4-0.2,0.7-0.6,0.9-1
	c0.1-0.3-0.4-2.3-0.7-1.9c-0.3,0.2-0.6,0.4-1,0.5l-0.2,0.9l-0.4,0.3c0.1,0.3,0.1,0.5,0,0.8c-0.1,0.5-0.8,0.9-0.8,0.9l-0.3,0.4
	c-0.7,0-1.4,0-2.1,0c-0.3-0.1-0.4-0.5-0.3-0.8c0.1-0.2,0.3-0.3,0.5-0.3c0.5,0.1-0.1-1.3-0.1-1.3l0.6-0.1c0,0,0.1-1.4,0.3-1.4
	s-0.1-0.5-0.4-0.7s-0.7-1-1-0.9c-0.5,0-1,0-1.5,0l-0.2,0.5l-0.8,0.1c0,0,0.1,0.6-0.1,0.8c-0.5,0.5-2.2,1.7-1.5-0.2l0.2-0.5v-0.7
	l-1.4-0.1c0,0-0.7-0.2-0.7-0.5c0-0.2,0-0.5-0.1-0.7l-1.6-1.8l-1.9-0.2l-0.1-0.4l-1.1-0.1c-0.2-0.1-0.3-0.1-0.5-0.2l-1.8,0.5
	c-0.1,0.2-0.1,0.5,0,0.7c0.2,1.2,0.6,1.6-0.1,1.6c-0.4,0-0.8-0.2-0.9-0.6c0,0-0.6-0.2-0.6,0.1s-0.2,0.9,0,1.2s-0.3,0.8-0.6,0.5
	s-0.8-0.9-0.7-1.1s-1.1-1.7,0.1-1.9s-0.1-0.9,0.4-1.1l0.6-0.3h0.6l0.4-0.3l0,0l-1-0.1l-0.6-0.1l-1.2-0.1c-0.6,0.4-1.1,1-1.4,1.7
	c-0.5,1-1.7,0-1.7-0.8l-2.7,0.1c-0.3,0-0.5,0-0.8,0c-0.2,0.7-1.3-0.1-1-0.5c0.2-0.2,0.3-0.5,0.3-0.8l-0.4-0.1l-0.5,0.9
	c-1.1,0-1.4,0.6-1.1,1s-0.3-0.1-0.5,0.5s0.1,0.6,0.6,0.8s-0.2,0.2,0.1,0.6s0.6,0.2,0.8,0.2l-0.6,0.6c-0.4,0.1-0.8,0.1-1.2,0
	c0,0.1-0.1,0.3-0.2,0.3c-1.2-1-2.6-1.8-4.1-2.5c0.2-0.2,0.6-0.2,0.8-0.7c0.2-0.7,0.4-1.5,0.5-2.3c0,0-1.2-0.1-1.3,0.3
	s-0.8,0.6-0.8,0.6s-0.6,0.2-0.4,0.5s-0.5,0.5-0.5,0.5c0,0.1,0,0.3,0.1,0.4l-4.9,1.1l0,0l0.1,1.9l-0.8-0.3h-0.5l-0.2-0.5l-0.5-0.1V65
	l0.5,0.4l0.4,0.4l0.8,0.1l0.1,0.9l1.9,0.1l0.2,0.4l1.1,0l2.2,2.3l-0.1,0.7l-0.4,0.2c0.1,0.5-1,0.2-1,0.2v0.5l0.6,0.1l0.6,0.3
	l0.8-1.3c0.8-0.5,1.2,0.2,1.3,0.7s-0.4,0.4-0.4,0.4v1.1l0.5,0.1c0.3,0.4,0.3,0.9,0,1.3c-0.1,0.1-0.2,0.1-0.3,0.2l-0.2,0.8
	c-0.2,0.7-1.1,0.6-1.1,0.6l-0.3,0.5l-0.9,0.2l1.8,0.2c0.2-0.6,0.6-0.8,0.9-0.5c0.2,0.3,0.2,0.6,0.2,0.9l0.5,0.1l-0.1,0.9l0.5,0.1
	v2.5l0.6,0.6c0.9-0.4,0.9,0.2,0.5,0.5s-0.1,1.7-0.1,1.7l-0.4,0.4v0.6l-0.5,0.3v0.9c-0.6-0.3-1.3-0.3-1.9,0c-0.7-0.5-2.2-0.3-2.2,0.1
	c0.5,0.6-0.6,0.8-0.6,0.8l-0.6,0.6c0.4,0.8-0.4,0.9-0.4,0.9v1.5l-0.9,0.9v1.4l2.4,1.4l0.1,0.1h0.7v-0.4l-0.4-1.8v-1.7l0.8-0.9
	c0,0,0.1,0,0.1,0l0,0c0.6,0,0.5,1.6,0.5,2.1v1.9l0,0c0,0.1,0,0.3,0.1,0.4l0.4,0.1l-0.7,0.6l-0.6,0.7l-0.8-0.2l-0.9-0.1l-0.3-0.6
	l-0.6-0.1l-0.1,1.1l-0.4,0.5l-0.9,0.9c1,0,0.3,0.5-0.1,0.7l-1.8,0.6c-0.1,0-0.2,0-0.3-0.1v0.5l-0.6,0.1l0.6,0.6h0.4v1.4
	c0,1-2.5,0.3-2.8,0.1l-0.1,1.4l-0.5,0.1l0.1,0.9l-0.1,1.3l0.8-0.1v0.5l2.1,0.1l0.4-0.4l1.9-1.9l0.8-0.8l1.8-0.4
	c0.1-0.8,0.9,0.1,0.9,0.1c0.8-0.1,0.9,0.5,0.9,0.5l1,0.1c0.8,0.2,0.3,0.3,0.4,0.6s0.5,0.3,0.5,0.3l0.1-1l0.5,0.1l-0.5-0.6l-0.8-0.4
	l-0.9-0.4c-0.6-0.9,0.1-0.7,0.8-0.6h1c0.5,0.6,0.9,1.2,1.1,1.9c0,0.4,0.6,0.5,0.6,0.5l0.7-0.1l0.2,0.6h0.7l0.2,0.5h1.4l0.1-0.7
	l-1.3-0.2l-0.1-0.8l-0.9-0.2c-0.3-1.3,0.2-1.7,0.6-1.1l0.5,0.1l-0.1-1.1l0.6-0.1l-0.1-1.6l-0.5-0.1v-0.8l1.9,0.1
	c-0.1-0.5-0.1-1,0.1-1.5h0.6l0.1,0.4l2.4,0.2h0.2c0.9,0.5,0.5,1.2,0.1,1.4c-0.3,0.1-0.5,0.1-0.8,0.1l-0.1,0.3l-2,0.1l-0.1,0.8
	c-0.6-0.1-1.1,0.3-1.2,0.9c0,0.2,0,0.4,0.1,0.5c0.1,0.3,0.1,0.7,0,1l0.8,0.4l1.1-0.3c0.1-0.8,0.8-0.9,1.5-1.4s1.6,0.9,1.3,1.5
	c0,0.1,0,0.1-0.1,0.2c-1.2,0.8-2.4,1.5-3.7,2.2l0,0c-2,1-4.2,1.7-6.4,2.2c0,0-0.1,0-0.1,0l-0.8-0.2l-0.1-1.1
	c-0.1-0.8-1.6-0.8-1.5-0.2s-2.7,0.2-2.8,0.2l-1.9,1.3l-1.4,0.1l-0.6,0.3l-0.2-0.5h-0.6l-0.4,0.5l-3,1.3c-0.2,0.2-0.3,0.3-0.2,0.4
	C102,107.4,101.2,107.8,101.2,107.8z M125.6,91.7c0-0.5,0.1-1.1,0.1-1.3s0.5-0.5,0.8-0.5l0,0c0.2,0,0.3,0.1,0.3,0.4
	c-0.1,0.3-0.1,0.7,0,1c1-0.9,1.9,0.1,1.8,0.3s0.6,0.5,0.9,0.2s0.8,0.7,0.7,1.2s-1.5,0.4-1.6-0.1s-0.3-0.3-0.5-0.1
	c-0.3,0.2-0.6,0.3-1,0.2l-0.3-0.3c0-0.1,0.1-0.2,0-0.3c-0.1-0.1-0.3-0.1-0.4-0.1L125.6,91.7z"/>
<path class="st5" d="M165.3,49c0,0-1.1-0.8-1-1.2s-1.1-1.1-1-1.5s-1-0.9-0.9-1.2s-0.6-1.2-0.6-1.2l-1.1-1.1l-0.1-0.7l-0.9-0.1
	l-1.9-2.3l0.1-0.6l-0.6-0.1v-0.8l-0.6-0.3l-0.8-0.1l-1.7-1.9l-0.1-0.9h-0.9l0.1-1.3l-0.6-2c-0.3,0.1-0.5,0.1-0.8,0
	c-0.6-0.2,0.2-0.8,0.2-0.8v-0.6l-0.5-0.5c0,0-1.3,0.1-1.4-0.1s-0.3-1.2-0.3-1.2l-0.1-1.3l-0.6-0.2l-0.1-0.5l-0.8,0.1v-0.9l-0.5-0.1
	l-0.5-0.2l-0.1-0.9l-1.7-0.1l-0.6-0.8l-0.6-0.9l-1.9-0.1l-0.5-0.5l-0.8-0.1l-0.6-0.2l-0.2,0.4l-1.5,0.1l-0.1,0.5
	c-0.9,0.2-1.8,0.3-2.7,0.2l-1.6,1.2c-0.1,0.3-0.2,0.5-0.4,0.5c-0.4,0-0.2,1-0.2,1c0.4,0,0.9,0,1.3,0.1c0.3,0.1,0.3,0.9,0.3,0.9
	c1.2-0.1,1.6,1.5,1.5,1.9s0.5,0.4,0.5,0.4c0,0.5,0,1.1-0.1,1.6c-0.1,0.3,1,0.5,1.3,1c0.2,0.7,0,1.5-0.4,2.1
	c-0.2,0.1,0.6,0.3,0.6,0.7s0.2,0,0.3,0.6s0.2,1.9,0.2,1.9l1.1,0.1c0.1-1,2.1-1.1,2.4-0.9c1.2,0.6,2,1.7,2.3,3c0,0.5-0.8,0.5-0.8,0.5
	v0.5l0.6,2c1.1,0.6,1.9,2.1,1.8,2.4s0.9,0.2,0.9,0.2c0.1-1.4,1.5-0.9,1.5-0.5s0.3,1.5,0.3,1.5l0.4,0.7l0.6,0.6l0.8-0.1l0.2,0.5
	l1,0.1c0.3,0.4,0.6,0.7,0.9,1.1c0.1,0.2,1.2,0.1,1.5,0.2s0.8,0.3,0.8,0.7c0.1,0.4,0.3,0.7,0.6,1c0,0,0.9,0.2,1,0.5
	c0.1,0.3,0.3,0.7,0.5,1l0.8,0.6l0.1,0.7l0.8,0.1l0.2,0.9l1.4-0.1l0.8-0.6c0.2-0.1,0.4-0.3,0.6-0.4l1.2-1.7c0.1-0.4,0.4-0.8,0.9-0.7
	C165.9,51,165.3,49,165.3,49z"/>
<path class="st5" d="M154.9,68.6c-0.2-0.2,0.2-1.3,0.2-1.3c0.2-0.4,0.2-0.9,0-1.2c-0.2-0.6-0.1-1.2,0.3-1.6l-0.6-0.3l-0.6-0.1
	l-0.5,0.1c-0.1-0.5-0.3-1-0.5-1.5l0,0l0.4,0.1v-0.5l-0.6-0.1c-0.1-0.3-0.2-0.6-0.3-1l-0.1-1.6l-0.6-0.4l0.1-0.6l-0.6-0.2l0.3-1
	l-0.6-1.1h-0.8c-0.4-0.7-0.7-1.5-1.1-2.2c0.1-0.1,0.2-0.1,0.3-0.1c0.4-0.1,0.6-0.1,0.6-0.1l0,0l-0.1-0.8l-0.7-0.5l-0.2-0.9
	c0,0-0.8,0.1-0.8,0.6c0,0.1-0.1,0.2-0.1,0.2c-0.6-0.9-1.1-1.7-1.7-2.5c0,0,0-0.1,0-0.1c0.3-0.6,0.1-0.9-0.4-1s-0.6-0.1-0.7-0.8
	c-0.1-0.4-0.4-0.7-0.8-0.8l-0.2-0.9l-0.6,0.4l-0.9-1.1l0.3-0.9c-0.2,0-0.5-0.2-0.6-0.4l-0.9-1.7c-0.3-0.2-0.6-0.3-0.7-0.1
	c-0.4,0.2-0.2-1.6-0.2-1.6s0.7-0.5,1-0.2s-2.6-3.9-3.2-3.5s-2-0.4-1.9-1.1s-2.8-3-2.8-3s-0.9-0.6-1.1-0.1s-0.5,0.8,0,1
	s0.4-0.4,0.9,0.1s1.5,1.2,1.1,1.7c-0.2,0.3-0.5,0.5-0.8,0.6l0.6,0.6h0.8l0.1,1.3c0,0,0.9,0.5,1.2,1c0.1,0.3,0.2,0.5,0.1,0.8
	l-0.7,1.8c0.1,0.4,0.3,0.7,0.7,0.8h0.4l0.7,0.6v0.6c0.7,0,1.3,0.4,1.5,1l1.3,1.3l0,0c0.3,0.3,0.3,0.4,0.7,0.7
	c0.1,0.1,0.3,0.2,0.4,0.2c0.2,0.3,0.5,0.5,0.7,0.8l-0.2,0.2c0,0.9,0.4,0.6,0.8,0.6c0.1,0.1,0.2,0.3,0.4,0.5c0,0.5,0,1.2,0.9,1.1l0,0
	c1,1.3,1.9,2.7,2.7,4.1v0.1l0,0c0.1,0.2,0.3,0.4,0.4,0.7c-0.1,0.1-0.2,0.2-0.3,0.3l-1.2,0.1v1.2l-0.6,0.2l0.1,0.8l0.8-0.1
	c0,0,0,0.9,0.2,0.6s2.2,0.1,2,1c-0.1,0.4,1.9,1.4,1.7,2.6l0.4,0.1c0.4,1.1,0.7,2.2,1,3.2l-0.1,0.3c0.1,0.1,0.2,0.1,0.3,0.2
	c0.2,1,0.5,1.9,0.6,2.9c0,0.8-0.2,1.7-0.7,1.9c-0.9,0.6,0.1,0.2,0.1,0.2l-0.1,1.7c0.2,0.8,0.6,0.4,0.8,0c0.1-0.2,0.2-0.3,0.4-0.5
	l1.5-3C155,69,155,68.7,154.9,68.6z"/>
<path class="st5" d="M131.9,36c-0.1-0.5,0.6-0.8,1-0.1l0.8-0.1l0.1-0.7l-1-0.8H132c0,0-0.1,0.6-0.6,0.4c-0.2-0.1-0.4-0.2-0.7-0.2
	c-0.4-0.1-0.3,0.8-0.2,1.2l1.6,0.8C132,36.3,132,36.2,131.9,36z"/>
<path class="st5" d="M110.6,23.3c0.1-0.3,0.1-0.4,0.6-0.5s-0.1-1-0.6-0.9c-0.3,0.1-0.6,0-0.8-0.3v2.1
	C110.3,23.7,110.5,23.5,110.6,23.3z"/>
<path class="st5" d="M99.7,87.6c0.2-0.4,0.6-0.6,1-0.7l0.2-0.5l2.1,0.1c0-0.3,0.2-0.6,0.5-0.7c0.3,0,0.6,0.2,0.7,0.5
	c0,0.4,0.8,0.1,0.8,0.1l0.6-0.9h0.8l0.1-0.9l0.4-0.2V83c0.7-0.2,1.2-0.9,1.1-1.6l0.3-0.4l-0.1-0.5c-0.6-0.2-0.3-0.8,0.1-0.6
	s-0.6-0.7-0.6-0.7c-0.5,0.4-0.8-0.5-0.8-0.5h-1.2v-1.1l-0.1-1l-1.1-0.5l-0.8,0.8l-0.1,1.1v0.7l-0.8,0.1l-0.1,2.1l-0.6,0.2l0.1,0.8
	l-0.8,0.2l-0.8,0.2l-0.1,1l-0.6,0.4l-0.3,0.9l-0.4,2.2l0.9,0.9C99.6,87.7,99.7,87.7,99.7,87.6z"/>
<path class="st5" d="M106.7,66c-0.9,0,0-0.7,0-0.7l0.1-1.2H106l-0.1-1.7l-2.3-1.2l-0.1-0.9l0.4-0.2l-0.6-0.2l-0.5,0.6l-0.1,0.7
	l-0.8,0.1v0.4h-0.5v0.5c-1.1,0.6-2.2,1.4-3.1,2.2h-2.6h-0.7c-0.3,0.7-1.1-0.1-1.1-0.1c-0.1-0.5-1.2,0-1.2,0c0,0.9-1.5-0.4-1.5-0.4
	L88.5,62c-1.5-1.4-3.8,0.4-3.9,0.8c0.1,0.6-0.5,0.6-1,0.5l-1.8-0.4c-0.3,0-0.6,0-0.7,0.3c-0.2,0.6-1.2,0.5-1.2,0.5L79.6,64l-0.8,0.1
	l-0.1,0.5l-0.9,0.1l2.3-0.1c0.6-0.1-0.2,1.3-0.6,1.2L78.4,66l-0.4,0.4h-1L76.6,67l-1.5-0.1c0,0-0.8,0.7-0.8,0.9s-0.1,0.9-0.4,0.9
	s-0.7,0.7-0.6,0.9s-0.5,1-0.5,1l-0.1,0.8l-0.5,0.1v2.1l-0.9,0.6v1L71,75.7l-0.8,1.8V78L69,79.2l0.1,1.2l-0.7,0.2l-0.1,0.6L68,82.9
	l0.8,0.1c0.4-0.1,0.3,1,0,1.2s-1.2,0.5-0.7,0.8s-1.2,0.2-1.2-0.2s-0.9-0.9-1.1-0.7s-0.3-0.1-0.5-0.4L63.3,83
	c-0.6,0.1-1.1,0.2-1.7,0.4l-0.4,1.2c-0.8,0.1-1.4,1.6-1.4,1.6c-0.7,0.2-1.2,1.1-1,1.3s-0.4,0.3-0.4,0.3v1.7l-0.4,0.5l0.1,1.9
	c0.5,0,0.4,0.9,0.4,0.9c-0.8,0.1-0.6,1.1-0.6,1.1l-1.6,0.6l-0.3,0.5l-2-0.1l-0.6,0.5l0,0l-2.1-0.5h-2.2l-0.1-0.4l-0.8-0.1l-0.1-0.9
	l-1.2,0.1L46.8,94l-1.2,0.1c0.1,0.8-1.2,1.9-1.4,1.6s-1-1.1-0.6-1.3S45,94,45,94v-0.5l-2.9-0.1l-0.3,0.5l-1.2,0.1v1.2l-0.6,0.1
	c-0.4,0.2,0.1,1.1,0.1,1.1c0.6,0.5-0.1,1.4-0.1,1.4c-0.5,0.5,0.4,1.3,0.4,1.3c0.6,0.1-0.4,0.6-0.4,0.6c0,0.4,0.3,0.8,0.6,1
	c-0.2,0.3-0.2,0.8,0.2,1.1c0,0,0.1,0.1,0.1,0.1l0.1,1.3l0.6,0.3v0.9L42,105h1.2l-0.1-1.9c-1.1-1.2,0.9-1.6,1-1.1s0.9,0.7,0.9,0.7
	c0.1,1.2,1.5,1.9,1.8,0.7s0.7-0.5,0.9,0.1c0.5,0.7,1.1,1.3,1.7,1.9h1.2l0.1,1.1c1.3-0.1,1.7,0.1,2.2,1.8c0.3,1,1,1.9,2,2.3l1.1-0.1
	c0-0.9,1.1,0.1,1.1,0.6s2.1,2.3,2.1,2.3l2.1,0.5l0.4,0.3l3.3,1.1h0.3c0.1-0.3,0.4-0.6,0.7-0.5c0.7,0.1,1.3,0.5,1.7,1.1
	c0.1,0.2,0.3,0.4,0.5,0.6l1.9,0.6c0.1,0.2,0.2,0.4,0.2,0.6c0.1,1.1,0.7,0.9,0.7,0.9l4.4-0.1l1.5-1.3l3.9-0.1c2-0.1,0.8-2.8,0.4-2.8
	c-0.2-0.3-0.3-0.6-0.2-1l-3.9-6c-0.6-0.6-1.2-1.3-1.8-2c0.1-0.3,0.2-0.7,0.4-1c1-0.6-0.2-1.6-0.2-1.6c0-0.7-0.2-1.4-0.6-2
	c-0.8-0.6-1.2-1.7-1-2.7v-1.2c-1.1-1.1,0.5-1.2,0.5-1.2c0.3-0.6,0.1-1.3-0.4-1.6l-0.1-1l-1.2-0.1l-0.1-3.6l-2.8-4
	C69.3,85,69.7,84,69.7,84c0.7-0.4-0.1-1.3-0.1-1.3L69.5,81l1.6-0.1l0.4-0.6h0.8l-0.1-2c0.1-0.3,0.3-0.5,0.6-0.6h0.4
	c0.1,0,0.3,0.1,0.4,0.1l1.1,0.1l0.1-0.2l0.6-1.9v0l-0.8-0.1c-0.9-0.5-0.5-2.6-0.5-2.6c0.4-0.7,1.1-1.2,1.9-1.3
	c0.4,0,0.9,0.1,1.2,0.4l1.1-0.1c0.2,0.1,0.4,0.3,0.6,0.6c-0.1,0.7-0.2,1.4-0.2,2.2c-0.1,0.2-0.2,0.3-0.2,0.3
	c-0.1,0.2-0.2,0.4-0.2,0.6l0.1,1.9l0.3,2l-1,0.9c-0.8,0.5-0.8,1.6,0.1,1.8c0.6,0.1,0.4,1.6-0.6,0.5c-1.2,0,0.4,1,0.3,1
	c1.2,0.6,1-0.7,1-0.7l0.7-0.5l1.7-1l0,0c0.6,0.3,1.1,0.8,1.4,1.5c0,0.2,3.1,0.1,3.1,0.1c0.6,0.5,1,1.2,1.1,1.9
	c0.8-1.1,2.6-0.1,1.3,0.5c1.2,0.8,1.2,1.5,1.2,1.5c1-0.3,1,0.5,1,0.7c0.1-0.4,0.3-0.8,0.3-1.1c-1.2-0.9,1.5-1.2,0.8,0.4l-0.5,0.7
	l0.8,0.6l0.1,1.8c1.7-0.1,1.2-2.3,1.2-2.3l0.8-0.1c0-0.7,0.6-0.3,0.6-0.3c-0.4-1.8,0.4-2.6,0.8-2.9l1.3-1.4c0.1-0.4,0.1-0.7,0.1-1.1
	c-0.7-0.3-0.3-1.4,0.5-0.5s-0.5-1.9-0.5-1.9l-0.6-0.5L94.9,79l-1.8,0.2l-0.5,0.1l-0.1-0.3l-0.3,1h-1.4l-0.1-0.9l0.8-0.2l0.3-0.5
	l0.1-0.6h0.9l1.8-1.9c0.1-0.1,0.3-0.2,0.5-0.1l0.5,0.4l0.7,0.6l0.1,0.5L96,77.4l-0.1,0.6l0.2,0.9h0.6c0.2-0.7,0.8-1.1,1.5-1
	c0.3,0.1,0.6,0.3,0.8,0.5l0.5-1.1c-1.1-0.5,0-1.4,0.3-1s1-1,1-1s0.6,0.7,0-0.2c-0.3-0.4-0.2-1,0.2-1.3c0,0,0.1-0.1,0.1-0.1
	c-0.1-0.9,1-0.8,1-0.8l0.1-1.2l-1.1-0.1c-0.2,1.1-1.2,0.1-0.7-0.1c0.3-0.2,0.7-0.4,0.9-0.7v-0.8l0.5-0.1l0.1-0.8h1.1l1-0.5l0.2-0.4
	l1.1-0.1l1.5-1.4L106.7,66z"/>
<path class="st5" d="M141.3,110.1"/>
<polygon class="st5" points="79.1,82.6 80.8,81.6 80.8,81.6 "/>
<polygon class="st5" points="64.6,133.2 64.6,133.2 65.2,134.1 65.3,134.8 66.1,135.1 66.4,135.5 66.9,135.2 66.5,134.2 65.5,133.4 
	"/>
<polygon class="st5" points="103.9,130.4 104.3,130 104.5,129.8 104.2,129.6 103.5,129.3 103.2,129.7 103.8,129.9 103.6,130.1 "/>
<polygon class="st5" points="98,123.7 97.5,124.1 97.3,124.3 97.6,124.5 98.1,124.8 98.3,124.5 98.1,124.2 98.3,124 "/>
<polygon class="st5" points="43.9,107.4 43.9,108.4 44.3,108.4 44.3,107.3 43.7,107.1 43.7,106.6 43.3,106.6 43.3,107.4 "/>
<polygon class="st5" points="48.6,113.2 49.4,114 49.8,113.4 49.2,112.3 48.6,111.9 48.3,110.8 47.1,110.2 47.1,110.2 47.7,111.6 
	48,112.3 "/>
<path class="st5" d="M116.5,122.4"/>
<path class="st5" d="M175,100.6l-0.5,0l0,0c0,0.4,0.1,0.8,0.4,0.9l0.1-0.5l0,0C175,100.9,175,100.8,175,100.6z"/>
<path class="st5" d="M177.4,98.7c0.1,0.1,0.2,0.1,0.3,0l-0.1-0.5c0,0,0.1,0,0.1,0.1v-0.1c0-0.2-0.1-0.4-0.1-0.5l0,0l-0.4,0.2
	c0.1,0.1,0.1,0.2,0.1,0.3C177.2,98.5,177.3,98.6,177.4,98.7z"/>
<path class="st5" d="M177.4,99.6c-0.1-0.3-0.2-0.6-0.3-0.9l0,0l-0.5,0.1c0.1,0.5,0.3,0.9,0.3,1L177.4,99.6z"/>
<path class="st5" d="M172.8,91c-0.1,0-0.2,0-0.3,0c-0.3,0-0.6,0.1-0.9,0.3l0.3,0.4c0.2-0.1,0.5-0.2,0.7-0.2l0,0l0.5-0.1
	C173,91.2,172.9,91.1,172.8,91z"/>
<path class="st5" d="M174.3,101.5L174.3,101.5c-0.2,0-0.4,0.1-0.5,0.3c-0.5,0.3-0.3,1.5,0,1.2s0.6,0,0.7-0.9
	C174.6,101.6,174.5,101.5,174.3,101.5z"/>
<polygon class="st5" points="113.6,59.7 113.6,59.1 113.6,59.1 113.1,59.2 113.2,59.7 "/>
<polygon class="st5" points="118,58.4 117.8,58 117.6,58 117.7,58.5 "/>
<rect x="119.2" y="57.3" transform="matrix(0.9989 -4.640909e-02 4.640909e-02 0.9989 -2.5424 5.6348)" class="st5" width="1.7" height="0.5"/>
<polygon class="st5" points="118.5,57.9 118.4,57.2 118.4,57.2 117.9,57.3 118.1,58 "/>
<polygon class="st5" points="110.9,57.6 110.4,57.5 110.4,57.5 110.3,58 110.9,58 "/>
<rect x="112.5" y="58.4" class="st5" width="0.6" height="0.5"/>
<polygon class="st5" points="112,57.9 111.4,57.8 111.4,57.8 111.4,58.2 111.9,58.3 "/>
<path class="st5" d="M124.2,9.3c-0.4,0.1-0.8,0.1-1.2,0.1h-1.4C121.6,9.1,121.3,9,121,9l0,0c-0.3,0-0.6,0.2-0.7,0.3
	c-0.1,0.3-0.6,0.4-0.6,0.4L118,9.9c-0.1,0.5-1.1,0.8-1.2,0.5l0,0c-0.2-0.7-1.1,0.9-0.1,1.1c0.7,0.2,1.3,0.2,2,0l0.2-0.5l3.8,0.1
	c0.2-0.2,0.4-0.5,0.5-0.8c0,0,0.9-0.3,1.3-0.1S124.6,9.1,124.2,9.3z"/>
<path class="st5" d="M117,14.1l-1-1v-0.9l-0.3-0.3l-0.3-1.1l-1-0.3l-1,0.4l-1.1,0.7l-1.1,0.1l-0.6,0.7l2.4,0.2l0.5,0.8l1.8,0.1
	l1.2,1.2C117.4,15.2,117.6,14.7,117,14.1L117,14.1z"/>
<polygon class="st5" points="126.5,7.6 125.9,8.1 125.5,7.8 125.2,8.1 125.7,8.6 125.9,8.8 126.1,8.6 126.8,8 "/>
<path class="st5" d="M122.7,58.3c0,0.2,0.6,0.5,0.8,0.5c0.4-0.1,0.8-0.3,1.2-0.6c0,0,0.4-1.1,0.1-1s-0.9,0.5-1,0.1
	c0-0.2-0.3-0.3-0.5-0.3c-0.2,0-0.3,0-0.5,0l-1.2,0.1l-0.1,0.5l0.8,0.1C122.3,57.8,122.7,58.1,122.7,58.3z"/>
<path class="st5" d="M123.2,56.9"/>
<polygon class="st5" points="105.7,58 105.2,57.9 105.1,58.4 105.7,58.5 "/>
<path class="st5" d="M77.4,83.8C77.4,83.8,77.4,83.8,77.4,83.8C77.4,83.8,77.4,83.8,77.4,83.8z"/>
<path class="st5" d="M77.2,46"/>
<path class="st5" d="M67.1,35.9"/>
<path class="st5" d="M114.4,10.6"/>
<rect x="106.5" y="57.4" class="st5" width="0.6" height="0.5"/>
<path class="st5" d="M95.7,44.8c0.5,0-0.4-0.6-0.4-0.6s-0.9,0.1-0.8-0.3l0.1,0.9H95.7z"/>
<path class="st5" d="M94.4,44"/>
<polygon class="st5" points="105.3,58.6 104.7,58.5 104.6,58.9 105.2,59.1 "/>
<path class="st5" d="M75.2,85.4c0.1,0.9,0.7-0.6,0.7-0.6v-5.3l-1.4-0.1l0,0l0.1,0.5H75c0.6,1.1,0.1,3.7,0.1,3.7s-0.9,0.1-1.1-0.4
	s-0.6,1-0.2,1.2S75.2,84.5,75.2,85.4z"/>
<polygon class="st5" points="76.2,88.3 76.4,87.6 75.9,87.3 76,86.2 76.4,86.1 76.5,85.6 76.5,85.6 75.3,86.3 74.6,85.9 74.6,87.7 
	75.8,89.4 "/>
<path class="st5" d="M77.3,93.4L77.3,93.4c-0.2,0-0.3,0.1-0.3,0.3l0,0l0,0c0,0.2,0.1,0.3,0.3,0.3s0.3-0.1,0.3-0.3
	C77.6,93.5,77.5,93.4,77.3,93.4C77.3,93.4,77.3,93.4,77.3,93.4z"/>
<path class="st5" d="M77.1,92.1c0-0.2-0.2-0.3-0.4-0.3c-0.1,0-0.2,0.1-0.3,0.3c0,0.2,0.2,0.3,0.4,0.3C77,92.3,77.1,92.2,77.1,92.1z"
	/>
<polygon class="st5" points="76.6,90.3 76.1,90.4 76,91 76.6,91.1 "/>
<polygon class="st5" points="75.2,94.9 75.9,94.8 75.9,94.3 75.2,94.4 "/>
<polygon class="st5" points="96.6,44 96.2,43.6 95.9,44 96.4,44.4 "/>
<polygon class="st5" points="104.5,59.6 104.5,59.1 104,59.2 104.1,59.7 "/>
</svg>
