<?xml version="1.0" encoding="UTF-8" standalone="no"?>
<svg
   width="300"
   height="102.36931"
   fill="none"
   class="TridactylThemeDark"
   version="1.1"
   id="svg3932"
   sodipodi:docname="OHCHR logo.svg"
   inkscape:version="1.2.2 (b0a8486541, 2022-12-01)"
   xmlns:inkscape="http://www.inkscape.org/namespaces/inkscape"
   xmlns:sodipodi="http://sodipodi.sourceforge.net/DTD/sodipodi-0.dtd"
   xmlns="http://www.w3.org/2000/svg"
   xmlns:svg="http://www.w3.org/2000/svg">
  <defs
     id="defs3936" />
  <sodipodi:namedview
     id="namedview3934"
     pagecolor="#ffffff"
     bordercolor="#666666"
     borderopacity="1.0"
     inkscape:showpageshadow="2"
     inkscape:pageopacity="0.0"
     inkscape:pagecheckerboard="0"
     inkscape:deskcolor="#d1d1d1"
     showgrid="false"
     inkscape:zoom="1.9510514"
     inkscape:cx="109.17191"
     inkscape:cy="48.691695"
     inkscape:window-width="1366"
     inkscape:window-height="741"
     inkscape:window-x="0"
     inkscape:window-y="0"
     inkscape:window-maximized="1"
     inkscape:current-layer="svg3932" />
  <g
     id="g4790"
     transform="matrix(1.1903322,0,0,1.1903322,-2.9397883e-4,4.3502647e-4)">
    <path
       d="m 54.144,27.145 1.834,1.83 c 1.85,2.855 4.446,5.69 7.015,7.496 -0.545,-1.142 -0.564,-2.473 -1.133,-3.616 -1.143,-3.19 -4.792,-4.736 -7.716,-5.71 z m -37.275,0.359 c -2.263,0.908 -4.71,1.64 -6.402,3.763 -1.307,1.711 -1.712,3.757 -2.376,5.71 l 1.998,-1.712 c 3.045,-2.12 3.83,-5.57 6.78,-7.761 z"
       fill="#006fb7"
       id="path3914" />
    <path
       d="m 61.17,30.48 c 2.52,1.664 2.356,4.734 3.256,7.234 0.239,1.043 0.88,1.997 0.951,3.044 -1.356,-3.923 -5.924,-4.355 -7.587,-8.068 l 0.525,2.167 c 1.284,4.212 6.301,5.236 8.205,9.043 -0.594,-2.762 0.452,-5.642 -0.382,-8.354 -0.687,-2.33 -2.612,-4.377 -4.969,-5.066 z M 5.853,34.236 c -1.927,2.834 -0.355,6.762 -0.904,10.116 0.69,-1.383 2.022,-2.69 3.188,-3.665 2.689,-1.736 5.091,-4.497 5.187,-7.591 -1.43,3.663 -6.136,4.14 -7.304,8.042 H 5.902 C 7.638,37.904 6.659,33.334 9.97,30.93 8.232,31.427 6.758,32.715 5.853,34.236 Z"
       fill="#006fb7"
       id="path3916" />
    <path
       d="m 66.641,35.092 c 1.76,2.57 0.76,6.193 0.641,9.188 0.07,1.45 0.31,2.903 0.213,4.358 -0.213,-0.575 -0.26,-1.193 -0.403,-1.788 -0.715,-3.258 -4.544,-4.856 -6.09,-7.59 0.24,0.928 0.405,1.852 0.735,2.733 1.334,3.856 5.33,6.45 5.878,10.64 0.354,-3.996 3.164,-7.187 2.117,-11.54 -0.546,-2.193 -1.451,-4.335 -3.09,-6.001 z M 4.578,35.615 c -1.383,1.642 -2.31,3.62 -2.788,5.713 -0.923,4.38 1.717,7.756 2.286,11.758 0.76,-5.024 6.041,-8.19 6.329,-13.422 -1.55,2.83 -5.305,4.472 -5.995,7.826 0,0.55 -0.169,1.073 -0.289,1.593 L 4.005,48.967 4.195,46.801 C 4.836,42.923 2.579,38.925 4.578,35.615 Z"
       fill="#006fb7"
       id="path3918" />
    <path
       d="m 70.636,44.352 c 0.665,3.858 -1.666,6.76 -2.616,10.114 -0.524,1.286 -0.31,2.928 -1.096,4.048 -0.047,-0.644 0.311,-1.265 0.358,-1.956 0.59,-4.306 -3.142,-6.85 -3.996,-10.495 -0.047,0.98 0.023,1.905 0.164,2.786 0.215,4.545 3.191,8.237 2.332,12.973 0.86,-1.119 1.5,-2.262 2.525,-3.356 3.421,-3.569 4.302,-9.541 2.33,-14.114 z m -69.7,0.498 c -1.235,2.86 -1.164,6.64 -0.238,9.616 0.81,3.07 3.736,5.214 5.258,7.879 -0.262,-1.118 -0.213,-2.524 -0.047,-3.667 1,-3.97 2.568,-7.807 2.33,-12.207 -0.594,3.166 -3.423,5.402 -3.756,8.665 -0.216,1.333 0.118,2.639 0.285,3.832 C 4.458,58.371 4.171,57.682 4.123,56.919 3.648,52.633 0.197,49.49 0.936,44.85 Z"
       fill="#006fb7"
       id="path3920" />
    <path
       d="m 63.856,54.273 c -2.259,4.88 -0.617,11.354 -3.377,15.995 l 0.452,-0.381 c 5.35,-2.925 11.798,-7.852 10.727,-15.042 -0.094,0.978 -0.406,1.858 -0.854,2.69 -2.095,3.264 -5.664,5.927 -7.425,9.307 -0.047,0.12 -0.214,0.192 -0.286,0.073 l 0.356,-0.455 c 2.523,-3.64 0.262,-8.115 0.407,-12.187 z M 7.834,54.752 C 8.12,56.325 7.62,57.705 7.382,59.13 6.572,61.869 6.977,65.084 8.572,67.32 8.048,67.056 7.716,66.437 7.382,65.894 5.405,62.107 0.436,59.964 0.009,55.417 c -0.026,1.646 -0.026,3.38 0.475,4.86 1.377,5.091 6.992,7.71 10.775,10.277 C 8.571,65.914 9.999,59.609 7.834,54.752 Z"
       fill="#006fb7"
       id="path3922" />
    <path
       d="m 61.573,61.488 -2,2.615 c -2.687,3.713 -2.377,8.785 -6.112,11.945 1.928,-0.616 4.044,-0.875 6.04,-1.308 4.499,-1.14 9.229,-5.57 9.875,-10.184 -0.809,1.925 -2.498,3.354 -4.21,4.475 -2.952,1.376 -5.947,2.95 -8.446,5.143 h -0.284 l 0.168,-0.24 c 4.303,-2.857 3.136,-8.38 4.97,-12.446 z m -51.454,0.402 0.69,1.76 c 0.667,3.95 0.975,8.304 4.569,10.806 l -0.047,0.046 c -1.167,-0.5 -2.044,-1.476 -3.095,-2.115 -3.38,-2.193 -8.04,-3.168 -9.943,-7.354 0.523,3.07 2.617,5.807 5.137,7.71 3.022,2.665 7.234,2.451 10.921,3.524 -1.358,-1.05 -2.117,-2.24 -2.735,-3.714 -1.358,-3.738 -2.547,-7.642 -5.497,-10.662 z"
       fill="#006fb7"
       id="path3924" />
    <path
       d="m 56.48,69.195 c -2.736,1.788 -5.092,4.834 -7.587,6.784 -1.38,1.047 -3.023,1.354 -4.64,1.832 3.57,0.265 6.543,1.95 10.28,1.714 3.994,-0.169 7.658,-2.5 9.537,-6.044 -2.76,3.285 -7.184,3.093 -11.252,3.475 -1.356,0.164 -2.69,0.57 -4.043,0.57 0.045,-0.048 0.094,-0.144 0.165,-0.121 4.449,-0.38 5.709,-5.208 7.54,-8.21 z m -41.27,0.289 c 1.831,2.143 1.902,4.972 4.45,6.731 0.974,0.858 2.281,1.028 3.376,1.48 -1.214,0.116 -2.33,-0.383 -3.541,-0.452 -4.095,-0.502 -8.783,0.019 -11.777,-3.31 1.354,2.377 3.758,4.452 6.28,5.258 4.757,1.81 9.062,-0.858 13.607,-1.261 -5.28,-0.236 -8.137,-5.999 -12.394,-8.446 z"
       fill="#006fb7"
       id="path3926" />
    <path
       d="m 49.463,80.622 c -4.066,-1.856 -8.776,-3.928 -13.534,-2.167 -2.404,-0.785 -5.543,-0.785 -7.946,0 -4.184,1.907 -9.896,4.783 -14.322,1.597 0.834,0.996 1.737,1.474 2.69,2.166 2.852,1.856 6.969,1.665 9.92,0.164 2.712,-1.142 4.782,-4.546 8.233,-3.473 -2.927,1.474 -5.614,3.24 -8.043,5.757 l 1.477,1.263 c 2.14,-2.832 5.018,-5.188 8.11,-6.57 2.997,1.454 5.732,3.954 7.993,6.457 l 1.474,-1.269 c -2.377,-2.307 -5.134,-4.163 -7.993,-5.638 0.739,-0.192 1.642,-0.143 2.401,-0.071 3.095,1.355 5.474,4.068 8.971,4.476 3.71,0.59 7.018,-0.908 9.3,-3.621 l -1.759,0.93 c -2.07,0.924 -4.853,0.689 -6.972,0 z M 36.98,0.555 c -0.122,6.125 2.24,11.264 4.723,16.363 4.847,8.982 12.492,16.82 15.097,26.714 2.083,8.602 0.44,18.08 -5.526,24.587 -4.245,4.527 -10.05,6.388 -16.096,7.228 L 35.059,75.295 C 38.26,72.363 38.981,67.683 37.7,63.613 36.177,58.742 32.254,54.82 30.334,50.101 27.93,45.381 26.329,40.282 26.889,34.534 c 0.36,-3.728 0.88,-7.34 1.843,-10.843 0.08,-0.076 0.2,0 0.282,-0.037 -2.204,10.196 4.681,17.962 11.329,25.229 2.884,3.576 5.125,7.422 5.888,11.873 0.36,-1.559 -0.04,-3.349 -0.441,-4.87 C 43.269,47.823 38.823,40.472 36.1,32.483 34.495,27.306 33.695,21.787 33.457,16.08 c 0.04,-0.076 0.121,-0.114 0.238,-0.076 0.121,8.146 5.405,14.308 9.733,20.814 4.443,5.713 8.488,11.571 9.086,18.802 h 0.081 C 53.718,50.295 52.314,44.848 50.275,40.246 L 44.427,27.877 C 40.7,19.05 36.457,10.412 36.656,0.097 c 0.323,-0.338 0.282,0.3 0.323,0.458 z"
       fill="#006fb7"
       id="path3928" />
    <path
       d="m 17.416,37.965 c -1.602,3.652 -1.683,8.332 -0.518,12.214 1.278,5.288 6.522,9.97 11.77,11.607 -5.204,-5.937 -6.484,-14.12 -5.123,-22.037 0.038,-0.074 0.117,-0.038 0.197,-0.074 -0.4,3.579 0.122,7.119 1.364,10.199 1.482,4.228 4.404,7.917 7.81,11.23 2.236,2.775 3.801,6.77 1.999,10.232 -0.72,1.256 -1.683,2.248 -2.921,3.236 l -0.24,-0.038 c 0.437,-1.372 -0.804,-2.319 -1.765,-3.12 -5.844,-3.31 -13.174,-7.61 -15.135,-14.232 -2.08,-6.547 0.04,-13.394 2.245,-19.217 l 0.238,-0.15 z m 74.448,-9.262 h 1.02 v 10.005 c 0,1.64 0,3.045 -1.084,4.386 -1.086,1.234 -2.745,1.873 -4.363,1.873 -1.617,0 -3.278,-0.639 -4.363,-1.873 -1.085,-1.34 -1.085,-2.746 -1.085,-4.386 V 28.703 h 1.022 v 9.708 c 0,1.447 0,2.98 0.829,4.045 0.787,1.021 2.363,1.554 3.597,1.554 1.234,0 2.81,-0.533 3.597,-1.554 0.83,-1.065 0.83,-2.598 0.83,-4.045 V 28.702 Z M 87.436,45.25 c -1.78,0 -3.49,-0.736 -4.574,-1.969 -1.156,-1.427 -1.156,-2.885 -1.156,-4.572 V 28.42 h 1.586 v 9.99 c 0,1.418 0,2.884 0.77,3.872 0.766,0.994 2.286,1.446 3.374,1.446 1.09,0 2.61,-0.452 3.374,-1.444 0.771,-0.99 0.771,-2.456 0.771,-3.873 v -9.99 h 1.586 v 10.287 c 0,1.688 0,3.145 -1.149,4.564 -1.09,1.242 -2.801,1.978 -4.582,1.978 z M 82.27,28.985 v 9.723 c 0,1.646 0,2.945 1.022,4.208 0.97,1.105 2.523,1.77 4.144,1.77 1.622,0 3.172,-0.666 4.15,-1.779 1.016,-1.254 1.016,-2.554 1.016,-4.2 v -9.722 h -0.457 v 9.426 c 0,1.513 0,3.077 -0.89,4.218 -0.88,1.143 -2.596,1.663 -3.82,1.663 -1.221,0 -2.938,-0.52 -3.82,-1.664 -0.887,-1.14 -0.887,-2.704 -0.887,-4.217 V 28.985 Z M 110.675,45.288 97.204,30.958 V 44.755 H 96.182 V 28.49 l 13.472,14.222 v -14.01 h 1.021 z M 110.957,46 97.488,31.67 V 45.036 H 95.902 V 27.781 l 13.47,14.222 V 28.42 h 1.586 V 46 Z M 96.923,30.247 110.394,44.575 v -15.59 h -0.457 V 43.42 L 96.467,29.198 v 15.275 h 0.457 V 30.247 Z m 18.223,14.508 h -1.022 V 28.702 h 1.022 z m 0.28,0.282 h -1.585 V 28.42 h 1.585 z m -1.021,-0.564 h 0.457 V 28.985 h -0.457 z m 7.762,0.282 h -1.021 V 29.66 h -4.149 v -0.957 h 9.32 v 0.957 h -4.15 z m 0.283,0.282 h -1.586 V 29.942 h -4.15 V 28.42 h 9.885 v 1.522 h -4.149 z m -1.022,-0.564 h 0.458 V 29.378 h 4.149 v -0.393 h -8.757 v 0.393 h 4.15 z m 7.761,-14.813 v 5.833 h 6.47 v 0.959 h -6.47 v 7.345 h 6.64 v 0.958 h -7.661 V 28.702 h 7.661 v 0.958 z m 6.923,15.377 h -8.225 V 28.42 h 8.225 v 1.522 h -6.639 v 5.27 h 6.469 v 1.522 h -6.469 v 6.781 h 6.639 z m -7.661,-0.564 h 7.097 v -0.394 h -6.639 v -7.91 h 6.469 v -0.393 h -6.469 v -6.398 h 6.639 v -0.393 h -7.097 z m 10.506,-15.77 h 2.895 c 2.339,0 4.191,0.382 5.959,2.022 1.68,1.576 2.553,3.726 2.553,6.025 0,2.214 -0.851,4.322 -2.469,5.877 -1.765,1.702 -3.659,2.128 -6.043,2.128 h -2.894 V 28.702 h -0.001 z m 2.872,15.094 c 2.107,0 3.852,-0.426 5.386,-1.938 a 7.224,7.224 0 0 0 2.127,-5.109 c 0,-2.044 -0.808,-3.96 -2.32,-5.344 -1.532,-1.384 -3.192,-1.746 -5.193,-1.746 h -1.851 v 14.137 z m 0.023,1.24 h -3.176 V 28.42 h 3.176 c 2.334,0 4.274,0.357 6.149,2.098 1.707,1.598 2.645,3.812 2.645,6.232 0,2.337 -0.907,4.497 -2.555,6.08 -2.013,1.94 -4.188,2.207 -6.239,2.207 z m -2.612,-0.564 h 2.612 c 2.233,0 4.083,-0.35 5.848,-2.05 1.535,-1.477 2.382,-3.491 2.382,-5.674 0,-2.263 -0.876,-4.33 -2.465,-5.819 -1.741,-1.615 -3.563,-1.945 -5.766,-1.945 h -2.612 z m 2.589,-0.394 h -2.132 v -14.7 h 2.132 c 1.666,0 3.608,0.215 5.382,1.817 1.558,1.426 2.414,3.398 2.414,5.554 a 7.466,7.466 0 0 1 -2.212,5.31 c -1.436,1.416 -3.105,2.02 -5.584,2.02 z m -1.568,-0.564 h 1.568 c 2.316,0 3.869,-0.555 5.187,-1.856 a 6.907,6.907 0 0 0 2.044,-4.909 c 0,-1.995 -0.791,-3.82 -2.228,-5.136 -1.315,-1.187 -2.765,-1.672 -5.003,-1.672 h -1.569 z m 32.596,1.773 -13.471,-14.33 v 13.797 h -1.021 V 28.49 l 13.471,14.222 v -14.01 h 1.021 z M 173.14,46 159.669,31.67 v 13.366 h -1.585 V 27.781 l 13.471,14.222 V 28.42 h 1.585 z m -14.035,-15.753 13.471,14.328 v -15.59 h -0.457 V 43.42 L 158.648,29.198 v 15.275 h 0.457 z m 18.774,9.228 -2.15,5.28 h -1.043 l 6.724,-16.585 6.705,16.585 h -1.044 l -2.149,-5.28 z m 3.532,-8.708 -3.148,7.75 h 6.276 z m 7.123,14.27 h -1.651 l -2.149,-5.28 h -6.664 l -2.151,5.28 h -1.651 l 7.143,-17.619 7.123,17.62 z m -1.271,-0.564 h 0.434 l -6.286,-15.551 -6.306,15.55 h 0.434 l 2.151,-5.279 h 7.424 z m -2.305,-5.674 h -7.116 l 3.571,-8.784 z m -6.276,-0.564 h 5.44 l -2.711,-6.716 z m 13.136,6.52 h -1.021 V 29.66 h -4.149 v -0.957 h 9.32 v 0.957 h -4.15 z m 0.283,0.282 h -1.585 V 29.942 h -4.151 V 28.42 h 9.886 v 1.522 h -4.15 z m -1.021,-0.564 h 0.457 V 29.378 h 4.15 v -0.393 h -8.758 v 0.393 h 4.151 z m 7.761,0.282 H 197.82 V 28.702 h 1.021 z m 0.283,0.282 h -1.586 V 28.42 h 1.586 z m -1.022,-0.564 h 0.458 V 28.985 h -0.458 z m 19.871,-7.744 c 0,4.513 -3.81,8.239 -8.321,8.239 -4.511,0 -8.321,-3.725 -8.321,-8.24 0,-4.512 3.788,-8.238 8.321,-8.238 4.511,0 8.321,3.726 8.321,8.239 z m -15.62,0 c 0,3.96 3.298,7.281 7.299,7.281 3.981,0 7.3,-3.342 7.3,-7.281 0,-3.96 -3.319,-7.28 -7.3,-7.28 -4.001,-0.002 -7.299,3.32 -7.299,7.28 z m 7.299,8.521 c -4.663,0 -8.603,-3.902 -8.603,-8.521 0,-4.62 3.94,-8.521 8.603,-8.521 4.664,0 8.604,3.901 8.604,8.52 0,4.62 -3.94,8.522 -8.604,8.522 z m 0,-16.478 c -4.358,0 -8.039,3.644 -8.039,7.957 0,4.313 3.68,7.957 8.039,7.957 4.357,0 8.04,-3.644 8.04,-7.957 0,-4.313 -3.683,-7.957 -8.04,-7.957 z m 0,15.52 c -4.111,0 -7.582,-3.463 -7.582,-7.563 0,-4.1 3.471,-7.563 7.582,-7.563 4.109,0 7.581,3.463 7.581,7.563 0,4.1 -3.472,7.563 -7.581,7.563 z m 0,-14.563 c -3.804,0 -7.018,3.206 -7.018,7 0,3.794 3.214,6.999 7.018,6.999 3.805,0 7.017,-3.206 7.017,-7 0,-3.793 -3.213,-6.998 -7.017,-6.998 z m 25.303,15.559 -13.472,-14.33 v 13.797 h -1.021 V 28.49 l 13.471,14.222 v -14.01 h 1.021 V 45.288 Z M 235.237,46 221.766,31.67 v 13.366 h -1.585 V 27.781 l 13.471,14.222 V 28.42 h 1.585 z m -14.035,-15.753 13.471,14.328 v -15.59 h -0.457 V 43.42 L 220.745,29.198 v 15.275 h 0.457 z m 24.626,1.095 c -0.723,-1.149 -1.745,-1.895 -3.255,-1.895 -1.725,0 -3.023,1.384 -3.023,3.066 0,1.682 1.596,2.385 2.894,3.002 l 3.064,1.597 c 1.214,0.766 1.831,1.745 1.831,3.193 0,2.661 -2.427,4.662 -5.021,4.662 -2.236,0 -3.981,-1.383 -4.727,-3.448 l 0.895,-0.405 c 0.681,1.703 1.936,2.895 3.873,2.895 2.107,0 3.958,-1.66 3.958,-3.79 0,-1.809 -1.851,-2.575 -3.234,-3.257 l -2.895,-1.533 c -1.063,-0.66 -1.66,-1.597 -1.66,-2.874 0,-2.384 1.703,-4.066 4.107,-4.066 1.618,0 3.15,0.872 3.916,2.257 z m -3.51,13.908 c -2.27,0 -4.182,-1.393 -4.991,-3.634 l -0.088,-0.246 1.4,-0.635 0.11,0.275 c 0.496,1.24 1.525,2.718 3.612,2.718 1.993,0 3.675,-1.607 3.675,-3.508 0,-1.51 -1.481,-2.228 -2.786,-2.862 l -0.291,-0.142 -2.902,-1.537 c -1.207,-0.747 -1.81,-1.794 -1.81,-3.123 0,-2.52 1.846,-4.348 4.389,-4.348 1.721,0 3.355,0.942 4.164,2.402 l 0.113,0.206 -1.153,0.948 -0.171,-0.271 c -0.746,-1.185 -1.734,-1.763 -3.016,-1.763 -1.537,0 -2.74,1.223 -2.74,2.784 0,1.451 1.387,2.11 2.612,2.689 l 0.122,0.057 3.072,1.602 c 1.36,0.857 1.982,1.948 1.982,3.444 0,2.68 -2.428,4.944 -5.303,4.944 z m -4.366,-3.584 c 0.777,1.896 2.394,3.02 4.366,3.02 2.568,0 4.739,-2.007 4.739,-4.381 0,-1.302 -0.523,-2.212 -1.699,-2.954 l -3.156,-1.64 c -1.308,-0.619 -2.933,-1.39 -2.933,-3.199 0,-1.877 1.451,-3.348 3.304,-3.348 1.373,0 2.485,0.592 3.318,1.762 l 0.295,-0.244 c -0.743,-1.168 -2.112,-1.911 -3.55,-1.911 -2.253,0 -3.825,1.557 -3.825,3.784 0,1.136 0.5,1.998 1.526,2.635 l 3.158,1.66 c 1.383,0.671 3.104,1.507 3.104,3.37 0,2.246 -1.901,4.072 -4.239,4.072 -1.788,0 -3.205,-0.991 -4.021,-2.801 z M 90.995,58.462 V 52.14 h 3.128 v 16.053 h -3.128 v -7.174 h -5.789 v 7.174 H 82.078 V 52.14 h 3.128 v 6.322 z m 5.98,-6.323 h 3.128 v 8.985 c 0,1.98 0.17,4.769 2.831,4.769 2.659,0 2.831,-2.79 2.831,-4.77 V 52.14 h 3.128 v 9.6 c 0,3.918 -1.661,6.878 -5.959,6.878 -4.299,0 -5.959,-2.96 -5.959,-6.877 z m 26.75,6.089 h -0.043 l -3.638,10.176 h -1.086 l -3.512,-10.176 h -0.042 l -1.425,9.963 h -3.151 l 2.703,-16.478 h 2.213 l 3.958,10.581 3.788,-10.581 h 2.255 l 2.405,16.478 h -3.149 z m 9.725,6.579 -1.319,3.385 h -3.298 l 6.256,-16.478 h 2.427 l 6.087,16.478 h -3.341 l -1.235,-3.385 z m 2.704,-8.389 h -0.043 l -1.766,5.833 h 3.81 z m 9.042,-4.704 h 2.256 l 8.449,11.22 h 0.042 V 52.14 h 3.128 v 16.37 h -2.255 l -8.447,-11.22 h -0.042 v 10.901 h -3.13 V 51.714 Z m 34.433,16.478 h -3.789 l -3.895,-6.473 h -0.042 v 6.473 h -3.128 V 52.14 h 4.234 c 3.172,0 5.363,1.404 5.363,4.832 0,2.045 -1.128,4.088 -3.277,4.45 z m -7.726,-8.665 h 0.404 c 1.725,0 2.937,-0.511 2.937,-2.47 0,-1.98 -1.256,-2.363 -2.915,-2.363 h -0.427 z m 12.514,8.665 h -3.129 V 52.14 h 3.129 z m 17.088,-8.537 v 0.405 c 0,4.534 -2.319,8.558 -7.299,8.558 -4.682,0 -7.64,-3.96 -7.64,-8.388 0,-4.577 3.044,-8.516 7.83,-8.516 2.724,0 5.108,1.383 6.343,3.832 l -2.767,1.49 c -0.639,-1.448 -2,-2.555 -3.66,-2.555 -3.022,0 -4.512,3.087 -4.512,5.748 0,2.661 1.51,5.62 4.534,5.62 1.958,0 3.596,-1.702 3.659,-3.64 h -3.404 v -2.554 z m 11.109,-1.193 V 52.14 h 3.129 v 16.053 h -3.129 v -7.174 h -5.787 v 7.174 h -3.13 V 52.14 h 3.13 v 6.322 z m 11.281,9.73 h -3.129 V 54.865 h -3.234 v -2.726 h 9.598 v 2.726 h -3.235 z m 12.576,-12.519 c -0.597,-0.808 -1.363,-1.32 -2.404,-1.32 -1.001,0 -1.958,0.767 -1.958,1.81 0,2.704 6.362,1.575 6.362,6.962 0,3.215 -2,5.493 -5.277,5.493 -2.213,0 -3.832,-1.278 -4.937,-3.13 l 2.02,-1.98 c 0.427,1.234 1.554,2.342 2.895,2.342 1.276,0 2.064,-1.086 2.064,-2.32 0,-1.66 -1.532,-2.13 -2.788,-2.62 -2.065,-0.85 -3.575,-1.894 -3.575,-4.385 0,-2.661 1.978,-4.811 4.682,-4.811 1.425,0 3.404,0.702 4.383,1.788 z M 86.46,81.466 c 0,1.592 -0.026,4.533 -2.498,4.533 -2.472,0 -2.498,-2.94 -2.498,-4.533 0,-1.594 0.026,-4.534 2.498,-4.534 2.472,0 2.498,2.94 2.498,4.534 z m -3.644,0 c 0,1.874 0.14,3.432 1.147,3.432 1.007,0 1.147,-1.557 1.147,-3.432 0,-1.875 -0.14,-3.433 -1.147,-3.433 -1.008,0 -1.147,1.558 -1.147,3.433 z m 9.303,-4.417 v 1.02 h -2.178 v 2.776 h 1.961 v 1.019 h -1.961 v 4.018 h -1.275 v -8.833 z m 5.251,0 v 1.02 h -2.178 v 2.776 h 1.962 v 1.019 h -1.962 v 4.018 h -1.275 v -8.833 z m 3.074,8.833 h -1.275 v -8.833 h 1.275 z m 6.168,-7.627 c -0.254,-0.117 -0.522,-0.222 -0.815,-0.222 -1.784,0 -1.797,2.39 -1.797,3.491 0,1.171 0.102,3.374 1.848,3.374 0.281,0 0.523,-0.058 0.764,-0.176 v 1.03 c -0.318,0.188 -0.649,0.247 -1.02,0.247 -2.598,0 -2.943,-2.542 -2.943,-4.393 0,-1.769 0.242,-4.674 2.854,-4.674 0.434,0 0.739,0.058 1.109,0.257 z m 5.303,-1.206 v 1.02 h -2.154 v 2.776 h 1.924 v 1.019 h -1.924 v 2.999 h 2.154 v 1.019 h -3.427 v -8.833 z m 10.144,4.417 c 0,1.592 -0.025,4.533 -2.497,4.533 -2.472,0 -2.498,-2.94 -2.498,-4.533 0,-1.594 0.025,-4.534 2.498,-4.534 2.472,0 2.497,2.94 2.497,4.534 z m -3.644,0 c 0,1.874 0.14,3.432 1.147,3.432 1.007,0 1.147,-1.557 1.147,-3.432 0,-1.875 -0.14,-3.433 -1.147,-3.433 -1.007,0 -1.147,1.558 -1.147,3.433 z m 9.304,-4.417 v 1.02 h -2.179 v 2.776 h 1.962 v 1.019 h -1.962 v 4.018 h -1.275 v -8.833 z m 8.692,0 v 1.02 h -1.44 v 7.814 h -1.274 v -7.814 h -1.505 v -1.02 z m 2.893,0 v 3.444 h 1.925 V 77.05 h 1.273 v 8.833 h -1.273 v -4.37 h -1.925 v 4.37 H 138.03 V 77.05 h 1.274 z m 9.076,0 v 1.02 h -2.155 v 2.776 h 1.925 v 1.019 h -1.925 v 2.999 h 2.155 v 1.019 h -3.43 v -8.833 z m 6.666,0 v 3.444 h 1.925 V 77.05 h 1.273 v 8.833 h -1.273 v -4.37 h -1.925 v 4.37 h -1.275 V 77.05 h 1.275 z m 6.921,8.833 h -1.275 v -8.833 h 1.275 z m 7.048,-4.662 v 0.14 c 0,1.687 0.268,4.64 -2.295,4.64 -2.281,0 -2.548,-2.015 -2.548,-4.51 0,-2.472 0.217,-4.558 2.434,-4.558 1.363,0 2.013,0.633 2.343,1.805 l -1.21,0.456 c -0.127,-0.585 -0.305,-1.159 -1.096,-1.159 -1.044,0 -1.121,1.312 -1.121,3.444 0,3.07 0.56,3.42 1.121,3.42 0.523,0 1.096,-0.07 1.096,-2.178 v -0.48 h -1.071 v -1.02 h 2.347 v -0.001 z m 3.429,-4.17 v 3.443 h 1.923 V 77.05 h 1.275 v 8.833 h -1.275 v -4.37 h -1.923 v 4.37 h -1.275 V 77.05 Z m 12.872,1.205 c -0.255,-0.117 -0.523,-0.222 -0.815,-0.222 -1.785,0 -1.798,2.39 -1.798,3.491 0,1.171 0.103,3.374 1.848,3.374 0.281,0 0.523,-0.058 0.766,-0.176 v 1.03 c -0.319,0.188 -0.65,0.247 -1.019,0.247 -2.602,0 -2.945,-2.542 -2.945,-4.393 0,-1.769 0.243,-4.674 2.855,-4.674 0.433,0 0.738,0.058 1.109,0.257 z m 6.628,3.21 c 0,1.593 -0.026,4.534 -2.498,4.534 -2.472,0 -2.497,-2.94 -2.497,-4.533 0,-1.594 0.024,-4.534 2.497,-4.534 2.473,0 2.498,2.94 2.498,4.534 z m -3.645,0 c 0,1.875 0.14,3.433 1.147,3.433 1.007,0 1.148,-1.557 1.148,-3.432 0,-1.875 -0.141,-3.433 -1.148,-3.433 -1.007,0 -1.147,1.558 -1.147,3.433 z m 7.265,-4.416 1.363,6.373 h 0.026 l 0.039,-0.363 0.382,-2.12 0.828,-3.89 h 1.122 l 0.89,8.833 h -1.248 l -0.23,-3.292 -0.075,-1.64 -0.026,-1.16 h -0.026 l -0.216,1.266 -0.994,4.826 h -0.88 l -1.236,-6.092 h -0.026 l -0.369,6.092 h -1.21 l 0.789,-8.833 z m 8.044,0 1.363,6.373 h 0.026 l 0.038,-0.363 0.382,-2.12 0.829,-3.89 h 1.122 l 0.891,8.833 h -1.249 l -0.23,-3.292 -0.075,-1.64 -0.025,-1.16 h -0.026 l -0.217,1.266 -0.994,4.826 h -0.879 l -1.237,-6.092 h -0.025 l -0.369,6.092 h -1.21 l 0.79,-8.833 z m 7.901,8.833 h -1.275 v -8.833 h 1.275 z m 5.405,-7.474 c -0.331,-0.222 -0.649,-0.375 -1.082,-0.375 -0.702,0 -1.135,0.528 -1.135,1.136 0,0.387 0.103,0.656 0.358,0.96 l 0.968,0.973 c 0.867,0.808 1.363,1.394 1.363,2.589 0,1.242 -0.841,2.308 -2.255,2.308 -0.496,0 -1.007,-0.129 -1.402,-0.422 v -1.183 c 0.382,0.258 0.764,0.457 1.262,0.457 0.79,0 1.12,-0.573 1.12,-1.23 0,-1.757 -2.687,-2.108 -2.687,-4.428 0,-1.242 0.712,-2.261 2.153,-2.261 0.485,0 0.942,0.07 1.35,0.293 z m 5.404,0 c -0.331,-0.222 -0.649,-0.375 -1.082,-0.375 -0.702,0 -1.135,0.528 -1.135,1.136 0,0.387 0.103,0.656 0.358,0.96 l 0.968,0.973 c 0.867,0.808 1.363,1.394 1.363,2.589 0,1.242 -0.841,2.308 -2.255,2.308 -0.496,0 -1.007,-0.129 -1.402,-0.422 v -1.183 c 0.382,0.258 0.764,0.457 1.262,0.457 0.79,0 1.121,-0.573 1.121,-1.23 0,-1.757 -2.688,-2.108 -2.688,-4.428 0,-1.242 0.713,-2.261 2.153,-2.261 0.485,0 0.943,0.07 1.351,0.293 z m 3.723,7.474 h -1.275 v -8.833 h 1.275 z m 7.2,-4.416 c 0,1.592 -0.026,4.533 -2.498,4.533 -2.472,0 -2.497,-2.94 -2.497,-4.533 0,-1.594 0.024,-4.534 2.497,-4.534 2.472,0 2.498,2.94 2.498,4.534 z m -3.644,0 c 0,1.874 0.14,3.432 1.146,3.432 1.007,0 1.148,-1.557 1.148,-3.432 0,-1.875 -0.141,-3.433 -1.148,-3.433 -1.007,0 -1.146,1.558 -1.146,3.433 z m 6.933,-1.793 0.192,2.964 v 3.245 h -1.275 v -8.833 h 1.223 l 2.243,6.713 0.026,-0.024 -0.305,-3.537 v -3.152 h 1.275 v 8.833 h -1.186 l -2.243,-6.806 -0.027,0.023 z m 9.253,-2.624 v 1.02 h -2.153 v 2.776 h 1.924 v 1.019 h -1.924 v 2.999 h 2.153 v 1.019 h -3.427 v -8.833 z m 1.888,0 h 1.528 c 0.931,0 2.384,0.047 2.384,2.262 0,0.832 -0.268,2.096 -1.326,2.272 l 1.773,4.3 h -1.326 l -1.732,-4.323 h -0.026 v 4.323 h -1.275 z m 2.561,2.519 c 0,-0.844 -0.114,-1.547 -1.082,-1.522 h -0.204 v 2.916 c 0.955,0.058 1.286,-0.504 1.286,-1.394 z"
       fill="#006fb7"
       id="path3930" />
  </g>
</svg>
