<?xml version="1.0" encoding="UTF-8"?>
<svg id="Calque_4" data-name="Calque 4" xmlns="http://www.w3.org/2000/svg" viewBox="0 0 245.2 150.18">
  <defs>
    <style>
      .cls-1 {
        fill: #009bd9;
      }
    </style>
  </defs>
  <path class="cls-1" d="m117.04,48.42c0-2.56,2.01-4.57,4.57-4.57s4.57,2.01,4.57,4.57-2.1,4.57-4.57,4.57-4.57-2.1-4.57-4.57Zm.92,14.25c0-2.01,1.55-3.65,3.65-3.65s3.65,1.65,3.65,3.65v40.64c0,2.1-1.64,3.74-3.65,3.74s-3.65-1.64-3.65-3.74v-40.64Z"/>
  <g>
    <path class="cls-1" d="m18.42,119.13v5.92c0,.42.02,1.07.51,1.54.3.29.78.48,1.23.48s.92-.18,1.2-.44c.6-.52.58-1.26.58-1.81v-5.7h2.59v5.75c0,1.05-.04,2.14-1.12,3.24-.84.85-1.89,1.24-3.3,1.24-1.58,0-2.7-.54-3.31-1.2-.87-.95-.98-2.22-.98-3.29v-5.75h2.59Z"/>
    <path class="cls-1" d="m26.88,122.43h2.4v.84c.66-.87,1.54-.99,2.13-.99.69,0,1.42.17,1.98.72.57.57.63,1.14.63,1.88v4.26h-2.4v-3.39c0-.39.02-.98-.3-1.3-.22-.24-.52-.29-.76-.29-.38,0-.69.13-.88.31-.24.23-.39.66-.39,1.07v3.6h-2.4v-6.71Z"/>
    <path class="cls-1" d="m37.32,118.29c.75,0,1.35.6,1.35,1.35s-.6,1.35-1.35,1.35-1.35-.6-1.35-1.35.6-1.35,1.35-1.35Zm1.2,4.14v6.71h-2.4v-6.71h2.4Z"/>
    <path class="cls-1" d="m43.28,124.39v4.74h-2.4v-4.74h-.76v-1.96h.76v-2.2h2.4v2.2h1.37v1.96h-1.37Z"/>
    <path class="cls-1" d="m53.12,126.22h-5c0,.36.14.84.42,1.12.15.15.45.33.99.33.06,0,.48-.01.78-.18.15-.09.31-.24.42-.45h2.29c-.11.38-.32.9-.81,1.38-.5.48-1.28.93-2.73.93-.88,0-1.95-.19-2.77-1.02-.44-.43-.99-1.26-.99-2.54,0-1.12.42-2.02,1-2.59.55-.54,1.42-.97,2.75-.97.78,0,1.79.17,2.58.92.94.9,1.06,2.07,1.06,2.82v.25Zm-2.21-1.38c-.06-.25-.21-.54-.39-.72-.32-.32-.75-.36-.99-.36-.4,0-.72.11-.97.36-.17.18-.32.42-.36.72h2.71Z"/>
    <path class="cls-1" d="m62.55,129.13h-2.4v-.74c-.67.87-1.56.96-2.02.96-.96,0-1.73-.31-2.36-.93-.67-.66-1.08-1.6-1.08-2.67,0-1.14.48-2.07,1.1-2.65.66-.63,1.54-.9,2.37-.9.92,0,1.56.41,2,.87v-4.88h2.4v10.93Zm-2.83-2.22c.31-.29.51-.74.51-1.14,0-.38-.21-.83-.45-1.08-.27-.29-.64-.45-1.09-.45-.51,0-.86.22-1.07.43-.27.27-.46.69-.46,1.14,0,.34.15.73.46,1.05.33.33.72.45,1.07.45.39,0,.78-.18,1.04-.41Z"/>
    <path class="cls-1" d="m68.85,129.13v-10h2.59l4.79,6.12v-6.12h2.59v10h-2.59l-4.79-6.12v6.12h-2.59Z"/>
    <path class="cls-1" d="m86.36,122.43h2.4v6.71h-2.4v-.74c-.55.77-1.42.96-2.08.96-.72,0-1.6-.21-2.42-1.06-.64-.69-.96-1.46-.96-2.46,0-1.26.5-2.14,1.04-2.68.57-.57,1.46-.95,2.42-.95,1.08,0,1.72.55,2.01.87v-.65Zm-2.52,2.25c-.33.32-.48.75-.48,1.1,0,.39.17.81.46,1.09.25.24.68.45,1.08.45s.78-.17,1.08-.47c.21-.21.45-.54.45-1.08,0-.32-.09-.74-.46-1.1-.23-.21-.57-.43-1.08-.43-.3,0-.71.1-1.05.43Z"/>
    <path class="cls-1" d="m93.53,124.39v4.74h-2.4v-4.74h-.76v-1.96h.76v-2.2h2.4v2.2h1.37v1.96h-1.37Z"/>
    <path class="cls-1" d="m97.46,118.29c.75,0,1.35.6,1.35,1.35s-.6,1.35-1.35,1.35-1.35-.6-1.35-1.35.6-1.35,1.35-1.35Zm1.2,4.14v6.71h-2.4v-6.71h2.4Z"/>
    <path class="cls-1" d="m107.51,128.25c-.88.87-1.92,1.11-3,1.11-.98,0-2.06-.19-2.99-1.11-.74-.72-1.04-1.58-1.04-2.47,0-1.2.54-1.98,1.04-2.46.55-.54,1.53-1.11,2.99-1.11s2.44.58,3,1.11c.5.48,1.04,1.26,1.04,2.46,0,.9-.3,1.75-1.04,2.47Zm-4.06-3.57c-.3.29-.46.71-.46,1.1s.2.79.46,1.06c.29.29.67.45,1.08.45s.78-.17,1.06-.45c.3-.29.47-.67.47-1.06,0-.36-.17-.8-.47-1.1-.27-.25-.69-.43-1.06-.43s-.81.18-1.08.43Z"/>
    <path class="cls-1" d="m110.39,122.43h2.4v.84c.66-.87,1.54-.99,2.13-.99.69,0,1.42.17,1.98.72.57.57.63,1.14.63,1.88v4.26h-2.4v-3.39c0-.39.02-.98-.3-1.3-.22-.24-.52-.29-.76-.29-.38,0-.69.13-.88.31-.24.23-.39.66-.39,1.07v3.6h-2.4v-6.71Z"/>
    <path class="cls-1" d="m120.06,126.91c.29.21.63.39.96.5.3.1.67.17.93.17.18,0,.47-.04.62-.18.11-.1.12-.19.12-.31,0-.11-.01-.21-.12-.3-.15-.14-.39-.18-.63-.24l-.63-.15c-.33-.08-.81-.19-1.17-.58-.25-.27-.43-.64-.43-1.15,0-.65.25-1.25.63-1.64.51-.52,1.41-.81,2.4-.81s1.75.27,2.15.43l-.81,1.53c-.33-.15-.83-.33-1.26-.33-.24,0-.41.04-.55.13-.14.08-.21.18-.21.33,0,.21.13.32.28.38.23.09.42.09.79.2l.44.12c.31.09.79.33.99.52.33.32.51.84.51,1.33,0,.81-.34,1.35-.67,1.67-.78.78-1.92.84-2.48.84-.6,0-1.54-.07-2.7-.78l.85-1.67Z"/>
    <path class="cls-1" d="m17.87,136.13v10h-1.95v-10h1.95Z"/>
    <path class="cls-1" d="m20.25,139.64h1.83v.84c.34-.48.96-1.05,2.01-1.05.57,0,1.41.17,1.92.79.45.56.51,1.2.51,1.83v4.08h-1.83v-3.54c0-.36-.01-.93-.34-1.27-.29-.3-.67-.33-.86-.33-.48,0-.85.17-1.12.57-.27.42-.29.89-.29,1.26v3.31h-1.83v-6.5Z"/>
    <path class="cls-1" d="m32.18,141.18c-.44-.4-.87-.43-1.07-.43-.43,0-.71.21-.71.53,0,.17.08.42.58.58l.44.13c.51.17,1.27.42,1.65.93.2.27.33.66.33,1.08,0,.58-.2,1.17-.72,1.65-.53.48-1.16.69-1.95.69-1.35,0-2.12-.64-2.52-1.08l.96-1.11c.36.42.9.75,1.44.75.51,0,.9-.26.9-.71,0-.41-.33-.57-.57-.66l-.42-.15c-.46-.17-1-.38-1.39-.78-.3-.32-.5-.72-.5-1.25,0-.63.3-1.16.67-1.47.51-.4,1.17-.46,1.7-.46.48,0,1.24.06,2.07.69l-.9,1.06Z"/>
    <path class="cls-1" d="m36.9,141.2v4.93h-1.83v-4.93h-.72v-1.56h.72v-2.22h1.83v2.22h1.26v1.56h-1.26Z"/>
    <path class="cls-1" d="m40.41,135.8c.6,0,1.09.5,1.09,1.1s-.5,1.09-1.09,1.09-1.09-.5-1.09-1.09.49-1.1,1.09-1.1Zm.92,3.84v6.5h-1.83v-6.5h1.83Z"/>
    <path class="cls-1" d="m45.27,141.2v4.93h-1.83v-4.93h-.72v-1.56h.72v-2.22h1.83v2.22h1.26v1.56h-1.26Z"/>
    <path class="cls-1" d="m49.7,139.64v3.67c0,.35.03.81.39,1.14.22.19.58.33.93.33s.71-.14.93-.33c.36-.33.39-.79.39-1.14v-3.67h1.83v3.98c0,.58-.08,1.36-.79,1.99-.6.53-1.56.74-2.36.74s-1.75-.21-2.35-.74c-.72-.63-.79-1.41-.79-1.99v-3.98h1.83Z"/>
    <path class="cls-1" d="m58.11,141.2v4.93h-1.83v-4.93h-.72v-1.56h.72v-2.22h1.83v2.22h1.26v1.56h-1.26Z"/>
    <path class="cls-1" d="m67.08,144.32c-.2.48-.93,2.02-3.2,2.02-1.05,0-1.84-.3-2.49-.92-.72-.67-1.02-1.51-1.02-2.54,0-1.29.53-2.08.99-2.55.76-.75,1.67-.92,2.44-.92,1.32,0,2.08.53,2.54,1.07.69.83.78,1.84.78,2.55v.15h-4.86c0,.39.11.81.32,1.09.19.27.6.62,1.3.62s1.21-.33,1.51-.86l1.68.27Zm-1.68-2.29c-.15-.89-.87-1.31-1.54-1.31s-1.38.44-1.53,1.31h3.07Z"/>
    <path class="cls-1" d="m74.64,141.2v4.93h-1.83v-4.93h-.69v-1.56h.69v-1.78c0-.6.04-1.62.85-2.29.39-.33.93-.54,1.61-.54.4,0,.73.08,1.05.22v1.67c-.25-.2-.51-.27-.83-.27-.24,0-.48.06-.66.33-.15.24-.2.58-.2,1.12v1.54h1.68v1.56h-1.68Z"/>
    <path class="cls-1" d="m83.55,140.34c.64.58,1.09,1.49,1.09,2.55s-.45,1.95-1.09,2.54c-.55.51-1.39.92-2.62.92s-2.07-.41-2.62-.92c-.64-.58-1.09-1.48-1.09-2.54s.45-1.96,1.09-2.55c.55-.51,1.4-.92,2.62-.92s2.07.41,2.62.92Zm-.79,2.55c0-1.02-.78-1.84-1.83-1.84s-1.83.83-1.83,1.84.77,1.83,1.83,1.83,1.83-.84,1.83-1.83Z"/>
    <path class="cls-1" d="m86.43,139.64h1.83v.98c.29-.56.67-.83.81-.9.29-.18.65-.29,1.08-.29.32,0,.57.08.78.15l-.24,1.71c-.24-.17-.48-.24-.86-.24-.34,0-.85.08-1.21.53-.34.43-.36.99-.36,1.44v3.12h-1.83v-6.5Z"/>
    <path class="cls-1" d="m99.5,137.81v8.32h-1.95v-8.32h-2.25v-1.68h6.45v1.68h-2.25Z"/>
    <path class="cls-1" d="m102.45,139.64h1.83v.98c.29-.56.67-.83.81-.9.29-.18.65-.29,1.08-.29.32,0,.57.08.78.15l-.24,1.71c-.24-.17-.48-.24-.86-.24-.34,0-.85.08-1.21.53-.34.43-.36.99-.36,1.44v3.12h-1.83v-6.5Z"/>
    <path class="cls-1" d="m113.05,139.64h1.83v6.5h-1.83v-.84c-.66.95-1.53,1.05-2,1.05-1.99,0-3.31-1.56-3.31-3.46s1.3-3.45,3.22-3.45c.5,0,1.47.09,2.08,1.05v-.84Zm-3.42,3.24c0,1.04.75,1.84,1.8,1.84s1.8-.81,1.8-1.84-.75-1.83-1.8-1.83-1.8.79-1.8,1.83Z"/>
    <path class="cls-1" d="m117.91,135.8c.6,0,1.09.5,1.09,1.1s-.5,1.09-1.09,1.09-1.09-.5-1.09-1.09.49-1.1,1.09-1.1Zm.92,3.84v6.5h-1.83v-6.5h1.83Z"/>
    <path class="cls-1" d="m120.95,139.64h1.83v.84c.34-.48.96-1.05,2.01-1.05.57,0,1.41.17,1.92.79.45.56.51,1.2.51,1.83v4.08h-1.83v-3.54c0-.36-.01-.93-.34-1.27-.29-.3-.67-.33-.86-.33-.48,0-.85.17-1.12.57-.27.42-.29.89-.29,1.26v3.31h-1.83v-6.5Z"/>
    <path class="cls-1" d="m130.25,135.8c.6,0,1.09.5,1.09,1.1s-.5,1.09-1.09,1.09-1.09-.5-1.09-1.09.49-1.1,1.09-1.1Zm.92,3.84v6.5h-1.83v-6.5h1.83Z"/>
    <path class="cls-1" d="m133.28,139.64h1.83v.84c.34-.48.96-1.05,2.01-1.05.57,0,1.41.17,1.92.79.45.56.51,1.2.51,1.83v4.08h-1.83v-3.54c0-.36-.01-.93-.34-1.27-.29-.3-.67-.33-.86-.33-.48,0-.85.17-1.12.57-.27.42-.29.89-.29,1.26v3.31h-1.83v-6.5Z"/>
    <path class="cls-1" d="m146.61,139.64h1.83v6.2c0,.99-.09,2.02-.9,2.83-.45.45-1.23.92-2.57.92-1.26,0-2.01-.38-2.43-.75-.51-.44-.9-1.2-1.05-1.94h1.98c.08.3.24.6.45.78.36.33.86.34,1.11.34.52,0,.87-.18,1.11-.4.42-.41.46-.92.46-1.44v-.92c-.63.96-1.5,1.08-1.99,1.08-.87,0-1.62-.27-2.25-.88-.48-.48-1.04-1.32-1.04-2.58,0-1.02.38-1.96,1-2.58.57-.55,1.37-.87,2.24-.87,1.21,0,1.78.66,2.04,1.05v-.84Zm-2.8,1.86c-.3.27-.58.71-.58,1.38,0,.57.21.99.48,1.28.39.42.88.57,1.32.57s.9-.17,1.21-.45c.38-.34.58-.87.58-1.39,0-.62-.27-1.04-.52-1.3-.36-.38-.78-.53-1.28-.53-.58,0-.99.24-1.21.45Z"/>
    <path class="cls-1" d="m159.4,139.64h1.83v6.5h-1.83v-.84c-.66.95-1.53,1.05-2,1.05-1.99,0-3.31-1.56-3.31-3.46s1.3-3.45,3.22-3.45c.5,0,1.47.09,2.08,1.05v-.84Zm-3.42,3.24c0,1.04.75,1.84,1.8,1.84s1.8-.81,1.8-1.84-.75-1.83-1.8-1.83-1.8.79-1.8,1.83Z"/>
    <path class="cls-1" d="m163.35,139.64h1.83v.84c.34-.48.96-1.05,2.01-1.05.57,0,1.41.17,1.92.79.45.56.51,1.2.51,1.83v4.08h-1.83v-3.54c0-.36-.01-.93-.34-1.27-.29-.3-.67-.33-.86-.33-.48,0-.85.17-1.12.57-.27.42-.29.89-.29,1.26v3.31h-1.83v-6.5Z"/>
    <path class="cls-1" d="m176.71,135.2h1.83v10.93h-1.83v-.84c-.66.95-1.53,1.05-2,1.05-1.99,0-3.31-1.56-3.31-3.46s1.3-3.45,3.22-3.45c.5,0,1.47.09,2.08,1.05v-5.28Zm-3.42,7.68c0,1.04.75,1.84,1.8,1.84s1.8-.81,1.8-1.84-.75-1.83-1.8-1.83-1.8.79-1.8,1.83Z"/>
    <path class="cls-1" d="m187.69,136.13c1.38,0,2.08.36,2.55.75.76.65.99,1.5.99,2.25,0,.98-.39,1.83-1.17,2.36-.25.18-.61.34-1.09.43l3.12,4.21h-2.43l-2.67-4.02h-.24v4.02h-1.95v-10h2.9Zm-.95,4.61h.55c.38,0,1.92-.04,1.92-1.52s-1.53-1.5-1.89-1.5h-.58v3.02Z"/>
    <path class="cls-1" d="m199.89,144.32c-.2.48-.93,2.02-3.2,2.02-1.05,0-1.84-.3-2.49-.92-.72-.67-1.02-1.51-1.02-2.54,0-1.29.53-2.08.99-2.55.76-.75,1.67-.92,2.44-.92,1.32,0,2.08.53,2.54,1.07.69.83.78,1.84.78,2.55v.15h-4.86c0,.39.11.81.32,1.09.19.27.6.62,1.3.62s1.21-.33,1.51-.86l1.68.27Zm-1.68-2.29c-.15-.89-.87-1.31-1.54-1.31s-1.38.44-1.53,1.31h3.07Z"/>
    <path class="cls-1" d="m205.26,141.18c-.44-.4-.87-.43-1.07-.43-.43,0-.71.21-.71.53,0,.17.08.42.58.58l.44.13c.51.17,1.27.42,1.65.93.2.27.33.66.33,1.08,0,.58-.2,1.17-.72,1.65-.53.48-1.16.69-1.95.69-1.35,0-2.12-.64-2.52-1.08l.96-1.11c.36.42.9.75,1.44.75.51,0,.9-.26.9-.71,0-.41-.33-.57-.57-.66l-.42-.15c-.46-.17-1-.38-1.39-.78-.3-.32-.5-.72-.5-1.25,0-.63.3-1.16.67-1.47.51-.4,1.17-.46,1.7-.46.48,0,1.24.06,2.07.69l-.9,1.06Z"/>
    <path class="cls-1" d="m214.53,144.32c-.2.48-.93,2.02-3.2,2.02-1.05,0-1.84-.3-2.49-.92-.72-.67-1.02-1.51-1.02-2.54,0-1.29.53-2.08.99-2.55.76-.75,1.67-.92,2.44-.92,1.32,0,2.08.53,2.54,1.07.69.83.78,1.84.78,2.55v.15h-4.86c0,.39.11.81.32,1.09.19.27.6.62,1.3.62s1.21-.33,1.51-.86l1.68.27Zm-1.68-2.29c-.15-.89-.87-1.31-1.54-1.31s-1.38.44-1.53,1.31h3.07Z"/>
    <path class="cls-1" d="m221.49,139.64h1.83v6.5h-1.83v-.84c-.66.95-1.53,1.05-2,1.05-1.99,0-3.31-1.56-3.31-3.46s1.3-3.45,3.22-3.45c.5,0,1.47.09,2.08,1.05v-.84Zm-3.42,3.24c0,1.04.75,1.84,1.8,1.84s1.8-.81,1.8-1.84-.75-1.83-1.8-1.83-1.8.79-1.8,1.83Z"/>
    <path class="cls-1" d="m225.43,139.64h1.83v.98c.29-.56.67-.83.81-.9.29-.18.65-.29,1.08-.29.32,0,.57.08.78.15l-.24,1.71c-.24-.17-.48-.24-.86-.24-.34,0-.85.08-1.21.53-.34.43-.36.99-.36,1.44v3.12h-1.83v-6.5Z"/>
    <path class="cls-1" d="m235.93,141.62c-.39-.36-.87-.57-1.5-.57-1.21,0-1.83.88-1.83,1.83,0,1.07.79,1.84,1.89,1.84.4,0,.94-.12,1.44-.57v1.78c-.36.18-.93.41-1.68.41-1.02,0-1.92-.39-2.5-.95-.5-.46-1.04-1.27-1.04-2.49,0-1.14.46-2.05,1.12-2.64.79-.7,1.71-.84,2.34-.84.67,0,1.23.14,1.75.39v1.8Z"/>
    <path class="cls-1" d="m237.69,135.2h1.83v5.28c.34-.48.96-1.05,2.01-1.05.57,0,1.41.17,1.92.79.45.56.51,1.2.51,1.83v4.08h-1.83v-3.54c0-.36-.01-.93-.34-1.27-.29-.3-.67-.33-.86-.33-.48,0-.85.17-1.12.57-.27.42-.29.89-.29,1.26v3.31h-1.83v-10.93Z"/>
  </g>
  <path id="emblem" class="cls-1" d="m63.36,46.04s.07.02.08.04c-1.1,1.13-2.52,1.91-3.88,2.29-1.01.29-2.02.33-3.06.22-1.6-.18-3.01-.82-4.33-1.69-.79-.52-1.58-1.05-2.36-1.59-.9-.61-1.89-.73-2.94-.55-.57.06-.14.33-.05.38,1.41.69,2.73,1.51,3.96,2.47.84.62,2.34,2.06,2.34,2.06l-1.12.96s-.86-.96-1.23-1.33c-2.46-2.56-4.64-3.69-5.12-3.96-.08-.05-.17-.1-.25-.1s-.17.05-.25.1c-.48.28-2.66,1.4-5.12,3.96-.37.37-1.23,1.33-1.23,1.33l-1.12-.96s1.5-1.44,2.34-2.06c1.24-.95,2.56-1.78,3.96-2.47.09-.04.52-.32-.05-.38-1.05-.17-2.04-.06-2.94.55-.78.53-1.57,1.07-2.36,1.59-1.32.87-2.73,1.51-4.33,1.69-1.04.12-2.05.07-3.06-.22-1.36-.39-2.78-1.17-3.88-2.3.01-.02.06-.04.08-.04.09.04.15.07.24.12,1.64.84,3.37.94,5.15.6,1.21-.23,2.34-.72,3.47-1.2.81-.35,1.61-.73,2.44-1,2.16-.71,4.35-.7,6.55-.15.04,0,.07.01.11.02.04,0,.08,0,.11-.02,2.2-.56,4.39-.57,6.55.15.83.28,1.63.66,2.44,1,1.13.48,2.26.97,3.47,1.2,1.78.34,3.51.24,5.15-.6.09-.05.15-.08.24-.12Zm5.19-4.71c-.94.72-1.55.96-2.33,1.23-1.17.4-2.44.48-3.66.55-1.62.08-3.18.15-4.77.41,0,0-.02,0-.03,0-.1.02-.15-.03-.11-.06,0,0,.02-.01.02-.02,1.42-.52,2.39-1.62,3.12-3.01.5-.96,1.33-2.83,1.56-3.14,0,0,0-.07-.02-.08-.11.04-1.67,1.37-2.38,2.03-.88.82-1.71,1.69-2.59,2.51-1.38,1.32-3.36,1.89-4.08,2.08-.02,0-.05.02-.06.03-.02.03-.03.05-.04.06,0,0,0,0,0,0,0,0,.02,0,.03,0,.56.13,2.17.48,2.99.7,1.27.34,2.54.63,3.86.72,1.42.1,2.84-.05,4.17-.54,1.51-.56,3.36-1.89,4.42-3.47,0,0,0-.01,0-.01-.05-.02-.1,0-.11,0Zm4.85-7.43c-.04.06-.84,1.09-2.78,2.42-.94.66-1.82,1.08-2.85,1.56-1.29.6-2.41,1.15-3.51,2.06-.07.06-.13.1-.2.16-.04.03-.08-.02-.03-.07.05-.06,1.67-1.72,2.16-5.23.17-1.23.19-2.55.59-3.73.01-.04-.01-.08-.02-.1,0,0-.01,0-.01,0-1.19,1.36-2.18,3.47-2.64,4.8-.33.94-.64,1.88-.98,2.81-.46,1.26-1.06,2.45-2.03,3.41-.01.01-.09.09-.09.09,0,0-.01.02-.02.06,0,0,0,.01,0,0,.14-.02.23-.04.32-.06,1.08-.22,2.16-.48,3.25-.66,1.82-.3,3.41-.95,4.88-2.08,1.47-1.13,2.72-2.44,3.53-4.13.21-.44.41-.87.54-1.35-.03-.01-.07,0-.1.01Zm2.12-8.35c-.47,1.49-1.31,2.7-2.54,3.99-.97,1-2.83,2.88-3.68,4.19-.02.04-.09.02-.06-.05.41-1.14.59-3.15.34-4.71-.21-1.33-.79-2.78-.94-4.41,0,0,0,0,0-.02,0-.02-.04-.07-.07-.07,0,0-.02.03-.06.15-.28.95-.63,2.13-.69,3.23-.07,1.33.18,3.04.07,4.4-.13,1.58-.24,3.14-.96,4.57,0,0,0,.02,0,.02-.01.04.03.11.03.11,0,0,0,0,0,0,.58-.37,2.24-1.35,3.33-2.07,1.36-.91,2.57-1.99,3.51-3.35,1.18-1.7,1.86-3.75,1.83-5.83,0-.07,0-.19-.01-.21-.02,0-.08.04-.08.05Zm-3.51.9s-.02.03-.03.03c-.03,0-.05-.03-.05-.04.05-.42.06-.94.03-1.34-.11-1.56-1.06-2.85-1.88-4.15-.43-.68-1.18-1.86-1.49-2.66,0,0-.07-.05-.08-.04,0,.14.02.6.05.9.23,2.23.94,4.42,1.68,6.54.49,1.42.74,2.64.59,4.14-.02.12-.02.14.03.18,0,0,0,0,0,0,.5-.73,1.48-1.75,2.09-2.48.65-.8,3.95-4.55,2.33-9.78-.1-.32-.22-.59-.26-.65-.03,0-.07.07-.07.08,0,3.76-1.81,5.38-2.57,7.96-.14.49-.26.95-.36,1.33Zm-2.84-11.7c-.6-.52-1.49-1.43-2.01-2.23,0,0,0-.01-.01-.01,0,0-.01-.01-.02-.02-.03-.02-.07-.02-.09-.02-.02,0-.04,0-.04,0,.03.16.55,1.82.88,2.59.48,1.12,1.26,2.05,1.99,3.01.05.07.11.14.16.21.73.98,1.9,3.07,2.18,4.15,0,.03.07.06.08.05.1-.38.57-1.87.92-2.88.07-.21.69-2.23.82-3.1.35-2.48-.46-5.69-1.91-7.45-.02,0-.04.07-.04.09.03.08.05.15.07.23.03.11.06.22.09.33.38,1.61.25,2.75.07,4.12-.15,1.09-.36,2.18-.3,3.28,0,.18.12,1.54.11,1.59-.02.06-.07.01-.08-.02,0,0-.18-.5-.35-.92-.07-.18-.15-.35-.21-.47-.58-1.15-1.33-1.75-2.29-2.53Zm-1.59-10.03c.46.45.82.96,1.08,1.55.4.94.52,2.34.77,3.4.16.65.25,1.1.48,1.84.02.06-.05.09-.08.03,0,0-.01-.02-.02-.02-.75-1.01-1.67-1.64-2.99-2.47-.78-.51-1.38-.98-1.95-1.75-.1-.13-.2-.26-.3-.39,0-.01-.07-.03-.09-.02,0,.03.01.09.02.16.17.85.74,2.42,1.71,3.35.7.67,1.49,1.26,2.24,1.88,1.33,1.12,2.31,2.32,2.62,2.72,0,0,.01.02.01.02,0,0,.06.04.06.02,0,0,0-.01,0-.02,0,0,0,0,0,0-.02-.2-.03-.51-.03-.87,0-.82.04-1.91.07-2.66.01-.3.02-.61.02-.91,0-.91-.1-1.81-.49-2.67-.62-1.4-1.54-2.51-2.92-3.19-.08-.04-.19-.08-.26-.1,0,0-.01.04,0,.1,0,0,0,0,0,.01Zm-5.72-2.64c.8.71,1.44,1.55,2.04,2.43.58.84,1.14,1.7,1.93,2.38.52.52,2.02,1.69,2.4,1.98,0,0,.01.01.02.01.01,0,.03,0,.03,0,0,0,0-.01,0-.02-.08-.43-.76-3.6-2.74-5.17-1.07-.92-2.48-1.49-3.86-1.87-.01.03,0,.09,0,.09.07.06.11.1.18.16Zm-31.14,43.28c1.31-.09,2.59-.38,3.86-.72.83-.22,2.43-.57,2.99-.7,0,0,.02,0,.03,0,0,0,0,0,0,0,0-.01-.01-.04-.04-.06,0,0-.04-.02-.06-.03-.72-.19-2.7-.76-4.08-2.08-.88-.82-1.71-1.69-2.59-2.51-.71-.66-2.28-1.99-2.38-2.03-.01.01-.02.07-.02.08.23.31,1.05,2.18,1.56,3.14.73,1.38,1.69,2.49,3.12,3.01,0,0,.02.01.02.02.03.03-.01.08-.11.06,0,0-.02,0-.03,0-1.59-.26-3.16-.33-4.77-.41-1.22-.06-2.49-.15-3.66-.55-.78-.27-1.39-.51-2.33-1.23,0,0-.06-.02-.11,0,0,0,0,0,0,.01,1.06,1.59,2.91,2.91,4.42,3.47,1.32.49,2.74.64,4.17.54Zm-1.24-3.26c.09.02.18.03.32.06,0,0,0,0,0-.01,0-.03-.02-.06-.02-.06,0,0-.07-.08-.09-.09-.97-.96-1.57-2.15-2.03-3.41-.34-.93-.65-1.87-.98-2.81-.46-1.32-1.45-3.44-2.64-4.8,0,0-.01,0-.01,0-.01.02-.04.06-.02.1.4,1.18.42,2.5.59,3.73.49,3.51,2.1,5.17,2.16,5.23.04.05,0,.1-.03.07-.07-.05-.13-.1-.2-.16-1.1-.91-2.21-1.46-3.51-2.06-1.04-.48-1.91-.9-2.85-1.56-1.94-1.33-2.74-2.37-2.78-2.42-.03-.02-.07-.02-.1-.01.13.48.33.91.54,1.35.81,1.68,2.06,3,3.53,4.13,1.47,1.13,3.06,1.77,4.88,2.08,1.09.18,2.17.44,3.25.66Zm-8.98-7.21c1.09.73,2.75,1.7,3.33,2.07,0,0,0,0,0,0,0,0,.04-.07.03-.11,0,0,0-.02,0-.02-.72-1.43-.83-3-.96-4.57-.11-1.37.14-3.07.07-4.4-.06-1.1-.41-2.29-.69-3.23-.04-.13-.05-.15-.06-.15-.02,0-.06.05-.07.07,0,0,0,0,0,.02-.14,1.63-.73,3.08-.94,4.41-.25,1.56-.07,3.57.34,4.71.02.07-.04.08-.06.05-.86-1.31-2.72-3.19-3.68-4.19-1.23-1.3-2.08-2.5-2.54-3.99,0-.01-.07-.06-.08-.05,0,.02-.01.14-.01.21-.03,2.08.65,4.13,1.83,5.83.94,1.36,2.15,2.44,3.51,3.35Zm-.57-4.89s0,0,0,0c.05-.04.05-.05.03-.18-.15-1.5.09-2.72.59-4.14.74-2.12,1.45-4.31,1.68-6.54.03-.3.06-.76.05-.9-.02,0-.08.03-.08.04-.32.8-1.06,1.98-1.49,2.66-.83,1.3-1.77,2.59-1.88,4.15-.03.4-.03.92.03,1.34,0,0-.02.05-.05.04,0,0-.02-.01-.03-.03-.1-.38-.21-.83-.36-1.33-.76-2.58-2.58-4.19-2.57-7.96,0-.02-.05-.08-.07-.08-.04.06-.16.33-.26.65-1.62,5.23,1.67,8.99,2.33,9.78.6.74,1.58,1.75,2.09,2.48Zm-2.36-10.4c.35,1.01.82,2.49.93,2.88,0,.01.07-.02.08-.05.28-1.07,1.45-3.17,2.18-4.15.05-.07.11-.14.16-.21.73-.96,1.5-1.9,1.99-3.01.33-.77.85-2.43.89-2.59,0,0-.02,0-.04,0-.01,0-.05,0-.09.02,0,0-.02.01-.02.02,0,0,0,0-.01.01-.52.8-1.41,1.72-2.01,2.23-.96.78-1.71,1.38-2.29,2.53-.06.12-.14.29-.21.47-.18.41-.35.91-.35.92,0,.03-.06.08-.08.02-.02-.05.1-1.41.11-1.59.06-1.1-.16-2.19-.3-3.28-.18-1.37-.31-2.51.06-4.12.03-.11.06-.22.09-.33.02-.08.04-.15.07-.23,0-.01-.02-.08-.04-.09-1.45,1.76-2.26,4.97-1.91,7.45.12.87.74,2.89.82,3.1Zm2.08-5.45c0,.37,0,.68-.03.87,0,0,0,0,0,0,0,0,0,.01,0,.02,0,.02.06-.02.06-.02,0,0,0,0,.01-.02.31-.4,1.29-1.6,2.62-2.72.75-.62,1.54-1.21,2.24-1.88.97-.93,1.54-2.5,1.71-3.35.01-.07.03-.13.02-.16-.02,0-.08.01-.09.02-.1.13-.2.26-.3.39-.57.77-1.16,1.23-1.95,1.75-1.32.83-2.24,1.46-2.99,2.47,0,0-.01.02-.02.02-.03.06-.1.03-.08-.03.23-.73.32-1.19.48-1.84.26-1.06.37-2.47.77-3.4.25-.59.61-1.1,1.08-1.55,0,0,0,0,.01-.01.02-.06,0-.1,0-.1-.07.02-.18.06-.26.1-1.38.69-2.3,1.8-2.92,3.19-.38.86-.48,1.76-.49,2.67,0,.3,0,.61.02.91.04.75.07,1.85.07,2.66Zm2.86-5.26s.02,0,.03,0c0,0,.01,0,.02-.01.38-.29,1.88-1.46,2.4-1.98.78-.68,1.35-1.53,1.93-2.38.6-.88,1.24-1.72,2.04-2.43.07-.06.11-.1.18-.16,0,0,.02-.07,0-.09-1.37.38-2.79.94-3.86,1.87-1.98,1.57-2.66,4.74-2.74,5.17,0,0,0,.02,0,.02Zm22.34,17.26c.16-.23-.23-.38-.33.02-.09.38.18.21.33-.02Zm4.23-9.78c-.15-.08-.77.68-.67.8.04.05.72-.76.67-.8Zm.13-.13c.09.05.5-.17.43-.23-.08-.06-.56-.28-.57-.15-.01.22.05.33.14.38Zm7.45,6.53c-.19,0-.4.29-.35.29.14,0,.25.11.36.08.21-.05.18-.38-.01-.38Zm-2.7-7.03c-.17,0-.21.19-.05.27.07.04.3,0,.41-.06.11-.07.24-.16.22-.33-.01-.1-.25-.39-.13-.51.14-.12.27.07.41.02.16-.06.15-.16.15-.29,0-.19-.07-.44-.29-.44-.16,0-.45.44-.46.47-.02.05-.07.21,0,.37.1.23.06.5-.25.5Zm3.66.03c0,.1.29.81.32,1,.03.19.09.77.25.71.1-.04.09-.39.07-.53-.06-.4-.14-.75-.29-1.2-.08-.24-.42-1.02-.53-1-.1.02.17.57.21.75.03.12-.01.16-.02.26Zm-1.93-9.43c.18.07.18-.27-.13-.52-.3-.25-.71-.13-.6,0,.1.11.57.46.73.52Zm-8.32-2.39c-.36-.23-.06-.56-.35-.77-.2-.15-.77,0-.91.18-.24.32.32.21.52.3.23.1.71.52.8.43.09-.09-.02-.1-.06-.14Zm2.2-1.11c-.49-.22-2.33-.21-2.28.27.04.41,1.06.02,1.33,0,.27-.02,1.38-.05.95-.27Zm-5.38,21.4c-.02-.09-.18-.08-.14,0,.04.08-.05.17.03.27.11.12.34.1.46,0,.07-.07.02-.21-.03-.24-.09-.04-.29.04-.32-.05Zm-.71-3.66c.15,0,.15-.11.23-.11.09,0,.02.12.17.12s.31-.39-.18-.39c-.4,0-.35.38-.23.39Zm.64.41c-.3-.08-.24.1-.43.12-.31.03-.03-.23-.19-.35-.07-.05-.25.21-.26.38,0,.08-.01.35.12.36.13,0,.82.09,1.05.14.26.06-.01-.57-.29-.64Zm-3.4,3.66c.09,0,.16-.33.1-.5-.06-.16-.36-.04-.39.04-.03.08.19.46.28.46Zm-4.45-.03c.01-.14,0-.56-.1-.64-.1-.08-.09.07-.16.06-.06,0-.05-.2-.12-.2-.07,0,.02.33.1.53.08.19.26.51.28.25Zm-.11-1.02s.18-.75.15-1.01c-.02-.27-.17-.52-.2-.5-.05.02.02.18.03.44.01.39-.17.71-.17.83,0,.12.11.39.19.24Zm-11.89-2.47c0-5.65,2.2-10.96,6.19-14.94,3.99-3.99,9.3-6.19,14.94-6.19s10.96,2.2,14.94,6.19c3.99,3.99,6.19,9.3,6.19,14.94s-2.2,10.96-6.19,14.94c-3.99,3.99-9.3,6.19-14.94,6.19s-10.96-2.2-14.94-6.19c-3.99-3.99-6.19-9.3-6.19-14.94Zm6.51,13.98l2.3-2.3c-.45-.48-.88-.98-1.27-1.5-.18-.07-.36-.17-.48-.32-.2-.24-.3-.6-.39-.6-.09,0,0,.23-.22.26-.28.04-.69-.67-.84-.92-.18-.3-.49-.31-.64-.59-.04-.08-.15-.33-.24-.18-.16.25-.7-.55-.83-.5-.14.06-.02.22-.1.29-.15.14-.61-.62-.78-.54-.16.07-.2.17-.21.37,0,.21.25.74.16.78-.13.06-.79-1.61-.64-1.69.08-.04.07.08.16.02.09-.06-.07-.17-.11-.35-.05-.19-.21-.19-.22-.4-.01-.21.28-.14.28-.24,0-.1.02-.22.11-.29.1-.08.33,0,.38-.29.04-.25.17-.02.19.17.03.22.58.27.61.12.02-.09-.22-.09-.22-.17,0-.16.3,0,.51.01.09,0,.25-.14.46-.03.22.12.36.17.51.2-.5-1.53-.79-3.14-.83-4.82h-3.23c.11,5.09,2.09,9.86,5.6,13.53Zm13.34-18.73s-.21.25-.33.45c.37-.14.76-.23,1.16-.27v-3.24c-1.82.1-3.47.83-4.75,1.97l2.29,2.29c.26-.22.55-.4.86-.56.08-.04.16-.08.24-.11.16-.27.5-.58.53-.53Zm-7.99,12.09c0,.06,0,.13-.02.19.17.21.34.41.52.6l2.29-2.29c-1.08-1.2-1.83-2.69-2.12-4.35-.07.02-.13,0-.17-.06-.05-.08.02-.16.12-.24-.03-.24-.06-.49-.07-.74h-1.53c.02.24.11.59-.05.71-.13.1-.32,0-.44.01-.29.04-.36.39-.28.63.05.16.12.29.09.46-.03.16-.12.29.14.43.24.12.62.61.59.7-.04.11-.28-.1-.29.09,0,.12.35-.03.33.37-.01.24.05.5.12.66.14.34.3.56.29.94-.01.32-.07.66.07.96.14.31.39.55.39.91Zm-1.91-5.45c-.19-.22.12-.83.17-.95.05-.13.33-.29.42-.48h-1.36c.03.71.12,1.41.26,2.09.33.12.95-.15.5-.66Zm-.85,8.74s-.02,0-.03.01c.12.14.25.28.38.41l.26-.26c-.24-.15-.47-.25-.6-.17Zm5.56-16.46l-2.29-2.29c-1.89,2.03-3.07,4.72-3.18,7.67h1.6c.27-.43.18-.76.27-1.01.09-.24.23-.46.36-.67.12-.19.25-.4.5-.41.52,0,.65-.28.98-.43.33-.15.92-.24.85-.41-.05-.12-1.22.34-1.25.25-.04-.16.37-.14.55-.3.03-.03.07-.05.1-.07.38-.86.89-1.65,1.51-2.34Zm-.41,2.14s.06-.03.09-.05c.39-.22.91-.18,1.13-.09.28.12.65.44.81.56.07.05.11-.05.44-.1.14-.02.17.12.37.15.08.01.15.01.21.01l-1.99-1.99c-.41.46-.76.96-1.05,1.5Zm-2.24,2.46c-.25-.03-.51.08-.65.3-.1.15-.12.32-.09.48h1.16c.01-.22.03-.44.06-.65-.15-.08-.33-.12-.48-.13Zm3.3,6.43l2.29-2.29c-.19-.23-.35-.47-.49-.73,0,0,0,0,0,0-.04.04-.07.08-.08.12-.05.1.01.44-.13.59-.18.19-.67-.42-.83-.47-.21-.07-.31.17-.3.23.03.17,0,.24-.08.26-.08.01-.46-.25-.29-.31.2-.08-.05-.25-.14-.31-.15-.11-.38,0-.49-.16-.12-.16-.34-.28-.4-.3-.05-.01-.27-.11-.42-.03-.12.06-.24-.06-.33-.15-.05-.05-.1-.1-.15-.15.27,1.4.92,2.68,1.84,3.7Zm2.29-3.96s0-.04,0-.06c0,0,0-.01,0-.02,0-.02,0-.03,0-.05,0,0,0-.01,0-.02,0,0,0-.02,0-.03,0,0,0-.01,0-.02,0,0,0-.01,0-.02,0-.02,0-.04.01-.06h0s0-.04.01-.06c0,0,0-.01,0-.02,0-.01,0-.02.01-.04,0,0,0-.01,0-.02,0-.01,0-.02.01-.03,0,0,0,0,0-.01,0-.01.02-.03.02-.04.03-.04.07-.04.12-.04.08.01.18.06.28.07.07,0,.14-.02.2-.09.03-.04.05-.08.07-.12.02-.04.03-.08.03-.11,0-.02,0-.03,0-.04-.02-.03-.06-.05-.16-.01-.02,0-.04.01-.06.02-.04.01-.08.02-.11.02-.02,0-.04,0-.05,0-.05,0-.1-.03-.13-.08-.01-.02-.02-.03-.03-.05-.01-.03-.02-.05-.04-.07-.06-.08-.14-.12-.23-.18-.04-.03-.09-.05-.13-.09-.02-.02-.04-.04-.06-.06-.02-.02-.03-.04-.05-.05,0,0-.01-.01-.02-.02-.01-.01-.02-.02-.03-.03,0,0-.02-.01-.02-.02,0,0-.02-.01-.03-.02,0,0-.02-.01-.03-.02,0,0-.02-.01-.02-.02-.01,0-.02-.01-.03-.02,0,0-.01,0-.02-.01-.01,0-.02-.01-.04-.02,0,0-.01,0-.02,0-.01,0-.03,0-.04-.01,0,0,0,0,0,0-.11-.02-.22,0-.33.11,0,0,0,0,0,0-.02.02-.03.04-.05.06,0,0,0,0,0,0-.02.02-.03.04-.05.07,0,0,0,0,0,0-.02.03-.03.06-.05.09-.04.06-.07.14-.1.22-.26.69-.57.48-.52.72,0,.03.08.05.19.06.04,0,.09,0,.14,0s.11,0,.16,0c.06,0,.11,0,.17-.01.03,0,.05,0,.08-.01.02,0,.03,0,.05,0,.01,0,.03,0,.04,0,.01,0,.03,0,.04,0,.02,0,.03,0,.05-.01,0,0,.02,0,.03,0,.02,0,.05-.02.07-.03.04-.02.07-.03.11-.04,0,0,0,0,0,0,.03-.01.07-.02.1-.03.07-.01.13-.01.18,0,.04.01.11.04.16.12.04.06.09.17.1.26Zm3.09-9.95v-3.24c-2.96.11-5.64,1.3-7.67,3.18l2.29,2.29c1.44-1.3,3.32-2.13,5.39-2.24Zm0-4.14v-3.24c-4.1.11-7.81,1.77-10.6,4.4l2.29,2.29c2.19-2.05,5.11-3.34,8.31-3.45Zm-11.24,1.8c-2.63,2.78-4.28,6.5-4.4,10.6h3.23c.11-3.2,1.4-6.12,3.45-8.31l-2.29-2.29Zm-4.4,11.5c.05,1.68.35,3.29.87,4.8.02,0,.04,0,.06,0,.33-.02.77,0,.97-.16.32-.25.02-1.12.22-1.49.25-.45.86-1.53,1.05-1.53.16,0,.16.12.24.14-.1-.57-.16-1.16-.18-1.75h-3.24Zm15.63,16.54c-4.35-.11-8.29-1.87-11.24-4.66l-2.3,2.3c3.67,3.51,8.44,5.49,13.53,5.6v-3.23Zm0-4.14c-2.87-.1-5.57-1.13-7.76-2.95.05.06.09.12.13.17.15.26.67.78.34.99-.27.17-.73.06-.98.05-.28,0-.69.41-.93.46-.31.05-.48.03-.77-.09-.07-.03-.16-.08-.26-.16l-.36.36c2.78,2.63,6.5,4.28,10.6,4.4v-3.23Zm0-1.14c-.46.03-1.14.02-1.31-.09-.34-.24-.74-.47-.79-.65-.08-.32-.52-.57-.52-.87,0-.34.47-.45.34-.79-.1-.27.17-.61.65-.85-1.42-.35-2.7-1.05-3.76-1.99l-2.29,2.29c2.11,1.96,4.8,3.07,7.68,3.18v-.23Zm.7-4.32c.34-.06.71-.16,1.02-.19.34-.03-.01.45.19.47.24.02,1.23.19,1.3-.03.06-.18.07-.27.28-.31.4-.09.72-.07,1.06-.33.12-.09.38-.13.45-.27.07-.14-.05-.8-.3-.69-.12.05-.26.22-.52.35-.23.12-.39.17-.56-.05-.15-.2.09-.36.21-.49.19-.21.36-.42.57-.42.08,0,.52-.22.48-.41-.05-.26-.55.02-.67-.08-.08-.07,0-.26-.06-.29-.06-.03-.25.23-.1.37.07.07-.12.27-.34.13-.17-.11-.21.51-.2.62.01.11.25.08.09.29-.16.2-.21.05-.33.15-.14.12-.17.17,0,.34.14.14-.08.41-.13.16-.03-.17-.38-.12-.45-.3-.07-.19-.35-.17-.69-.35-.26-.13-.23.26.21.36.37.09.35.13.25.36-.09.19-.07-.15-.52-.27-.29-.08-.3-.23-.52-.23-.23,0-.15.22-.39.16-.18-.04-.21.2-.38.27-.2.09-.19.46-.4.56-.31.15-.94.04-.92-.27.03-.31.04-.54.22-.64.16-.09.41.18.63.08.23-.1.17-.34.03-.5-.04-.05-.21-.14-.2-.19,0-.06.33-.09.49-.2.16-.11.34-.4.42-.47.09-.07.27-.09.28-.15.02-.08-.12-.23-.11-.33s.05-.18.13-.17c.08,0,.17.23.12.29-.06.06.04.17.15.12.11-.04.49-.19.6-.22.15-.04-.04-.38.01-.44.05-.06.09.02.15-.04.06-.06-.12-.12-.09-.24.02-.09.42-.2.31-.27-.11-.07-.26.13-.34.17-.2.09-.29-.13-.29-.29,0-.08.11-.36.02-.42-.13-.08-.15.26-.17.33-.03.1-.12.23.03.5.08.15.04.64-.11.7-.16.06-.23-.25-.31-.38-.01-.02-.03-.04-.04-.05,0,0,0,0,0,0,0,0-.01,0-.02,0h0s-.01,0-.02.01c0,0,0,0,0,0,0,0-.01.02-.02.03-.01.02-.03.05-.05.08-.01.02-.04.07-.07.16-.02.06-.05.09-.12.1-.17.02-.33.03-.5.03-.07,0-.13,0-.2,0,.03.1.06.21.09.28.09.17.26.31.23.43-.03.13-.55.24-.6.15-.05-.11.13-.34.12-.45-.03-.19-.12-.3-.11-.43-.92-.09-1.77-.46-2.45-1.02l-2.29,2.29c1.13,1.01,2.55,1.69,4.12,1.91.22-.14.31-.38.49-.25.28.21.61-.07.84-.11Zm.2,5.46v3.24c1.31-.04,2.58-.23,3.8-.56-.25-.21-.37-.56-.68-.67-.54-.18-.68-.52-.39-1,.16-.26.1-.36-.09-.64-.22-.34-.51-.49-.72-.58-.62.12-1.26.19-1.91.21Zm1.55-1.06c-.11-.11-.32-.12-.47-.08-.53.14-.35-.28-1.08-.17v.41c.53-.02,1.05-.08,1.55-.16Zm11.98,2.84l-2.3-2.3c-1.18,1.12-2.53,2.08-4,2.83-.48.36-1.07.63-1.52.83-.19.08-.39.2-.6.2-.07,0-.13-.02-.19-.06-1.56.52-3.21.82-4.93.87v3.23c5.09-.11,9.86-2.09,13.53-5.6Zm-4.53-23.39s-.01.03-.03.04c.53.58,1.01,1.2,1.43,1.86.05-.06.09-.12.16-.04.11.13-.12.37.22.31.2-.04.16.22,0,.36.1.19.21.38.3.57.12.05.21.12.23.2.05.23.16.48.18.73.16.41.3.82.42,1.25.17-.14.35-.06.37.17s-.06.5-.16.71c.14.7.24,1.42.26,2.15h3.23c-.06-2.09-.53-4.17-1.37-6.07-.06.05-.15.06-.26.19-.16.21-.43-.05-.57-.23-.27-.33-.91-1.28-1.2-1.32-.24-.04-.42-.35-.67-.4-.25-.05-.57-.19-.61-.46-.04-.27-.14-.39-.42-.43-.32-.05-.54-.17-.76-.41l-.77.77s0,.03,0,.04Zm2.05,19.64l.18.18c2.63-2.78,4.28-6.5,4.4-10.6h-3.23c-.11,3.21-1.4,6.12-3.45,8.31l1.17,1.17s.02-.03.02-.05c.1-.2.06-.47.07-.66,0-.12.46-.09.49.11.03.17.12.3.27.72.11.31.16.59.09.82Zm-2.46,2.02c-.09.21-.52.58-.44.7.87-.56,1.69-1.19,2.44-1.9l-2.29-2.29c-.16.15-.32.29-.49.43-.04.26,0,.47.32.57.35.11.93.46.8.8-.14.31-.48.77-.64,1.07-.14.26.4.37.3.62Zm.53-13.38s-.01.03-.02.04h2.38c-.01-.34-.04-.68-.08-1.02-.02.04-.04.07-.06.11-.18.37-.2.15-.19-.01.02-.21.1-.4.17-.61-.02-.11-.04-.22-.06-.33-.07.1-.17.17-.34.25-.11.05-.2.3-.24.4-.05.11-.31-.03-.52.08-.38.18-.76.21-.49.6.18.25-.42.18-.55.5Zm-.83-7.63l-2.29,2.29c.39.44.74.91,1.04,1.42.27.04.64.15.87.45.17.22.65.65.58.84-.05.12.06.27.17.34.17.12.29.12.38,0,.17-.22.19-.51.42-.69.27-.23.83.43.83.55,0,.12-.15.15-.19.36-.06.29-.3.63-.02.73.41.14.46-.02.66-.31.09-.13.07-.35.17-.48.06-.08.15-.12.24-.17-.15-.64-.36-1.26-.61-1.86-.06-.06-.13-.11-.22-.14-.15-.05-.06-.18-.26-.24-.22-.07-.31-.13-.33-.52-.02-.31.26.1.33.05.01-.01.03-.03.04-.05-.49-.93-1.11-1.79-1.82-2.56Zm-2.77,3.1c-.11,0-.2-.02-.28-.05l-.76.76c.14.04.3-.01.49.07.2.09.1-.56.41-.5.31.06.39.26.13.36-.21.07.05.24-.2.33-.23.08.19.28.18.37,0,.12-.31.17.15.31.46.14,0-.39.07-.47.09-.09.33.14.4.04.03-.04.07-.1.13-.18-.22-.36-.46-.71-.73-1.03Zm-1.18,12.01c0,.16-.15.03-.2.09-.05.05,1.27.67,1.48.71.14.02.41.12.89.03.32-.06.41.08.56.08.21,0,.35-.3.47-.47.33-.47.27-.53.35-.6.11-.09.43.62.39,1.07,0,.07-.02.14-.03.2l.03.03c1.89-2.03,3.07-4.72,3.18-7.67h-2.46c.08.14.23.32.39.64.12.26.2.66.41.68.34.03.68.31.69.54.02.49-1.5.61-1.7.55-.17-.05-.28-.06-.29.2-.01.3-.55.3-.76.48-.24.2-.26.57-.42.82-.1.15-.66.68-.81.79-.37.26-1.05.27-.74.44.22.12.73.16.67.04-.07-.14.04-.15.12-.04.07.08.31-.08.3-.24,0-.15-.04-.38.1-.39.22-.01.45-.26.56-.23.12.03.29.3.17,1.14-.12.84-.52,1.42-.68,1.68-.17.28-.34.07-.58-.05-.29-.15-.74-.14-1.05-.25-.16-.05-1.06-.39-1.06-.27Zm15.41-6.54h-3.23c-.11,4.35-1.87,8.29-4.66,11.24l2.3,2.3c3.51-3.67,5.49-8.44,5.6-13.53Zm-5.6-14.43l-2.4,2.4c.22.38.63.86,1.21,1.46.24.24.49.48.7.7.2.21,1.51,1.83,1.26,2.07-.02.02-.04.03-.06.05,1.02,2.13,1.58,4.49,1.64,6.87h3.23c-.11-5.09-2.09-9.86-5.6-13.53Zm-14.17-3.01c2.7.07,5.3.77,7.62,2.02.22-.03.43-.06.57-.13.29-.13.85.17,1.13.33.25.14.44.36.72.51.28.16.73.61.83,1.06.1.46.39.42.24.61-.07.09.04.13.18.21l2.25-2.25c-3.67-3.51-8.44-5.49-13.53-5.6v3.23Zm0,4.14c2.74.1,5.27,1.06,7.32,2.62-.23-.31-.47-.62-.57-.74-.2-.21-.94-.47-.87-.59.07-.12.73.41.85.31.14-.11-.33-.72-.3-.74.05-.03.61.51.88.99.11.17.42.08.65.25.21.15.22.38.4.53.03.02.4.24.18.21-.06,0-.16-.14-.23-.07-.04.04.03.27.15.52l1.07-1.07c-.16-.32-.46-.73-.68-.79-.22-.05-.36.13-.51.26-.15.13-.34.17-.37.08-.03-.1.03-.33.02-.43-.02-.12-.11-.22-.14-.34-.08-.28.04-.59-.13-.78-.19-.2-.31-.51-.46-.75-.16-.26-.45-.65-.47-.99-2.09-1.06-4.41-1.65-6.81-1.71v3.24Zm0,4.14c2.06.11,3.94.93,5.39,2.24l2.29-2.29c-2.03-1.89-4.72-3.07-7.67-3.18v3.24Zm0,4.15c.31.03.61.09.91.18.08-.19.27-.28.43-.39.19-.13.32-.27.3.07-.02.24-.13.39-.25.49.32.14.62.31.9.52.06.05.12.09.18.14l.31-.31s0-.02,0-.03c0-.18.26-.39.56-.52l1.01-1.01s-.05,0-.08-.01c-.14-.02-.33.26-.46.19-.15-.09.45-.61.71-.51.04.01.08.03.12.05l.13-.13c-1.28-1.14-2.93-1.87-4.75-1.97v3.24Zm-.45.88c-.38,0-.75.06-1.1.17-.05.05-.08.09-.06.13.09.13.36-.14.4.11.03.18-.3.05-.27.18.02.11.25.06.26.21,0,.14-.14.4-.25.47-.15.09-.92.2-.99.38-.06.16-.13.3-.25.43-.13.14-.75.51-.76.6,0,.23.3-.06.38-.15.13-.14.32-.14.52-.25.28-.16.38.39.09.41-.18.01-.34.53-.63.43-.07-.03-.28-.15-.32-.02-.05.14.43.16.58.26.38.25-.29.23-.4.3-.11.07-.05.21.09.15.14-.06.33-.2.42.03.12.32-.53,1.49-.72,1.37-.1-.07-.21.03-.3.07.13.27.29.51.48.74.13-.21.33-.51.41-.51.12,0,.08-.1.12-.18.06-.1.2,0,.21-.13,0-.14.37-.34.41-.54.02-.11-.11-.22-.06-.31.07-.11.11-.13.19-.15.07-.02.24.14.29.07.05-.07.3-.02.49.1.09.06.26,0,.36.14.14.2,0,.22.02.27.03.05.09-.03.13.01.08.08-.38.35-.32.49.05.15-.39.87-.51.98-.17.15-.44-.02-.55.01-.12.03-.14.13-.32.09-.14-.03-.3.02-.46.1.65.57,1.5.92,2.42.92.2,0,.4-.02.59-.05.12-.15.17-.34.19-.53.01-.1,0-.24.05-.33.05-.08.35-.45.47-.44.11,0,.18.1.33.05.29-.09.48-.01.48.11,0,.18-.37.13-.35.23,0,.07.28.18.37.07.17-.19.14-.43.1-.49-.12-.15-.11-.21.06-.15.1.04.1-.38.2-.53.14-.21-.25-.06-.41-.04-.15.02-.28-.3-.28-.42,0-.08.29.29.43.3.17,0,.36-.18.36-.33,0-.14-.32-.16-.36-.33-.03-.09.26,0,.24-.09-.02-.08.03-.28-.15-.35-.18-.08-.35-.65-.49-.69-.13-.03-.23.14-.31.2-.08.06-.2-.05-.14-.11.09-.09.31-.27.35-.42.07-.24.39.01.33-.33-.06-.37-.37-.3-.23-.48.15-.18.04-.47-.27-.42-.14.03-.29-.2-.3-.4,0-.11-.32-.09-.31-.21.02-.24-.33-.26-.54-.24-.22.02-.63-.32-.68-.4-.05-.08-.35.07-.25-.24.1-.31.39.06.52-.03.13-.1.09-.19.07-.27-.02,0-.05,0-.07,0Zm-13.98-10.94l2.3,2.3c2.95-2.8,6.89-4.55,11.24-4.66V.91c-5.09.11-9.86,2.09-13.53,5.6Zm-6.24,14.17h3.23c.11-4.35,1.87-8.29,4.66-11.24l-2.3-2.3c-3.51,3.67-5.49,8.44-5.6,13.53Z"/>
  <g>
    <path class="cls-1" d="m132.74,63.13c0-1.92,1.55-3.38,3.38-3.38h4.84v-8.22c0-2.1,1.64-3.65,3.65-3.65s3.65,1.55,3.65,3.65v8.22h12.05c1.83,0,3.38,1.46,3.38,3.38s-1.55,3.38-3.38,3.38h-12.05v20.64c0,8.49,4.84,13.06,12.05,13.06,1.83,0,3.38,1.55,3.38,3.38,0,1.92-1.55,3.47-3.38,3.47-11.32,0-19.36-7.67-19.36-19.91v-20.64h-4.84c-1.83,0-3.38-1.55-3.38-3.38Z"/>
    <path class="cls-1" d="m205.28,99.93c-4.29,4.57-10.23,7.31-17.08,7.31-13.42,0-23.65-10.68-23.65-24.2s10.23-24.2,23.65-24.2c6.85,0,12.78,2.83,17.08,7.3v-3.47c0-2.01,1.64-3.65,3.65-3.65s3.65,1.65,3.65,3.65v40.64c0,2.1-1.55,3.74-3.65,3.74s-3.65-1.64-3.65-3.74v-3.38Zm0-16.16v-1.46c-.37-9.5-7.58-16.71-16.62-16.71s-16.71,7.58-16.71,17.44,7.4,17.44,16.71,17.44,16.25-7.21,16.62-16.71Z"/>
    <path class="cls-1" d="m221.61,78.56c0-11.78,7.49-19.72,18.81-19.72,1.82,0,3.38,1.46,3.38,3.38s-1.55,3.38-3.38,3.38c-6.76,0-11.51,4.47-11.51,12.97v24.75c0,2.1-1.64,3.74-3.65,3.74s-3.65-1.64-3.65-3.74v-24.75Z"/>
    <path class="cls-1" d="m15.89,65.03c0-3.56,2.83-6.4,6.39-6.4s6.39,2.83,6.39,6.4v21.01c0,5.94,3.65,9.14,8.22,9.14s8.22-3.2,8.22-9.14v-21.01c0-3.56,2.83-6.4,6.39-6.4s6.39,2.83,6.39,6.4v20.55c0,12.88-9.23,21.47-21.01,21.47s-21.01-8.59-21.01-21.47v-20.55Z"/>
    <path class="cls-1" d="m65.28,80.1c0-12.88,9.23-21.47,21.01-21.47s21.01,8.59,21.01,21.47v20.55c0,3.56-2.83,6.4-6.39,6.4s-6.39-2.83-6.39-6.4v-21.01c0-5.94-3.65-9.14-8.22-9.14s-8.22,3.2-8.22,9.14v21.01c0,3.56-2.83,6.4-6.39,6.4s-6.39-2.83-6.39-6.4v-20.55Z"/>
  </g>
  <rect class="cls-1" x="0" y="1.84" width="1" height="144.15"/>
</svg>